<svg width="46" height="46" viewBox="0 0 46 46" fill="none" xmlns="../../../../../external.html?link=http://www.w3.org/2000/svg">
<g clip-path="url(#clip0_753_153)">
<path d="M6.3005 40.7078L6.29224 40.7016C5.89836 40.3999 5.3345 40.4745 5.03263 40.8685C4.73093 41.2624 4.80568 41.8263 5.19947 42.1281L5.20773 42.1344C5.37071 42.2593 5.5628 42.3196 5.75344 42.3196C6.02342 42.3196 6.29044 42.1984 6.46725 41.9675C6.76913 41.5735 6.69438 41.0096 6.3005 40.7078Z" fill="#4AA760"/>
<path d="M6.3005 33.3407L6.29224 33.3344C5.89836 33.0328 5.3345 33.1073 5.03263 33.5013C4.73093 33.8952 4.80568 34.4591 5.19947 34.7609L5.20773 34.7672C5.37071 34.8921 5.5628 34.9525 5.75344 34.9525C6.02342 34.9525 6.29044 34.8312 6.46725 34.6003C6.76913 34.2063 6.69438 33.6424 6.3005 33.3407Z" fill="#4AA760"/>
<path d="M6.3005 25.9735L6.29224 25.9672C5.89836 25.6656 5.3345 25.7401 5.03263 26.1341C4.73093 26.528 4.80568 27.0919 5.19947 27.3937L5.20773 27.4C5.37071 27.5249 5.5628 27.5853 5.75344 27.5853C6.02342 27.5853 6.29044 27.464 6.46725 27.2331C6.76913 26.8391 6.69438 26.2753 6.3005 25.9735Z" fill="#4AA760"/>
<path d="M40.7925 40.705L40.7842 40.6988C40.3887 40.399 39.8252 40.4767 39.5255 40.8722C39.2258 41.2676 39.3034 41.8311 39.6989 42.1309L39.7072 42.1372C39.8696 42.2602 40.0601 42.3196 40.2492 42.3196C40.5208 42.3196 40.7892 42.197 40.9659 41.9638C41.2657 41.5684 41.1879 41.0048 40.7925 40.705Z" fill="#4AA760"/>
<path d="M40.7927 33.3379L40.7844 33.3317C40.3889 33.0319 39.8254 33.1096 39.5257 33.5051C39.226 33.9004 39.3037 34.464 39.6991 34.7637L39.7074 34.77C39.8698 34.893 40.0603 34.9524 40.2493 34.9524C40.5209 34.9524 40.7894 34.8298 40.9661 34.5967C41.2658 34.2013 41.1882 33.6377 40.7927 33.3379Z" fill="#4AA760"/>
<path d="M40.7928 25.9708L40.7844 25.9645C40.3889 25.6648 39.8254 25.7424 39.5257 26.1379C39.226 26.5334 39.3037 27.0968 39.6991 27.3965L39.7074 27.4028C39.8698 27.5258 40.0604 27.5853 40.2494 27.5853C40.521 27.5853 40.7894 27.4626 40.9662 27.2295C41.2659 26.8341 41.1883 26.2705 40.7928 25.9708Z" fill="#4AA760"/>
<path d="M33.1948 29.4688H33.1831C32.687 29.4688 32.2847 29.871 32.2847 30.3672C32.2847 30.8634 32.6869 31.2656 33.1831 31.2656H33.1948C33.6909 31.2656 34.0932 30.8634 34.0932 30.3672C34.0932 29.871 33.6909 29.4688 33.1948 29.4688Z" fill="#4AA760"/>
<path d="M12.8169 36.8359H12.8052C12.3091 36.8359 11.9067 37.2382 11.9067 37.7344C11.9067 38.2306 12.3091 38.6328 12.8052 38.6328H12.8169C13.313 38.6328 13.7153 38.2306 13.7153 37.7344C13.7153 37.2382 13.3131 36.8359 12.8169 36.8359Z" fill="#4AA760"/>
<path d="M7.25849 16.6382C7.09138 16.471 6.85958 16.3749 6.62329 16.3749C6.387 16.3749 6.15521 16.471 5.9881 16.6382C5.82108 16.8053 5.72485 17.0371 5.72485 17.2742C5.72485 17.5105 5.82099 17.7414 5.9881 17.9085C6.15521 18.0765 6.38619 18.1718 6.62329 18.1718C6.85958 18.1718 7.09138 18.0765 7.25849 17.9085C7.42551 17.7414 7.52173 17.5105 7.52173 17.2742C7.52173 17.0371 7.4256 16.8062 7.25849 16.6382Z" fill="#4AA760"/>
<path d="M45.1016 22.1016H41.37C42.9757 21.178 44.06 19.4461 44.06 17.4646C44.06 15.4076 42.8929 13.5765 41.1149 12.6855C41.4217 12.0036 41.5808 11.263 41.5808 10.498C41.5808 7.54984 39.1823 5.15128 36.2341 5.15128C35.3046 5.15128 34.4119 5.38577 33.6163 5.83454C32.5725 5.0989 31.3243 4.70009 30.0357 4.70009C29.9482 4.70009 29.8615 4.70314 29.7749 4.70673C28.8257 1.93973 26.1789 0.0043125 23.1979 0.0043125C20.5098 0.0043125 18.0774 1.56121 16.9313 3.94684C16.7163 3.92689 16.5003 3.91683 16.2845 3.91683C13.4594 3.91683 10.9502 5.62287 9.87895 8.1668C9.68884 8.10876 9.49541 8.05809 9.2991 8.01415C9.40206 6.86586 9.76628 5.98557 10.3877 5.39368C10.929 4.87807 11.4728 4.77124 11.4957 4.76693L11.4832 4.769L11.483 4.76801C11.6729 4.74007 11.8527 4.65247 11.9892 4.51537C12.1562 4.34826 12.2524 4.11736 12.2524 3.88107C12.2524 3.64388 12.1563 3.41298 11.9892 3.24498C11.8221 3.07787 11.5903 2.98173 11.354 2.98173C11.3036 2.98173 11.2536 2.98704 11.2041 2.99548L11.2039 2.99395C10.6704 3.07796 9.94076 3.37696 9.26783 3.98448V0.898438C9.26783 0.402231 8.86551 0 8.36939 0H6.21314C5.71703 0 5.31471 0.402231 5.31471 0.898438V4.25778C4.28114 2.99108 3.16537 2.25059 3.07886 2.19407C2.66387 1.92338 2.10881 2.04035 1.83739 2.45471C1.56589 2.86916 1.68187 3.42574 2.0957 3.69806C2.12543 3.71755 4.84366 5.53779 5.2475 8.15629C2.20728 9.06955 0 11.7416 0 14.8884C0 16.1958 0.745613 19.3351 1.47739 22.1016H0.898438C0.40232 22.1016 0 22.5038 0 23V45.1016C0 45.5978 0.40232 46 0.898438 46H45.1016C45.5977 46 46 45.5978 46 45.1016V23C46 22.5038 45.5977 22.1016 45.1016 22.1016ZM16.2845 5.7137C16.6302 5.7137 16.9762 5.74829 17.3134 5.81657C17.7522 5.90534 18.1893 5.65782 18.3386 5.23573C19.0657 3.18146 21.0185 1.80119 23.1979 1.80119C25.3218 1.80119 27.2173 3.12539 27.9866 5.04832C25.5598 5.89743 23.8138 8.20884 23.8138 10.9218C23.8138 11.418 24.2161 11.8202 24.7122 11.8202C25.2084 11.8202 25.6107 11.418 25.6107 10.9218C25.6107 8.48188 27.5957 6.49696 30.0356 6.49696C31.1176 6.49696 32.1596 6.89254 32.9694 7.61093C33.2888 7.89421 33.7636 7.91353 34.105 7.65729C34.7229 7.19334 35.4591 6.94816 36.2339 6.94816C38.1912 6.94816 39.7837 8.54064 39.7837 10.498C39.7837 11.2675 39.5416 11.9996 39.0833 12.6151C38.9041 12.8557 38.8569 13.1701 38.9576 13.4528C39.0583 13.7356 39.2933 13.9494 39.5844 14.0228C41.1616 14.4205 42.263 15.8358 42.263 17.4646C42.263 19.422 40.6706 21.0145 38.7132 21.0145C38.4902 21.0145 38.2638 20.9927 38.0402 20.9499C37.6047 20.8661 37.1736 21.113 37.0246 21.5306C36.9543 21.728 36.8652 21.9191 36.7606 22.1016H35.6264L39.3054 16.8277C39.4437 16.6295 39.4962 16.3839 39.4512 16.1464C39.4062 15.909 39.2674 15.6997 39.0662 15.5658L36.4468 13.8226C36.2428 13.6868 35.9919 13.6402 35.7529 13.6938C35.5137 13.7474 35.3067 13.8962 35.18 14.1061L33.8702 16.2749L34.9424 10.8511C35.038 10.367 34.7253 9.89629 34.242 9.79692L31.9559 9.32677C31.7197 9.27807 31.4737 9.32659 31.2735 9.46118C31.0734 9.59576 30.9357 9.80519 30.8916 10.0423L30.5983 11.6177H28.5016C28.0055 11.6177 27.6031 12.0199 27.6031 12.5161V17.6861C27.006 14.6288 24.3083 12.314 21.079 12.314C19.6238 12.314 18.2416 12.7757 17.0821 13.6492C16.1259 14.3695 15.3749 15.3499 14.923 16.4521C15.0374 15.7774 15.0938 15.2599 15.0938 14.8885C15.0938 13.6701 14.7629 12.5227 14.181 11.5209C14.6531 10.2366 15.8802 9.36414 17.2683 9.36414C17.4889 9.36414 17.7099 9.38634 17.9254 9.43C18.3644 9.5193 18.8021 9.27107 18.9512 8.84853C19.144 8.30246 19.4795 7.81398 19.9215 7.43592C20.2985 7.11338 20.3427 6.5462 20.0202 6.16912C19.6977 5.79205 19.1306 5.74793 18.7534 6.07038C18.2598 6.49265 17.8522 7.00458 17.5519 7.57518C17.4574 7.56988 17.3628 7.56727 17.2684 7.56727C15.4802 7.56727 13.8648 8.50344 12.9534 9.96358C12.5266 9.55273 12.0476 9.19021 11.5257 8.88564C12.3145 6.98796 14.1815 5.7137 16.2845 5.7137ZM32.8489 21.4417L36.2329 15.8386L37.3063 16.5529L33.4356 22.1016H32.7184L32.8489 21.4417ZM31.725 17.8607V15.366C31.7298 15.3471 31.735 15.3284 31.7386 15.309L32.4905 11.2711L33.0066 11.3773L31.725 17.8607ZM29.3936 20.543C29.3974 20.509 29.4 20.4745 29.4 20.4395V13.4145H29.9282V22.1016H29.6447C29.6471 22.0453 29.6484 21.989 29.6484 21.9325C29.6484 21.4427 29.5575 20.9745 29.3936 20.543ZM17.0703 16.3516C17.0437 16.3516 17.0176 16.3533 16.991 16.3535C17.8694 14.9897 19.4086 14.1108 21.0789 14.1108C23.4527 14.1108 25.4325 15.8251 25.8487 18.0804C24.6055 18.0892 23.5038 18.7148 22.8221 19.6719C21.6702 17.6889 19.5242 16.3516 17.0703 16.3516ZM21.8372 22.1016H12.4449H12.3036C12.7263 19.8544 14.7023 18.1484 17.0704 18.1484C19.4385 18.1484 21.4144 19.8544 21.8372 22.1016ZM25.875 19.8767C26.9649 19.8767 27.8516 20.7989 27.8516 21.9325C27.8516 21.9892 27.8489 22.0455 27.8445 22.1016H23.9054C23.901 22.0455 23.8983 21.9892 23.8983 21.9325C23.8984 20.7989 24.7851 19.8767 25.875 19.8767ZM7.11158 1.79688H7.47096V7.82153C7.35048 7.8227 7.23062 7.82593 7.11158 7.83231V1.79688ZM1.85051 14.1782C1.90657 14.1892 1.96443 14.1953 2.02364 14.1953H6.46534C6.96145 14.1953 7.36377 13.7931 7.36377 13.2969C7.36377 12.8007 6.96145 12.3984 6.46534 12.3984H2.48023C3.45144 10.744 5.35801 9.61661 7.54688 9.61661C10.7175 9.61661 13.2969 11.9815 13.2969 14.8884C13.2969 15.1228 13.2594 15.5553 13.1166 16.3516H9.54814C9.05203 16.3516 8.64971 16.7538 8.64971 17.25C8.64971 17.7462 9.05203 18.1484 9.54814 18.1484H12.5315C11.4414 19.169 10.6949 20.5509 10.4843 22.1016H3.33689C2.35534 18.4372 1.79688 15.8262 1.79688 14.8884C1.79688 14.6475 1.81619 14.4108 1.85051 14.1782ZM44.2031 29.4688H36.2969C35.8008 29.4688 35.3984 29.871 35.3984 30.3672C35.3984 30.8634 35.8008 31.2656 36.2969 31.2656H44.2031V36.8359H15.8669C15.3708 36.8359 14.9685 37.2382 14.9685 37.7344C14.9685 38.2306 15.3708 38.6328 15.8669 38.6328H44.2031V44.2031H1.79688V38.6328H9.70312C10.1992 38.6328 10.6016 38.2306 10.6016 37.7344C10.6016 37.2382 10.1992 36.8359 9.70312 36.8359H1.79688V31.2656H30.1331C30.6292 31.2656 31.0315 30.8634 31.0315 30.3672C31.0315 29.871 30.6292 29.4688 30.1331 29.4688H1.79688V23.8984H2.64886H44.2031V29.4688Z" fill="#4AA760"/>
<path d="M22.0536 4.85156H22.0417C21.5456 4.85156 21.1433 5.25379 21.1433 5.75C21.1433 6.24621 21.5456 6.64844 22.0417 6.64844H22.0536C22.5497 6.64844 22.952 6.24621 22.952 5.75C22.952 5.25379 22.5497 4.85156 22.0536 4.85156Z" fill="#4AA760"/>
</g>
<defs>
<clipPath id="clip0_753_153">
<rect width="46" height="46" fill="white"/>
</clipPath>
</defs>
</svg>
