<svg width="50" height="50" viewBox="0 0 50 50" fill="none" xmlns="../../../../../external.html?link=http://www.w3.org/2000/svg">
<g clip-path="url(#clip0_1049_12587)">
<path d="M6.84837 44.2477L6.83938 44.2408C6.41126 43.913 5.79837 43.994 5.47024 44.4223C5.14231 44.8504 5.22356 45.4634 5.65159 45.7914L5.66057 45.7982C5.83772 45.934 6.04651 45.9996 6.25374 45.9996C6.5472 45.9996 6.83743 45.8678 7.02962 45.6168C7.35774 45.1886 7.27649 44.5757 6.84837 44.2477Z" fill="#4AA760"/>
<path d="M6.84837 36.2398L6.83938 36.233C6.41126 35.9052 5.79837 35.9862 5.47024 36.4145C5.14231 36.8426 5.22356 37.4556 5.65159 37.7836L5.66057 37.7904C5.83772 37.9262 6.04651 37.9918 6.25374 37.9918C6.5472 37.9918 6.83743 37.86 7.02962 37.609C7.35774 37.1808 7.27649 36.5679 6.84837 36.2398Z" fill="#4AA760"/>
<path d="M6.84837 28.232L6.83938 28.2252C6.41126 27.8974 5.79837 27.9784 5.47024 28.4066C5.14231 28.8348 5.22356 29.4478 5.65159 29.7758L5.66057 29.7826C5.83772 29.9184 6.04651 29.984 6.25374 29.984C6.5472 29.984 6.83743 29.8522 7.02962 29.6012C7.35774 29.173 7.27649 28.5601 6.84837 28.232Z" fill="#4AA760"/>
<path d="M44.3399 44.2446L44.3308 44.2378C43.9009 43.912 43.2884 43.9964 42.9626 44.4263C42.6368 44.856 42.7212 45.4686 43.1511 45.7944L43.1602 45.8013C43.3366 45.935 43.5438 45.9996 43.7492 45.9996C44.0444 45.9996 44.3362 45.8663 44.5283 45.6129C44.8541 45.183 44.7696 44.5704 44.3399 44.2446Z" fill="#4AA760"/>
<path d="M44.3399 36.2369L44.3308 36.2301C43.9009 35.9043 43.2884 35.9887 42.9627 36.4186C42.637 36.8482 42.7213 37.4608 43.1511 37.7866L43.1602 37.7935C43.3367 37.9271 43.5438 37.9918 43.7493 37.9918C44.0445 37.9918 44.3363 37.8585 44.5284 37.6051C44.8542 37.1753 44.7698 36.5627 44.3399 36.2369Z" fill="#4AA760"/>
<path d="M44.3398 28.2291L44.3307 28.2223C43.9009 27.8965 43.2884 27.9809 42.9626 28.4107C42.6368 28.8406 42.7213 29.453 43.1511 29.7788L43.1601 29.7856C43.3366 29.9193 43.5437 29.984 43.7492 29.984C44.0444 29.984 44.3362 29.8507 44.5283 29.5973C44.8541 29.1675 44.7697 28.5549 44.3398 28.2291Z" fill="#4AA760"/>
<path d="M36.0813 32.0312H36.0686C35.5293 32.0312 35.092 32.4685 35.092 33.0078C35.092 33.5472 35.5292 33.9844 36.0686 33.9844H36.0813C36.6206 33.9844 37.0579 33.5472 37.0579 33.0078C37.0579 32.4685 36.6206 32.0312 36.0813 32.0312Z" fill="#4AA760"/>
<path d="M13.9314 40.0391H13.9187C13.3794 40.0391 12.9421 40.4763 12.9421 41.0156C12.9421 41.555 13.3794 41.9922 13.9187 41.9922H13.9314C14.4707 41.9922 14.908 41.555 14.908 41.0156C14.908 40.4763 14.4708 40.0391 13.9314 40.0391Z" fill="#4AA760"/>
<path d="M7.88965 18.085C7.70801 17.9033 7.45605 17.7988 7.19922 17.7988C6.94238 17.7988 6.69043 17.9033 6.50879 18.085C6.32725 18.2666 6.22266 18.5186 6.22266 18.7764C6.22266 19.0332 6.32715 19.2842 6.50879 19.4658C6.69043 19.6484 6.9415 19.752 7.19922 19.752C7.45605 19.752 7.70801 19.6484 7.88965 19.4658C8.07119 19.2842 8.17578 19.0332 8.17578 18.7764C8.17578 18.5186 8.07129 18.2676 7.88965 18.085Z" fill="#4AA760"/>
<path d="M49.0234 24.0234H44.9674C46.7127 23.0195 47.8913 21.1371 47.8913 18.9833C47.8913 16.7474 46.6228 14.757 44.6901 13.7886C45.0235 13.0474 45.1965 12.2424 45.1965 11.4108C45.1965 8.20635 42.5895 5.59922 39.3849 5.59922C38.3745 5.59922 37.4042 5.8541 36.5395 6.34189C35.4049 5.54229 34.0481 5.10879 32.6475 5.10879C32.5524 5.10879 32.4582 5.11211 32.3641 5.11602C31.3323 2.1084 28.4554 0.0046875 25.2151 0.0046875C22.2933 0.0046875 19.6493 1.69697 18.4036 4.29004C18.1699 4.26836 17.9352 4.25742 17.7006 4.25742C14.6298 4.25742 11.9024 6.11182 10.738 8.87695C10.5313 8.81387 10.3211 8.75879 10.1077 8.71103C10.2196 7.46289 10.6155 6.50605 11.291 5.8627C11.8794 5.30225 12.4704 5.18613 12.4953 5.18145L12.4817 5.18369L12.4815 5.18262C12.688 5.15225 12.8834 5.05703 13.0317 4.90801C13.2133 4.72637 13.3179 4.47539 13.3179 4.21855C13.3179 3.96074 13.2134 3.70977 13.0317 3.52715C12.8501 3.34551 12.5981 3.24102 12.3413 3.24102C12.2865 3.24102 12.2321 3.24678 12.1784 3.25596L12.1781 3.2543C11.5982 3.34561 10.8052 3.67061 10.0737 4.33096V0.976562C10.0737 0.437207 9.63643 0 9.09717 0H6.75342C6.21416 0 5.77686 0.437207 5.77686 0.976562V4.62803C4.65342 3.25117 3.44063 2.44629 3.34658 2.38486C2.89551 2.09063 2.29219 2.21777 1.99717 2.66816C1.70205 3.11865 1.82812 3.72363 2.27793 4.01963C2.31025 4.04082 5.26484 6.01934 5.70381 8.86553C2.39922 9.8582 0 12.7626 0 16.183C0 17.6041 0.810449 21.0164 1.60586 24.0234H0.976562C0.437305 24.0234 0 24.4606 0 25V49.0234C0 49.5628 0.437305 50 0.976562 50H49.0234C49.5627 50 50 49.5628 50 49.0234V25C50 24.4606 49.5627 24.0234 49.0234 24.0234ZM17.7006 6.21055C18.0763 6.21055 18.4524 6.24814 18.8189 6.32236C19.2959 6.41885 19.771 6.1498 19.9333 5.69102C20.7236 3.45811 22.8462 1.95781 25.2151 1.95781C27.5237 1.95781 29.584 3.39717 30.4202 5.4873C27.7824 6.41025 25.8846 8.92266 25.8846 11.8715C25.8846 12.4108 26.3219 12.848 26.8611 12.848C27.4004 12.848 27.8377 12.4108 27.8377 11.8715C27.8377 9.21943 29.9953 7.06191 32.6474 7.06191C33.8234 7.06191 34.9561 7.49189 35.8363 8.27275C36.1835 8.58066 36.6996 8.60166 37.0707 8.32314C37.7423 7.81885 38.5425 7.55234 39.3847 7.55234C41.5122 7.55234 43.2432 9.2833 43.2432 11.4108C43.2432 12.2473 42.98 13.0431 42.4818 13.712C42.2871 13.9736 42.2357 14.3153 42.3452 14.6227C42.4547 14.93 42.7102 15.1624 43.0266 15.2422C44.7408 15.6744 45.9381 17.2128 45.9381 18.9833C45.9381 21.1108 44.2071 22.8418 42.0796 22.8418C41.8372 22.8418 41.5911 22.8182 41.348 22.7716C40.8747 22.6806 40.4061 22.9489 40.2441 23.4028C40.1677 23.6174 40.0709 23.8251 39.9571 24.0234H38.7243L42.7232 18.291C42.8735 18.0756 42.9307 17.8086 42.8817 17.5505C42.8328 17.2924 42.6819 17.0648 42.4633 16.9193L39.6161 15.0246C39.3943 14.877 39.1217 14.8263 38.8618 14.8846C38.6019 14.9428 38.3769 15.1046 38.2392 15.3327L36.8154 17.6901L37.9809 11.7947C38.0848 11.2685 37.7449 10.7568 37.2195 10.6488L34.7347 10.1378C34.4779 10.0849 34.2105 10.1376 33.993 10.2839C33.7754 10.4302 33.6258 10.6578 33.5778 10.9155L33.259 12.6279H30.98C30.4407 12.6279 30.0034 13.0651 30.0034 13.6045V19.224C29.3544 15.9009 26.4221 13.3848 22.9119 13.3848C21.3302 13.3848 19.8278 13.8866 18.5675 14.8361C17.5281 15.619 16.7118 16.6847 16.2206 17.8827C16.345 17.1493 16.4063 16.5868 16.4063 16.1831C16.4063 14.8588 16.0467 13.6116 15.4142 12.5228C15.9272 11.1268 17.2611 10.1784 18.7699 10.1784C19.0097 10.1784 19.2499 10.2025 19.4841 10.25C19.9613 10.3471 20.4371 10.0772 20.5991 9.61797C20.8087 9.02441 21.1733 8.49346 21.6538 8.08252C22.0636 7.73193 22.1116 7.11543 21.761 6.70557C21.4105 6.2957 20.7941 6.24775 20.3841 6.59824C19.8476 7.05723 19.4046 7.61367 19.0781 8.23389C18.9755 8.22813 18.8727 8.22529 18.77 8.22529C16.8263 8.22529 15.0704 9.24287 14.0798 10.83C13.6159 10.3834 13.0952 9.98936 12.5279 9.6583C13.3854 7.59561 15.4146 6.21055 17.7006 6.21055ZM35.7053 23.3062L39.3836 17.2158L40.5503 17.9923L36.3431 24.0234H35.5635L35.7053 23.3062ZM34.4837 19.4138V16.7021C34.4889 16.6816 34.4945 16.6613 34.4984 16.6402L35.3157 12.2512L35.8768 12.3666L34.4837 19.4138ZM31.9495 22.3294C31.9537 22.2924 31.9565 22.2549 31.9565 22.2168V14.581H32.5307V24.0234H32.2225C32.2251 23.9623 32.2266 23.9011 32.2266 23.8396C32.2266 23.3073 32.1277 22.7983 31.9495 22.3294ZM18.5547 17.7734C18.5258 17.7734 18.4974 17.7753 18.4685 17.7756C19.4232 16.2932 21.0963 15.3378 22.9118 15.3378C25.4921 15.3378 27.644 17.2012 28.0964 19.6526C26.7451 19.6622 25.5477 20.3422 24.8066 21.3825C23.5546 19.2271 21.222 17.7734 18.5547 17.7734ZM23.736 24.0234H13.5271H13.3734C13.8329 21.5809 15.9808 19.7266 18.5548 19.7266C21.1288 19.7266 23.2766 21.5809 23.736 24.0234ZM28.125 21.6051C29.3097 21.6051 30.2734 22.6075 30.2734 23.8396C30.2734 23.9013 30.2705 23.9625 30.2657 24.0234H25.9842C25.9794 23.9625 25.9765 23.9013 25.9765 23.8396C25.9766 22.6075 26.9403 21.6051 28.125 21.6051ZM7.72998 1.95312H8.12061V8.50166C7.98965 8.50293 7.85938 8.50645 7.72998 8.51338V1.95312ZM2.01143 15.4111C2.07236 15.423 2.13525 15.4297 2.19961 15.4297H7.02754C7.5668 15.4297 8.0041 14.9925 8.0041 14.4531C8.0041 13.9138 7.5668 13.4766 7.02754 13.4766H2.6959C3.75156 11.6782 5.82393 10.4528 8.20312 10.4528C11.6494 10.4528 14.4531 13.0233 14.4531 16.183C14.4531 16.4378 14.4124 16.9079 14.2572 17.7734H10.3784C9.83916 17.7734 9.40186 18.2106 9.40186 18.75C9.40186 19.2894 9.83916 19.7266 10.3784 19.7266H13.6212C12.4363 20.8358 11.6249 22.3379 11.396 24.0234H3.62705C2.56016 20.0404 1.95312 17.2023 1.95312 16.183C1.95312 15.9212 1.97412 15.6639 2.01143 15.4111ZM48.0469 32.0312H39.4531C38.9139 32.0312 38.4766 32.4685 38.4766 33.0078C38.4766 33.5472 38.9139 33.9844 39.4531 33.9844H48.0469V40.0391H17.2467C16.7074 40.0391 16.2701 40.4763 16.2701 41.0156C16.2701 41.555 16.7074 41.9922 17.2467 41.9922H48.0469V48.0469H1.95312V41.9922H10.5469C11.0861 41.9922 11.5234 41.555 11.5234 41.0156C11.5234 40.4763 11.0861 40.0391 10.5469 40.0391H1.95312V33.9844H32.7533C33.2926 33.9844 33.7299 33.5472 33.7299 33.0078C33.7299 32.4685 33.2926 32.0312 32.7533 32.0312H1.95312V25.9766H2.8792H48.0469V32.0312Z" fill="#4AA760"/>
<path d="M23.9711 5.27344H23.9583C23.419 5.27344 22.9817 5.71064 22.9817 6.25C22.9817 6.78936 23.419 7.22656 23.9583 7.22656H23.9711C24.5104 7.22656 24.9477 6.78936 24.9477 6.25C24.9477 5.71064 24.5104 5.27344 23.9711 5.27344Z" fill="#4AA760"/>
</g>
<defs>
<clipPath id="clip0_1049_12587">
<rect width="50" height="50" fill="white"/>
</clipPath>
</defs>
</svg>
