<svg width="60" height="60" viewBox="0 0 60 60" fill="none" xmlns="../../../../../external.html?link=http://www.w3.org/2000/svg">
<g clip-path="url(#clip0_1181_32669)">
<path d="M14.4375 6.9375L12.75 13.6875L7.78124 15.5625L2.06249 11.5313C1.12499 10.875 0.843742 9.5625 1.59374 8.625C2.24999 7.6875 3.56249 7.40625 4.49999 8.0625L5.99999 9.1875L5.06249 6.75C4.68749 5.625 5.24999 4.5 6.28124 4.03125C7.40624 3.65625 8.53124 4.125 8.99999 5.25L9.93749 7.6875L10.4062 5.90625C10.6875 4.78125 11.8125 4.125 12.9375 4.40625C14.0625 4.6875 14.7187 5.8125 14.4375 6.9375Z" fill="#80D34A"/>
<path d="M7.78123 16.6875C7.49998 16.6875 7.31248 16.5937 7.12498 16.5L1.40623 12.4687C-0.0937671 11.4375 -0.375017 9.37498 0.656233 7.96873C1.40623 6.93748 2.62498 6.46873 3.93748 6.65623C3.65623 5.99998 3.74998 5.24998 4.03123 4.68748C4.40623 3.93748 5.06248 3.28123 5.81248 2.99998C6.65623 2.71873 7.49998 2.71873 8.34373 3.09373C8.99998 3.37498 9.46873 3.84373 9.84373 4.40623C10.125 4.12498 10.4062 3.84373 10.7812 3.65623C11.5312 3.18748 12.375 3.09373 13.2187 3.28123C14.0625 3.46873 14.7187 4.03123 15.1875 4.78123C15.6562 5.53123 15.75 6.37498 15.5625 7.21873L13.875 13.9687C13.7812 14.3437 13.5 14.625 13.125 14.8125L8.15623 16.6875C8.06248 16.6875 7.87498 16.6875 7.78123 16.6875ZM3.28123 8.90623C3.18748 8.90623 3.18748 8.90623 3.09373 8.90623C2.81248 8.99998 2.62498 9.09373 2.53123 9.28123C2.24998 9.74998 2.34373 10.3125 2.71873 10.5937L7.87498 14.25L11.7187 12.8437L13.3125 6.65623C13.4062 6.37498 13.3125 6.18748 13.2187 5.90623C13.125 5.71873 12.8437 5.62498 12.6562 5.53123C12.375 5.43748 12.1875 5.53123 11.9062 5.62498C11.7187 5.71873 11.5312 5.99998 11.4375 6.18748L10.9687 7.96873C10.875 8.43748 10.4062 8.81248 9.93748 8.81248C9.37498 8.81248 8.99998 8.53123 8.81248 8.06248L7.87498 5.62498C7.78123 5.43748 7.68748 5.24998 7.40623 5.15623C7.21873 5.06248 6.93748 5.06248 6.65623 5.15623C6.46873 5.24998 6.28123 5.43748 6.18748 5.62498C6.09373 5.81248 6.09373 6.09373 6.18748 6.37498L7.12498 8.81248C7.31248 9.28123 7.12498 9.84373 6.74998 10.125C6.37498 10.4062 5.81248 10.4062 5.34373 10.125L3.74998 9.09373C3.65623 8.90623 3.46873 8.90623 3.28123 8.90623Z" fill="#0E0E0F"/>
<path d="M19.5937 39.8437C18.75 40.125 17.8125 39.8437 17.25 39.0937L5.99997 22.7812C4.03122 19.9687 5.24997 16.125 8.43747 14.9062L11.7187 13.6875C14.9062 12.4687 18.375 14.625 18.75 18L20.9062 37.7812C21 38.625 20.4375 39.4687 19.5937 39.8437Z" fill="#F48F42"/>
<path d="M18.8438 41.0625C17.8125 41.0625 16.875 40.5938 16.2187 39.6562L4.96875 23.3438C3.84375 21.75 3.5625 19.6875 4.125 17.8125C4.6875 15.9375 6.09375 14.4375 7.96875 13.7812L11.25 12.5625C13.125 11.9062 15.0937 12.0938 16.7812 13.125C18.4687 14.1563 19.5938 15.9375 19.7812 17.9063L21.9375 37.6875C22.125 39.0938 21.2812 40.5 19.875 40.9688C19.5938 41.0625 19.2188 41.0625 18.8438 41.0625ZM13.5938 14.4375C13.125 14.4375 12.6562 14.5313 12.1875 14.7188L8.8125 15.9375C7.59375 16.4063 6.75 17.3437 6.375 18.5625C6 19.7812 6.1875 21.0938 6.9375 22.125L18.1875 38.4375C18.375 38.7188 18.8437 38.9062 19.125 38.7188C19.5 38.625 19.6875 38.25 19.6875 37.875L17.5312 18.0937C17.4375 16.875 16.6875 15.75 15.6562 15.0938C15 14.7188 14.3438 14.4375 13.5938 14.4375Z" fill="#0E0E0F"/>
<path d="M5.81249 23.625C5.34374 23.625 4.87499 23.3437 4.68749 22.875C4.49999 22.3125 4.78124 21.6562 5.34374 21.375L9.09374 19.9687C9.65624 19.7812 10.3125 20.0625 10.5937 20.625C10.7812 21.1875 10.5 21.8437 9.93749 22.125L6.18749 23.5312C6.09374 23.625 5.90624 23.625 5.81249 23.625Z" fill="#0E0E0F"/>
<path d="M23.5312 32.625C28.6054 32.625 32.7188 28.6795 32.7188 23.8125C32.7188 18.9455 28.6054 15 23.5312 15C18.4571 15 14.3438 18.9455 14.3438 23.8125C14.3438 28.6795 18.4571 32.625 23.5312 32.625Z" fill="#EF3A3A"/>
<path d="M23.5312 33.75C22.875 33.75 22.4062 33.1875 22.4062 32.625C22.4062 32.0625 22.875 31.5 23.5312 31.5C23.9062 31.5 25.9688 31.4062 27.8438 30.5625C30.375 29.3437 31.5938 27.0938 31.5938 23.9062C31.5938 20.7188 30.2812 18.4687 27.8438 17.25C25.9688 16.3125 23.9062 16.3125 23.5312 16.3125C22.2188 16.3125 15.8438 16.6875 15.4688 23.25C15.4688 23.9062 14.9062 24.375 14.25 24.375C13.5937 24.375 13.125 23.8125 13.125 23.1563C13.6875 14.25 22.5 14.0625 23.4375 14.0625C24.0938 14.0625 26.4375 14.1562 28.7813 15.2812C31.125 16.4062 33.8437 18.8438 33.8437 24C33.8437 29.1562 31.125 31.5938 28.7813 32.7188C26.5313 33.6563 24.1875 33.75 23.5312 33.75Z" fill="#0E0E0F"/>
<path d="M23.5313 16.2187C22.875 16.2187 22.4062 15.6562 22.4062 15.0938V10.3125C22.4062 9.65625 22.9688 9.1875 23.5313 9.1875C24.0938 9.1875 24.6562 9.75 24.6562 10.3125V15.0938C24.6562 15.75 24.1875 16.2187 23.5313 16.2187Z" fill="#0E0E0F"/>
<path d="M23.5313 16.2187C23.25 16.2187 22.9688 16.125 22.6875 15.8438L19.0312 12.0937C18.5625 11.625 18.5625 10.875 19.0312 10.5C19.5 10.0312 20.25 10.0312 20.625 10.5L24.2813 14.25C24.75 14.7188 24.75 15.4688 24.2813 15.8438C24.0938 16.125 23.8125 16.2187 23.5313 16.2187Z" fill="#0E0E0F"/>
<path d="M23.5312 16.2187C23.25 16.2187 22.9688 16.125 22.6875 15.9375C22.2188 15.4688 22.2188 14.7188 22.6875 14.3438L26.3437 10.5938C26.8125 10.125 27.5625 10.125 27.9375 10.5938C28.4062 11.0625 28.4062 11.8125 27.9375 12.1875L24.2812 15.9375C24.0937 16.125 23.8125 16.2187 23.5312 16.2187Z" fill="#0E0E0F"/>
<path d="M52.9686 23.1562C53.6249 22.5 54.1874 21.75 54.5624 20.9062C55.5936 18.0937 54.3749 15.0937 51.8436 13.6875V13.5937C52.9686 10.5 51.4686 7.12496 48.3749 5.90621C45.2811 4.78121 41.9061 6.28121 40.6874 9.37496V9.46871C37.8749 8.90621 34.9686 10.4062 33.9374 13.2187C33.5624 14.1562 33.5624 15.0937 33.6561 15.9375C31.4061 16.125 29.3436 17.5312 28.4999 19.7812C27.3749 22.875 28.8749 26.25 31.9686 27.4687L46.7811 33C49.8749 34.125 53.2499 32.625 54.4686 29.5312C55.1249 27.2812 54.5624 24.8437 52.9686 23.1562Z" fill="#80D34A"/>
<path d="M48.75 34.5C47.9062 34.5 47.0625 34.3125 46.2187 34.0312L31.4062 28.5C27.75 27.0937 25.875 23.0625 27.2812 19.3125C28.2187 16.6875 30.6562 14.9062 33.4687 14.7187C34.125 14.7187 34.6875 15.1875 34.6875 15.75C34.6875 16.3125 34.2187 16.9687 33.6562 16.9687C31.7812 17.0625 30.0937 18.2812 29.4375 20.0625C28.5 22.5 29.8125 25.3125 32.25 26.25L47.0625 31.875C48.2812 32.3437 49.5937 32.25 50.7187 31.7812C51.8437 31.2187 52.7812 30.2812 53.25 29.0625C53.9062 27.2812 53.4375 25.3125 52.125 24C51.9375 23.8125 51.75 23.4375 51.75 23.1562C51.75 22.875 51.9375 22.5 52.125 22.3125C52.6875 21.75 53.1562 21.1875 53.4375 20.4375C54.2812 18.1875 53.3437 15.75 51.2812 14.625C50.8125 14.3437 50.5312 13.6875 50.8125 13.2187C51.2812 12 51.2812 10.6875 50.7187 9.46873C50.1562 8.24998 49.2187 7.40623 48 6.93748C45.5625 5.99998 42.75 7.31248 41.8125 9.74998C41.625 10.3125 41.0625 10.6875 40.5 10.5937C39.75 10.4062 39 10.5 38.25 10.6875C37.5937 10.875 37.0312 10.5 36.8437 9.84373C36.5625 9.28123 36.9375 8.62498 37.5 8.43748C38.25 8.24998 39.0937 8.15623 39.9375 8.15623C41.625 4.96873 45.375 3.46873 48.75 4.78123C50.5312 5.43748 51.9375 6.74998 52.6875 8.53123C53.3437 10.0312 53.5312 11.625 53.1562 13.125C55.6875 15 56.625 18.2812 55.5937 21.2812C55.3125 21.9375 54.9375 22.5937 54.4687 23.1562C55.875 25.0312 56.25 27.5625 55.4062 29.8125C54.75 31.5937 53.4375 33 51.6562 33.75C50.7187 34.3125 49.7812 34.5 48.75 34.5Z" fill="#0E0E0F"/>
<path d="M39.2812 31.4062C39.1874 31.4062 38.9999 31.4063 38.9062 31.3125C38.3437 31.125 37.9687 30.4688 38.2499 29.8125L43.5937 15.5625C43.7812 15 44.5312 14.625 45.0937 14.9063C45.6562 15.0938 46.0312 15.75 45.7499 16.4063L40.3124 30.6563C40.1249 31.125 39.7499 31.4062 39.2812 31.4062Z" fill="#0E0E0F"/>
<path d="M42.1875 23.5312C41.7187 23.5312 41.3437 23.25 41.1562 22.875L39 18.2812C38.7187 17.7187 39 17.0625 39.5625 16.7812C40.125 16.5 40.7812 16.7812 41.0625 17.3437L43.2187 21.9375C43.5 22.5 43.2187 23.1562 42.6562 23.4375C42.5625 23.5312 42.375 23.5312 42.1875 23.5312Z" fill="#0E0E0F"/>
<path d="M42.1875 23.5312C41.7187 23.5312 41.3437 23.25 41.1562 22.875C40.875 22.3125 41.1562 21.6562 41.7187 21.375L46.3125 19.3125C46.875 19.0312 47.5312 19.3125 47.8125 19.875C48.0937 20.4375 47.8125 21.0937 47.25 21.375L42.6562 23.4375C42.5625 23.5312 42.375 23.5312 42.1875 23.5312Z" fill="#0E0E0F"/>
<path d="M54.6562 32.8125H6.375V46.2187C6.375 52.9688 11.9062 58.5 18.6562 58.5H42.375C49.125 58.5 54.6562 52.9688 54.6562 46.2187V32.8125Z" fill="#BF5230"/>
<path d="M42.375 59.625H18.6562C11.25 59.625 5.25 53.625 5.25 46.2188V32.8125C5.25 32.1563 5.8125 31.6875 6.375 31.6875H54.6562C55.3125 31.6875 55.7812 32.25 55.7812 32.8125C55.7812 33.375 55.2188 33.9375 54.6562 33.9375H7.5V46.125C7.5 52.2188 12.4687 57.2812 18.6562 57.2812H42.375C48.4688 57.2812 53.5312 52.3125 53.5312 46.125V39.0938C53.5312 38.4375 54.0938 37.9688 54.6562 37.9688C55.2188 37.9688 55.7812 38.5313 55.7812 39.0938V46.125C55.875 53.5313 49.7813 59.625 42.375 59.625Z" fill="#0E0E0F"/>
<path d="M19.875 41.1562H15.9375C15.2812 41.1562 14.8125 40.5937 14.8125 40.0312C14.8125 39.4687 15.375 38.9062 15.9375 38.9062H19.875C20.5313 38.9062 21 39.4687 21 40.0312C21 40.5937 20.5313 41.1562 19.875 41.1562ZM33.6563 39.9375C33.6563 39.2812 33.0938 38.8125 32.5313 38.8125H28.5938C27.9375 38.8125 27.4687 39.375 27.4687 39.9375C27.4687 40.5 28.0312 41.0625 28.5938 41.0625H32.5313C33.1875 41.1562 33.6563 40.5937 33.6563 39.9375ZM46.3125 39.9375C46.3125 39.2812 45.75 38.8125 45.1875 38.8125H41.25C40.5938 38.8125 40.125 39.375 40.125 39.9375C40.125 40.5 40.6875 41.0625 41.25 41.0625H45.1875C45.75 41.1562 46.3125 40.5937 46.3125 39.9375ZM21.0938 45.6562C21.0938 45 20.5312 44.5312 19.9687 44.5312H15.9375C15.2812 44.5312 14.8125 45.0937 14.8125 45.6562C14.8125 46.2187 15.375 46.7812 15.9375 46.7812H19.875C20.5313 46.7812 21.0938 46.2187 21.0938 45.6562ZM33.6563 45.6562C33.6563 45 33.0938 44.5312 32.5313 44.5312H28.5938C27.9375 44.5312 27.4687 45.0937 27.4687 45.6562C27.4687 46.2187 28.0312 46.7812 28.5938 46.7812H32.5313C33.1875 46.7812 33.6563 46.2187 33.6563 45.6562ZM46.3125 45.6562C46.3125 45 45.75 44.5312 45.1875 44.5312H41.25C40.5938 44.5312 40.125 45.0937 40.125 45.6562C40.125 46.2187 40.6875 46.7812 41.25 46.7812H45.1875C45.75 46.7812 46.3125 46.2187 46.3125 45.6562ZM21.0938 51.2812C21.0938 50.625 20.5312 50.1562 19.9687 50.1562H15.9375C15.2812 50.1562 14.8125 50.7187 14.8125 51.2812C14.8125 51.8437 15.375 52.4062 15.9375 52.4062H19.875C20.5313 52.4062 21.0938 51.9375 21.0938 51.2812ZM33.6563 51.2812C33.6563 50.625 33.0938 50.1562 32.5313 50.1562H28.5938C27.9375 50.1562 27.4687 50.7187 27.4687 51.2812C27.4687 51.8437 28.0312 52.4062 28.5938 52.4062H32.5313C33.1875 52.4062 33.6563 51.9375 33.6563 51.2812ZM46.3125 51.2812C46.3125 50.625 45.75 50.1562 45.1875 50.1562H41.25C40.5938 50.1562 40.125 50.7187 40.125 51.2812C40.125 51.8437 40.6875 52.4062 41.25 52.4062H45.1875C45.75 52.4062 46.3125 51.9375 46.3125 51.2812Z" fill="#0E0E0F"/>
<path d="M55.5 34.2187H5.53125C3.65625 34.2187 2.25 32.7187 2.25 30.9375V30.6562C2.25 28.7812 3.75 27.375 5.53125 27.375H55.5C57.375 27.375 58.7812 28.875 58.7812 30.6562V30.9375C58.875 32.7187 57.375 34.2187 55.5 34.2187Z" fill="#F2B583"/>
<path d="M55.5 35.4375H5.53125C3.09375 35.4375 1.03125 33.4688 1.03125 30.9375V30.6563C1.03125 28.2188 3 26.1562 5.53125 26.1562H55.5C57.9375 26.1562 60 28.125 60 30.6563V30.9375C60 33.375 58.0313 35.4375 55.5 35.4375ZM5.53125 28.5C4.3125 28.5 3.375 29.4375 3.375 30.6563V30.9375C3.375 32.1563 4.3125 33.0938 5.53125 33.0938H55.5C56.7188 33.0938 57.6562 32.1563 57.6562 30.9375V30.6563C57.6562 29.4375 56.7188 28.5 55.5 28.5H5.53125Z" fill="#0E0E0F"/>
<path d="M27.0938 30.75V4.96875C27.0938 3.09375 28.5937 1.5 30.5625 1.5C32.4375 1.5 34.0312 3 34.0312 4.96875V30.75C33.9375 30.75 27.0938 30.75 27.0938 30.75Z" fill="#F2B583"/>
<path d="M34.0312 31.9687H27.0937C26.4375 31.9687 25.9688 31.4062 25.9688 30.8438V4.96875C25.9688 2.4375 28.0312 0.375 30.5625 0.375C33.0937 0.375 35.1562 2.4375 35.1562 4.96875V30.75C35.1562 31.4062 34.5937 31.9687 34.0312 31.9687ZM28.2187 29.625H32.8125V4.96875C32.8125 3.75 31.7812 2.71875 30.5625 2.71875C29.3437 2.71875 28.3125 3.75 28.3125 4.96875C28.2188 4.96875 28.2187 29.625 28.2187 29.625Z" fill="#0E0E0F"/>
<path d="M30.5625 34.2187C32.4782 34.2187 34.0312 32.6657 34.0312 30.75C34.0312 28.8343 32.4782 27.2812 30.5625 27.2812C28.6468 27.2812 27.0938 28.8343 27.0938 30.75C27.0938 32.6657 28.6468 34.2187 30.5625 34.2187Z" fill="#F4E995"/>
<path d="M30.5625 35.4375C28.0312 35.4375 25.9688 33.375 25.9688 30.8438C25.9688 28.3125 28.0312 26.25 30.5625 26.25C33.0937 26.25 35.1562 28.3125 35.1562 30.8438C35.1562 33.375 33.0937 35.4375 30.5625 35.4375ZM30.5625 28.5C29.3437 28.5 28.3125 29.5312 28.3125 30.75C28.3125 31.9687 29.3437 33 30.5625 33C31.875 33 32.8125 31.9687 32.8125 30.75C32.8125 29.5312 31.7812 28.5 30.5625 28.5Z" fill="#0E0E0F"/>
</g>
<defs>
<clipPath id="clip0_1181_32669">
<rect width="60" height="60" fill="white"/>
</clipPath>
</defs>
</svg>
