<svg width="60" height="60" viewBox="0 0 60 60" fill="none" xmlns="../../../../../external.html?link=http://www.w3.org/2000/svg">
<g clip-path="url(#clip0_1025_12585)">
<path d="M44.1727 54.3164C44.045 57.0059 41.8254 59.1211 39.1336 59.1211H23.2066C20.5148 59.1211 18.2952 57.0059 18.1675 54.3164C17.8218 47.0835 17.6788 39.8506 17.7386 32.6178C17.7667 29.2205 17.8405 25.822 17.9577 22.4236C17.9589 22.3989 17.96 22.3743 17.9612 22.3509C18.2061 16.3086 23.0636 11.4734 29.1153 11.2777C30.4852 11.2332 31.8551 11.2332 33.2251 11.2777C39.3013 11.4746 44.1728 16.3473 44.3826 22.4236C44.7505 33.0538 44.6802 43.6851 44.1727 54.3164Z" fill="#D3EFFB"/>
<path d="M31.171 11.2456C30.8625 11.2456 30.5539 11.256 30.2455 11.2782C27.5091 11.4747 25.3167 16.3474 25.2218 22.4231C25.0564 33.055 25.0877 43.6857 25.3168 54.3177C25.3741 57.006 26.3726 59.1214 27.5859 59.1214H23.2065C20.5143 59.1214 18.2961 57.0059 18.1671 54.3177C17.6595 43.6857 17.5892 33.055 17.9576 22.4231C18.1686 16.3475 23.04 11.4748 29.1155 11.2782C29.8001 11.256 30.4849 11.2456 31.171 11.2456Z" fill="#B1E4F9"/>
<path d="M30.2847 30.4997C30.1541 31.5978 29.248 32.4442 28.1436 32.4985C27.1367 32.548 26.1301 32.5863 25.1239 32.6131C22.6618 32.6811 20.1996 32.6823 17.7386 32.6178C17.767 29.1966 17.8417 25.7743 17.9603 22.3519L17.9613 22.3509C20.3813 22.2911 22.8024 22.2958 25.2223 22.3638C26.1966 22.3904 27.1705 22.428 28.1444 22.476C29.2486 22.5305 30.1541 23.3769 30.2848 24.4747C30.5235 26.483 30.5235 28.4913 30.2847 30.4997Z" fill="#ECECEC"/>
<path d="M25.2222 22.3638C25.2222 22.3837 25.221 22.4036 25.221 22.4235C25.1683 25.8197 25.1355 29.2158 25.1238 32.6131C22.6616 32.6811 20.1995 32.6823 17.7385 32.6178C17.7667 29.2205 17.8405 25.822 17.9577 22.4235C17.9588 22.3989 17.96 22.3743 17.9612 22.3509C20.3811 22.2911 22.8023 22.2958 25.2222 22.3638Z" fill="#DADADA"/>
<path d="M37.7261 7.53528H24.6142C23.3006 7.53528 22.2358 8.60017 22.2358 9.91363C22.2358 11.2272 23.3007 12.292 24.6142 12.292H37.7262C39.0398 12.292 40.1046 11.2271 40.1046 9.91363C40.1046 8.60017 39.0397 7.53528 37.7261 7.53528Z" fill="#ECECEC"/>
<path d="M28.306 11.5956C28.7369 12.0265 29.3319 12.292 29.988 12.292H24.6142C23.958 12.292 23.3632 12.0265 22.9323 11.5956C22.5027 11.1647 22.2358 10.571 22.2358 9.91372C22.2358 8.60016 23.3007 7.53528 24.6143 7.53528H29.9881C28.6746 7.53528 27.6097 8.60016 27.6097 9.91372C27.6096 10.5711 27.8765 11.1647 28.306 11.5956Z" fill="#DADADA"/>
<path d="M34.9354 0.878967H27.4048C25.8635 0.878967 24.6141 2.12832 24.6141 3.66959V7.5353H37.7262V3.66959C37.726 2.12832 36.4767 0.878967 34.9354 0.878967Z" fill="#ECECEC"/>
<path d="M31.4096 0.878479C29.8682 0.878479 28.6198 2.12817 28.6198 3.66953V7.53461H24.6141V3.66953C24.6141 2.12817 25.8625 0.878479 27.4039 0.878479H31.4096Z" fill="#DADADA"/>
<path d="M58.6139 51.0639C58.4697 51.2678 58.2932 52.6978 58.0891 52.8606C50.9582 58.5319 40.8009 58.5319 33.6699 52.8606C33.466 52.6978 33.2894 51.2678 33.1451 51.0639L42.9693 31.5175C44.173 29.1252 47.5886 29.1252 48.7922 31.5188L50.2656 34.4507C48.8245 34.7342 47.7377 36.0037 47.7377 37.527C47.7377 39.259 49.1415 40.6628 50.8723 40.6628C51.683 40.6628 52.4228 40.3557 52.9787 39.8496L58.6139 51.0639Z" fill="#FFD064"/>
<path d="M58.0892 54.8687C50.9583 60.5386 40.8009 60.5386 33.67 54.8687C32.6541 54.0604 32.3482 52.6492 32.9313 51.4891L33.1452 51.0638C33.2895 51.2677 33.466 51.4543 33.67 51.6171C40.8009 57.2884 50.9583 57.2884 58.0892 51.6171C58.2931 51.4543 58.4697 51.2678 58.614 51.0638L58.8279 51.4891C59.4109 52.6492 59.105 54.0604 58.0892 54.8687Z" fill="#DB5B6F"/>
<path d="M49.9246 51.6059C51.6007 51.6059 52.9594 50.2472 52.9594 48.5711C52.9594 46.895 51.6007 45.5363 49.9246 45.5363C48.2485 45.5363 46.8898 46.895 46.8898 48.5711C46.8898 50.2472 48.2485 51.6059 49.9246 51.6059Z" fill="#FFC250"/>
<path d="M43.5278 44.6853C44.6183 44.6853 45.5022 43.8013 45.5022 42.7109C45.5022 41.6205 44.6183 40.7365 43.5278 40.7365C42.4374 40.7365 41.5535 41.6205 41.5535 42.7109C41.5535 43.8013 42.4374 44.6853 43.5278 44.6853Z" fill="#FFC250"/>
<path d="M39.7335 48.1108C39.7335 43.3811 35.8993 35.9632 31.1696 35.9632C26.44 35.9632 22.6058 43.3811 22.6058 48.1108C22.6058 52.8404 26.44 56.6746 31.1696 56.6746C35.8993 56.6746 39.7335 52.8404 39.7335 48.1108Z" fill="#ECECEC"/>
<path d="M31.17 56.6748C26.4405 56.6748 22.606 52.8411 22.606 48.1108C22.606 43.3813 26.4405 35.9634 31.17 35.9634C28.8786 35.9634 27.0206 43.3814 27.0206 48.1108C27.0206 52.8411 28.8785 56.6748 31.17 56.6748Z" fill="#DADADA"/>
<path d="M21.2582 48.1108C21.2582 43.3811 17.4241 35.9632 12.6944 35.9632C7.9648 35.9632 4.13062 43.381 4.13062 48.1108C4.13062 52.8405 7.9648 56.6746 12.6944 56.6746C17.4241 56.6746 21.2582 52.8404 21.2582 48.1108Z" fill="#ECECEC"/>
<path d="M12.6948 56.6748C7.96527 56.6748 4.13074 52.8411 4.13074 48.1108C4.13074 43.3813 7.96527 35.9634 12.6948 35.9634C10.4034 35.9634 8.54536 43.3814 8.54536 48.1108C8.54536 52.8411 10.4033 56.6748 12.6948 56.6748Z" fill="#DADADA"/>
<path d="M40.4074 48.1105C40.4074 48.1782 40.4074 48.2458 40.4064 48.3134C40.3955 49.247 40.3071 50.1817 40.1795 51.1154C39.9079 53.1058 39.4531 55.0964 39.1663 57.0879C39.0409 57.9572 38.3493 58.6344 37.4767 58.7337C34.2178 59.1034 31.4921 59.2093 28.5354 59.0478C27.3662 58.9857 26.1598 58.8809 24.8718 58.7348C23.9971 58.6344 23.298 57.9593 23.1726 57.0878C23.0897 56.513 22.9937 55.827 22.8912 55.0951C22.8039 54.4734 22.264 54.1997 21.7777 54.2728C21.3937 54.3295 21.0425 54.6043 20.9739 55.0951C20.8713 55.827 20.7743 56.513 20.6914 57.0878C20.566 57.9592 19.8669 58.6343 18.9922 58.7348C14.4462 59.2506 10.9353 59.2496 6.38725 58.7337C5.51466 58.6344 4.82324 57.9571 4.69773 57.0879C4.41086 55.0963 3.95722 53.1058 3.68557 51.1154C3.55796 50.1817 3.46959 49.247 3.4587 48.3134C3.45764 48.2458 3.45764 48.1782 3.45764 48.1105H40.4074Z" fill="#E49542"/>
<path d="M40.4063 48.3134C40.3954 49.247 40.307 50.1817 40.1794 51.1153H3.68537C3.55776 50.1817 3.46939 49.247 3.4585 48.3134H40.4063Z" fill="#E28424"/>
<path d="M10.0538 59.0483C8.88359 58.9851 7.67725 58.8792 6.387 58.7331C5.51441 58.6338 4.823 57.9565 4.69749 57.0873C4.2667 54.0945 3.4574 51.1028 3.4574 48.1099H7.61842C7.71991 51.2348 8.54117 54.3595 8.99047 57.4832C9.0875 58.1572 9.49005 58.7277 10.0538 59.0483Z" fill="#E28424"/>
<path d="M28.5354 59.0478C27.3662 58.9856 26.1599 58.8809 24.8718 58.7347C23.9972 58.6344 23.298 57.9593 23.1726 57.0878C23.0898 56.513 22.9938 55.8269 22.8912 55.0951C22.8039 54.4734 22.264 54.1997 21.7777 54.2728C21.8301 51.9616 21.9424 49.6353 21.9424 48.1116H26.1033C26.2048 51.2364 27.026 54.3611 27.4753 57.4848C27.5723 58.1578 27.9737 58.7271 28.5354 59.0478Z" fill="#E28424"/>
<path d="M41.5849 49.5119H2.27977C1.50597 49.5119 0.87854 48.8846 0.87854 48.1106C0.87854 47.3367 1.50585 46.7094 2.27977 46.7094H41.5848C42.3586 46.7094 42.986 47.3367 42.986 48.1106C42.986 48.8846 42.3587 49.5119 41.5849 49.5119Z" fill="#E49542"/>
<path d="M7.23503 49.5122H2.27905C1.50573 49.5122 0.878662 48.8839 0.878662 48.1107C0.878662 47.3364 1.50585 46.7092 2.27905 46.7092H7.23503C6.46065 46.7092 5.83347 47.3364 5.83347 48.1107C5.83347 48.8839 6.46065 49.5122 7.23503 49.5122Z" fill="#E28424"/>
<path d="M59.6156 51.0939L53.7655 39.4547C53.642 39.2089 53.4105 39.0351 53.1402 38.9851C52.8697 38.9351 52.5914 39.0145 52.3882 39.1998C51.9751 39.5763 51.4374 39.7837 50.8745 39.7837C49.6305 39.7837 48.6186 38.7712 48.6186 37.5267C48.6186 36.4514 49.3833 35.5204 50.4372 35.3129C50.7068 35.2598 50.936 35.0838 51.0568 34.8371C51.1776 34.5904 51.1761 34.3014 51.0528 34.0559L49.5796 31.1235C48.8727 29.7179 47.4562 28.8448 45.8829 28.8446C45.8828 28.8446 45.8827 28.8446 45.8826 28.8446C45.7304 28.8446 45.5806 28.8552 45.4319 28.8712C45.3933 26.7001 45.3374 24.5261 45.2632 22.3932C45.1888 20.2382 44.5552 18.1333 43.4306 16.3061C43.1762 15.8927 42.6348 15.7638 42.2215 16.0183C41.8081 16.2727 41.6792 16.8141 41.9336 17.2275C42.8987 18.7956 43.4426 20.6029 43.5064 22.4541C43.5869 24.7642 43.646 27.1228 43.6843 29.4735C43.0568 29.8666 42.5349 30.4294 42.1862 31.1226L37.8862 39.6784C36.2215 37.0913 33.8907 35.0845 31.1716 35.0845C26.4287 35.0845 22.867 41.1888 21.9626 45.8303H21.9057C21.4419 43.4502 20.2793 40.6861 18.6169 38.5569C18.605 36.8822 18.6047 35.1998 18.6149 33.5139C19.523 33.532 20.4332 33.5438 21.3459 33.5438C23.6264 33.5438 25.9162 33.4877 28.1877 33.3759C29.7277 33.3 30.9775 32.1338 31.1597 30.6027C31.4055 28.5353 31.4055 26.4386 31.1597 24.3712C30.9775 22.8401 29.7278 21.6738 28.1882 21.5981C25.1145 21.447 22.0017 21.3988 18.9203 21.4525C19.3785 17.8441 21.6144 14.7411 24.9399 13.1707H37.4048C38.2789 13.5835 39.0946 14.1136 39.8305 14.7517C39.9967 14.896 40.2017 14.9667 40.4059 14.9667C40.6518 14.9667 40.8965 14.864 41.0703 14.6636C41.3882 14.2969 41.3488 13.7418 40.9821 13.4237C40.5861 13.0804 40.1691 12.765 39.7358 12.4758C40.4959 11.879 40.9856 10.9526 40.9856 9.91348C40.9856 8.4219 39.9775 7.16223 38.6072 6.77762V3.66954C38.6069 1.64615 36.9609 0 34.9374 0H27.4067C25.3833 0 23.7371 1.64615 23.7371 3.66954V6.77785C22.3667 7.16247 21.3587 8.42213 21.3587 9.91371C21.3587 10.9527 21.8482 11.8788 22.608 12.4757C21.2811 13.3607 20.13 14.4964 19.2233 15.8287C17.9031 17.7685 17.1624 20.0386 17.0812 22.3932C16.9163 27.1515 16.8388 31.9615 16.8496 36.7222C15.6194 35.7145 14.2189 35.0846 12.6965 35.0846C10.5595 35.0846 8.397 36.393 6.60741 38.7688C6.31526 39.1564 6.39284 39.7076 6.78062 39.9996C7.16839 40.2918 7.71942 40.2142 8.01145 39.8264C8.85099 38.7119 10.576 36.8424 12.6967 36.8424C14.3484 36.8424 16.0837 37.9992 17.5829 40.0995C18.77 41.7626 19.6805 43.8433 20.112 45.8305H5.28036C5.5049 44.7992 5.86197 43.7306 6.3326 42.6903C6.53264 42.248 6.33635 41.7273 5.89408 41.5272C5.45193 41.3271 4.93114 41.5234 4.73098 41.9657C4.15383 43.2415 3.73171 44.5625 3.48866 45.8303H2.28185C1.02453 45.8303 0.00170898 46.8532 0.00170898 48.1105C0.00170898 49.3677 1.02465 50.3906 2.28185 50.3906H2.71381C2.85971 51.7371 3.10569 53.0791 3.34628 54.3838C3.51773 55.3136 3.69503 56.2752 3.8298 57.2122C4.01238 58.4775 5.02396 59.462 6.2903 59.6065C8.5947 59.8684 10.6446 59.9994 12.6953 59.9994C14.7429 59.9994 16.7914 59.8689 19.094 59.6077C19.5142 59.5598 19.9053 59.4187 20.2488 59.2077C21.1457 59.7274 22.1564 59.9998 23.2086 59.9998H31.1728L31.1706 59.9992C33.2218 59.9993 35.2727 59.8684 37.5783 59.6064C38.1889 59.5368 38.7391 59.2704 39.1669 58.8728C41.3415 59.6235 43.6035 59.9925 45.8554 59.9925C50.4356 59.9925 54.9723 58.471 58.6377 55.5562C59.9707 54.4972 60.382 52.6205 59.6156 51.0939ZM25.495 3.66954C25.495 2.61542 26.3526 1.75783 27.4067 1.75783H34.9374C35.9915 1.75783 36.8491 2.61542 36.8491 3.66954V6.65633H25.495V3.66954ZM24.6161 8.41416H37.728C38.5549 8.41416 39.2274 9.08683 39.2274 9.91359C39.2274 10.7405 38.5547 11.4131 37.728 11.4131H24.6161C23.7892 11.4131 23.1165 10.7405 23.1165 9.91359C23.1165 9.08683 23.7893 8.41416 24.6161 8.41416ZM28.1016 23.3541C28.7815 23.3875 29.3335 23.9027 29.4139 24.579C29.6433 26.5087 29.6433 28.4656 29.4139 30.3953C29.3335 31.0716 28.7814 31.5869 28.1011 31.6203C24.954 31.7752 21.7725 31.8204 18.6294 31.7577C18.6595 28.9071 18.721 26.0521 18.8138 23.2129C21.901 23.1562 25.0209 23.2027 28.1016 23.3541ZM43.7563 31.9124C44.169 31.0922 44.9637 30.6026 45.8823 30.6026H45.8826C46.8013 30.6027 47.5963 31.0927 48.009 31.9131L49.0365 33.9583C47.73 34.6334 46.8607 35.9982 46.8607 37.5268C46.8607 39.7406 48.6612 41.5417 50.8745 41.5417C51.4943 41.5417 52.0973 41.4001 52.6417 41.1328L57.5591 50.9165C57.5539 50.9207 57.5491 50.9254 57.5438 50.9296C55.0716 52.8959 52.1154 54.2111 48.9949 54.7331C46.1819 55.2036 43.2797 55.024 40.5528 54.2197C40.7837 52.9663 41.0149 51.6808 41.1545 50.3906H41.5869C42.8442 50.3906 43.867 49.3678 43.867 48.1105C43.867 46.8532 42.8442 45.8303 41.5869 45.8303H40.3803C40.1132 44.4598 39.6146 42.962 38.922 41.5311L43.7563 31.9124ZM26.2849 40.0997C27.7843 37.9992 29.5197 36.8424 31.1714 36.8424C32.8235 36.8424 34.5589 37.9992 36.0581 40.0997C37.2452 41.7627 38.1556 43.8434 38.587 45.8306H23.7558C24.1871 43.8436 25.0977 41.7629 26.2849 40.0997ZM1.75954 48.1107C1.75954 47.8227 1.99392 47.5884 2.28185 47.5884H41.5869C41.8749 47.5884 42.1092 47.8227 42.1092 48.1107C42.1092 48.3987 41.8749 48.633 41.5869 48.633H2.28185C1.9938 48.6329 1.75954 48.3987 1.75954 48.1107ZM21.3998 57.8297C21.4761 57.6335 21.5328 57.4274 21.5638 57.2121C21.6459 56.6359 21.7434 55.9492 21.8454 55.2166C21.8524 55.1669 21.8561 55.1395 21.9341 55.1395C22.0121 55.1395 22.0159 55.1669 22.0228 55.2159C22.1249 55.9494 22.2224 56.636 22.3046 57.2131C22.3561 57.5704 22.4758 57.9042 22.6473 58.2042C22.2123 58.146 21.7929 58.02 21.3998 57.8297ZM37.3793 57.8601C32.9162 58.3673 29.4377 58.3677 24.9731 57.8613C24.4947 57.8068 24.1127 57.4374 24.0446 56.964C23.9627 56.3894 23.8656 55.7049 23.7636 54.9727C23.6324 54.0359 22.8799 53.3816 21.934 53.3818C20.988 53.3818 20.2357 54.036 20.1044 54.9735C20.0026 55.7049 19.9054 56.3895 19.8236 56.9631C19.7554 57.4374 19.3735 57.8068 18.8954 57.8613C14.43 58.3677 10.9515 58.3673 6.48917 57.8601C6.01631 57.8062 5.63814 57.4366 5.56959 56.9616C5.4299 55.9906 5.24943 55.0117 5.07481 54.0652C4.8518 52.856 4.62434 51.6144 4.48254 50.3907H39.3856C39.2436 51.6177 39.0155 52.8627 38.792 54.0752C38.6181 55.0188 38.4383 55.9944 38.2986 56.9623C38.2301 57.4371 37.852 57.8062 37.3793 57.8601ZM57.5438 54.1804C52.6223 58.0939 45.9829 59.2574 40.0214 57.3045C40.0267 57.2741 40.034 57.2443 40.0385 57.2136C40.0984 56.7989 40.1671 56.3793 40.2393 55.9599C42.0757 56.4828 43.9818 56.748 45.8912 56.748C47.0261 56.748 48.1621 56.6546 49.2849 56.4669C52.5322 55.9237 55.6158 54.5938 58.2385 52.6128C58.2722 53.2044 58.0264 53.797 57.5438 54.1804Z" fill="black"/>
<path d="M46.7013 50.7883C47.2936 51.6498 48.1858 52.2289 49.2137 52.4192C49.4542 52.4637 49.6952 52.4858 49.9345 52.4858C50.7185 52.4858 51.4836 52.2498 52.1436 51.796C53.0051 51.2038 53.5842 50.3115 53.7745 49.2836C53.9649 48.2558 53.7435 47.2153 53.1513 46.3538C52.559 45.4924 51.6668 44.9132 50.6389 44.7229C49.6107 44.5326 48.5706 44.754 47.7091 45.3461C46.8477 45.9384 46.2685 46.8307 46.0782 47.8585C45.8877 48.8865 46.109 49.927 46.7013 50.7883ZM47.8065 48.1786C47.9114 47.6123 48.2305 47.1208 48.705 46.7946C49.0685 46.5446 49.4899 46.4146 49.9217 46.4146C50.0536 46.4146 50.1865 46.4268 50.3188 46.4513C50.885 46.5562 51.3765 46.8752 51.7029 47.3498C52.0291 47.8243 52.151 48.3975 52.0462 48.9637C51.9413 49.53 51.6222 50.0214 51.1478 50.3477C50.6731 50.6739 50.0999 50.7958 49.534 50.6911C48.9677 50.5862 48.4762 50.2672 48.1499 49.7926C47.8236 49.318 47.7016 48.7448 47.8065 48.1786Z" fill="black"/>
<path d="M43.01 45.5164C43.1854 45.5489 43.3611 45.5649 43.5356 45.5649C44.1072 45.5649 44.665 45.3928 45.1461 45.0621C45.7741 44.6302 46.1964 43.9797 46.3351 43.2304C46.474 42.481 46.3125 41.7225 45.8808 41.0943C45.4491 40.4662 44.7984 40.044 44.0491 39.9052C42.5022 39.619 41.0105 40.6443 40.7241 42.1913C40.4374 43.7383 41.4631 45.23 43.01 45.5164ZM42.4524 42.5114C42.5623 41.9175 43.1351 41.5235 43.729 41.6338C44.0167 41.6871 44.2664 41.8492 44.4322 42.0903C44.5981 42.3315 44.6599 42.6227 44.6067 42.9104C44.5534 43.1981 44.3913 43.4479 44.1502 43.6136C43.9091 43.7795 43.6181 43.8415 43.3301 43.7881C42.7362 43.678 42.3424 43.1053 42.4524 42.5114Z" fill="black"/>
</g>
<defs>
<clipPath id="clip0_1025_12585">
<rect width="60" height="60" fill="white"/>
</clipPath>
</defs>
</svg>
