<svg width="60" height="60" viewBox="0 0 60 60" fill="none" xmlns="../../../../../external.html?link=http://www.w3.org/2000/svg">
<path d="M46.1869 24.1322C47.1951 25.3941 50.8537 29.4497 56.7197 30.1472C56.7197 24.3689 53.2415 21.9717 53.2415 21.9717C53.2415 21.9717 56.7187 19.5741 56.7187 13.7963C50.8528 14.4933 47.1942 18.5494 46.1859 19.8113L46.1869 24.1322Z" fill="#CAE5FF"/>
<path d="M18.6211 10.1391C18.6211 10.1391 26.5106 3.28125 39.0797 3.28125C39.0797 3.28125 34.2277 8.69156 37.1752 13.088L18.6211 10.1391Z" fill="#CAE5FF"/>
<path d="M52.7039 38.2969C52.247 37.7418 51.6729 37.2947 51.0228 36.9878C50.3726 36.6809 49.6626 36.5217 48.9436 36.5217C48.2247 36.5217 47.5147 36.6809 46.8645 36.9878C46.2144 37.2947 45.6402 37.7418 45.1833 38.2969C42.6414 41.2695 41.2238 45.0401 41.1779 48.9511C41.1779 51.0107 41.996 52.986 43.4524 54.4423C44.9088 55.8987 46.884 56.7169 48.9436 56.7169C51.0033 56.7169 52.9785 55.8987 54.4349 54.4423C55.8912 52.986 56.7094 51.0107 56.7094 48.9511C56.6635 45.0401 55.2459 41.2695 52.7039 38.2969Z" fill="#E6F8FC"/>
<path d="M24.9094 48.1073H32.1676C32.1258 48.4282 32.1615 48.7544 32.2718 49.0586C32.3821 49.3628 32.5636 49.6362 32.8013 49.8557C33.039 50.0753 33.3258 50.2347 33.6377 50.3206C33.9497 50.4065 34.2777 50.4164 34.5943 50.3494C34.9105 50.2848 35.2068 50.1458 35.4586 49.944C35.7105 49.7422 35.9107 49.4833 36.0427 49.1888C36.1747 48.8943 36.2347 48.5726 36.2178 48.2503C36.2008 47.928 36.1074 47.6144 35.9452 47.3353C35.819 47.1185 35.7525 46.8721 35.7525 46.6212C35.7525 46.3703 35.819 46.1239 35.9452 45.907C36.1013 45.6368 36.1931 45.3343 36.2136 45.0229C36.2341 44.7115 36.1827 44.3996 36.0634 44.1113C35.9441 43.8229 35.7601 43.5659 35.5255 43.36C35.291 43.1541 35.0123 43.005 34.7109 42.924C34.4095 42.8431 34.0935 42.8326 33.7874 42.8933C33.4813 42.954 33.1933 43.0843 32.9456 43.2741C32.6979 43.4639 32.4971 43.7081 32.3589 43.9879C32.2206 44.2676 32.1486 44.5754 32.1483 44.8875C32.149 44.9703 32.1546 45.0529 32.1652 45.135H24.9094L22.2347 46.6214L24.9094 48.1073Z" fill="#E6F8FC"/>
<path d="M11.6611 38.242C10.3482 38.2422 9.05375 38.5509 7.88208 39.1432C6.71042 39.7355 5.69433 40.5948 4.91575 41.6519C4.13717 42.709 3.61789 43.9342 3.39977 45.2289C3.18165 46.5235 3.27081 47.8512 3.66005 49.1051C4.04928 50.3589 4.72771 51.5038 5.64062 52.4473C6.55353 53.3908 7.67538 54.1066 8.91572 54.5369C10.156 54.9672 11.4801 55.1001 12.7813 54.9248C14.0824 54.7494 15.3241 54.2708 16.4062 53.5275C17.8959 52.5222 19.4896 51.6806 21.1598 51.0173C23.2551 50.1628 24.914 49.2173 24.9145 48.2255C24.9204 47.8267 24.8121 47.4345 24.6023 47.0953C24.5123 46.9535 24.4645 46.7891 24.4645 46.6212C24.4645 46.4532 24.5123 46.2888 24.6023 46.147C24.8121 45.8078 24.9204 45.4156 24.9145 45.0169C24.9145 44.025 23.2551 43.0795 21.1593 42.2245C19.4781 41.5502 17.8727 40.7005 16.3697 39.6895C14.9817 38.7438 13.3406 38.2393 11.6611 38.242Z" fill="#BA6F31"/>
<path d="M48.9436 53.5054C51.4579 53.5054 53.4961 51.4672 53.4961 48.953C53.4961 46.4387 51.4579 44.4005 48.9436 44.4005C46.4293 44.4005 44.3911 46.4387 44.3911 48.953C44.3911 51.4672 46.4293 53.5054 48.9436 53.5054Z" fill="#FFD92E"/>
<path d="M47.3156 21.0525C47.5354 21.3083 47.6563 21.6344 47.6563 21.9717C47.6563 22.309 47.5354 22.6351 47.3156 22.8909C44.8786 25.7381 36.5194 34.2187 23.4253 34.2187C7.68984 34.2187 3.28125 21.9717 3.28125 21.9717C3.28125 21.9717 7.6875 9.72467 23.4244 9.72467C36.5194 9.72467 44.8786 18.2053 47.3156 21.0525Z" fill="#E6F8FC"/>
<path d="M20.385 21.9703C20.385 29.0719 14.8913 32.8032 14.8913 32.8032C12.3156 31.892 9.95541 30.4599 7.95788 28.5961C5.96034 26.7323 4.36835 24.4768 3.28125 21.9703C4.36896 19.4647 5.96132 17.21 7.959 15.347C9.95668 13.484 12.3168 12.0527 14.8922 11.1422C14.8922 11.1422 20.385 14.8735 20.385 21.9703Z" fill="#CAE5FF"/>
<path d="M24.6094 24.0469C24.6094 24.0469 21.9755 24.2986 22.7156 27.6905C26.1216 32.0939 31.1813 30.3333 31.1813 30.3333C29.5847 25.2117 24.6094 24.0469 24.6094 24.0469Z" fill="#CAE5FF"/>
<path d="M36.998 44.3958C36.8834 43.7407 36.5439 43.1462 36.0379 42.7148C35.5319 42.2833 34.8912 42.042 34.2263 42.0324C33.5614 42.0228 32.914 42.2455 32.3958 42.6622C31.8776 43.0788 31.521 43.6632 31.3875 44.3147H25.5938C25.1888 43.3383 23.8922 42.4533 21.4688 41.4651C19.8404 40.8117 18.2851 39.9894 16.8281 39.0117C15.305 37.9729 13.5034 37.4186 11.6597 37.4217C10.4025 37.4241 9.15897 37.6831 8.00532 38.1828C6.85167 38.6825 5.81218 39.4125 4.95049 40.328C4.08533 41.2438 3.41917 42.3288 2.99394 43.5147C2.56871 44.7006 2.39362 45.9617 2.4797 47.2186C2.57784 48.6116 2.98944 49.9644 3.68375 51.176C4.37807 52.3876 5.33716 53.4267 6.48939 54.2156C6.66897 54.3384 6.88999 54.3849 7.10383 54.3448C7.31766 54.3046 7.5068 54.1812 7.62963 54.0016C7.75245 53.822 7.79891 53.601 7.75878 53.3872C7.71865 53.1734 7.59522 52.9842 7.41564 52.8614C6.46845 52.2138 5.67979 51.3606 5.10853 50.3654C4.53728 49.3703 4.19819 48.259 4.11658 47.1145C4.02368 45.7018 4.32938 44.2914 4.99886 43.044C5.66833 41.7965 6.67468 40.7622 7.90328 40.0587C9.13187 39.3552 10.5333 39.0109 11.9481 39.065C13.3628 39.119 14.7339 39.5693 15.9052 40.3645C17.4564 41.4084 19.113 42.2865 20.8477 42.9844C24.0549 44.2926 24.0919 44.9887 24.0919 45.0173C24.0968 45.2616 24.0318 45.5021 23.9044 45.7106C23.7313 45.9827 23.6393 46.2984 23.6393 46.6209C23.6393 46.9434 23.7313 47.2592 23.9044 47.5312C24.0318 47.74 24.0968 47.9809 24.0919 48.2255C24.0919 48.254 24.0549 48.9501 20.8477 50.2589C19.1217 50.9424 17.4752 51.8119 15.9375 52.852C14.5978 53.7807 12.9907 54.245 11.362 54.1739C11.2894 54.1711 11.2172 54.1678 11.145 54.1626C11.0365 54.1526 10.927 54.1643 10.823 54.1971C10.719 54.2299 10.6226 54.2831 10.5394 54.3535C10.4562 54.424 10.3879 54.5103 10.3384 54.6075C10.289 54.7047 10.2594 54.8107 10.2515 54.9195C10.2435 55.0282 10.2573 55.1374 10.292 55.2408C10.3267 55.3441 10.3817 55.4395 10.4537 55.5214C10.5258 55.6032 10.6134 55.6699 10.7115 55.7175C10.8096 55.7651 10.9162 55.7927 11.025 55.7986C11.1188 55.8056 11.2069 55.8098 11.2983 55.8136C11.4202 55.8183 11.5416 55.8206 11.6625 55.8206C13.5212 55.8244 15.3366 55.2602 16.8656 54.2034C18.306 53.2305 19.8479 52.417 21.4641 51.7772C23.8866 50.789 25.1831 49.9022 25.5891 48.9276H31.3875C31.5198 49.5725 31.8709 50.1518 32.3812 50.5676C32.8916 50.9833 33.53 51.2099 34.1883 51.209C34.3771 51.2091 34.5655 51.1909 34.7508 51.1547C35.1956 51.0652 35.6126 50.8708 35.9673 50.5879C36.322 50.3049 36.6041 49.9414 36.7901 49.5276C36.9762 49.1138 37.0609 48.6616 37.0372 48.2085C37.0135 47.7554 36.8821 47.3145 36.6539 46.9223C36.601 46.8309 36.5731 46.7271 36.5731 46.6214C36.5731 46.5157 36.601 46.4119 36.6539 46.3205C36.9932 45.74 37.1152 45.0578 36.998 44.3958ZM35.236 47.7483C35.3291 47.9096 35.3838 48.0901 35.396 48.276C35.4082 48.4618 35.3774 48.6479 35.3062 48.82C35.2349 48.9921 35.1249 49.1454 34.9849 49.2682C34.8449 49.391 34.6784 49.4799 34.4985 49.5281C34.3186 49.5762 34.1301 49.5824 33.9474 49.546C33.7648 49.5096 33.5929 49.4317 33.4452 49.3183C33.2975 49.2048 33.1778 49.059 33.0955 48.8919C33.0132 48.7248 32.9704 48.5411 32.9705 48.3548C32.9709 48.3058 32.9742 48.2568 32.9803 48.2081C32.9948 48.0928 32.9845 47.9757 32.9502 47.8646C32.9159 47.7535 32.8583 47.651 32.7814 47.5639C32.7044 47.4768 32.6098 47.407 32.5038 47.3593C32.3978 47.3116 32.2828 47.2869 32.1666 47.287H25.582C25.5121 47.0664 25.4154 46.8552 25.2942 46.658C25.2864 46.647 25.2823 46.6339 25.2823 46.6205C25.2823 46.607 25.2864 46.5939 25.2942 46.583C25.4148 46.3862 25.5107 46.1754 25.5797 45.9553H32.1656C32.2819 45.9554 32.3968 45.9308 32.5028 45.883C32.6088 45.8353 32.7034 45.7655 32.7804 45.6784C32.8574 45.5913 32.9149 45.4888 32.9492 45.3777C32.9835 45.2667 32.9938 45.1496 32.9794 45.0342C32.9733 44.9855 32.97 44.9365 32.9695 44.8875C32.9696 44.7011 33.0126 44.5173 33.0951 44.3502C33.1776 44.1832 33.2975 44.0373 33.4454 43.924C33.5933 43.8107 33.7653 43.7329 33.9481 43.6967C34.1309 43.6605 34.3196 43.6668 34.4996 43.7152C34.6795 43.7636 34.8459 43.8528 34.9859 43.9758C35.1258 44.0988 35.2356 44.2524 35.3067 44.4246C35.3778 44.5969 35.4083 44.7832 35.3959 44.9691C35.3835 45.155 35.3284 45.3356 35.235 45.4969C35.0366 45.8389 34.9322 46.2273 34.9324 46.6227C34.9326 47.0181 35.0373 47.4064 35.236 47.7483Z" fill="black"/>
<path d="M43.5698 48.9534C43.5698 50.0162 43.885 51.0551 44.4754 51.9387C45.0659 52.8223 45.9051 53.5111 46.8869 53.9177C47.8688 54.3244 48.9492 54.4308 49.9916 54.2234C51.0339 54.0161 51.9913 53.5043 52.7428 52.7527C53.4942 52.0012 54.0059 51.0438 54.2132 50.0014C54.4205 48.9591 54.314 47.8787 53.9072 46.8968C53.5005 45.915 52.8117 45.0758 51.928 44.4855C51.0443 43.8951 50.0054 43.58 48.9426 43.5801C47.5181 43.5818 46.1524 44.1484 45.1451 45.1557C44.1378 46.1631 43.5713 47.5289 43.5698 48.9534ZM52.6753 48.9534C52.6753 49.6917 52.4564 50.4133 52.0462 51.0272C51.6361 51.641 51.0531 52.1194 50.3711 52.4019C49.689 52.6845 48.9385 52.7584 48.2144 52.6144C47.4904 52.4703 46.8253 52.1148 46.3033 51.5928C45.7812 51.0708 45.4257 50.4057 45.2817 49.6816C45.1377 48.9576 45.2116 48.207 45.4941 47.525C45.7766 46.8429 46.2551 46.26 46.8689 45.8498C47.4827 45.4397 48.2044 45.2208 48.9426 45.2208C49.9323 45.2219 50.881 45.6155 51.5808 46.3153C52.2806 47.015 52.6742 47.9638 52.6753 48.9534Z" fill="black"/>
<path d="M48.9422 35.7033C48.1021 35.7021 47.2722 35.8876 46.5126 36.2463C45.7529 36.605 45.0824 37.128 44.5495 37.7775C41.8949 40.9017 40.413 44.854 40.3594 48.9534C40.3761 51.2195 41.2881 53.3871 42.8964 54.9837C44.5048 56.5802 46.679 57.4761 48.9452 57.4761C51.2114 57.4761 53.3857 56.5802 54.994 54.9837C56.6024 53.3871 57.5144 51.2195 57.5311 48.9534C57.4767 44.8537 55.9941 40.9014 53.3386 37.7775C52.8053 37.1275 52.1342 36.6042 51.3739 36.2455C50.6135 35.8868 49.7829 35.7015 48.9422 35.7033ZM48.9422 55.8984C47.1014 55.8956 45.3369 55.1629 44.0355 53.861C42.7341 52.559 42.0021 50.7942 42 48.9534C42.0557 45.2343 43.406 41.651 45.8184 38.82C46.1984 38.3584 46.6759 37.9867 47.2165 37.7315C47.7572 37.4763 48.3476 37.344 48.9455 37.344C49.5433 37.344 50.1338 37.4763 50.6744 37.7315C51.2151 37.9867 51.6925 38.3584 52.0725 38.82C54.4844 41.6513 55.8344 45.2345 55.8905 48.9534C55.8882 50.7951 55.1554 52.5608 53.8529 53.8628C52.5503 55.1648 50.7839 55.8969 48.9422 55.8984Z" fill="black"/>
<path d="M13.0216 18.2703C13.5166 18.1904 13.8532 17.7243 13.7732 17.2292C13.6933 16.7342 13.2272 16.3976 12.7322 16.4776C12.2371 16.5575 11.9006 17.0236 11.9805 17.5186C12.0604 18.0137 12.5265 18.3502 13.0216 18.2703Z" fill="black"/>
<path d="M57.5391 13.7962C57.5391 13.6803 57.5145 13.5657 57.467 13.46C57.4195 13.3542 57.3501 13.2597 57.2635 13.1828C57.1768 13.1058 57.0748 13.0481 56.9641 13.0134C56.8535 12.9787 56.7368 12.9679 56.6217 12.9816C51.2939 13.6153 47.6962 16.883 46.1395 18.6066C43.6615 16.1734 40.8424 14.114 37.7709 12.4931C35.4103 8.70328 39.6459 3.87703 39.6895 3.82875C39.7952 3.71087 39.8645 3.56493 39.889 3.40855C39.9136 3.25217 39.8924 3.09202 39.828 2.94742C39.7636 2.80282 39.6587 2.67995 39.526 2.59363C39.3933 2.50731 39.2384 2.46122 39.0802 2.46094C37.6056 2.46098 36.1325 2.55382 34.6697 2.73891C34.5615 2.75074 34.4567 2.784 34.3614 2.83674C34.2662 2.88948 34.1824 2.96066 34.1149 3.04611C34.0475 3.13157 33.9977 3.2296 33.9685 3.33448C33.9394 3.43937 33.9313 3.54902 33.945 3.65703C33.9586 3.76504 33.9936 3.86927 34.0479 3.96362C34.1022 4.05797 34.1748 4.14057 34.2613 4.2066C34.3479 4.27262 34.4467 4.32076 34.5521 4.34819C34.6575 4.37563 34.7672 4.38182 34.875 4.36641C35.7108 4.26047 36.5559 4.18641 37.403 4.14375C36.3201 5.77547 34.9022 8.59687 35.5725 11.4389C31.7404 9.76856 27.6051 8.90638 23.4248 8.90625C22.8445 8.90625 22.2834 8.92687 21.7322 8.95875C22.6639 8.38805 23.6246 7.86594 24.6103 7.39453C24.8065 7.30054 24.9574 7.13245 25.0297 6.92723C25.102 6.72201 25.0898 6.49647 24.9959 6.30023C24.9019 6.104 24.7338 5.95313 24.5286 5.88082C24.3233 5.80852 24.0978 5.8207 23.9016 5.91469C21.8887 6.85286 19.99 8.01842 18.2423 9.38859C6.26249 11.693 2.54999 21.5812 2.50921 21.6937C2.44501 21.8735 2.44501 22.0699 2.50921 22.2497C2.55609 22.3772 7.2989 35.0391 23.4248 35.0391C34.5834 35.0391 42.427 28.9866 46.1395 25.3392C47.6962 27.0605 51.2958 30.3281 56.6217 30.9642C56.6539 30.9681 56.6863 30.9701 56.7187 30.9703C56.9363 30.9702 57.1448 30.8837 57.2987 30.7299C57.4525 30.5761 57.5389 30.3675 57.5391 30.15C57.5391 25.6969 55.605 23.1037 54.4828 21.9741C55.605 20.842 57.5391 18.2489 57.5391 13.7962ZM4.57359 22.8487C7.01559 23.0339 9.38886 23.744 11.5312 24.9305C11.7153 25.043 11.9363 25.0785 12.1463 25.0293C12.3563 24.98 12.5385 24.8501 12.6534 24.6675C12.7683 24.4849 12.8066 24.2644 12.7601 24.0538C12.7137 23.8431 12.5861 23.6593 12.405 23.542C9.98864 22.1721 7.292 21.3706 4.51968 21.1983C6.67509 16.99 10.3169 13.7325 14.7384 12.0577C15.8494 12.9539 19.5609 16.3673 19.5609 21.9727C19.5609 27.578 15.8508 30.9914 14.7408 31.8867C10.3563 30.2257 6.73694 27.0084 4.57359 22.8487ZM23.4248 33.3984C21.1031 33.4165 18.7901 33.1113 16.5525 32.4914C18.0176 31.1585 19.1881 29.5343 19.989 27.7228C20.79 25.9112 21.2037 23.9524 21.2037 21.9717C21.2037 19.991 20.79 18.0322 19.989 16.2207C19.1881 14.4092 18.0176 12.7849 16.5525 11.452C18.7902 10.8331 21.1032 10.5285 23.4248 10.5469C36.2437 10.5469 44.4745 18.997 46.6917 21.5873C46.7844 21.6946 46.8355 21.8316 46.8355 21.9734C46.8355 22.1151 46.7844 22.2521 46.6917 22.3594C44.475 24.9478 36.2447 33.3984 23.4248 33.3984ZM55.8623 29.1858C51.503 28.3519 48.5545 25.5891 47.2819 24.1594C47.5359 23.8838 47.7572 23.6339 47.9381 23.4244C48.2868 23.0206 48.4787 22.5048 48.4787 21.9713C48.4787 21.4377 48.2868 20.9219 47.9381 20.5181C47.7586 20.3086 47.5373 20.0592 47.2819 19.7836C49.5254 17.2282 52.534 15.4653 55.86 14.7572C55.5248 19.3008 52.8881 21.2137 52.7719 21.2962C52.6632 21.3718 52.5745 21.4724 52.513 21.5896C52.4516 21.7068 52.4193 21.837 52.4189 21.9693C52.4186 22.1016 52.4501 22.2321 52.5109 22.3496C52.5717 22.4671 52.6599 22.5682 52.7681 22.6444C52.8914 22.7288 55.5286 24.6422 55.8637 29.1858H55.8623Z" fill="black"/>
<path d="M24.7969 23.25C24.5913 23.2153 24.3802 23.2602 24.2065 23.3756C24.0328 23.4909 23.9096 23.6681 23.8619 23.871C23.8141 24.074 23.8454 24.2875 23.9494 24.4682C24.0535 24.6489 24.2224 24.7832 24.4218 24.8438C25.6704 25.1954 26.8261 25.8177 27.8069 26.6665C28.7877 27.5153 29.5694 28.5697 30.0965 29.7549C28.8466 30.003 27.552 29.8938 26.3613 29.4397C25.1706 28.9856 24.1321 28.205 23.3648 27.1875C23.2302 27.02 23.0352 26.9121 22.8218 26.8868C22.6084 26.8616 22.3936 26.9211 22.2236 27.0526C22.0536 27.1841 21.942 27.377 21.9128 27.5899C21.8836 27.8028 21.939 28.0187 22.0673 28.1911C22.8466 29.233 23.8622 30.0749 25.0305 30.6474C26.1988 31.2199 27.4865 31.5067 28.7873 31.4841C29.6893 31.4916 30.5873 31.3642 31.4517 31.1063C31.6528 31.0364 31.8189 30.8911 31.9147 30.7009C32.0105 30.5108 32.0285 30.2909 31.965 30.0877C30.247 24.5831 25.0186 23.3002 24.7969 23.25Z" fill="black"/>
<path d="M28.4086 5.80688C28.4955 5.80686 28.5819 5.7931 28.6645 5.7661C29.3081 5.55469 29.9719 5.35922 30.638 5.18485C30.8483 5.12963 31.0281 4.99317 31.1378 4.80546C31.2476 4.61774 31.2783 4.39413 31.2233 4.18376C31.1682 3.9734 31.0319 3.7935 30.8443 3.6836C30.6567 3.57369 30.4331 3.54278 30.2227 3.59766C29.5242 3.78047 28.8281 3.98532 28.1531 4.20703C27.9677 4.2678 27.81 4.39268 27.7083 4.55927C27.6067 4.72585 27.5677 4.92321 27.5985 5.11592C27.6293 5.30862 27.7278 5.48405 27.8762 5.61069C28.0247 5.73733 28.2135 5.80689 28.4086 5.80688Z" fill="black"/>
</svg>
