<svg width="60" height="60" viewBox="0 0 60 60" fill="none" xmlns="../../../../../external.html?link=http://www.w3.org/2000/svg">
<g clip-path="url(#clip0_1025_26522)">
<path d="M25.7454 8.34362L22.3323 9.90146C22.1331 9.99238 21.9386 10.0902 21.7475 10.1928V8.62902V7.47957C21.7475 6.00809 22.2095 4.57358 23.0683 3.37861L23.8792 2.25022C24.3224 1.63366 23.6611 0.82905 22.9703 1.14429L20.5782 2.23606C18.0748 3.37861 16.4687 5.87726 16.4687 8.62902C16.4687 5.87726 14.8625 3.37872 12.3592 2.23606L9.96711 1.14429C9.27636 0.82905 8.6151 1.63366 9.05824 2.25022L9.86917 3.37861C10.728 4.57358 11.1898 6.00797 11.1898 7.47957V8.62902V10.1928C10.9987 10.0902 10.8042 9.99226 10.6051 9.90146L7.19195 8.34362C6.20632 7.89381 5.26293 9.04174 5.89505 9.92159L7.05211 11.5316C8.27739 13.2367 8.93655 15.2834 8.93655 17.383V19.0231H24.0007V17.383C24.0007 15.2834 24.6598 13.2367 25.8851 11.5316L27.0422 9.92159C27.6745 9.04174 26.731 7.89369 25.7454 8.34362Z" fill="#97DA7B"/>
<path d="M10.6048 9.90125L7.19147 8.34376C6.65202 8.09686 6.12662 8.32972 5.8645 8.7346L8.42131 9.90125C9.99519 10.5367 10.9992 10.2535 11.1899 10.1926C10.9992 10.0897 10.8038 9.99253 10.6048 9.90125ZM12.3589 2.23667L9.9671 1.14491C9.48733 0.926086 9.02278 1.24671 8.93151 1.66914L10.1754 2.23667C12.6784 3.37875 16.4685 6.74298 16.4685 8.62929C16.4685 5.87706 14.8631 3.37875 12.3589 2.23667ZM22.97 1.14491L21.822 1.66914C21.863 1.8552 21.8302 2.06232 21.6945 2.25071L20.8836 3.37875C20.8754 3.39045 20.8672 3.40216 20.8578 3.41503C19.5859 5.20889 19.6935 7.64167 21.0731 9.35479L21.7472 10.1926V7.48018C21.7472 6.00811 22.2094 4.57349 23.0683 3.37875L23.8792 2.25071C24.3227 1.63404 23.6615 0.828962 22.97 1.14491ZM25.7456 8.34376L24.8891 8.7346C25.1079 9.06927 25.1441 9.52329 24.8575 9.92115L23.7013 11.5313C22.4762 13.2362 21.8162 15.2828 21.8162 17.3833V19.0227H24.0009V17.3833C24.0009 15.2828 24.6597 13.2362 25.8849 11.5313L27.0422 9.92115C27.674 9.04235 26.7309 7.89325 25.7456 8.34376Z" fill="#80D261"/>
<path d="M16.4353 52.1918C10.4171 52.1918 5.04248 48.4247 2.98943 42.7674L2.88996 42.4932C0.681861 36.4088 0.681861 29.7419 2.88996 23.6575L2.98943 23.3834C5.04248 17.7261 10.4171 13.959 16.4353 13.959H16.5715C22.5558 13.959 27.9075 17.6842 29.9855 23.2961C32.2339 29.3681 32.2764 36.0371 30.1058 42.1373L29.9115 42.683C27.8831 48.3841 22.4866 52.1918 16.4353 52.1918Z" fill="#FFD15B"/>
<path d="M31.7029 32.8821C31.7029 36.0123 31.1705 39.1425 30.1057 42.1369L29.9114 42.6834C27.8835 48.3844 22.4867 52.1922 16.4358 52.1922C15.8484 52.1922 15.2668 52.1559 14.6946 52.0857C20.0188 51.4327 24.5942 47.8298 26.4243 42.6834L26.6186 42.1369C27.6846 39.1425 28.2158 36.0111 28.2158 32.8809C28.2158 29.6337 27.6436 26.3877 26.4992 23.2961C24.6176 18.2141 20.0516 14.6802 14.7624 14.0576C15.3136 13.9921 15.8718 13.9594 16.4358 13.9594H16.5715C22.5558 13.9594 27.9081 17.684 29.9851 23.2961C31.1307 26.3877 31.7029 29.6349 31.7029 32.8821Z" fill="#FFC344"/>
<path d="M50.8742 8.47797C61.8716 19.4754 61.8717 37.3073 50.8742 48.3048C39.8766 59.3022 22.0448 59.3022 11.0474 48.3048L14.2845 45.0676L32.9691 29.1605L47.6357 11.7164L50.8742 8.47797Z" fill="#97DA7B"/>
<path d="M50.8737 48.3049C44.9457 54.233 37.0307 56.9653 29.2725 56.5031C35.9061 56.1064 42.4263 53.3729 47.4943 48.3049C57.9228 37.8764 58.4622 21.3022 49.1138 10.2383L50.8737 8.47833C61.8721 19.4755 61.8721 37.3077 50.8737 48.3049Z" fill="#80D261"/>
<path d="M47.6369 11.7151C56.8472 20.9253 56.8472 35.8575 47.6369 45.0676C38.4267 54.2777 23.4947 54.2779 14.2844 45.0676L30.9607 28.3913L47.6369 11.7151Z" fill="#EE6161"/>
<path d="M28.8637 58.9263C34.8107 58.9263 39.6317 54.1054 39.6317 48.1584C39.6317 42.2114 34.8107 37.3904 28.8637 37.3904C22.9167 37.3904 18.0957 42.2114 18.0957 48.1584C18.0957 54.1054 22.9167 58.9263 28.8637 58.9263Z" fill="#FFD15B"/>
<path d="M39.6321 48.1586C39.6321 54.1054 34.811 58.9265 28.8642 58.9265C28.3482 58.9265 27.8392 58.8902 27.343 58.8188C32.5701 58.0804 36.5897 53.5893 36.5897 48.1586C36.5897 42.7279 32.5701 38.2368 27.343 37.4984C27.8392 37.427 28.3482 37.3907 28.8642 37.3907C34.811 37.3907 39.6321 42.2118 39.6321 48.1586Z" fill="#FFC344"/>
<path d="M13.6846 58.5793L13.5449 58.5344C12.7733 58.2864 11.9541 58.2864 11.1826 58.5344C6.91427 59.906 2.46928 57.0871 1.37389 52.3139L1.36195 52.2621C0.832801 49.9565 0.832801 47.5409 1.36195 45.2353L1.41016 45.0252C2.49163 40.3124 6.84464 37.4931 11.0803 38.7616L11.2591 38.8152C11.9825 39.0319 12.7449 39.0319 13.4682 38.8152L13.7849 38.7204C17.9671 37.4679 22.2754 40.2009 23.4189 44.8317L23.457 44.9864C24.0651 47.4494 24.0651 50.0481 23.457 52.511C22.2987 57.2019 17.8993 59.9338 13.6846 58.5793Z" fill="#F79595"/>
<path d="M23.4568 52.5105C22.6002 55.9777 19.9743 58.3754 16.96 58.8423C18.7106 57.4182 20.0352 55.0497 20.6624 52.5105C21.2709 50.0485 21.2709 47.4495 20.6624 44.9863L20.625 44.8319C19.8948 41.8737 18.2799 39.4561 16.1187 38.4217C19.4653 38.5539 22.489 41.0651 23.4193 44.8319L23.4568 44.9863C24.0652 47.4495 24.0652 50.0485 23.4568 52.5105Z" fill="#F47C7C"/>
<path d="M60 28.3914C60 20.6346 56.9794 13.3421 51.4948 7.85741C51.1519 7.51479 50.5963 7.51479 50.2536 7.85741L19.6218 38.4891C17.3441 37.2864 15.2625 37.6352 12.8746 38.0533C11.7909 34.1432 9.07369 32.6289 8.93046 32.5518C8.5037 32.3218 7.97151 32.4817 7.74169 32.9084C7.51187 33.3352 7.67148 33.8674 8.09836 34.0972C8.12375 34.1108 9.96571 35.1391 10.9523 37.8175C8.11521 37.1135 5.09208 38.0864 3.06887 40.1595C0.289609 30.0242 3.6316 14.8186 16.5716 14.8366C22.3282 14.8366 27.4103 18.625 29.3084 24.0044C29.4694 24.4615 29.971 24.7016 30.4278 24.5403C30.885 24.3792 31.1249 23.878 30.9637 23.421C29.8524 20.2655 27.8261 17.5405 25.0413 15.6667C25.2907 14.3647 25.8232 13.1218 26.598 12.0438L27.755 10.4338C28.8662 8.88727 27.1492 6.73908 25.3811 7.54509L22.6253 8.80302C22.5649 6.44713 23.1637 4.63688 24.592 2.76239C25.0262 2.158 25.0006 1.36557 24.5281 0.790665C24.0556 0.215528 23.283 0.0371953 22.606 0.345768C20.1518 1.46597 17.7846 2.46049 16.4688 5.0159C15.1629 2.4798 12.7732 1.46012 10.3316 0.345768C9.65468 0.0366102 8.88202 0.215645 8.40962 0.790548C7.93711 1.36557 7.91136 2.15789 8.34561 2.76239C9.76678 4.63864 10.3782 6.44268 10.3124 8.80302L7.55634 7.54509C5.82414 6.75465 4.04865 8.85556 5.18254 10.4338L6.3396 12.0438C7.1249 13.1365 7.66083 14.3978 7.90586 15.719C-0.13914 21.1913 -1.00857 33.3705 1.75033 41.8722C-0.460233 45.5263 -0.560867 51.0549 1.35727 54.8379C1.57656 55.2702 2.10465 55.443 2.53691 55.2238C2.96917 55.0047 3.142 54.4765 2.92283 54.0442C0.80261 49.8618 1.43707 42.7657 5.81747 40.2162C7.73479 39.1004 9.41549 39.356 11.4396 39.761C11.5164 40.2841 11.5615 40.8469 11.5615 41.4565C11.5615 41.9413 11.9543 42.3341 12.4391 42.3341C12.9239 42.3341 13.3167 41.9413 13.3167 41.4565C13.3167 40.8611 13.2806 40.3012 13.2156 39.7744C15.2836 39.3941 17.0251 39.0197 18.9996 40.1473C24.5546 43.3194 24.5646 54.1126 18.9794 57.2284C17.4436 58.0851 15.4788 58.3162 13.8133 57.699C12.8649 57.3944 11.8623 57.3944 10.9139 57.699C9.05742 58.2959 7.11706 58.0184 5.45086 56.9181C5.04645 56.6509 4.50197 56.7623 4.23494 57.1667C3.96779 57.5712 4.07907 58.1155 4.4836 58.3827C6.57199 59.7621 9.1116 60.122 11.451 59.3701C12.0479 59.1781 12.6791 59.1781 13.2762 59.3701C15.4455 60.1046 17.8337 59.8777 19.8345 58.7614C20.52 58.379 21.1501 57.9016 21.7126 57.3469C23.7514 58.9356 26.2582 59.8042 28.8638 59.8042C31.8136 59.8042 34.5103 58.7012 36.5645 56.8866C42.2331 55.7774 47.3913 53.029 51.4948 48.9257C56.9794 43.4407 60 36.1484 60 28.3914ZM7.76498 11.0194L6.60792 9.4094C6.54391 9.20755 6.61716 9.11838 6.82756 9.14202C8.14025 9.74114 9.50244 10.2823 10.7744 10.9658C11.0465 11.1122 11.3753 11.1047 11.6402 10.9462C11.9054 10.7877 12.0676 10.5016 12.0676 10.1928C12.0676 7.18152 11.9856 4.69972 10.0717 2.15672C12.9226 3.45806 15.591 5.0228 15.591 8.62902C15.591 9.11382 15.9839 9.50664 16.4687 9.50664C16.9535 9.50664 17.3463 9.11382 17.3463 8.62902C17.3463 5.04152 20.0151 3.45806 22.8655 2.15683C20.9518 4.69984 20.8699 7.18152 20.8699 10.1928C20.8699 10.5017 21.0323 10.7877 21.2974 10.9462C21.5625 11.1045 21.8912 11.112 22.1633 10.9656C23.435 10.2816 24.7967 9.74114 26.1097 9.1419C26.3201 9.11826 26.3933 9.20743 26.3294 9.40928L25.1726 11.0194C24.3704 12.1358 23.7866 13.4007 23.4522 14.7311C21.3293 13.6487 18.9863 13.0814 16.5718 13.0814C14.1179 13.0617 11.6761 13.648 9.49577 14.773C9.16309 13.4272 8.5759 12.1478 7.76498 11.0194ZM22.8381 55.9992C25.7223 51.8212 25.5889 44.7052 22.3395 40.7279C24.1437 39.1375 26.4302 38.268 28.8639 38.268C34.3173 38.268 38.7542 42.7048 38.7542 48.1584C38.7542 53.6118 34.3174 58.0487 28.8639 58.0487C26.6712 58.0487 24.5608 57.3249 22.8381 55.9992ZM38.5599 54.6013C39.2712 53.5344 39.8117 52.3442 40.141 51.0697C43.1842 49.8404 45.9135 48.0325 48.2577 45.6883C51.6856 42.2603 53.9982 37.9461 54.9452 33.2122C55.0404 32.7369 54.7321 32.2744 54.2568 32.1794C53.7813 32.084 53.3192 32.3925 53.224 32.8678C52.3451 37.261 50.1987 41.265 47.0164 44.4472C45.0989 46.3647 42.904 47.895 40.478 49.0125C40.9621 42.3651 35.5324 36.5128 28.8639 36.5128C26.0199 36.5128 23.3454 37.519 21.2287 39.3647L47.6254 12.9679C51.5918 17.2445 53.7308 22.7774 53.6656 28.6446C53.6603 29.1293 54.0489 29.5265 54.5336 29.5319C55.0175 29.5366 55.4155 29.1487 55.4209 28.664C55.4911 22.3207 53.1688 16.3411 48.8661 11.7271L50.8645 9.72874C55.6307 14.8037 58.2447 21.3965 58.2447 28.3914C58.2447 35.6794 55.4067 42.5311 50.2536 47.6841C46.969 50.9686 42.9657 53.3297 38.5599 54.6013Z" fill="black"/>
<path d="M42.0111 38.2005C41.6682 37.8579 41.1126 37.8579 40.7699 38.2005C40.4271 38.5434 40.4271 39.099 40.7699 39.4417L42.0952 40.767C42.2666 40.9383 42.4913 41.024 42.7159 41.024C42.9404 41.024 43.1651 40.9383 43.3365 40.767C43.6793 40.4242 43.6793 39.8686 43.3365 39.5258L42.0111 38.2005Z" fill="black"/>
<path d="M46.753 33.9239L45.0447 33.1627C44.6019 32.9652 44.0832 33.1646 43.8859 33.6071C43.6886 34.0499 43.8876 34.5688 44.3303 34.7659L46.0386 35.5271C46.1547 35.5789 46.276 35.6033 46.3954 35.6033C46.7314 35.6033 47.0519 35.4093 47.1975 35.0827C47.3946 34.6399 47.1957 34.1212 46.753 33.9239Z" fill="black"/>
<path d="M47.8759 27.4283L46.0181 27.3352C46.003 27.3343 45.9882 27.334 45.9734 27.334C45.5089 27.334 45.1211 27.6985 45.0977 28.1676C45.0733 28.6518 45.4462 29.0638 45.9301 29.0881L47.7879 29.1812C47.803 29.182 47.8179 29.1824 47.8326 29.1824C48.2972 29.1824 48.6849 28.8179 48.7083 28.3488C48.7327 27.8647 48.3599 27.4525 47.8759 27.4283Z" fill="black"/>
<path d="M45.0744 23.2274C45.1668 23.2274 45.261 23.2127 45.3534 23.1817L47.1067 22.5939C47.5663 22.4398 47.814 21.9424 47.66 21.4828C47.506 21.0232 47.0081 20.7757 46.5489 20.9296L44.7956 21.5174C44.336 21.6715 44.0884 22.1689 44.2424 22.6284C44.3654 22.9955 44.7074 23.2274 45.0744 23.2274Z" fill="black"/>
<path d="M16.4689 25.5577C16.6934 25.5577 16.9181 25.472 17.0894 25.3007L19.0231 23.3671C19.366 23.0244 19.366 22.4687 19.0232 22.1261C18.6805 21.7834 18.1248 21.7832 17.7821 22.126L16.4689 23.4391L15.1556 22.126C14.813 21.7833 14.2573 21.7832 13.9145 22.1261C13.5718 22.4688 13.5718 23.0245 13.9146 23.3671L15.8483 25.3007C16.0196 25.4719 16.2443 25.5577 16.4689 25.5577Z" fill="black"/>
<path d="M24.3842 25.5577C24.6087 25.5577 24.8334 25.472 25.0047 25.3007L26.9384 23.3671C27.2812 23.0244 27.2812 22.4687 26.9385 22.1261C26.5956 21.7833 26.0399 21.7832 25.6974 22.126L24.3842 23.4391L23.0709 22.126C22.7282 21.7833 22.1725 21.7832 21.8298 22.1261C21.4871 22.4688 21.4871 23.0245 21.8299 23.3671L23.7636 25.3007C23.9349 25.4719 24.1596 25.5577 24.3842 25.5577Z" fill="black"/>
<path d="M13.7858 27.6681L12.4727 28.9813L11.1596 27.6682C10.8168 27.3254 10.261 27.3253 9.91854 27.6681C9.57568 28.0108 9.57568 28.5665 9.91842 28.9091L11.852 30.8428C12.0166 31.0075 12.2398 31.0999 12.4727 31.0999C12.7055 31.0999 12.9286 31.0075 13.0933 30.843L15.027 28.9093C15.3698 28.5664 15.3698 28.0108 15.027 27.6681C14.6843 27.3254 14.1287 27.3254 13.7858 27.6681Z" fill="black"/>
<path d="M19.7675 30.843C19.9322 31.0076 20.1553 31.1001 20.3882 31.1001C20.621 31.1001 20.8441 31.0076 21.0088 30.8431L22.9425 28.9094C23.2853 28.5665 23.2853 28.0109 22.9425 27.6682C22.5997 27.3256 22.0441 27.3256 21.7013 27.6682L20.3882 28.9815L19.0751 27.6683C18.7324 27.3256 18.1767 27.3255 17.8341 27.6682C17.4912 28.0109 17.4912 28.5666 17.8339 28.9093L19.7675 30.843Z" fill="black"/>
<path d="M30.8276 42.8621C31.3123 42.8621 31.7052 42.4691 31.7052 41.9844C31.7052 41.4997 31.3123 41.1068 30.8276 41.1068C30.3429 41.1068 29.95 41.4997 29.95 41.9844C29.95 42.4691 30.3429 42.8621 30.8276 42.8621Z" fill="black"/>
</g>
<defs>
<clipPath id="clip0_1025_26522">
<rect width="60" height="60" fill="white"/>
</clipPath>
</defs>
</svg>
