<svg width="50" height="50" viewBox="0 0 50 50" fill="none" xmlns="../../../../../external.html?link=http://www.w3.org/2000/svg">
<g clip-path="url(#clip0_1145_35919)">
<path d="M45.498 45.881C45.498 47.2111 44.4197 48.2893 43.0896 48.2893H6.91029C5.58021 48.2893 4.50197 47.2111 4.50197 45.881V21.872C4.50197 21.2167 3.78894 20.5888 4.25668 20.1298L15.0876 9.4995L17.7606 7.83448L18.774 5.8815L23.3828 1.35801C24.3005 0.526334 25.6994 0.526334 26.6171 1.35801L31.226 5.8815L32.2393 7.83448L35.1061 9.68991L45.7431 20.1299C46.2109 20.5889 45.4979 21.2168 45.4979 21.8721L45.498 45.881Z" fill="#8EBAFF"/>
<path d="M12.5273 12.0126H37.4733L31.2263 5.88135H18.7743L12.5273 12.0126Z" fill="#7AA3FF"/>
<path d="M41.6689 26.2458V10.2757C41.6689 8.92746 40.576 7.83447 39.2277 7.83447H9.79572C8.44748 7.83447 7.35449 8.92746 7.35449 10.2757V26.2458L21.2657 36.1323L23.8401 34.7175C24.5624 34.3206 25.4375 34.3206 26.1598 34.7175L28.7343 36.1323L41.6689 26.2458Z" fill="#F7F9FA"/>
<path d="M28.7343 37.1086L26.1598 35.6939C25.4375 35.297 24.5624 35.297 23.8401 35.6939L21.2657 37.1086L7.35449 26.2457V20.4878L20.4883 33.5984C20.949 34.0583 21.658 34.159 22.2285 33.8454L23.8401 32.9597C24.5624 32.5628 25.4375 32.5628 26.1598 32.9597L27.7714 33.8454C28.342 34.159 29.0509 34.0583 29.5116 33.5984L38.9994 24.1274C39.4582 23.6694 39.716 23.0479 39.716 22.3997V10.2756C39.716 8.92734 38.623 7.83435 37.2747 7.83435H40.2042C41.5524 7.83435 42.6454 8.92734 42.6454 10.2756V26.2457L28.7343 37.1086Z" fill="#DCE6EB"/>
<path d="M3.52539 46.8575C3.52539 48.1158 4.49055 49.148 5.72083 49.2559L21.2656 37.1087L4.25659 20.1298C3.78885 20.5888 3.52539 21.2167 3.52539 21.872V46.8575Z" fill="#F7F9FA"/>
<path d="M46.2793 46.8575C46.2793 48.1158 45.5094 49.148 44.2791 49.2559L28.7344 37.1087L45.7434 20.1298C46.2111 20.5888 46.2793 21.2167 46.2793 21.872V46.8575Z" fill="#F7F9FA"/>
<path d="M46.4746 21.872C46.4746 21.2167 46.2112 20.5888 45.7435 20.1298L43.5452 22.3241V46.8575C43.5452 47.4007 43.365 47.9016 43.0615 48.3044L44.2792 49.2559C45.5095 49.1481 46.4746 48.1158 46.4746 46.8575V21.872Z" fill="#DCE6EB"/>
<path d="M5.93371 49.2658H44.066C45.2316 48.1385 45.2316 48.1385 46.4743 46.8575L26.1597 35.6939C25.4374 35.297 24.5623 35.297 23.84 35.6939L3.52539 46.8575C3.52539 48.1876 4.60363 49.2658 5.93371 49.2658Z" fill="#FED402"/>
<path d="M43.545 45.2477V46.8575C43.545 48.1876 42.4668 49.2658 41.1367 49.2658H44.0662C45.3963 49.2658 46.4745 48.1876 46.4745 46.8575L43.545 45.2477Z" fill="#FAC600"/>
<path d="M28.0536 16.3321C28.0556 15.9275 27.7293 15.5981 27.3248 15.5961C27.3236 15.5961 27.3224 15.5961 27.3211 15.5961C26.9183 15.5961 26.5909 15.9217 26.5889 16.3249L26.587 16.6938C26.0688 16.2949 25.4378 16.069 24.7355 16.069C23.0082 16.069 21.2214 17.5634 21.2214 20.0641C21.2214 22.3449 22.7661 24.2005 24.6648 24.2005C25.4902 24.2005 26.2375 23.8526 26.8177 23.2668C26.933 23.5001 27.0841 23.7149 27.2681 23.8999C27.6765 24.3103 28.2026 24.5364 28.7497 24.5364C30.333 24.5364 31.3356 23.4341 31.7461 22.4025C32.3832 20.8007 32.4977 19.451 32.1175 18.0265C32.1154 18.019 32.1133 18.0114 32.111 18.0038C31.5354 16.0966 30.2475 14.5349 28.4846 13.6064C26.722 12.6781 24.7051 12.4999 22.8053 13.1048C21.0052 13.6778 19.5075 14.9132 18.5883 16.5834C17.6687 18.2541 17.4269 20.1802 17.9074 22.007C18.3236 23.5893 19.222 24.9544 20.5058 25.9545C21.7419 26.9175 23.2815 27.4717 24.841 27.5148C24.848 27.515 24.8548 27.5151 24.8616 27.5151C25.2566 27.5151 25.5823 27.2004 25.5934 26.803C25.6046 26.3986 25.2859 26.0618 24.8816 26.0507C22.2741 25.9786 19.9889 24.1626 19.324 21.6345C18.9395 20.1727 19.134 18.6298 19.8715 17.2897C20.609 15.9497 21.8086 14.9592 23.2497 14.5006C24.7727 14.0157 26.3894 14.1585 27.802 14.9024C29.2109 15.6444 30.2413 16.8911 30.7047 18.4139C31.0152 19.5865 30.8279 20.7478 30.3852 21.8613C30.2403 22.2252 29.7912 23.0717 28.7498 23.0717C28.5414 23.0717 28.3826 22.9434 28.3065 22.8669C28.1289 22.6883 28.0235 22.4254 28.0248 22.1637L28.0536 16.3321ZM24.6648 22.7358C23.7132 22.7358 22.6861 21.7143 22.6861 20.0641C22.6861 18.4802 23.728 17.5338 24.7355 17.5338C25.7886 17.5338 26.5323 18.5121 26.571 19.9273L26.5697 20.1951C26.5139 21.6093 25.6809 22.7358 24.6648 22.7358Z" fill="black"/>
<path d="M47.2068 46.8602C47.2068 46.8599 47.2068 46.8596 47.2068 46.8593V21.8739C47.2068 21.031 46.863 20.2091 46.2638 19.6167C46.263 19.6159 46.2623 19.615 46.2615 19.6142C46.2611 19.6138 46.2606 19.6134 46.2602 19.6129C46.2588 19.6116 46.2576 19.6102 46.2562 19.6089L43.3777 16.7838V15.132C43.3777 14.7274 43.0499 14.3996 42.6454 14.3996C42.2408 14.3996 41.913 14.7274 41.913 15.132V22.9203L28.6055 36.2042L26.5125 35.0541C25.5656 34.5336 24.4345 34.5335 23.4873 35.0541L21.3943 36.2042L8.08681 22.9203V10.2775C8.08681 9.33526 8.85346 8.56861 9.79567 8.56861H40.2042C41.1464 8.56861 41.913 9.33526 41.913 10.2775V12.0146C41.913 12.4191 42.2408 12.7469 42.6454 12.7469C43.0499 12.7469 43.3777 12.4191 43.3777 12.0146V10.2775C43.3777 8.5275 41.9541 7.10388 40.2042 7.10388H33.5151L27.1301 0.837157C27.1232 0.830322 27.1161 0.823584 27.1088 0.817139C25.9066 -0.272331 24.0932 -0.272429 22.8909 0.817139C22.8837 0.823584 22.8766 0.830322 22.8697 0.837157L16.4846 7.10388H9.79557C8.0457 7.10388 6.62198 8.5275 6.62198 10.2775V16.7839L3.74348 19.609C3.74231 19.6102 3.74114 19.6114 3.73997 19.6127C3.73938 19.6133 3.7388 19.6137 3.73821 19.6143C3.73714 19.6154 3.73626 19.6165 3.73528 19.6175C3.1365 20.2098 2.79297 21.0315 2.79297 21.8739V30.2313C2.79297 30.6358 3.12087 30.9636 3.52534 30.9636C3.9298 30.9636 4.2577 30.6358 4.2577 30.2313V21.8739C4.2577 21.6692 4.29715 21.4676 4.36805 21.2778L6.83691 23.7423L20.057 36.939L4.2578 45.6212V33.423C4.2578 33.0185 3.9299 32.6907 3.52543 32.6907C3.12097 32.6907 2.79307 33.0185 2.79307 33.423V46.8593V46.8601C2.79307 46.864 2.79326 46.8678 2.79336 46.8717C2.8001 48.5978 4.20605 50 5.93375 50H32.9724C33.3769 50 33.7047 49.6722 33.7047 49.2676C33.7047 48.8631 33.3769 48.5353 32.9724 48.5353H5.93375C5.14943 48.5353 4.49118 47.993 4.30936 47.2642L21.6183 37.7524L24.1927 36.3376C24.6982 36.0599 25.3016 36.0598 25.807 36.3377L28.3813 37.7524L45.6904 47.2643C45.5085 47.993 44.8502 48.5353 44.066 48.5353H36.1642C35.7597 48.5353 35.4319 48.8631 35.4319 49.2676C35.4319 49.6722 35.7597 50 36.1642 50H44.0661C45.7937 50 47.1997 48.5978 47.2065 46.8717C47.2066 46.8678 47.2068 46.864 47.2068 46.8602ZM23.8844 1.89372C24.5228 1.32423 25.4772 1.32413 26.1155 1.89372L31.424 7.10388H18.5758L23.8844 1.89372ZM6.62208 21.4581L5.29767 20.136L6.62208 18.8362V21.4581ZM43.1628 23.7423L45.6317 21.2777C45.7026 21.4675 45.742 21.6692 45.742 21.8739V45.6211L29.9426 36.939L43.1628 23.7423ZM44.7022 20.136L43.3777 21.4581V18.8362L44.7022 20.136Z" fill="black"/>
</g>
<defs>
<clipPath id="clip0_1145_35919">
<rect width="50" height="50" fill="white"/>
</clipPath>
</defs>
</svg>
