<svg width="50" height="50" viewBox="0 0 50 50" fill="none" xmlns="../../../../../external.html?link=http://www.w3.org/2000/svg">
<path d="M31.955 10.9773V13.2349C31.1065 13.0909 30.2429 13.0303 29.3641 13.0303C28.4777 13.0303 27.6141 13.1061 26.7656 13.2349V10.9773H31.955Z" fill="#FFA431"/>
<path d="M31.9557 13.7121C31.933 13.7121 31.9027 13.7121 31.88 13.7046C30.3042 13.4394 28.5694 13.4318 26.8421 13.7046C26.6982 13.7273 26.5618 13.6894 26.4557 13.5909C26.3497 13.5 26.2891 13.3637 26.2891 13.2197V10.9621C26.2891 10.697 26.5088 10.4773 26.7739 10.4773H31.9633C32.2285 10.4773 32.4482 10.697 32.4482 10.9621V13.2197C32.4482 13.3637 32.3875 13.5 32.2739 13.5909C32.183 13.6743 32.0694 13.7121 31.9557 13.7121ZM27.2512 11.4621V12.6743C28.6906 12.4924 30.1224 12.5 31.4709 12.6743V11.4621H27.2512Z" fill="#363D3D"/>
<path d="M42.2514 15.2349L40.4559 17.4015C39.8802 16.8561 39.2589 16.3561 38.6074 15.9091L40.4105 13.7197L42.2514 15.2349Z" fill="white"/>
<path d="M40.4552 17.8864C40.334 17.8864 40.2128 17.8409 40.1219 17.7576C39.5462 17.2197 38.9477 16.7273 38.334 16.3182C38.2204 16.2425 38.1446 16.1213 38.1295 15.9849C38.1068 15.8485 38.1446 15.7122 38.2355 15.6061L40.0386 13.4167C40.2128 13.2122 40.5159 13.1819 40.7204 13.3485L42.5537 14.8561C42.6522 14.9394 42.7128 15.0531 42.728 15.1819C42.7431 15.3106 42.6977 15.4394 42.6219 15.5379L40.8265 17.7046C40.7431 17.8106 40.6143 17.8713 40.4855 17.8788C40.478 17.8864 40.4704 17.8864 40.4552 17.8864ZM39.3113 15.8182C39.6825 16.0909 40.0462 16.3864 40.4022 16.7046L41.5613 15.3031L40.478 14.4091L39.3113 15.8182Z" fill="#363D3D"/>
<path d="M39.659 13.0985L42.9924 15.8485C43.4545 16.2273 44.1363 16.1591 44.5151 15.7046C44.8939 15.2425 44.8257 14.5606 44.3712 14.1819L41.0378 11.4319C40.5757 11.0531 39.8939 11.1212 39.5151 11.5758C39.1363 12.0379 39.2045 12.7197 39.659 13.0985Z" fill="#FFA431"/>
<path d="M43.6825 16.5834C43.334 16.5834 42.978 16.4697 42.6901 16.2273L39.3568 13.4773C38.6901 12.9319 38.5992 11.9394 39.1446 11.2728C39.6901 10.6061 40.6825 10.5152 41.3492 11.0607L44.6825 13.8106C45.3492 14.3561 45.4401 15.3485 44.8946 16.0152C44.584 16.3864 44.1371 16.5834 43.6825 16.5834ZM39.9704 12.7273L43.3037 15.4773C43.5613 15.6894 43.9325 15.6516 44.1446 15.394C44.3568 15.144 44.3189 14.7652 44.0613 14.5531L40.728 11.8031C40.4704 11.591 40.0992 11.6288 39.8871 11.8864C39.6825 12.144 39.7128 12.5152 39.9704 12.7273Z" fill="#363D3D"/>
<path d="M40.4537 17.4016C39.878 16.8562 39.2567 16.3562 38.6052 15.9092C36.6507 14.5531 34.3931 13.6213 31.9537 13.2274C31.1052 13.0834 30.2416 13.0228 29.3628 13.0228C28.4764 13.0228 27.6128 13.0986 26.7643 13.2274C24.3249 13.6137 22.0674 14.5531 20.1204 15.9092C19.4613 16.3562 18.8477 16.8562 18.2643 17.4092C15.0825 20.3713 13.0977 24.5986 13.0977 29.2956C13.0977 38.2804 20.3855 45.5607 29.3628 45.5607C38.3477 45.5607 45.628 38.2728 45.628 29.2956C45.628 24.5986 43.6431 20.3637 40.4537 17.4016ZM29.3628 42.1365C22.2795 42.1365 16.5219 36.3789 16.5219 29.2956C16.5219 22.2122 22.2795 16.4546 29.3628 16.4546C36.4461 16.4546 42.2037 22.2122 42.2037 29.2956C42.2037 36.3713 36.4461 42.1365 29.3628 42.1365Z" fill="#00A5E0"/>
<path d="M29.3633 46.0379C20.1284 46.0379 12.6133 38.5228 12.6133 29.2879C12.6133 24.6592 14.5527 20.197 17.939 17.0531C18.5224 16.5001 19.1663 15.9773 19.8481 15.5076C21.8709 14.0985 24.2421 13.144 26.689 12.7501C28.5148 12.4622 30.3557 12.4698 32.0375 12.7501C34.5148 13.144 36.8178 14.0758 38.886 15.5076C39.5375 15.947 40.1739 16.4698 40.7875 17.0455C44.1739 20.1895 46.1133 24.6516 46.1133 29.2879C46.1133 38.5228 38.5981 46.0379 29.3633 46.0379ZM29.3633 13.5076C28.5375 13.5076 27.689 13.5758 26.8406 13.7122C24.5375 14.0834 22.3027 14.9773 20.3936 16.3107C19.7496 16.7501 19.1436 17.2425 18.5981 17.7576C15.4087 20.7273 13.5754 24.9319 13.5754 29.2879C13.5754 37.9925 20.6587 45.0682 29.3557 45.0682C38.0527 45.0682 45.1512 37.9925 45.1512 29.2879C45.1512 24.9167 43.3178 20.7122 40.1284 17.7501C39.5527 17.2122 38.9542 16.7198 38.3406 16.3107C36.3936 14.9546 34.2193 14.0834 31.886 13.7122C31.0754 13.5758 30.2269 13.5076 29.3633 13.5076ZM29.3633 42.6137C22.0148 42.6137 16.0375 36.6364 16.0375 29.2879C16.0375 21.9395 22.0148 15.9622 29.3633 15.9622C36.7118 15.9622 42.689 21.9395 42.689 29.2879C42.689 36.6364 36.7118 42.6137 29.3633 42.6137ZM29.3633 16.9319C22.5451 16.9319 17.0072 22.4773 17.0072 29.2879C17.0072 36.1061 22.5527 41.644 29.3633 41.644C36.1815 41.644 41.7193 36.0986 41.7193 29.2879C41.7269 22.4773 36.1815 16.9319 29.3633 16.9319Z" fill="#363D3D"/>
<path d="M30.636 11.4621H28.0981C27.833 11.4621 27.6133 11.2424 27.6133 10.9773V8.49242C27.6133 8.22727 27.833 8.00757 28.0981 8.00757H30.636C30.9012 8.00757 31.1209 8.22727 31.1209 8.49242V10.9773C31.1133 11.2424 30.9012 11.4621 30.636 11.4621ZM28.583 10.4924H30.1512V8.97727H28.583V10.4924Z" fill="#363D3D"/>
<path d="M29.3638 21.3258C29.0986 21.3258 28.8789 21.1061 28.8789 20.8409V19.0682C28.8789 18.8031 29.0986 18.5834 29.3638 18.5834C29.6289 18.5834 29.8486 18.8031 29.8486 19.0682V20.8409C29.8486 21.1137 29.6289 21.3258 29.3638 21.3258Z" fill="#363D3D"/>
<path d="M23.3951 23.803C23.2739 23.803 23.1451 23.7576 23.0542 23.6591L21.8042 22.4091C21.6148 22.2197 21.6148 21.9166 21.8042 21.7273C21.9935 21.5379 22.2966 21.5379 22.486 21.7273L23.736 22.9773C23.9254 23.1666 23.9254 23.4697 23.736 23.6591C23.6375 23.75 23.5163 23.803 23.3951 23.803Z" fill="#363D3D"/>
<path d="M22.1373 37C22.016 37 21.8873 36.9546 21.7963 36.8561C21.6069 36.6667 21.6069 36.3637 21.7963 36.1743L23.0463 34.9243C23.2357 34.7349 23.5388 34.7349 23.7282 34.9243C23.9176 35.1137 23.9176 35.4167 23.7282 35.6061L22.4782 36.8561C22.3797 36.947 22.2585 37 22.1373 37Z" fill="#363D3D"/>
<path d="M29.3559 39.9924C29.0908 39.9924 28.8711 39.7727 28.8711 39.5076V37.7349C28.8711 37.4697 29.0908 37.25 29.3559 37.25C29.6211 37.25 29.8408 37.4697 29.8408 37.7349V39.5076C29.8408 39.7727 29.6287 39.9924 29.3559 39.9924Z" fill="#363D3D"/>
<path d="M36.5845 37C36.4633 37 36.3345 36.9546 36.2436 36.8561L34.9936 35.6061C34.8042 35.4167 34.8042 35.1137 34.9936 34.9243C35.183 34.7349 35.486 34.7349 35.6754 34.9243L36.9254 36.1743C37.1148 36.3637 37.1148 36.6667 36.9254 36.8561C36.8345 36.9546 36.7133 37 36.5845 37Z" fill="#363D3D"/>
<path d="M20.9177 29.7728H19.145C18.8799 29.7728 18.6602 29.5531 18.6602 29.2879C18.6602 29.0228 18.8799 28.8031 19.145 28.8031H20.9177C21.1829 28.8031 21.4026 29.0228 21.4026 29.2879C21.4026 29.5531 21.1829 29.7728 20.9177 29.7728Z" fill="#363D3D"/>
<path d="M39.5837 29.7804H37.811C37.5459 29.7804 37.3262 29.5607 37.3262 29.2955C37.3262 29.0304 37.5459 28.8107 37.811 28.8107H39.5837C39.8489 28.8107 40.0686 29.0304 40.0686 29.2955C40.061 29.5607 39.8489 29.7804 39.5837 29.7804Z" fill="#363D3D"/>
<path d="M35.3345 23.803C35.2133 23.803 35.0845 23.7576 34.9936 23.6591C34.8042 23.4697 34.8042 23.1666 34.9936 22.9773L36.2436 21.7273C36.433 21.5379 36.736 21.5379 36.9254 21.7273C37.1148 21.9166 37.1148 22.2197 36.9254 22.4091L35.6754 23.6591C35.5845 23.7576 35.4633 23.803 35.3345 23.803Z" fill="#363D3D"/>
<path d="M29.3632 31.4773C28.1587 31.4773 27.1738 30.4924 27.1738 29.2879C27.1738 28.0834 28.1587 27.0985 29.3632 27.0985C30.5678 27.0985 31.5526 28.0834 31.5526 29.2879C31.5526 30.5 30.5753 31.4773 29.3632 31.4773ZM29.3632 28.0682C28.689 28.0682 28.1435 28.6137 28.1435 29.2879C28.1435 29.9621 28.689 30.5076 29.3632 30.5076C30.0375 30.5076 30.5829 29.9621 30.5829 29.2879C30.5829 28.6137 30.0375 28.0682 29.3632 28.0682Z" fill="#363D3D"/>
<path d="M29.3638 28.0682C29.0986 28.0682 28.8789 27.8485 28.8789 27.5834V23.8258C28.8789 23.5606 29.0986 23.3409 29.3638 23.3409C29.6289 23.3409 29.8486 23.5606 29.8486 23.8258V27.5834C29.8486 27.8485 29.6289 28.0682 29.3638 28.0682Z" fill="#363D3D"/>
<path d="M33.8491 34.1288C33.7279 34.1288 33.5991 34.0833 33.5082 33.9848L30.2885 30.7651C30.0991 30.5758 30.0991 30.2727 30.2885 30.0833C30.4779 29.8939 30.781 29.8939 30.9703 30.0833L34.19 33.303C34.3794 33.4924 34.3794 33.7955 34.19 33.9848C34.0991 34.0758 33.9779 34.1288 33.8491 34.1288Z" fill="#363D3D"/>
<path d="M25.8489 8.49248H32.8868C34.008 8.49248 34.9095 7.58339 34.9095 6.46975C34.9095 5.34854 34.0004 4.44702 32.8868 4.44702H25.8489C24.7277 4.44702 23.8262 5.35611 23.8262 6.46975C23.8262 7.58339 24.7277 8.49248 25.8489 8.49248Z" fill="#FFA431"/>
<path d="M32.8873 8.97731H25.8494C24.463 8.97731 23.3418 7.84852 23.3418 6.46973C23.3418 5.09095 24.4706 3.96216 25.8494 3.96216H32.8873C34.2736 3.96216 35.3948 5.09095 35.3948 6.46973C35.3948 7.84852 34.266 8.97731 32.8873 8.97731ZM25.8494 4.92428C25.0009 4.92428 24.3115 5.61367 24.3115 6.46216C24.3115 7.31064 25.0009 8.00004 25.8494 8.00004H32.8873C33.7357 8.00004 34.4251 7.31064 34.4251 6.46216C34.4251 5.61367 33.7357 4.92428 32.8873 4.92428H25.8494Z" fill="#363D3D"/>
<path d="M11.5681 24.9016H6.7954C6.53024 24.9016 6.31055 24.6819 6.31055 24.4167C6.31055 24.1516 6.53024 23.9319 6.7954 23.9319H11.5757C11.8408 23.9319 12.0605 24.1516 12.0605 24.4167C12.0605 24.6819 11.8409 24.9016 11.5681 24.9016Z" fill="#363D3D"/>
<path d="M10.5837 29.7728H4.37157C4.10642 29.7728 3.88672 29.5531 3.88672 29.2879C3.88672 29.0228 4.10642 28.8031 4.37157 28.8031H10.5837C10.8488 28.8031 11.0685 29.0228 11.0685 29.2879C11.0685 29.5531 10.8488 29.7728 10.5837 29.7728Z" fill="#363D3D"/>
<path d="M11.5681 34.644H6.7954C6.53024 34.644 6.31055 34.4243 6.31055 34.1592C6.31055 33.894 6.53024 33.6743 6.7954 33.6743H11.5757C11.8408 33.6743 12.0605 33.894 12.0605 34.1592C12.0605 34.4243 11.8409 34.644 11.5681 34.644Z" fill="#363D3D"/>
<path d="M12.8632 39.5152H7.96922C7.70407 39.5152 7.48438 39.2955 7.48438 39.0304C7.48438 38.7652 7.70407 38.5455 7.96922 38.5455H12.8632C13.1283 38.5455 13.348 38.7652 13.348 39.0304C13.348 39.2955 13.1283 39.5152 12.8632 39.5152Z" fill="#363D3D"/>
<path d="M12.8632 20.0304H7.96922C7.70407 20.0304 7.48438 19.8107 7.48438 19.5455C7.48438 19.2804 7.70407 19.0607 7.96922 19.0607H12.8632C13.1283 19.0607 13.348 19.2804 13.348 19.5455C13.3404 19.8182 13.1283 20.0304 12.8632 20.0304Z" fill="#363D3D"/>
</svg>
