<svg width="50" height="50" viewBox="0 0 50 50" fill="none" xmlns="../../../../../external.html?link=http://www.w3.org/2000/svg">
<g clip-path="url(#clip0_1145_35953)">
<path d="M41.9439 29.9737L37.9578 27.7281L35.707 37.375L45.2819 47.0219L49.2682 49.2676L41.9439 29.9737Z" fill="#FFBE3B"/>
<path d="M33.4718 25.2012L29.4434 33.8164L37.1339 42.4316L45.2814 47.0219L37.9573 27.7281L33.4718 25.2012Z" fill="#FFD45E"/>
<path d="M33.4717 25.2012L37.1338 42.4316L25 49.2676L19.1406 39.6206L25 29.9736L33.4717 25.2012Z" fill="#FFE88C"/>
<path d="M24.9999 29.9736V49.2676L12.8661 42.4316L8.83984 33.8164L16.5282 25.2012L24.9999 29.9736Z" fill="#FFD45E"/>
<path d="M16.5283 25.2012L12.8662 42.4316L0.732422 49.2676L8.05664 29.9736L16.5283 25.2012Z" fill="#FFE88C"/>
<path d="M25 0.732422V37.3535C25.5219 37.3535 25.9787 37.0798 26.2382 36.6689C26.2399 36.6689 36.1596 20.9385 36.1596 20.9385C37.4409 18.9052 38.1836 16.4975 38.1836 13.916C38.1836 6.63496 32.2811 0.732422 25 0.732422Z" fill="#FC5E32"/>
<path d="M25.963 36.6689C25.9644 36.6689 33.6797 20.9385 33.6797 20.9385C34.6763 18.9052 35.2539 16.4975 35.2539 13.916C35.2539 6.63496 30.6631 0.732422 25 0.732422C17.7188 0.732422 11.8164 6.63496 11.8164 13.916C11.8164 16.4975 12.559 18.9053 13.8413 20.9385C13.8403 20.9385 23.76 36.6689 23.76 36.6689C24.0212 37.0798 24.4781 37.3535 24.9999 37.3535C25.4059 37.3535 25.7611 37.0798 25.963 36.6689Z" fill="#FF7D4A"/>
<path d="M25 21.2402C29.0451 21.2402 32.3242 17.9611 32.3242 13.916C32.3242 9.87096 29.0451 6.5918 25 6.5918C20.9549 6.5918 17.6758 9.87096 17.6758 13.916C17.6758 17.9611 20.9549 21.2402 25 21.2402Z" fill="white"/>
<path d="M25 9.52148V18.3105C27.4271 18.3105 29.3945 16.3431 29.3945 13.916C29.3945 11.489 27.427 9.52148 25 9.52148Z" fill="#FF7D4A"/>
<path d="M26.4648 13.916C26.4648 11.489 25.809 9.52148 25 9.52148C22.5729 9.52148 20.6055 11.489 20.6055 13.916C20.6055 16.3431 22.5729 18.3105 25 18.3105C25.809 18.3105 26.4648 16.3431 26.4648 13.916Z" fill="#FF9A6B"/>
<path d="M49.9522 49.0075L42.628 29.7136C42.5672 29.5534 42.452 29.4196 42.3028 29.3355L34.5015 24.9404L36.7791 21.3291C38.1769 19.1109 38.9159 16.5476 38.9159 13.9161C38.9159 6.24279 32.6732 0.00012207 24.9999 0.00012207C17.3266 0.00012207 11.0839 6.24279 11.0839 13.9161C11.0839 16.5482 11.8232 19.1117 13.2218 21.3293C13.2592 21.3888 15.4989 24.9406 15.4989 24.9406L7.69722 29.3355C7.54791 29.4196 7.43277 29.5534 7.37193 29.7136L0.0477256 49.0075C-0.0617469 49.2958 0.0211631 49.6218 0.254854 49.8229C0.488838 50.024 0.82331 50.0572 1.09196 49.9057L12.8662 43.2723L24.6404 49.9057C24.8635 50.0314 25.1363 50.0314 25.3594 49.9057L37.1336 43.2723L48.9078 49.9057C49.0201 49.969 49.144 50 49.2673 50C49.4387 50 49.6089 49.94 49.745 49.823C49.9789 49.6218 50.0617 49.2958 49.9522 49.0075ZM25.7324 37.9601C26.1906 37.7984 26.5879 37.4869 26.8575 37.06C26.8947 37.0014 33.1299 27.1153 33.1299 27.1153L36.3056 42.0575L25.7324 48.0141V37.9601ZM14.4609 20.5477C13.21 18.5643 12.5489 16.2712 12.5489 13.916C12.5489 7.0504 18.1344 1.46487 25 1.46487C31.8656 1.46487 37.4512 7.0504 37.4512 13.916C37.4512 16.2707 36.7902 18.564 35.5401 20.5477C35.4424 20.7027 25.7918 36.0066 25.6235 36.271C25.6219 36.2732 25.6205 36.2755 25.6191 36.2778C25.4832 36.4926 25.2519 36.621 25 36.621C24.748 36.621 24.5155 36.492 24.3795 36.2782C24.2817 36.123 14.6119 20.7889 14.4642 20.5531C14.4631 20.5513 14.462 20.5496 14.4609 20.5477ZM8.64722 30.4815L15.4749 26.6351L14.2855 32.2312C14.2014 32.6269 14.4539 33.0158 14.8496 33.1C14.9009 33.1109 14.9522 33.1162 15.0026 33.1162C15.341 33.1162 15.6451 32.8801 15.7182 32.5359L16.8703 27.1158L23.1418 37.062C23.4124 37.4876 23.81 37.7985 24.2674 37.96V48.0143L13.6945 42.0576L15.1092 35.4014C15.1933 35.0057 14.9408 34.6168 14.5452 34.5327C14.1491 34.4481 13.7605 34.7012 13.6764 35.0967L12.2185 41.9557L2.13493 47.6367L8.64722 30.4815ZM37.7814 41.9558L34.5253 26.635L41.3527 30.4815L47.8651 47.6367L37.7814 41.9558Z" fill="black"/>
<path d="M33.0566 13.916C33.0566 9.47363 29.4424 5.85938 25 5.85938C20.5576 5.85938 16.9434 9.47363 16.9434 13.916C16.9434 18.3584 20.5576 21.9727 25 21.9727C29.4424 21.9727 33.0566 18.3584 33.0566 13.916ZM18.4082 13.916C18.4082 10.2812 21.3652 7.32422 25 7.32422C28.6348 7.32422 31.5918 10.2812 31.5918 13.916C31.5918 17.5508 28.6348 20.5078 25 20.5078C21.3652 20.5078 18.4082 17.5508 18.4082 13.916Z" fill="black"/>
<path d="M30.127 13.916C30.127 11.0891 27.827 8.78906 25 8.78906C22.173 8.78906 19.873 11.0891 19.873 13.916C19.873 16.743 22.173 19.043 25 19.043C27.827 19.043 30.127 16.743 30.127 13.916ZM21.3379 13.916C21.3379 11.8967 22.9807 10.2539 25 10.2539C27.0193 10.2539 28.6621 11.8967 28.6621 13.916C28.6621 15.9354 27.0193 17.5781 25 17.5781C22.9807 17.5781 21.3379 15.9354 21.3379 13.916Z" fill="black"/>
</g>
<defs>
<clipPath id="clip0_1145_35953">
<rect width="50" height="50" fill="white"/>
</clipPath>
</defs>
</svg>
