<svg width="50" height="50" viewBox="0 0 50 50" fill="none" xmlns="../../../../../external.html?link=http://www.w3.org/2000/svg">
<g clip-path="url(#clip0_1145_35885)">
<path d="M31.8359 7.35669C29.6783 7.35669 27.9297 9.10572 27.9297 11.2633V20.2477C27.9297 20.7268 28.0163 21.1861 28.1742 21.6107C28.4115 21.6553 28.656 21.6801 28.9062 21.6801H38.4765V24.1539H39.8273L42.3107 21.6801H45.1172C47.2747 21.6801 49.0234 19.9311 49.0234 17.7735V8.78911C49.0234 8.30998 48.9368 7.85069 48.7789 7.42612C48.5416 7.38148 48.2971 7.35669 48.0468 7.35669H31.8359Z" fill="#FFC66C"/>
<path d="M37.0906 35.2576L34.4825 37.8654C33.1214 39.2268 30.9463 39.3249 29.4681 38.0912C25.2723 34.5897 21.3997 30.7174 17.8985 26.5216C17.4743 26.0131 17.2077 25.4226 17.0955 24.8111C16.5523 24.1947 16.016 23.5717 15.4896 22.9408C14.2559 21.4626 14.3539 19.2874 15.7154 17.9264L18.3231 15.3183C19.9245 13.7169 20.4532 11.4505 19.9131 9.40854L16.8579 6.35336C14.463 3.95887 10.5812 3.95887 8.18634 6.35336C3.03498 11.5047 1.95542 19.358 5.30663 25.6454C11.1446 33.4781 18.1793 40.3499 26.157 46.0048C32.6759 50.6255 41.5771 49.8729 47.2274 44.2225C48.8288 42.6211 49.3575 40.3548 48.817 38.3128L45.7618 35.2576C43.3673 32.8628 39.4851 32.8628 37.0906 35.2576Z" fill="#72D8FF"/>
<path d="M47.2273 35.551L43.3531 31.6768C40.9586 29.2824 37.0764 29.2824 34.6819 31.6768L33.8301 32.5287L46.3442 45.0428C46.6463 44.7818 46.9412 44.5087 47.2273 44.2226C49.6217 41.8277 49.6217 37.9455 47.2273 35.551Z" fill="white"/>
<path d="M17.4711 16.1701L18.3229 15.3183C20.7178 12.9238 20.7178 9.04122 18.3229 6.64713L14.4487 2.77255C12.0543 0.378064 8.17205 0.378064 5.77757 2.77255C5.49109 3.05865 5.21834 3.3539 4.95703 3.65603L17.4711 16.1701Z" fill="white"/>
<path d="M45.1175 3.90625H28.9066C26.2142 3.90625 24.0234 6.09665 24.0234 8.78905V17.7734C24.0234 20.4658 26.2142 22.6566 28.9066 22.6566H37.5004V25.4997C37.5004 25.8945 37.738 26.2504 38.1023 26.4019C38.2232 26.4518 38.3506 26.4762 38.4765 26.4762C38.7302 26.4762 38.9793 26.3778 39.1662 26.1917L42.7147 22.6566H45.1175C47.8099 22.6566 50.0003 20.4658 50.0003 17.7734V8.78905C50.0003 6.09665 47.8099 3.90625 45.1175 3.90625ZM48.0472 17.7734C48.0472 19.3889 46.733 20.7035 45.1175 20.7035H42.3111C42.0528 20.7035 41.8048 20.8057 41.6217 20.9881L39.4535 23.1483V21.68C39.4535 21.1406 39.0163 20.7035 38.4769 20.7035H28.9066C27.2911 20.7035 25.9769 19.3889 25.9769 17.7734V8.78905C25.9769 7.17353 27.2911 5.85937 28.9066 5.85937H45.1175C46.733 5.85937 48.0472 7.17353 48.0472 8.78905V17.7734Z" fill="black"/>
<path d="M44.0437 30.9863C41.2723 28.2146 36.7626 28.2146 33.9912 30.9863L31.3831 33.5941C30.3722 34.6053 28.7827 34.6763 27.6852 33.7608C23.5451 30.3058 19.6942 26.4549 16.2392 22.3148C15.3233 21.2173 15.395 19.6273 16.4059 18.6168L19.014 16.0087C21.7854 13.2374 21.7854 8.72763 19.014 5.95626L15.1394 2.08168C13.797 0.739287 12.0118 0 10.1132 0C8.21462 0 6.42973 0.739287 5.08696 2.08168C2.19161 4.97741 0.406713 8.81918 0.0614839 12.8998C-0.283364 16.9799 0.830525 21.067 3.19868 24.4079C9.36246 33.1035 16.8965 40.6375 25.5921 46.8013C28.5347 48.8872 32.0557 50.0003 35.6415 49.9999C36.1267 49.9999 36.6138 49.9797 37.1002 49.9385C41.1808 49.5933 45.0226 47.8087 47.9179 44.913C49.2607 43.5706 50 41.7853 50 39.8868C50 37.9882 49.2607 36.2033 47.9179 34.8605L44.0437 30.9863ZM26.7216 45.2079C18.2064 39.1719 10.8281 31.7939 4.79208 23.2784C0.432272 17.1276 1.13723 8.794 6.46826 3.46298C7.44176 2.48947 8.73647 1.95312 10.1132 1.95312C11.4903 1.95312 12.7846 2.48947 13.7585 3.46298L17.6327 7.33756C18.6066 8.31106 19.1426 9.60577 19.1426 10.9825C19.1426 12.3592 18.6066 13.6539 17.6327 14.6274L17.4717 14.7888L11.1069 8.42398C10.7258 8.04289 10.1075 8.04289 9.726 8.42398C9.34453 8.80545 9.34453 9.42381 9.726 9.80528L16.0904 16.1697L15.0246 17.2355C13.2946 18.9659 13.1718 21.6877 14.7396 23.5664C18.2694 27.7961 22.2039 31.7306 26.4336 35.2603C28.3123 36.8278 31.0341 36.7057 32.7644 34.9754L33.8303 33.9095L44.8864 44.9657C39.592 48.952 32.2693 49.1401 26.7216 45.2079ZM46.537 43.5317C46.4821 43.5866 46.4264 43.6404 46.3711 43.6942C46.3524 43.6721 46.3333 43.6503 46.3123 43.6294L35.2112 32.5286L35.3725 32.3673C36.3461 31.3938 37.6408 30.8574 39.0175 30.8574C40.3942 30.8574 41.6889 31.3938 42.6624 32.3673L46.537 36.2418C47.5109 37.2154 48.0469 38.5101 48.0469 39.8868C48.0469 41.2639 47.5109 42.5582 46.537 43.5317Z" fill="black"/>
<path d="M7.74512 5.4668C7.48839 5.4668 7.23662 5.57056 7.05504 5.7529C6.87346 5.93448 6.76855 6.18663 6.76855 6.44336C6.76855 6.70009 6.87308 6.95224 7.05504 7.13382C7.23662 7.3154 7.48839 7.41992 7.74512 7.41992C8.00223 7.41992 8.25399 7.3154 8.43557 7.13382C8.61753 6.95224 8.72168 6.70009 8.72168 6.44336C8.72168 6.18663 8.61753 5.93448 8.43557 5.7529C8.25399 5.57017 8.00223 5.4668 7.74512 5.4668Z" fill="black"/>
<path d="M21.3196 35.929C19.3192 34.1491 17.3775 32.2554 15.5491 30.3008C15.1806 29.9067 14.5626 29.8861 14.169 30.2546C13.7749 30.6228 13.7543 31.2411 14.1228 31.6348C15.992 33.6333 17.9764 35.5689 20.0211 37.3881C20.2072 37.5537 20.4392 37.6353 20.67 37.6353C20.9393 37.6353 21.2071 37.5247 21.4001 37.3076C21.7587 36.9048 21.7224 36.2876 21.3196 35.929Z" fill="black"/>
<path d="M13.0094 27.4654C12.6569 27.0572 12.0431 27.0149 11.6345 27.3678C11.2264 27.7202 11.184 28.3397 11.5365 28.7483L11.5483 28.762C11.741 28.984 12.0103 29.0973 12.2823 29.0973C12.5089 29.0973 12.7374 29.0184 12.9231 28.8578C13.3309 28.5045 13.3721 27.8843 13.0193 27.4769L13.0094 27.4654Z" fill="black"/>
<path d="M41.748 12.3047C41.4913 12.3047 41.2392 12.4092 41.0576 12.5908C40.876 12.7727 40.7715 13.0245 40.7715 13.2812C40.7715 13.5384 40.876 13.7901 41.0576 13.9717C41.2392 14.1533 41.4913 14.2578 41.748 14.2578C42.0048 14.2578 42.2569 14.1533 42.4385 13.9717C42.6201 13.7901 42.7246 13.5384 42.7246 13.2812C42.7246 13.0245 42.6201 12.7727 42.4385 12.5908C42.2569 12.4092 42.0048 12.3047 41.748 12.3047Z" fill="black"/>
<path d="M37.0176 12.3047C36.7608 12.3047 36.5087 12.4092 36.3271 12.5908C36.1455 12.7727 36.041 13.0245 36.041 13.2812C36.041 13.5384 36.1455 13.7901 36.3271 13.9717C36.5098 14.1533 36.7608 14.2578 37.0176 14.2578C37.2743 14.2578 37.5265 14.1533 37.708 13.9717C37.8908 13.7901 37.9941 13.5384 37.9941 13.2812C37.9941 13.0245 37.8908 12.7727 37.708 12.5908C37.5265 12.4092 37.2754 12.3047 37.0176 12.3047Z" fill="black"/>
<path d="M32.2881 12.3047C32.0302 12.3047 31.7792 12.4092 31.5976 12.5908C31.4149 12.7727 31.3115 13.0245 31.3115 13.2812C31.3115 13.5384 31.4149 13.7901 31.5976 13.9717C31.7792 14.1533 32.0314 14.2578 32.2881 14.2578C32.5448 14.2578 32.797 14.1533 32.9785 13.9717C33.1601 13.7901 33.2646 13.5384 33.2646 13.2812C33.2646 13.0245 33.1601 12.7727 32.9785 12.5908C32.797 12.4092 32.5448 12.3047 32.2881 12.3047Z" fill="black"/>
</g>
<defs>
<clipPath id="clip0_1145_35885">
<rect width="50" height="50" fill="white"/>
</clipPath>
</defs>
</svg>
