<svg width="65" height="50" viewBox="0 0 65 50" fill="none" xmlns="../../../../../external.html?link=http://www.w3.org/2000/svg">
<g opacity="0.2">
<path d="M24.945 46.4834C37.0546 46.4834 46.8714 36.7462 46.8714 24.7346C46.8714 12.7231 37.0546 2.98584 24.945 2.98584C12.8353 2.98584 3.01855 12.7231 3.01855 24.7346C3.01855 36.7462 12.8353 46.4834 24.945 46.4834Z" fill="#4AA760"/>
<path d="M25.8857 50.0001C25.558 50.0001 25.2304 49.9917 24.8944 49.9834C11.5957 49.4501 1.21215 38.284 1.74141 25.0931C2.27907 11.8855 13.4019 1.60275 26.835 2.13605C33.2785 2.39437 39.2347 5.12756 43.6032 9.8273C47.9717 14.527 50.2399 20.635 49.9795 27.0263C49.4671 39.909 38.8735 50.0001 25.8857 50.0001ZM25.8521 2.95268C13.3179 2.95268 3.10237 12.6938 2.59831 25.1264C2.08586 37.8591 12.0997 48.6251 24.9364 49.1418C37.899 49.6584 48.627 39.734 49.1478 26.9847C49.3998 20.8184 47.2156 14.927 42.99 10.3856C38.7727 5.85251 33.0265 3.21933 26.8098 2.96934C26.4821 2.96101 26.1629 2.95268 25.8521 2.95268Z" fill="#4AA760"/>
<path d="M23.9705 49.3502C23.6429 49.3502 23.3153 49.3418 22.9876 49.3335C9.78979 48.8085 -0.50974 37.7258 0.019518 24.6432C0.548776 11.5356 11.5876 1.31952 24.9115 1.86116C38.1093 2.38613 48.4088 13.4688 47.8796 26.5514C47.3671 39.3341 36.8576 49.3502 23.9705 49.3502ZM23.937 2.30279C11.302 2.30279 1.00242 12.1189 0.489968 24.6599C-0.0308896 37.4925 10.067 48.3502 23.0044 48.8669C23.3237 48.8835 23.6429 48.8835 23.9622 48.8835C36.5971 48.8835 46.8967 39.0674 47.4091 26.5265C47.93 13.6938 37.8321 2.8361 24.8947 2.31946C24.5754 2.3028 24.2562 2.30279 23.937 2.30279Z" fill="#4AA760"/>
<path d="M22.7015 49.7751L22.6931 49.2334C22.6091 49.2334 15.5187 49.5751 7.63865 44.4837C7.02539 44.0837 6.94138 44.3004 7.43703 44.7337C14.0822 49.8751 22.6175 49.7751 22.7015 49.7751Z" fill="#4AA760"/>
<path d="M38.5042 6.51083C36.5972 5.69421 34.329 5.06091 31.6827 4.86092C28.9356 4.6526 24.9367 5.24423 22.282 6.05252C19.6274 6.86081 22.3325 6.20252 22.3325 6.20252C31.7583 3.57766 38.1766 6.18585 41.9066 8.80237C45.9558 11.6439 47.8209 15.102 47.8377 15.1437L48.0981 15.0354C48.0813 15.002 46.2499 11.4272 42.125 8.53572C41.1253 7.81909 39.9156 7.11079 38.5042 6.51083Z" fill="#4AA760"/>
<path d="M25.8856 47.3751C25.5579 47.3751 25.2387 47.3668 24.9111 47.3585C11.7552 46.8335 1.48091 35.7925 2.01016 22.7348C2.53942 9.6689 13.5362 -0.505536 26.8349 0.0194353C33.2112 0.277754 39.1002 2.9776 43.4267 7.62735C47.7532 12.2771 49.9962 18.3184 49.7358 24.6431C49.2149 37.3924 38.739 47.3751 25.8856 47.3751ZM25.852 0.327753C13.175 0.327753 2.85025 10.1772 2.33779 22.7515C1.81694 35.6258 11.9485 46.5169 24.9195 47.0335C38.0249 47.5585 48.8789 37.5174 49.3998 24.6347C49.6518 18.4017 47.4424 12.4437 43.1747 7.85233C38.907 3.26925 33.102 0.602736 26.8097 0.35275C26.4904 0.336084 26.1712 0.327753 25.852 0.327753Z" fill="#4AA760"/>
<path d="M23.9707 48.0918C23.6599 48.0918 23.349 48.0834 23.0382 48.0751C10.546 47.5751 0.784151 37.084 1.28821 24.6931C1.79226 12.2771 12.243 2.61096 24.8612 3.11926C37.3534 3.61923 47.1152 14.1103 46.6112 26.5013C46.1239 38.6006 36.1772 48.0918 23.9707 48.0918ZM23.9371 3.5359C11.9658 3.5359 1.80906 12.8354 1.33021 24.7097C0.834556 36.8591 10.8065 47.1501 23.055 47.6335C23.3574 47.6418 23.6599 47.6501 23.9623 47.6501C35.9336 47.6501 45.6871 38.3506 46.1659 26.4763C46.6616 14.327 37.0929 4.04421 24.8444 3.55257C24.542 3.5359 24.2395 3.5359 23.9371 3.5359Z" fill="#4AA760"/>
</g>
<path fill-rule="evenodd" clip-rule="evenodd" d="M51.5432 6.73311C51.5432 8.14814 52.6903 9.29521 54.1053 9.29521C55.5204 9.29521 56.6674 8.14824 56.6674 6.73311C56.6674 5.31846 55.5204 4.17139 54.1053 4.17139C52.6903 4.17139 51.5432 5.31846 51.5432 6.73311Z" fill="#EFC7A4"/>
<path fill-rule="evenodd" clip-rule="evenodd" d="M59.6486 16.315C59.6486 19.3764 48.5616 19.3764 48.5616 16.315C48.5616 13.2536 51.0438 10.7717 54.1053 10.7717C57.1668 10.7717 59.6486 13.2536 59.6486 16.315Z" fill="#66D4F1"/>
<path fill-rule="evenodd" clip-rule="evenodd" d="M36.4412 4.76958C36.4412 6.4186 37.7778 7.75522 39.4268 7.75522C41.0758 7.75522 42.4125 6.4186 42.4125 4.76958C42.4125 3.12104 41.0758 1.78442 39.4268 1.78442C37.7778 1.78442 36.4412 3.12104 36.4412 4.76958Z" fill="#EFC7A4"/>
<path fill-rule="evenodd" clip-rule="evenodd" d="M45.8865 15.9354C45.8865 19.503 32.9668 19.503 32.9668 15.9354C32.9668 12.3679 35.8593 9.47583 39.4269 9.47583C42.9944 9.47583 45.8865 12.3679 45.8865 15.9354Z" fill="#B3A4EE"/>
<path fill-rule="evenodd" clip-rule="evenodd" d="M22.1863 6.73311C22.1863 8.14814 23.3333 9.29521 24.7484 9.29521C26.1634 9.29521 27.3105 8.14824 27.3105 6.73311C27.3105 5.31846 26.1634 4.17139 24.7484 4.17139C23.3333 4.17139 22.1863 5.31846 22.1863 6.73311Z" fill="#EFC7A4"/>
<path fill-rule="evenodd" clip-rule="evenodd" d="M30.2916 16.315C30.2916 19.3764 19.2047 19.3764 19.2047 16.315C19.2047 13.2536 21.6868 10.7717 24.7484 10.7717C27.8099 10.7717 30.2916 13.2536 30.2916 16.315Z" fill="#F76C82"/>
<path fill-rule="evenodd" clip-rule="evenodd" d="M24.838 16.3592L26.189 19.7898C26.2032 19.826 26.235 19.8491 26.2738 19.8516L29.954 20.0763C29.9948 20.0787 30.0282 20.1046 30.0409 20.1436C30.0536 20.1825 30.0417 20.223 30.0101 20.2491L27.1649 22.5941C27.1349 22.6188 27.1227 22.6563 27.1325 22.6939L28.056 26.2635C28.0663 26.3031 28.052 26.3429 28.0189 26.3669C27.9858 26.3909 27.9435 26.3923 27.9091 26.3702L24.7996 24.3889C24.7669 24.368 24.7274 24.368 24.6947 24.3889L21.5853 26.3702C21.5508 26.3922 21.5086 26.3909 21.4755 26.3669C21.4424 26.3428 21.4281 26.303 21.4384 26.2635L22.3619 22.6939C22.3717 22.6563 22.3595 22.6188 22.3295 22.5941L19.4843 20.2491C19.4526 20.223 19.4408 20.1825 19.4535 20.1436C19.4662 20.1046 19.4995 20.0788 19.5404 20.0763L23.2206 19.8516C23.2594 19.8492 23.2912 19.826 23.3055 19.7898L24.6564 16.3592C24.6715 16.3211 24.7063 16.2974 24.7473 16.2974C24.7881 16.2974 24.8229 16.3211 24.838 16.3592Z" fill="#FDCD56"/>
<path fill-rule="evenodd" clip-rule="evenodd" d="M54.1949 16.3592L55.5458 19.7898C55.5601 19.826 55.5919 19.8491 55.6307 19.8516L59.3109 20.0763C59.3517 20.0787 59.3851 20.1046 59.3978 20.1436C59.4105 20.1825 59.3986 20.223 59.367 20.2491L56.5218 22.5941C56.4918 22.6188 56.4796 22.6563 56.4894 22.6939L57.4129 26.2635C57.4232 26.3031 57.4089 26.3429 57.3758 26.3669C57.3427 26.3909 57.3004 26.3923 57.266 26.3702L54.1565 24.3889C54.1238 24.368 54.0843 24.368 54.0516 24.3889L50.9421 26.3702C50.9077 26.3922 50.8654 26.3909 50.8323 26.3669C50.7992 26.3428 50.7849 26.303 50.7952 26.2635L51.7187 22.6939C51.7285 22.6563 51.7163 22.6188 51.6863 22.5941L48.8411 20.2491C48.8095 20.223 48.7976 20.1825 48.8103 20.1436C48.8229 20.1046 48.8563 20.0788 48.8972 20.0763L52.5774 19.8516C52.6162 19.8492 52.648 19.826 52.6623 19.7898L54.0132 16.3592C54.0283 16.3211 54.0631 16.2974 54.104 16.2974C54.145 16.2974 54.1798 16.3211 54.1949 16.3592Z" fill="#FDCD56"/>
<path fill-rule="evenodd" clip-rule="evenodd" d="M39.5164 16.3591L40.8674 19.7898C40.8817 19.8259 40.9135 19.8491 40.9523 19.8515L44.6324 20.0762C44.6733 20.0787 44.7067 20.1045 44.7194 20.1435C44.7321 20.1825 44.7202 20.223 44.6886 20.2491L41.8434 22.5941C41.8134 22.6188 41.8012 22.6563 41.811 22.6939L42.7345 26.2632C42.7447 26.3029 42.7305 26.3426 42.6974 26.3667C42.6643 26.3907 42.622 26.392 42.5875 26.37L39.478 24.3886C39.4453 24.3677 39.4059 24.3677 39.3732 24.3886L36.2638 26.37C36.2292 26.3919 36.187 26.3907 36.1539 26.3667C36.1208 26.3425 36.1066 26.3028 36.1168 26.2632L37.0404 22.6937C37.0501 22.6561 37.0379 22.6186 37.0079 22.5939L34.1627 20.2489C34.1312 20.2228 34.1193 20.1823 34.132 20.1433C34.1446 20.1043 34.1779 20.0786 34.2189 20.076L37.899 19.8513C37.9378 19.849 37.9696 19.8257 37.9839 19.7896L39.3349 16.3589C39.3499 16.3208 39.3848 16.2971 39.4257 16.2971C39.4665 16.2973 39.5015 16.321 39.5164 16.3591Z" fill="#FDCD56"/>
<path fill-rule="evenodd" clip-rule="evenodd" d="M28.9141 29.6417C25.7725 31.1807 22.6014 32.6592 19.4399 34.1568L23.9019 44.8486L30.4646 41.6518C31.4135 41.1896 32.3827 41.1063 33.3966 41.3998L40.3592 43.4158C42.5655 44.0547 45.2974 42.8808 47.3502 42.088L60.4108 37.0438C63.8501 35.7156 64.6783 28.8135 56.556 31.1979L47.2378 33.9333C46.9667 32.9514 46.1971 32.1317 45.1471 31.8512L38.8342 30.1647C34.5312 27.1182 32.3421 27.9622 28.9141 29.6417Z" fill="#EFC7A4"/>
<path fill-rule="evenodd" clip-rule="evenodd" d="M47.2442 35.4775L33.1308 31.707C32.7103 33.2811 33.6541 34.9129 35.2281 35.3334L43.6178 37.5747C45.1918 37.9952 46.8237 37.0516 47.2442 35.4775Z" fill="#D5A889"/>
<path fill-rule="evenodd" clip-rule="evenodd" d="M27.1874 47.0925L23.8963 48.5361C23.1822 48.8493 22.3445 48.5229 22.0306 47.8093C20.0684 43.3486 18.1062 38.888 16.1441 34.4273C15.987 34.07 15.9792 33.7064 16.1209 33.3428C16.2626 32.979 16.5143 32.7166 16.8718 32.5597L20.1629 31.1161C20.8769 30.8029 21.7147 31.1293 22.0286 31.8429C23.9907 36.3036 25.9529 40.7642 27.915 45.2249C28.0722 45.5822 28.08 45.9458 27.9383 46.3095C27.7966 46.6731 27.5449 46.9356 27.1874 47.0925Z" fill="#E4E8EB"/>
<path fill-rule="evenodd" clip-rule="evenodd" d="M41.3904 22.1049C41.1882 22.2735 41.0962 22.546 41.1652 22.8029L41.7304 24.9926L39.8234 23.7767C39.7131 23.7055 39.5844 23.67 39.4558 23.67C39.3271 23.67 39.2031 23.7054 39.0882 23.7767L37.1812 24.9926L37.751 22.8029C37.8154 22.546 37.7281 22.2735 37.5212 22.1049L35.775 20.6661L38.0359 20.5282C38.2978 20.5121 38.5322 20.3439 38.6287 20.0967L39.4558 17.9921L40.283 20.0967C40.384 20.3439 40.6138 20.5121 40.8803 20.5282L43.1366 20.6661L41.3904 22.1049ZM45.5628 19.878C45.4755 19.6115 45.232 19.424 44.9517 19.4075L41.3996 19.1906L40.0945 15.8761C39.9888 15.6146 39.7361 15.4437 39.4557 15.4437C39.1754 15.4437 38.9227 15.6146 38.8215 15.8761L37.5165 19.1906L33.9597 19.4075C33.6793 19.4241 33.4404 19.6115 33.3531 19.878C33.2658 20.1459 33.3485 20.4387 33.5691 20.6174L36.317 22.8819L35.4209 26.3302C35.352 26.6026 35.4577 26.8898 35.6829 27.0549C35.9126 27.2198 36.2159 27.2286 36.4502 27.0783L39.4555 25.1645L42.4608 27.0783C42.571 27.1495 42.6998 27.185 42.8284 27.185C42.9663 27.185 43.1086 27.1417 43.2282 27.0549C43.458 26.8899 43.559 26.6027 43.4901 26.3302L42.5986 22.8819L45.3465 20.6174C45.5628 20.4387 45.6501 20.1459 45.5628 19.878ZM26.7132 22.1049C26.5064 22.2735 26.4191 22.546 26.488 22.8029L27.0533 24.9926L25.1462 23.7767C25.036 23.7055 24.9073 23.67 24.7787 23.67C24.6499 23.67 24.5213 23.7054 24.411 23.7767L22.504 24.9926L23.0692 22.8029C23.1381 22.546 23.0462 22.2735 22.844 22.1049L21.0978 20.6661L23.3541 20.5282C23.6206 20.5121 23.8503 20.3439 23.9514 20.0958L24.7786 17.9921L25.6057 20.0967C25.7022 20.3439 25.9366 20.5121 26.1985 20.5282L28.4593 20.6661L26.7132 22.1049ZM30.8811 19.878C30.7938 19.6115 30.5548 19.424 30.2746 19.4075L26.7178 19.1906L25.4127 15.8761C25.3117 15.6146 25.0589 15.4437 24.7786 15.4437C24.4983 15.4437 24.2456 15.6146 24.1444 15.8761L22.8393 19.1906L19.2826 19.4075C19.0023 19.4241 18.7587 19.6115 18.6714 19.878C18.5887 20.1459 18.6714 20.4387 18.8874 20.6174L21.6354 22.8819L20.7439 26.3302C20.6749 26.6026 20.776 26.8898 21.0058 27.0549C21.231 27.2198 21.5388 27.2286 21.7732 27.0783L24.7785 25.1645L27.7837 27.0783C27.894 27.1495 28.0227 27.185 28.1467 27.185C28.2892 27.185 28.4316 27.1417 28.5511 27.0549C28.7763 26.8899 28.882 26.6027 28.813 26.3302L27.9169 22.8819L30.6695 20.6174C30.8857 20.4387 30.9684 20.1459 30.8811 19.878ZM56.0721 22.1049C55.8654 22.2735 55.778 22.546 55.8423 22.8029L56.4076 24.9926L54.5005 23.7767C54.2799 23.6342 53.9905 23.6342 53.7653 23.7767L51.8628 24.9926L52.4281 22.8029C52.4924 22.546 52.4051 22.2735 52.1983 22.1049L50.4567 20.6661L52.7129 20.5282C52.9748 20.5121 53.2092 20.3439 53.3057 20.0967L54.1374 17.9921L54.9646 20.0967C55.0611 20.3439 55.2909 20.5121 55.5574 20.5282L57.8136 20.6661L56.0721 22.1049ZM60.24 19.878C60.1527 19.6115 59.9137 19.424 59.6334 19.4075L56.0767 19.1906L54.7716 15.8761C54.6706 15.6146 54.4132 15.4437 54.1374 15.4437C53.8526 15.4437 53.6044 15.6146 53.4987 15.8761L52.1936 19.1906L48.6369 19.4075C48.3566 19.4241 48.1176 19.6115 48.0303 19.878C47.943 20.1459 48.0303 20.4387 48.2463 20.6174L50.9943 22.8819L50.1028 26.3302C50.0338 26.6026 50.1349 26.8898 50.3601 27.0549C50.5899 27.2198 50.8931 27.2286 51.1321 27.0783L54.1374 25.1645L57.138 27.0783C57.2483 27.1495 57.377 27.185 57.5056 27.185C57.6481 27.185 57.7905 27.1417 57.9054 27.0549C58.1352 26.8899 58.2363 26.6027 58.1673 26.3302L57.2758 22.8819L60.0238 20.6174C60.24 20.4387 60.3273 20.1459 60.24 19.878ZM24.7786 4.85391C25.8124 4.85391 26.658 5.6957 26.658 6.73154C26.658 7.76689 25.8124 8.60967 24.7786 8.60967C23.7447 8.60967 22.8991 7.76689 22.8991 6.73154C22.8992 5.6958 23.7447 4.85391 24.7786 4.85391ZM24.7786 9.97666C26.5661 9.97666 28.0228 8.5209 28.0228 6.73154C28.0228 4.9417 26.5661 3.48643 24.7786 3.48643C22.991 3.48643 21.5343 4.9417 21.5343 6.73154C21.5343 8.5209 22.9911 9.97666 24.7786 9.97666ZM39.4558 2.46572C40.7241 2.46572 41.7581 3.49824 41.7581 4.76748C41.7581 6.03711 40.7242 7.06924 39.4558 7.06924C38.1874 7.06924 37.1536 6.03721 37.1536 4.76748C37.1536 3.49834 38.1874 2.46572 39.4558 2.46572ZM39.4558 8.43682C41.4823 8.43682 43.1274 6.79121 43.1274 4.76748C43.1274 2.74512 41.4823 1.09863 39.4558 1.09863C37.4339 1.09863 35.7888 2.74512 35.7888 4.76748C35.7888 6.79131 37.4338 8.43682 39.4558 8.43682ZM60.1756 36.3635L47.1895 41.3801C47.0516 41.4338 46.9092 41.4886 46.7622 41.545C44.8643 42.2862 42.4978 43.2095 40.6735 42.6819L33.7485 40.6771C32.5813 40.3393 31.4371 40.4367 30.3434 40.9693L27.4438 42.381L23.3817 33.1366C25.4173 32.1739 27.4208 31.2236 29.4014 30.254C32.7054 28.6342 34.617 27.9191 38.5689 30.7182C38.6378 30.765 38.7114 30.799 38.7895 30.8206L45.0666 32.4974C46.275 32.8195 46.9919 34.0616 46.6703 35.2669C46.3486 36.4718 45.1033 37.1904 43.8994 36.8692L35.5544 34.6396C35.1915 34.5423 34.8192 34.7587 34.7181 35.124C34.6216 35.4885 34.8375 35.8634 35.2006 35.9608L43.5456 38.1896C44.4784 38.4386 45.4572 38.3086 46.2981 37.8224C47.139 37.3353 47.741 36.5536 47.9891 35.6203C48.0994 35.21 48.1362 34.7969 48.104 34.3966L56.7843 31.8431C59.6471 31.0003 61.6369 31.3183 62.1056 32.6955C62.5468 34.0001 61.5956 35.8166 60.1756 36.3635ZM27.3335 46.0575C27.4071 45.876 27.4025 45.6757 27.3198 45.4933L21.4195 32.0742C21.2954 31.798 21.0243 31.634 20.744 31.634C20.6429 31.634 20.5418 31.6533 20.4499 31.6955L17.1458 33.1435C16.9666 33.2238 16.8242 33.3682 16.7552 33.5501C16.6817 33.7316 16.6909 33.9324 16.769 34.1153L22.6693 47.5344C22.8347 47.9052 23.2712 48.0752 23.6435 47.9121L26.9429 46.465C26.9429 46.465 26.9429 46.465 26.9429 46.4642C27.1267 46.3843 27.2646 46.2404 27.3335 46.0575ZM63.3969 32.2562C64.077 34.2589 62.7766 36.8244 60.6719 37.6392L47.6812 42.6554C47.5433 42.7082 47.4055 42.7629 47.263 42.8189C45.6363 43.4521 43.7063 44.2054 41.8636 44.2054C41.326 44.2054 40.8021 44.142 40.292 43.9944L33.367 41.9896C32.5261 41.7455 31.7311 41.8136 30.9408 42.1986L27.9953 43.6333L28.5743 44.9428C28.7995 45.4593 28.8132 46.0323 28.611 46.5548C28.4042 47.0772 28.009 47.4895 27.4898 47.7169L24.1904 49.1645C23.9193 49.2844 23.6297 49.3409 23.3495 49.3409C22.5407 49.3409 21.7641 48.8713 21.4195 48.0841L15.5192 34.6655C15.2894 34.1485 15.2756 33.5765 15.4825 33.054C15.6846 32.5315 16.0798 32.1184 16.5991 31.8919L19.8985 30.4435C20.96 29.9789 22.2053 30.4632 22.6694 31.5238L22.8302 31.8859C24.8521 30.9302 26.8373 29.9867 28.7995 29.0259C32.3469 27.2894 34.7549 26.3813 39.2583 29.5305L45.4205 31.177C46.4682 31.4572 47.2907 32.1732 47.7365 33.0794L56.3985 30.5313C58.3055 29.9712 59.8909 29.8596 61.1086 30.2032C62.2435 30.5225 63.0569 31.2513 63.3969 32.2562ZM32.3148 15.9339C32.3148 16.761 32.7744 17.9034 34.9754 18.6506C35.3292 18.7715 35.7199 18.5803 35.8393 18.2228C35.9633 17.8652 35.7704 17.4774 35.412 17.3557C34.8927 17.1787 33.6795 16.6856 33.6795 15.9339C33.6795 12.7494 36.2712 10.1572 39.4558 10.1572C42.6404 10.1572 45.232 12.7494 45.232 15.9339C45.232 16.6856 44.0235 17.1787 43.4996 17.3557C43.1412 17.4774 42.9527 17.8652 43.0722 18.2228C43.1687 18.5081 43.4352 18.6869 43.7202 18.6869C43.7937 18.6869 43.8672 18.675 43.9408 18.6506C46.1373 17.9034 46.6014 16.761 46.6014 15.9339C46.6014 11.9953 43.3939 8.79014 39.4558 8.79014C35.5177 8.79014 32.3148 11.9954 32.3148 15.9339ZM47.9064 16.3135C47.9064 16.9981 48.2602 17.9544 49.9375 18.6193C50.2868 18.7581 50.6866 18.5862 50.8245 18.2356C50.9624 17.8851 50.7923 17.4875 50.4431 17.3479C50.0066 17.176 49.2759 16.8115 49.2759 16.3135C49.2759 13.634 51.454 11.4531 54.1377 11.4531C56.8167 11.4531 58.9949 13.634 58.9949 16.3135C58.9949 16.8116 58.2642 17.176 57.8277 17.3479C57.4785 17.4875 57.3084 17.8851 57.4463 18.2356C57.552 18.504 57.8093 18.6671 58.0805 18.6671C58.1632 18.6671 58.2505 18.6515 58.3332 18.6193C60.0105 17.9544 60.3643 16.9981 60.3643 16.3135C60.3643 12.8799 57.5704 10.086 54.1377 10.086C50.7003 10.086 47.9064 12.88 47.9064 16.3135ZM18.5521 16.3135C18.5521 16.9981 18.9013 17.9544 20.5786 18.6193C20.9324 18.7581 21.3276 18.5862 21.4655 18.2356C21.608 17.8851 21.4333 17.4875 21.084 17.3479C20.6475 17.176 19.9168 16.8115 19.9168 16.3135C19.9168 13.634 22.0996 11.4531 24.7786 11.4531C27.4576 11.4531 29.6403 13.634 29.6403 16.3135C29.6403 16.8116 28.9096 17.176 28.4731 17.3479C28.1193 17.4875 27.9493 17.8851 28.0871 18.2356C28.1927 18.504 28.45 18.6671 28.7258 18.6671C28.8085 18.6671 28.8913 18.6515 28.974 18.6193C30.6512 17.9544 31.005 16.9981 31.005 16.3135C31.005 12.8799 28.2112 10.086 24.7785 10.086C21.3459 10.086 18.5521 12.88 18.5521 16.3135ZM54.1375 4.85391C55.1714 4.85391 56.0124 5.6957 56.0124 6.73154C56.0124 7.76689 55.1714 8.60967 54.1375 8.60967C53.099 8.60967 52.2581 7.76689 52.2581 6.73154C52.2581 5.6958 53.0991 4.85391 54.1375 4.85391ZM54.1375 9.97666C55.925 9.97666 57.3818 8.5209 57.3818 6.73154C57.3818 4.9417 55.925 3.48643 54.1375 3.48643C52.3454 3.48643 50.8887 4.9417 50.8887 6.73154C50.8887 8.5209 52.3455 9.97666 54.1375 9.97666Z" fill="black"/>
</svg>
