<svg width="50" height="50" viewBox="0 0 50 50" fill="none" xmlns="../../../../../external.html?link=http://www.w3.org/2000/svg">
<path d="M25 9.375C27.8021 9.375 30.4133 9.70791 32.6493 10.2762L30.7826 2.71387C30.6924 2.38318 30.496 2.09133 30.2236 1.88327C29.9512 1.67522 29.618 1.5625 29.2752 1.5625H20.7246C20.3818 1.5625 20.0486 1.67522 19.7762 1.88327C19.5038 2.09133 19.3074 2.38318 19.2172 2.71387L17.3506 10.2762C19.5866 9.70791 22.1979 9.375 25 9.375Z" fill="#EA8E49"/>
<path d="M24.9999 8.39189C27.4875 8.3791 29.968 8.65932 32.3901 9.22676L30.7825 2.71387C30.6923 2.38318 30.4959 2.09133 30.2235 1.88327C29.9511 1.67522 29.6179 1.5625 29.2751 1.5625H22.287C21.9442 1.5625 21.611 1.67522 21.3386 1.88327C21.0662 2.09133 20.8698 2.38318 20.7796 2.71387L19.2583 8.87744C21.1545 8.54942 23.0756 8.38696 24.9999 8.39189Z" fill="#FCAB68"/>
<path d="M25 12.5C22.3581 12.5 19.9287 12.7359 17.9688 13.1292V16.7169C17.9687 19.0554 18.6994 21.3354 20.0586 23.2383C20.6204 24.0248 21.3619 24.6659 22.2213 25.1082C23.0808 25.5505 24.0334 25.7813 25 25.7813C25.9666 25.7813 26.9192 25.5505 27.7787 25.1082C28.6381 24.6659 29.3796 24.0248 29.9414 23.2383C31.3006 21.3354 32.0313 19.0554 32.0312 16.7169V13.1292C30.0712 12.7359 27.6418 12.5 25 12.5Z" fill="#F2B789"/>
<path d="M25 9.375C16.8021 9.375 10.1562 12.1732 10.1562 15.625C10.1562 18.1722 13.7805 20.3594 18.9715 21.333C18.3132 19.883 17.9714 18.3094 17.9688 16.7169V13.1292C19.9287 12.7359 22.3581 12.5 25 12.5C27.6419 12.5 30.0713 12.7359 32.0312 13.1292V16.7169C32.0286 18.3094 31.6868 19.883 31.0285 21.333C36.2194 20.3594 39.8438 18.1722 39.8438 15.625C39.8438 12.1732 33.1979 9.375 25 9.375Z" fill="#EA8E49"/>
<path d="M17.9688 16.7169V15.625H16.7969C16.2789 15.625 15.7821 15.8308 15.4158 16.1971C15.0495 16.5633 14.8438 17.0601 14.8438 17.5781C14.8438 18.0961 15.0495 18.5929 15.4158 18.9592C15.7821 19.3255 16.2789 19.5312 16.7969 19.5312H18.3343C18.0937 18.6124 17.9708 17.6667 17.9688 16.7169Z" fill="#F2B789"/>
<path d="M25 12.4999C23.1709 12.4943 21.3436 12.6153 19.5313 12.8621V16.7168C19.5312 19.0553 20.2619 21.3353 21.6211 23.2382C22.1063 23.9167 22.7261 24.488 23.4419 24.9163C24.1576 25.3447 24.954 25.6209 25.7812 25.7278C26.6085 25.6209 27.4049 25.3447 28.1206 24.9163C28.8364 24.488 29.4562 23.9167 29.9414 23.2382C31.3006 21.3353 32.0313 19.0553 32.0312 16.7168V13.1291C30.0712 12.7359 27.6418 12.4999 25 12.4999Z" fill="#F6CCA5"/>
<path d="M28.9062 28.125L36.0804 29.9186C37.6016 30.2989 38.9521 31.1768 39.9171 32.4128C40.8821 33.6487 41.4062 35.1718 41.4062 36.7398V48.4375H8.59375V36.7398C8.59375 35.1718 9.11792 33.6487 10.0829 32.4128C11.0479 31.1768 12.3984 30.2989 13.9196 29.9186L21.0938 28.125L21.3562 28.5187C21.7561 29.1185 22.2979 29.6104 22.9336 29.9506C23.5692 30.2907 24.279 30.4687 25 30.4688C25.721 30.4687 26.4308 30.2907 27.0664 29.9506C27.7021 29.6104 28.2439 29.1185 28.6438 28.5187L28.9062 28.125Z" fill="#EA8E49"/>
<path d="M25 30.4687C25.721 30.4686 26.4308 30.2906 27.0664 29.9505C27.7021 29.6103 28.2439 29.1184 28.6438 28.5186L28.9062 28.1249V24.353C27.8136 25.2753 26.4298 25.7811 25 25.7811C23.5702 25.7811 22.1864 25.2753 21.0938 24.353V28.1249L21.3562 28.5186C21.7561 29.1184 22.2979 29.6103 22.9336 29.9505C23.5692 30.2906 24.279 30.4686 25 30.4687Z" fill="#F2B789"/>
<path d="M25 30.4687C25.721 30.4686 26.4308 30.2906 27.0664 29.9505C27.7021 29.6103 28.2439 29.1184 28.6438 28.5186L28.9062 28.1249V24.353C27.9402 25.1708 26.7413 25.664 25.4794 25.7628C24.2175 25.8615 22.9565 25.5608 21.875 24.9032V29.1456C22.2814 29.5632 22.7673 29.8954 23.3039 30.1226C23.8406 30.3498 24.4172 30.4675 25 30.4687Z" fill="#F6CCA5"/>
<path d="M41.4062 36.7398C41.4062 35.1718 40.8821 33.6487 39.917 32.4127C38.952 31.1768 37.6015 30.2989 36.0803 29.9186L28.9062 28.125L28.6438 28.5187C28.2439 29.1185 27.7021 29.6104 27.0664 29.9506C26.4308 30.2908 25.721 30.4688 25 30.4688C24.279 30.4688 23.5692 30.2908 22.9336 29.9506C22.2979 29.6104 21.7561 29.1185 21.3562 28.5187L21.0938 28.125L13.9197 29.9186C12.4364 30.2895 11.1148 31.135 10.1562 32.3263V38.044C10.1562 40.1789 11.0043 42.2264 12.5139 43.736C14.0235 45.2456 16.071 46.0937 18.2059 46.0938H41.4062V36.7398Z" fill="#FCAB68"/>
<path d="M33.5938 48.4375L32.8643 38.2256C32.8502 38.0285 32.762 37.8441 32.6174 37.7095C32.4728 37.5748 32.2825 37.5 32.085 37.5H17.915C17.7175 37.5 17.5272 37.5748 17.3826 37.7095C17.238 37.8441 17.1498 38.0285 17.1357 38.2256L16.4062 48.4375H33.5938Z" fill="#5D6972"/>
<path d="M32.8643 38.2256C32.8503 38.0285 32.7621 37.8441 32.6175 37.7095C32.4729 37.5748 32.2826 37.5 32.0851 37.5H18.2268L17.6629 45.3948C17.6458 45.634 17.6782 45.8741 17.7579 46.1003C17.8377 46.3264 17.9632 46.5337 18.1266 46.7092C18.2899 46.8847 18.4877 47.0246 18.7076 47.1204C18.9274 47.2161 19.1646 47.2656 19.4044 47.2656H33.5101L32.8643 38.2256Z" fill="#7A838B"/>
<path d="M8.59375 43.75H13.2812V48.4375H8.59375V43.75Z" fill="#F2B789"/>
<path d="M9.375 46.0938C9.375 46.5082 9.53962 46.9056 9.83265 47.1986C10.1257 47.4916 10.5231 47.6562 10.9375 47.6562H13.2812V43.75H9.375V46.0938Z" fill="#F6CCA5"/>
<path d="M36.7188 43.75H41.4062V48.4375H36.7188V43.75Z" fill="#F2B789"/>
<path d="M38.2812 46.0938C38.2812 46.5082 38.4459 46.9056 38.7389 47.1986C39.0319 47.4916 39.4293 47.6562 39.8438 47.6562H41.4062V43.75H38.2812V46.0938Z" fill="#F6CCA5"/>
<path d="M31.1121 28.6765L28.9062 37.5H32.0312L34.2254 29.4548L31.1121 28.6765Z" fill="#5D6972"/>
<path d="M34.2252 29.4547L31.4581 28.7629L29.6141 36.1386C29.5854 36.2538 29.5832 36.374 29.6078 36.4902C29.6324 36.6063 29.6832 36.7153 29.7563 36.8089C29.8294 36.9024 29.9228 36.9781 30.0295 37.0302C30.1362 37.0823 30.2533 37.1093 30.372 37.1093H32.1376L34.2252 29.4547Z" fill="#7A838B"/>
<path d="M17.9686 37.5H21.0936L18.8877 28.6765L15.7744 29.4548L17.9686 37.5Z" fill="#5D6972"/>
<path d="M18.8877 28.6765L16.2678 29.3315L18.0381 35.8223C18.1264 36.1458 18.3185 36.4313 18.585 36.6348C18.8514 36.8383 19.1774 36.9486 19.5127 36.9486H20.9557L18.8877 28.6765Z" fill="#7A838B"/>
<path d="M20.3125 40.625H29.6875V48.4375H20.3125V40.625Z" fill="#CECECE"/>
<path d="M20.3125 40.625H29.6875V46.875H20.3125V40.625Z" fill="#E6E6E6"/>
<path d="M20.3125 40.625H29.6875V43.75H20.3125V40.625Z" fill="#80BBCE"/>
<path d="M21.0938 41.4062C21.0938 41.8207 21.2584 42.2181 21.5514 42.5111C21.8444 42.8041 22.2418 42.9688 22.6562 42.9688H29.6875V40.625H21.0938V41.4062Z" fill="#A7D0E1"/>
<path d="M33.203 15.625H32.0312V16.7169C32.029 17.6667 31.9062 18.6124 31.6655 19.5312H33.203C33.721 19.5312 34.2178 19.3255 34.5841 18.9592C34.9504 18.5929 35.1562 18.0961 35.1562 17.5781C35.1562 17.0601 34.9504 16.5633 34.5841 16.1971C34.2178 15.8308 33.721 15.625 33.203 15.625Z" fill="#F2B789"/>
<path d="M33.203 15.625H32.0312V16.7169C32.029 17.6667 31.9062 18.6124 31.6655 19.5312H33.203C33.721 19.5312 34.2178 19.3255 34.5841 18.9592C34.9504 18.5929 35.1562 18.0961 35.1562 17.5781C35.1562 17.0601 34.9504 16.5633 34.5841 16.1971C34.2178 15.8308 33.721 15.625 33.203 15.625Z" fill="#F2B789"/>
<path d="M32.0323 15.625H33.203C33.6775 15.6259 34.1354 15.8001 34.4905 16.1148C34.8456 16.4295 35.0736 16.863 35.1315 17.334C37.1454 16.6412 38.7304 15.7355 39.6613 14.6907C38.5879 11.6834 32.4431 9.375 25.0011 9.375C18.643 9.375 13.2342 11.0613 11.1196 13.4271C11.5777 14.7208 12.9773 15.8838 15.013 16.7909C15.1654 16.4444 15.4152 16.1497 15.7322 15.9426C16.0491 15.7356 16.4194 15.6253 16.7979 15.625H17.9698V13.1292C19.9298 12.7359 22.3592 12.5 25.0011 12.5C27.643 12.5 30.0724 12.7359 32.0323 13.1292V15.625Z" fill="#FCAB68"/>
<path d="M36.2695 29.161L29.6875 27.5154V24.6932C30.0162 24.3898 30.3142 24.0546 30.5771 23.6927C30.9541 23.1637 31.2878 22.6053 31.5751 22.0228C37.1651 20.8924 40.625 18.4614 40.625 15.625C40.625 13.2154 38.0539 11.1295 34.0607 9.86797L31.5657 2.3834C31.4105 1.91662 31.1122 1.5106 30.7131 1.223C30.314 0.935396 29.8345 0.780831 29.3426 0.781251H20.6572C20.1653 0.780846 19.6858 0.935416 19.2867 1.22302C18.8876 1.51061 18.5893 1.91663 18.4341 2.3834L15.9392 9.86797C11.946 11.1295 9.37501 13.2154 9.37501 15.625C9.37501 18.4614 12.8346 20.8923 18.4246 22.0215C18.7119 22.6042 19.0458 23.1628 19.423 23.6919C19.6858 24.054 19.9838 24.3892 20.3125 24.6928V27.515L13.7305 29.1606C12.039 29.5812 10.5371 30.5561 9.46451 31.9299C8.39187 33.3037 7.81027 34.9972 7.81251 36.7401C7.81251 36.9473 7.89482 37.146 8.04133 37.2926C8.18784 37.4391 8.38656 37.5214 8.59376 37.5214C8.80096 37.5214 8.99967 37.4391 9.14618 37.2926C9.2927 37.146 9.37501 36.9473 9.37501 36.7401C9.37331 35.3458 9.83859 33.9911 10.6966 32.892C11.5547 31.793 12.756 31.0129 14.1091 30.6763L15.511 30.3258L17.0483 36.9859C16.8506 37.1175 16.6854 37.2925 16.5655 37.4976C16.4457 37.7027 16.3742 37.9324 16.3566 38.1693L15.679 47.6562H14.0625V40.625C14.0625 40.4178 13.9802 40.2191 13.8337 40.0726C13.6872 39.9261 13.4885 39.8438 13.2813 39.8438C13.0741 39.8438 12.8753 39.9261 12.7288 40.0726C12.5823 40.2191 12.5 40.4178 12.5 40.625V42.9688H9.37501V40.625C9.37501 40.4178 9.2927 40.2191 9.14618 40.0726C8.99967 39.9261 8.80096 39.8438 8.59376 39.8438C8.38656 39.8438 8.18784 39.9261 8.04133 40.0726C7.89482 40.2191 7.81251 40.4178 7.81251 40.625V48.4375C7.81251 48.6447 7.89482 48.8434 8.04133 48.9899C8.18784 49.1364 8.38656 49.2188 8.59376 49.2188H41.4063C41.6135 49.2188 41.8122 49.1364 41.9587 48.9899C42.1052 48.8434 42.1875 48.6447 42.1875 48.4375V36.7401C42.1897 34.9973 41.608 33.3039 40.5354 31.9302C39.4627 30.5564 37.9609 29.5816 36.2695 29.161ZM40.625 36.7401V42.9688H37.5V40.625C37.5 40.4178 37.4177 40.2191 37.2712 40.0726C37.1247 39.9261 36.926 39.8438 36.7188 39.8438C36.5116 39.8438 36.3128 39.9261 36.1663 40.0726C36.0198 40.2191 35.9375 40.4178 35.9375 40.625V47.6562H34.3208L33.6433 38.1706C33.6258 37.9336 33.5544 37.7037 33.4345 37.4985C33.3146 37.2932 33.1494 37.1181 32.9516 36.9864L34.4884 30.3257L35.8908 30.6763C37.2439 31.0129 38.4453 31.7929 39.3034 32.892C40.1614 33.9911 40.6267 35.3458 40.625 36.7401ZM21.7152 36.7188L19.982 29.208L20.7496 29.0161C21.224 29.7051 21.8587 30.2684 22.5991 30.6575C23.3395 31.0467 24.1635 31.25 24.9999 31.25C25.8364 31.25 26.6603 31.0467 27.4007 30.6575C28.1411 30.2684 28.7758 29.7051 29.2502 29.0161L30.0176 29.2079L28.2845 36.7188H21.7152ZM31.5339 29.587L32.9721 29.9466L31.4096 36.7188H29.8884L31.5339 29.587ZM35.9375 15.625C35.9375 15.6852 35.8379 15.8636 35.4974 16.1011C35.2508 15.7162 34.9115 15.3994 34.5107 15.1797C34.1098 14.96 33.6602 14.8445 33.2031 14.8438H32.8125V14.0997C34.8775 14.616 35.9375 15.2526 35.9375 15.625ZM32.8125 16.7168V16.4063H33.2031C33.5139 16.4063 33.812 16.5297 34.0318 16.7495C34.2515 16.9693 34.375 17.2673 34.375 17.5781C34.375 17.8889 34.2515 18.187 34.0318 18.4068C33.812 18.6265 33.5139 18.75 33.2031 18.75H32.6357C32.7519 18.0785 32.811 17.3983 32.8125 16.7168ZM19.9157 2.87783C19.9676 2.72224 20.0672 2.58693 20.2003 2.49107C20.3333 2.39521 20.4932 2.34367 20.6572 2.34375H29.3426C29.5066 2.34365 29.6665 2.39518 29.7996 2.49104C29.9327 2.5869 30.0323 2.72223 30.0842 2.87783L32.2501 9.37559C29.8704 8.84363 27.4384 8.58137 25 8.59375C22.5616 8.58136 20.1295 8.84362 17.7498 9.37559L19.9157 2.87783ZM14.0625 15.625C14.0625 15.3734 14.896 14.6777 17.1875 14.1022V14.8438H16.7969C16.3398 14.8445 15.8903 14.96 15.4894 15.1796C15.0886 15.3993 14.7493 15.716 14.5027 16.1009C14.1621 15.8633 14.0625 15.6852 14.0625 15.625ZM16.7969 16.4063H17.1875V16.7168C17.189 17.3983 17.2481 18.0785 17.3643 18.75H16.7969C16.4861 18.75 16.188 18.6265 15.9682 18.4068C15.7485 18.187 15.625 17.8889 15.625 17.5781C15.625 17.2673 15.7485 16.9693 15.9682 16.7495C16.188 16.5297 16.4861 16.4063 16.7969 16.4063ZM18.75 16.7168V13.7732C19.2512 13.6865 19.7995 13.6067 20.3987 13.5368C20.6045 13.5127 20.7923 13.4079 20.9207 13.2453C21.0492 13.0828 21.1079 12.8759 21.0838 12.6701C21.0734 12.5676 21.0425 12.4682 20.993 12.3779C20.9434 12.2875 20.8763 12.2081 20.7954 12.1442C20.7146 12.0803 20.6217 12.0333 20.5224 12.0059C20.4231 11.9786 20.3192 11.9715 20.2171 11.9851C17.3355 12.3207 12.5 13.2408 12.5 15.625C12.5 16.4083 13.0286 17.0947 14.0723 17.6703C14.0924 18.2493 14.2977 18.8065 14.6582 19.2601C12.3362 18.2574 10.9375 16.9531 10.9375 15.625C10.9375 13.0387 16.713 10.1563 25 10.1563C33.287 10.1563 39.0625 13.0387 39.0625 15.625C39.0625 16.9531 37.6636 18.2575 35.3418 19.2604C35.7023 18.8067 35.9077 18.2493 35.9277 17.6702C36.9717 17.0956 37.5 16.4086 37.5 15.625C37.5 12.941 31.0203 11.7188 25 11.7188C24.4629 11.7188 23.9334 11.7279 23.4147 11.747C23.3103 11.748 23.2073 11.7699 23.1116 11.8114C23.0158 11.8529 22.9294 11.9131 22.8573 11.9886C22.7853 12.064 22.7291 12.1532 22.692 12.2507C22.655 12.3482 22.6378 12.4522 22.6416 12.5564C22.6453 12.6607 22.67 12.7631 22.714 12.8577C22.758 12.9523 22.8205 13.0371 22.8978 13.1072C22.9751 13.1772 23.0657 13.2311 23.1641 13.2655C23.2626 13.3 23.367 13.3144 23.4711 13.3079C23.9716 13.2901 24.4812 13.2813 25 13.2813C27.5143 13.2813 29.594 13.4827 31.25 13.7723V16.7168C31.2538 18.8931 30.5738 21.0155 29.3061 22.7844C28.8164 23.4697 28.1703 24.0283 27.4213 24.4136C26.6724 24.799 25.8423 25 25 25C24.1577 25 23.3276 24.799 22.5787 24.4136C21.8297 24.0283 21.1836 23.4697 20.694 22.7844C19.4262 21.0155 18.7462 18.8931 18.75 16.7168ZM25 26.5625C26.0869 26.5617 27.1581 26.3025 28.125 25.8062V27.8885L27.9938 28.0854C27.6652 28.5782 27.22 28.9823 26.6977 29.2618C26.1755 29.5412 25.5923 29.6875 25 29.6875C24.4077 29.6875 23.8245 29.5412 23.3023 29.2618C22.78 28.9823 22.3348 28.5782 22.0063 28.0854L21.875 27.8885V25.8062C22.842 26.3025 23.9131 26.5617 25 26.5625ZM18.4658 29.5871L20.1114 36.7188H18.5902L17.0277 29.9467L18.4658 29.5871ZM17.9145 38.2812H32.0854L32.7549 47.6562H30.4688V40.625C30.4688 40.4178 30.3864 40.2191 30.2399 40.0726C30.0934 39.9261 29.8947 39.8438 29.6875 39.8438H24.9932C24.786 39.8438 24.5873 39.9261 24.4407 40.0726C24.2942 40.2191 24.2119 40.4178 24.2119 40.625C24.2119 40.8322 24.2942 41.0309 24.4407 41.1774C24.5873 41.3239 24.786 41.4062 24.9932 41.4062H28.9063V42.9688H21.0938V41.4062H21.875C22.0822 41.4062 22.2809 41.3239 22.4274 41.1774C22.5739 41.0309 22.6563 40.8322 22.6563 40.625C22.6563 40.4178 22.5739 40.2191 22.4274 40.0726C22.2809 39.9261 22.0822 39.8438 21.875 39.8438H20.3125C20.1053 39.8438 19.9066 39.9261 19.7601 40.0726C19.6136 40.2191 19.5313 40.4178 19.5313 40.625V47.6562H17.2449L17.9145 38.2812ZM21.0938 44.5312H28.9063V47.6562H21.0938V44.5312ZM9.37501 44.5312H12.5V47.6562H9.37501V44.5312ZM37.5 47.6562V44.5312H40.625V47.6562H37.5Z" fill="black"/>
<path d="M21.875 20.3125C21.875 21.1413 22.2042 21.9362 22.7903 22.5222C23.3763 23.1083 24.1712 23.4375 25 23.4375C25.8288 23.4375 26.6237 23.1083 27.2097 22.5222C27.7958 21.9362 28.125 21.1413 28.125 20.3125C28.125 20.1053 28.0427 19.9066 27.8962 19.7601C27.7497 19.6136 27.551 19.5312 27.3438 19.5312C27.1365 19.5312 26.9378 19.6136 26.7913 19.7601C26.6448 19.9066 26.5625 20.1053 26.5625 20.3125C26.5625 20.7269 26.3979 21.1243 26.1049 21.4174C25.8118 21.7104 25.4144 21.875 25 21.875C24.5856 21.875 24.1882 21.7104 23.8951 21.4174C23.6021 21.1243 23.4375 20.7269 23.4375 20.3125C23.4375 20.1053 23.3552 19.9066 23.2087 19.7601C23.0622 19.6136 22.8635 19.5312 22.6562 19.5312C22.449 19.5312 22.2503 19.6136 22.1038 19.7601C21.9573 19.9066 21.875 20.1053 21.875 20.3125Z" fill="black"/>
<path d="M21.875 17.1875C22.0822 17.1875 22.2809 17.1052 22.4274 16.9587C22.5739 16.8122 22.6562 16.6135 22.6562 16.4062V15.625C22.6562 15.4178 22.5739 15.2191 22.4274 15.0726C22.2809 14.9261 22.0822 14.8438 21.875 14.8438C21.6678 14.8438 21.4691 14.9261 21.3226 15.0726C21.1761 15.2191 21.0938 15.4178 21.0938 15.625V16.4062C21.0938 16.6135 21.1761 16.8122 21.3226 16.9587C21.4691 17.1052 21.6678 17.1875 21.875 17.1875Z" fill="black"/>
<path d="M28.125 17.1875C28.3322 17.1875 28.5309 17.1052 28.6774 16.9587C28.8239 16.8122 28.9062 16.6135 28.9062 16.4062V15.625C28.9062 15.4178 28.8239 15.2191 28.6774 15.0726C28.5309 14.9261 28.3322 14.8438 28.125 14.8438C27.9178 14.8438 27.7191 14.9261 27.5726 15.0726C27.4261 15.2191 27.3438 15.4178 27.3438 15.625V16.4062C27.3438 16.6135 27.4261 16.8122 27.5726 16.9587C27.7191 17.1052 27.9178 17.1875 28.125 17.1875Z" fill="black"/>
</svg>
