<svg width="50" height="50" viewBox="0 0 50 50" fill="none" xmlns="../../../../../external.html?link=http://www.w3.org/2000/svg">
<path fill-rule="evenodd" clip-rule="evenodd" d="M36.543 6.73311C36.543 8.14814 37.69 9.29521 39.1051 9.29521C40.5201 9.29521 41.6672 8.14824 41.6672 6.73311C41.6672 5.31846 40.5201 4.17139 39.1051 4.17139C37.69 4.17139 36.543 5.31846 36.543 6.73311Z" fill="#EFC7A4"/>
<path fill-rule="evenodd" clip-rule="evenodd" d="M44.6484 16.315C44.6484 19.3764 33.5615 19.3764 33.5615 16.315C33.5615 13.2536 36.0437 10.7717 39.1052 10.7717C42.1667 10.7717 44.6484 13.2536 44.6484 16.315Z" fill="#66D4F1"/>
<path fill-rule="evenodd" clip-rule="evenodd" d="M21.4409 4.76958C21.4409 6.4186 22.7775 7.75522 24.4266 7.75522C26.0756 7.75522 27.4122 6.4186 27.4122 4.76958C27.4122 3.12104 26.0756 1.78442 24.4266 1.78442C22.7775 1.78442 21.4409 3.12104 21.4409 4.76958Z" fill="#EFC7A4"/>
<path fill-rule="evenodd" clip-rule="evenodd" d="M30.8863 15.9354C30.8863 19.503 17.9666 19.503 17.9666 15.9354C17.9666 12.3679 20.859 9.47583 24.4266 9.47583C27.9942 9.47583 30.8863 12.3679 30.8863 15.9354Z" fill="#B3A4EE"/>
<path fill-rule="evenodd" clip-rule="evenodd" d="M7.18604 6.73311C7.18604 8.14814 8.33311 9.29521 9.74814 9.29521C11.1632 9.29521 12.3103 8.14824 12.3103 6.73311C12.3103 5.31846 11.1632 4.17139 9.74814 4.17139C8.33311 4.17139 7.18604 5.31846 7.18604 6.73311Z" fill="#EFC7A4"/>
<path fill-rule="evenodd" clip-rule="evenodd" d="M15.2915 16.315C15.2915 19.3764 4.20459 19.3764 4.20459 16.315C4.20459 13.2536 6.68672 10.7717 9.74824 10.7717C12.8098 10.7717 15.2915 13.2536 15.2915 16.315Z" fill="#F76C82"/>
<path fill-rule="evenodd" clip-rule="evenodd" d="M9.83773 16.3592L11.1887 19.7898C11.203 19.826 11.2348 19.8491 11.2736 19.8516L14.9537 20.0763C14.9946 20.0787 15.028 20.1046 15.0407 20.1436C15.0534 20.1825 15.0414 20.223 15.0099 20.2491L12.1647 22.5941C12.1347 22.6188 12.1225 22.6563 12.1323 22.6939L13.0558 26.2635C13.0661 26.3031 13.0518 26.3429 13.0187 26.3669C12.9856 26.3909 12.9433 26.3923 12.9088 26.3702L9.79935 24.3889C9.76664 24.368 9.72718 24.368 9.69447 24.3889L6.58509 26.3702C6.55052 26.3922 6.50834 26.3909 6.47523 26.3669C6.44213 26.3428 6.42787 26.303 6.43812 26.2635L7.36166 22.6939C7.37142 22.6563 7.35922 22.6188 7.32923 22.5941L4.48402 20.2491C4.45238 20.223 4.44056 20.1825 4.45326 20.1436C4.46595 20.1046 4.49925 20.0788 4.54017 20.0763L8.22035 19.8516C8.25912 19.8492 8.29095 19.826 8.30521 19.7898L9.65619 16.3592C9.67123 16.3211 9.70609 16.2974 9.74701 16.2974C9.78783 16.2974 9.82269 16.3211 9.83773 16.3592Z" fill="#FDCD56"/>
<path fill-rule="evenodd" clip-rule="evenodd" d="M39.1947 16.3592L40.5457 19.7898C40.56 19.826 40.5918 19.8491 40.6306 19.8516L44.3108 20.0763C44.3516 20.0787 44.385 20.1046 44.3977 20.1436C44.4104 20.1825 44.3985 20.223 44.3669 20.2491L41.5217 22.5941C41.4917 22.6188 41.4795 22.6563 41.4893 22.6939L42.4128 26.2635C42.4231 26.3031 42.4088 26.3429 42.3757 26.3669C42.3426 26.3909 42.3003 26.3923 42.2658 26.3702L39.1564 24.3889C39.1237 24.368 39.0842 24.368 39.0515 24.3889L35.942 26.3702C35.9075 26.3922 35.8653 26.3909 35.8321 26.3669C35.799 26.3428 35.7848 26.303 35.795 26.2635L36.7186 22.6939C36.7283 22.6563 36.7161 22.6188 36.6862 22.5941L33.8409 20.2491C33.8094 20.223 33.7975 20.1825 33.8102 20.1436C33.8228 20.1046 33.8562 20.0788 33.8971 20.0763L37.5773 19.8516C37.616 19.8492 37.6479 19.826 37.6621 19.7898L39.0131 16.3592C39.0281 16.3211 39.063 16.2974 39.1039 16.2974C39.1448 16.2974 39.1797 16.3211 39.1947 16.3592Z" fill="#FDCD56"/>
<path fill-rule="evenodd" clip-rule="evenodd" d="M24.5162 16.3591L25.8672 19.7898C25.8814 19.8259 25.9133 19.8491 25.952 19.8515L29.6322 20.0762C29.673 20.0787 29.7064 20.1045 29.7191 20.1435C29.7318 20.1825 29.72 20.223 29.6884 20.2491L26.8431 22.5941C26.8132 22.6188 26.8009 22.6563 26.8107 22.6939L27.7342 26.2632C27.7445 26.3029 27.7302 26.3426 27.6971 26.3667C27.664 26.3907 27.6217 26.392 27.5873 26.37L24.4778 24.3886C24.4451 24.3677 24.4056 24.3677 24.3729 24.3886L21.2635 26.37C21.229 26.3919 21.1868 26.3907 21.1537 26.3667C21.1206 26.3425 21.1063 26.3028 21.1166 26.2632L22.0401 22.6937C22.0499 22.6561 22.0377 22.6186 22.0077 22.5939L19.1625 20.2489C19.1309 20.2228 19.119 20.1823 19.1317 20.1433C19.1444 20.1043 19.1777 20.0786 19.2186 20.076L22.8988 19.8513C22.9376 19.849 22.9694 19.8257 22.9837 19.7896L24.3346 16.3589C24.3497 16.3208 24.3845 16.2971 24.4255 16.2971C24.4663 16.2973 24.5012 16.321 24.5162 16.3591Z" fill="#FDCD56"/>
<path fill-rule="evenodd" clip-rule="evenodd" d="M13.9138 29.6417C10.7722 31.1807 7.60112 32.6592 4.4397 34.1568L8.90161 44.8486L15.4643 41.6518C16.4132 41.1896 17.3825 41.1063 18.3963 41.3998L25.3589 43.4158C27.5653 44.0547 30.2971 42.8808 32.35 42.088L45.4106 37.0438C48.8499 35.7156 49.6781 28.8135 41.5557 31.1979L32.2376 33.9333C31.9665 32.9514 31.1968 32.1317 30.1468 31.8512L23.8339 30.1647C19.531 27.1182 17.3418 27.9622 13.9138 29.6417Z" fill="#EFC7A4"/>
<path fill-rule="evenodd" clip-rule="evenodd" d="M32.244 35.4775L18.1306 31.707C17.7101 33.2811 18.6538 34.9129 20.2279 35.3334L28.6175 37.5747C30.1915 37.9952 31.8235 37.0516 32.244 35.4775Z" fill="#D5A889"/>
<path fill-rule="evenodd" clip-rule="evenodd" d="M12.1873 47.0925L8.89615 48.5361C8.18209 48.8493 7.34439 48.5229 7.03043 47.8093C5.06832 43.3486 3.10611 38.888 1.144 34.4273C0.986875 34.07 0.979062 33.7064 1.12076 33.3428C1.26246 32.979 1.51422 32.7166 1.87164 32.5597L5.16275 31.1161C5.87682 30.8029 6.71461 31.1293 7.02848 31.8429C8.99059 36.3036 10.9528 40.7642 12.9149 45.2249C13.072 45.5822 13.0798 45.9458 12.9381 46.3095C12.7964 46.6731 12.5448 46.9356 12.1873 47.0925Z" fill="#E4E8EB"/>
<path fill-rule="evenodd" clip-rule="evenodd" d="M26.3903 22.1049C26.1881 22.2735 26.0961 22.546 26.1651 22.8029L26.7303 24.9926L24.8233 23.7767C24.713 23.7055 24.5843 23.67 24.4557 23.67C24.327 23.67 24.203 23.7054 24.0881 23.7767L22.1811 24.9926L22.7509 22.8029C22.8153 22.546 22.728 22.2735 22.5211 22.1049L20.7749 20.6661L23.0358 20.5282C23.2977 20.5121 23.5321 20.3439 23.6285 20.0967L24.4557 17.9921L25.2828 20.0967C25.3839 20.3439 25.6137 20.5121 25.8802 20.5282L28.1364 20.6661L26.3903 22.1049ZM30.5627 19.878C30.4754 19.6115 30.2319 19.424 29.9516 19.4075L26.3994 19.1906L25.0944 15.8761C24.9887 15.6146 24.736 15.4437 24.4556 15.4437C24.1753 15.4437 23.9226 15.6146 23.8214 15.8761L22.5163 19.1906L18.9596 19.4075C18.6792 19.4241 18.4403 19.6115 18.353 19.878C18.2656 20.1459 18.3484 20.4387 18.569 20.6174L21.3169 22.8819L20.4208 26.3302C20.3519 26.6026 20.4575 26.8898 20.6827 27.0549C20.9125 27.2198 21.2157 27.2286 21.4501 27.0783L24.4554 25.1645L27.4607 27.0783C27.5709 27.1495 27.6996 27.185 27.8282 27.185C27.9661 27.185 28.1085 27.1417 28.2281 27.0549C28.4578 26.8899 28.5589 26.6027 28.49 26.3302L27.5985 22.8819L30.3464 20.6174C30.5627 20.4387 30.65 20.1459 30.5627 19.878ZM11.7131 22.1049C11.5063 22.2735 11.419 22.546 11.4879 22.8029L12.0531 24.9926L10.1461 23.7767C10.0359 23.7055 9.90715 23.67 9.77854 23.67C9.64983 23.67 9.52121 23.7054 9.41086 23.7767L7.50383 24.9926L8.06907 22.8029C8.13801 22.546 8.04612 22.2735 7.84387 22.1049L6.09768 20.6661L8.35393 20.5282C8.62043 20.5121 8.85022 20.3439 8.95129 20.0958L9.77844 17.9921L10.6056 20.0967C10.7021 20.3439 10.9364 20.5121 11.1984 20.5282L13.4592 20.6661L11.7131 22.1049ZM15.881 19.878C15.7937 19.6115 15.5547 19.424 15.2744 19.4075L11.7177 19.1906L10.4126 15.8761C10.3115 15.6146 10.0588 15.4437 9.77844 15.4437C9.49817 15.4437 9.24543 15.6146 9.14426 15.8761L7.83918 19.1906L4.28244 19.4075C4.00217 19.4241 3.75862 19.6115 3.67131 19.878C3.5886 20.1459 3.67131 20.4387 3.88733 20.6174L6.63528 22.8819L5.74377 26.3302C5.67483 26.6026 5.7759 26.8898 6.00569 27.0549C6.23088 27.2198 6.53869 27.2286 6.77307 27.0783L9.77834 25.1645L12.7836 27.0783C12.8939 27.1495 13.0226 27.185 13.1466 27.185C13.2891 27.185 13.4315 27.1417 13.551 27.0549C13.7762 26.8899 13.8819 26.6027 13.8129 26.3302L12.9168 22.8819L15.6694 20.6174C15.8856 20.4387 15.9683 20.1459 15.881 19.878ZM41.072 22.1049C40.8653 22.2735 40.7779 22.546 40.8422 22.8029L41.4074 24.9926L39.5004 23.7767C39.2798 23.6342 38.9904 23.6342 38.7652 23.7767L36.8627 24.9926L37.428 22.8029C37.4923 22.546 37.405 22.2735 37.1982 22.1049L35.4566 20.6661L37.7128 20.5282C37.9747 20.5121 38.2091 20.3439 38.3056 20.0967L39.1373 17.9921L39.9645 20.0967C40.061 20.3439 40.2907 20.5121 40.5573 20.5282L42.8135 20.6661L41.072 22.1049ZM45.2399 19.878C45.1526 19.6115 44.9136 19.424 44.6333 19.4075L41.0766 19.1906L39.7715 15.8761C39.6704 15.6146 39.4131 15.4437 39.1373 15.4437C38.8525 15.4437 38.6043 15.6146 38.4986 15.8761L37.1935 19.1906L33.6367 19.4075C33.3565 19.4241 33.1175 19.6115 33.0302 19.878C32.9429 20.1459 33.0302 20.4387 33.2462 20.6174L35.9942 22.8819L35.1027 26.3302C35.0337 26.6026 35.1348 26.8898 35.36 27.0549C35.5898 27.2198 35.893 27.2286 36.132 27.0783L39.1372 25.1645L42.1379 27.0783C42.2482 27.1495 42.3769 27.185 42.5055 27.185C42.648 27.185 42.7904 27.1417 42.9053 27.0549C43.1351 26.8899 43.2362 26.6027 43.1672 26.3302L42.2757 22.8819L45.0237 20.6174C45.2399 20.4387 45.3272 20.1459 45.2399 19.878ZM9.77844 4.85391C10.8123 4.85391 11.6578 5.6957 11.6578 6.73154C11.6578 7.76689 10.8123 8.60967 9.77844 8.60967C8.74455 8.60967 7.89895 7.76689 7.89895 6.73154C7.89905 5.6958 8.74455 4.85391 9.77844 4.85391ZM9.77844 9.97666C11.5659 9.97666 13.0227 8.5209 13.0227 6.73154C13.0227 4.9417 11.5659 3.48643 9.77844 3.48643C7.99084 3.48643 6.5342 4.9417 6.5342 6.73154C6.5342 8.5209 7.99094 9.97666 9.77844 9.97666ZM24.4557 2.46572C25.7239 2.46572 26.7579 3.49824 26.7579 4.76748C26.7579 6.03711 25.724 7.06924 24.4557 7.06924C23.1873 7.06924 22.1534 6.03721 22.1534 4.76748C22.1534 3.49834 23.1873 2.46572 24.4557 2.46572ZM24.4557 8.43682C26.4822 8.43682 28.1273 6.79121 28.1273 4.76748C28.1273 2.74512 26.4822 1.09863 24.4557 1.09863C22.4338 1.09863 20.7887 2.74512 20.7887 4.76748C20.7887 6.79131 22.4337 8.43682 24.4557 8.43682ZM45.1755 36.3635L32.1894 41.3801C32.0515 41.4338 31.9091 41.4886 31.762 41.545C29.8642 42.2862 27.4977 43.2095 25.6734 42.6819L18.7484 40.6771C17.5812 40.3393 16.4369 40.4367 15.3433 40.9693L12.4437 42.381L8.38157 33.1366C10.4172 32.1739 12.4207 31.2236 14.4013 30.254C17.7053 28.6342 19.6169 27.9191 23.5688 30.7182C23.6377 30.765 23.7113 30.799 23.7894 30.8206L30.0664 32.4974C31.2749 32.8195 31.9918 34.0616 31.6701 35.2669C31.3485 36.4718 30.1031 37.1904 28.8992 36.8692L20.5543 34.6396C20.1913 34.5423 19.8191 34.7587 19.718 35.124C19.6215 35.4885 19.8374 35.8634 20.2005 35.9608L28.5454 38.1896C29.4782 38.4386 30.4571 38.3086 31.298 37.8224C32.1389 37.3353 32.7408 36.5536 32.989 35.6203C33.0992 35.21 33.1361 34.7969 33.1038 34.3966L41.7842 31.8431C44.647 31.0003 46.6367 31.3183 47.1055 32.6955C47.5467 34.0001 46.5954 35.8166 45.1755 36.3635ZM12.3334 46.0575C12.407 45.876 12.4024 45.6757 12.3197 45.4933L6.41936 32.0742C6.29524 31.798 6.02414 31.634 5.74387 31.634C5.6428 31.634 5.54172 31.6533 5.44973 31.6955L2.14573 33.1435C1.96653 33.2238 1.82405 33.3682 1.7551 33.5501C1.68157 33.7316 1.69074 33.9324 1.76887 34.1153L7.66916 47.5344C7.83459 47.9052 8.27112 48.0752 8.64338 47.9121L11.9428 46.465C11.9428 46.465 11.9428 46.465 11.9428 46.4642C12.1266 46.3843 12.2645 46.2404 12.3334 46.0575ZM48.3968 32.2562C49.0769 34.2589 47.7765 36.8244 45.6718 37.6392L32.6811 42.6554C32.5432 42.7082 32.4054 42.7629 32.2629 42.8189C30.6362 43.4521 28.7062 44.2054 26.8635 44.2054C26.3259 44.2054 25.802 44.142 25.2919 43.9944L18.3669 41.9896C17.526 41.7455 16.731 41.8136 15.9406 42.1986L12.9951 43.6333L13.5741 44.9428C13.7993 45.4593 13.8131 46.0323 13.6109 46.5548C13.4041 47.0772 13.0089 47.4895 12.4897 47.7169L9.19026 49.1645C8.91916 49.2844 8.62961 49.3409 8.34934 49.3409C7.54055 49.3409 6.76399 48.8713 6.41936 48.0841L0.519065 34.6655C0.28928 34.1485 0.275511 33.5765 0.482347 33.054C0.684495 32.5315 1.07971 32.1184 1.59895 31.8919L4.89836 30.4435C5.95989 29.9789 7.2052 30.4632 7.66926 31.5238L7.8301 31.8859C9.85198 30.9302 11.8371 29.9867 13.7993 29.0259C17.3468 27.2894 19.7548 26.3813 24.2581 29.5305L30.4203 31.177C31.4681 31.4572 32.2906 32.1732 32.7364 33.0794L41.3984 30.5313C43.3054 29.9712 44.8907 29.8596 46.1085 30.2032C47.2434 30.5225 48.0568 31.2513 48.3968 32.2562ZM17.3147 15.9339C17.3147 16.761 17.7742 17.9034 19.9753 18.6506C20.3291 18.7715 20.7197 18.5803 20.8392 18.2228C20.9632 17.8652 20.7702 17.4774 20.4118 17.3557C19.8926 17.1787 18.6794 16.6856 18.6794 15.9339C18.6794 12.7494 21.2711 10.1572 24.4557 10.1572C27.6403 10.1572 30.2319 12.7494 30.2319 15.9339C30.2319 16.6856 29.0234 17.1787 28.4994 17.3557C28.141 17.4774 27.9526 17.8652 28.0721 18.2228C28.1686 18.5081 28.4351 18.6869 28.72 18.6869C28.7936 18.6869 28.8671 18.675 28.9406 18.6506C31.1371 17.9034 31.6013 16.761 31.6013 15.9339C31.6013 11.9953 28.3938 8.79014 24.4557 8.79014C20.5176 8.79014 17.3147 11.9954 17.3147 15.9339ZM32.9063 16.3135C32.9063 16.9981 33.2601 17.9544 34.9374 18.6193C35.2866 18.7581 35.6865 18.5862 35.8243 18.2356C35.9622 17.8851 35.7922 17.4875 35.443 17.3479C35.0065 17.176 34.2758 16.8115 34.2758 16.3135C34.2758 13.634 36.4539 11.4531 39.1376 11.4531C41.8166 11.4531 43.9947 13.634 43.9947 16.3135C43.9947 16.8116 43.2641 17.176 42.8276 17.3479C42.4783 17.4875 42.3083 17.8851 42.4462 18.2356C42.5519 18.504 42.8092 18.6671 43.0804 18.6671C43.1631 18.6671 43.2504 18.6515 43.3331 18.6193C45.0104 17.9544 45.3642 16.9981 45.3642 16.3135C45.3642 12.8799 42.5702 10.086 39.1376 10.086C35.7002 10.086 32.9063 12.88 32.9063 16.3135ZM3.55198 16.3135C3.55198 16.9981 3.90119 17.9544 5.57844 18.6193C5.93225 18.7581 6.32746 18.5862 6.46535 18.2356C6.60784 17.8851 6.43323 17.4875 6.08391 17.3479C5.64739 17.176 4.91672 16.8115 4.91672 16.3135C4.91672 13.634 7.09944 11.4531 9.77844 11.4531C12.4574 11.4531 14.6402 13.634 14.6402 16.3135C14.6402 16.8116 13.9095 17.176 13.473 17.3479C13.1192 17.4875 12.9491 17.8851 13.0869 18.2356C13.1926 18.504 13.4499 18.6671 13.7257 18.6671C13.8084 18.6671 13.8911 18.6515 13.9739 18.6193C15.6511 17.9544 16.0049 16.9981 16.0049 16.3135C16.0049 12.8799 13.2111 10.086 9.77834 10.086C6.34582 10.086 3.55198 12.88 3.55198 16.3135ZM39.1374 4.85391C40.1713 4.85391 41.0122 5.6957 41.0122 6.73154C41.0122 7.76689 40.1713 8.60967 39.1374 8.60967C38.0989 8.60967 37.2579 7.76689 37.2579 6.73154C37.2579 5.6958 38.0989 4.85391 39.1374 4.85391ZM39.1374 9.97666C40.9249 9.97666 42.3817 8.5209 42.3817 6.73154C42.3817 4.9417 40.9249 3.48643 39.1374 3.48643C37.3452 3.48643 35.8886 4.9417 35.8886 6.73154C35.8886 8.5209 37.3453 9.97666 39.1374 9.97666Z" fill="black"/>
</svg>
