<svg width="50" height="50" viewBox="0 0 50 50" fill="none" xmlns="../../../../../external.html?link=http://www.w3.org/2000/svg">
<g clip-path="url(#clip0_1180_32590)">
<path d="M33.2023 44.3224L28.5951 44.6535L24.0977 49.2709H6.77612L22.2204 37.3959L26.7676 29.8165C27.5298 28.546 29.2922 28.3499 30.3151 29.4217L38.8477 35.9585C40.1374 36.9465 40.2172 38.8615 39.0144 39.9535L35.428 43.2092C34.8032 43.7837 34.0302 44.1704 33.2023 44.3224Z" fill="#FED9A8"/>
<path d="M38.8478 35.9585L36.7617 34.3604C36.986 35.2538 36.734 36.2485 35.9874 36.9264L32.4009 40.1821C31.7761 40.7568 31.0033 41.1435 30.1752 41.2954L25.568 41.6265L18.1223 49.271H24.0978L28.5952 44.6535L33.2024 44.3225C34.0304 44.1704 34.8033 43.7838 35.4281 43.2092L39.0145 39.9534C40.2173 38.8613 40.1374 36.9465 38.8478 35.9585Z" fill="#F4C28C"/>
<path d="M32.3537 32.2385L33.2147 33.1647C32.7299 33.2165 32.2333 33.0519 31.8818 32.6738L31.0984 31.8311C31.5486 31.7482 32.0248 31.8847 32.3537 32.2385Z" fill="#E8D06B"/>
<path d="M43.4455 40.1644L37.9752 44.7651L23.5537 25.0405L26.3926 22.6528L43.4455 40.1644Z" fill="#F7BC14"/>
<path d="M6.19458 16.9695L10.9076 22.5732C14.2498 26.5471 19.515 28.4997 25.0919 27.8335L28.3988 27.4385L29.3547 24.2483C30.9669 18.8681 29.9458 13.3461 26.6036 9.37227L21.8906 3.76855L6.19458 16.9695Z" fill="#FED130"/>
<path d="M26.6033 9.37202L21.8903 3.76831L18.5234 6.60005L23.4927 12.4827C26.8349 16.4565 27.8561 21.9785 26.2438 27.3587L26.1392 27.7082L28.3986 27.4382L29.3546 24.2481C30.9667 18.8679 29.9455 13.3458 26.6033 9.37202Z" fill="#F7BC14"/>
<path d="M23.374 4.3616L6.52459 18.5328C6.27918 18.7392 5.91287 18.7076 5.70652 18.4622L4.64021 17.1944C4.43377 16.949 4.46541 16.5827 4.71082 16.3763L21.5603 2.20516C21.8057 1.99871 22.172 2.03035 22.3784 2.27576L23.4446 3.54353C23.6511 3.78894 23.6194 4.15525 23.374 4.3616Z" fill="#FFB125"/>
<path d="M23.4447 3.54353L22.3785 2.27576C22.172 2.03035 21.8058 1.99871 21.5604 2.20516L18.5837 4.70867L20.3975 6.86521L23.3742 4.3617C23.6195 4.15525 23.651 3.78894 23.4447 3.54353Z" fill="#FF901D"/>
<path d="M18.1508 15.075L21.1663 16.3967C21.205 16.4137 21.2495 16.4105 21.2855 16.3882L24.0838 14.6533C24.1742 14.5973 24.2896 14.6692 24.279 14.775L23.9539 18.0514C23.9497 18.0934 23.9665 18.1348 23.9988 18.162L26.5135 20.2873C26.5948 20.356 26.562 20.4879 26.4581 20.5107L23.2416 21.2139C23.2004 21.2229 23.1662 21.2517 23.1502 21.2907L21.9061 24.3391C21.866 24.4375 21.7303 24.4472 21.6766 24.3554L20.0138 21.5136C19.9925 21.4772 19.9546 21.4535 19.9124 21.4504L16.6288 21.2091C16.5228 21.2013 16.4717 21.0753 16.5424 20.9959L18.7313 18.5363C18.7593 18.5048 18.7702 18.4614 18.76 18.4204L17.9747 15.223C17.9494 15.1198 18.0535 15.0323 18.1508 15.075Z" fill="white"/>
<path d="M47.5411 39.769L37.2659 48.4108C36.8198 48.786 36.1446 48.677 35.8393 48.1805L34.1411 45.4184C33.8936 45.0158 33.9781 44.4929 34.3397 44.1887L43.8831 36.1623C44.2447 35.8582 44.7745 35.8647 45.1286 36.1775L47.5588 38.324C47.9955 38.7099 47.9872 39.3939 47.5411 39.769Z" fill="#FFB125"/>
<path d="M47.5585 38.324L45.1284 36.1775C44.7743 35.8647 44.2445 35.8582 43.8829 36.1623L41.0984 38.5042L44.9742 41.9277L47.541 39.769C47.9872 39.3939 47.9955 38.7099 47.5585 38.324Z" fill="#FF901D"/>
<path d="M37.1465 39.8014C37.8425 40.5511 39.0145 40.5945 39.7639 39.8982L42.082 37.7447C42.831 37.0488 42.8743 35.8776 42.1787 35.1283C41.4827 34.3786 40.3108 34.3352 39.5614 35.0315L37.2433 37.185C36.4942 37.8808 36.4509 39.0521 37.1465 39.8014Z" fill="#F4C28C"/>
<path d="M37.2433 37.185L39.5614 35.0315C40.3108 34.3353 41.4828 34.3785 42.1788 35.1283C42.5823 35.5629 42.7367 36.1396 42.6493 36.6831C41.9441 36.0824 40.8853 36.0912 40.1899 36.7371L37.8718 38.8907C37.5574 39.1828 37.3677 39.5588 37.3045 39.9522C37.2496 39.9054 37.1967 39.8555 37.1464 39.8013C36.4509 39.0522 36.4942 37.8809 37.2433 37.185Z" fill="#FED9A8"/>
<path d="M35.2894 36.4598C35.9959 37.2208 37.1856 37.2647 37.9464 36.558L40.2234 34.4426C40.9838 33.7362 41.0277 32.5473 40.3217 31.7866C39.6152 31.0256 38.4255 30.9816 37.6647 31.6884L35.3877 33.8038C34.6273 34.5103 34.5834 35.6991 35.2894 36.4598Z" fill="#F4C28C"/>
<path d="M35.3877 33.8038L37.6647 31.6884C38.4255 30.9816 39.6151 31.0256 40.3217 31.7866C40.7263 32.2226 40.8842 32.7992 40.8024 33.345C40.0867 32.7222 39.0016 32.7269 38.2908 33.3872L36.0137 35.5026C35.6892 35.8041 35.4957 36.1937 35.4347 36.6001C35.3844 36.5563 35.3358 36.5096 35.2894 36.4597C34.5834 35.6991 34.6273 34.5103 35.3877 33.8038Z" fill="#FED9A8"/>
<path d="M32.7192 33.7288C33.4256 34.4898 34.6154 34.5338 35.3761 33.827L37.6532 31.7116C38.4135 31.0053 38.4575 29.8163 37.7514 29.0557C37.045 28.2946 35.8552 28.2507 35.0945 28.9574L32.8174 31.0728C32.057 31.7792 32.013 32.9682 32.7192 33.7288Z" fill="#F4C28C"/>
<path d="M32.8174 31.0728L35.0944 28.9574C35.8551 28.2507 37.0448 28.2946 37.7513 29.0557C37.8001 29.1082 37.8449 29.1629 37.8865 29.2191C37.4733 29.2481 37.067 29.4128 36.7399 29.7167L34.4629 31.8321C33.755 32.4897 33.6684 33.5654 34.2295 34.3246C33.6816 34.3631 33.1218 34.1627 32.7191 33.7288C32.0131 32.9682 32.057 31.7792 32.8174 31.0728Z" fill="#FED9A8"/>
<path d="M30.2438 30.8956C30.9502 31.6566 32.14 31.7005 32.9007 30.9938L35.1778 28.8784C35.9381 28.172 35.9821 26.9831 35.276 26.2224C34.5696 25.4614 33.3798 25.4174 32.6191 26.1242L30.342 28.2396C29.5817 28.946 29.5377 30.1349 30.2438 30.8956Z" fill="#F4C28C"/>
<path d="M30.3418 28.2396L32.6188 26.1241C33.3796 25.4174 34.5693 25.4614 35.2758 26.2224C35.6801 26.6578 35.838 27.2337 35.7568 27.7791C35.0411 27.1551 33.9552 27.1595 33.2439 27.8202L30.9669 29.9357C30.6419 30.2376 30.4482 30.6277 30.3876 31.0349C30.3378 30.9914 30.2896 30.945 30.2435 30.8955C29.5375 30.1349 29.5814 28.946 30.3418 28.2396Z" fill="#FED9A8"/>
<path d="M34.5945 32.334L34.1722 32.7263C33.5079 33.3435 32.4827 33.3199 31.8818 32.6737L30.8186 31.5301C30.2982 30.9703 29.4092 30.9529 28.8373 31.4911C29.1574 36.4435 22.2205 37.3958 22.2205 37.3958L25.1689 30.1435C25.3506 29.6025 25.6653 29.1123 26.0835 28.7188L28.1776 26.748C29.1957 25.7898 30.7779 25.8203 31.7049 26.816L34.709 30.0426C35.3111 30.6895 35.2598 31.7158 34.5945 32.334Z" fill="#FED9A8"/>
<path d="M25.0045 14.8469C25.0369 14.5198 24.8838 14.2087 24.6048 14.0347C24.3259 13.8609 23.979 13.8604 23.6995 14.0337L21.1696 15.602L18.4435 14.4072C18.1423 14.2752 17.7991 14.3246 17.5475 14.5362C17.2958 14.7479 17.1882 15.0778 17.2667 15.3969L17.9766 18.2877L15.9979 20.511C15.7792 20.7566 15.7201 21.0984 15.8436 21.4032C15.967 21.7079 16.2475 21.9122 16.5753 21.9362L19.5439 22.1544L21.0473 24.7237C21.2027 24.9893 21.4816 25.1479 21.7856 25.1479C21.8063 25.1479 21.8272 25.1471 21.848 25.1458C22.1758 25.1224 22.4566 24.919 22.581 24.6145L23.7058 21.8586L26.6142 21.2227C26.9352 21.1523 27.1837 20.9103 27.2627 20.5914C27.3417 20.2724 27.2349 19.9426 26.9839 19.7303L24.7105 17.8091L25.0045 14.8469ZM25.1131 20.0583L23.0858 20.5015C22.8101 20.5619 22.5817 20.754 22.4752 21.0151L21.691 22.9364L20.6427 21.1448C20.5002 20.9017 20.2475 20.7442 19.9658 20.7233L17.8963 20.5713L19.2761 19.0208C19.4635 18.81 19.5352 18.5207 19.468 18.2467L18.973 16.2314L20.8731 17.0641C21.1315 17.1777 21.4291 17.1566 21.6695 17.0078L23.4333 15.9143L23.2284 17.9793C23.2005 18.2601 23.3125 18.5366 23.5281 18.7189L25.1131 20.0583Z" fill="black"/>
<path d="M48.0413 37.7776L45.6111 35.631C44.9913 35.0836 44.0467 35.0722 43.4138 35.6043L43.3048 35.696C43.1974 35.3089 43.0011 34.9425 42.7131 34.6324C42.3612 34.2533 41.9144 33.9941 41.4223 33.8775C41.7061 33.0056 41.5227 32.009 40.856 31.2908C40.3817 30.7799 39.737 30.4844 39.0405 30.4587C39.0195 30.4579 38.9987 30.4582 38.9778 30.4579C39.0098 29.7818 38.7814 29.0939 38.2857 28.5598C37.8174 28.0552 37.1825 27.7613 36.4958 27.7292C36.5577 27.0199 36.3317 26.288 35.8103 25.7264C35.3361 25.2156 34.6914 24.92 33.9949 24.8944C33.2982 24.8681 32.6336 25.1157 32.1229 25.59L31.7769 25.9115C31.2741 25.5486 30.6727 25.3425 30.0339 25.3215C29.9534 25.3188 29.8734 25.32 29.7937 25.3231L30.0531 24.4575C30.5183 22.9052 30.8077 20.091 30.7991 20.242C30.8242 20.2541 30.8488 20.2667 30.8745 20.2782C31.2313 20.4373 31.6158 20.5164 31.9987 20.5164C32.4377 20.5164 32.8746 20.4124 33.265 20.2057C34.0778 19.7754 34.6547 18.876 34.7006 17.9675C34.7442 17.103 34.3371 16.3396 33.5543 15.8178C33.2191 15.5947 32.7665 15.6851 32.5433 16.0201C32.32 16.3552 32.4106 16.8078 32.7457 17.0312C33.0938 17.2631 33.2616 17.5533 33.2443 17.8939C33.2241 18.2945 32.9459 18.7247 32.5828 18.9169C32.2499 19.0933 31.8229 19.1045 31.4685 18.9463C31.2421 18.8454 30.9486 18.6307 30.8363 18.1812C30.5019 16.8424 31.2688 15.5136 32.1568 13.9751C33.7653 11.1883 35.7671 7.72024 31.5769 2.76751L29.8415 0.716335C29.492 0.303152 29.0025 0.0512961 28.4633 0.00696019C27.924 -0.0373758 27.4 0.131179 26.9877 0.481765C25.8696 1.43245 25.2884 2.872 25.4327 4.33245L25.5193 5.20862C25.5638 5.65794 25.3907 6.09934 25.0577 6.40149L25.9973 7.51868C26.6983 6.90637 27.0621 5.99309 26.9703 5.06516L26.8837 4.18899C26.7863 3.20423 27.1782 2.23362 27.9321 1.5926C28.0471 1.49485 28.1928 1.44759 28.3437 1.46018C28.4941 1.47249 28.6307 1.5428 28.7282 1.65803L30.4636 3.70921C33.9915 7.87923 32.4868 10.4863 30.8938 13.2461C30.6446 13.6779 30.3935 14.1136 30.1662 14.5554C29.5638 12.4851 28.5555 10.5603 27.1613 8.90276L23.8244 4.93528L23.8432 4.91956C24.1109 4.69436 24.275 4.37844 24.3051 4.02991C24.3351 3.68128 24.2277 3.34192 24.0025 3.07425L22.9363 1.80657C22.7111 1.5388 22.3952 1.37473 22.0467 1.34466C21.6981 1.31468 21.3588 1.4219 21.0909 1.6471L4.24169 15.8183C3.68906 16.283 3.61757 17.1108 4.08232 17.6636L5.14853 18.9313C5.37373 19.1991 5.68964 19.3631 6.03828 19.3932C6.07675 19.3965 6.11503 19.3982 6.15312 19.3982C6.46084 19.3982 6.75576 19.291 6.99384 19.0907L7.01269 19.0747L8.26591 20.5649C7.91298 20.8367 7.45302 20.9303 7.02138 20.812L6.17246 20.579C4.75742 20.1906 3.24033 20.5208 2.11474 21.4627C1.6998 21.8101 1.44521 22.2981 1.39804 22.8372C1.35078 23.3763 1.5166 23.9011 1.86494 24.3153L3.59433 26.3714C7.77001 31.3364 11.526 29.9479 14.5439 28.8321C15.906 28.3285 17.1161 27.8813 18.2026 28.0381C18.4043 28.0949 18.6072 28.1485 18.8117 28.1979C18.8454 28.2111 18.879 28.2246 18.9125 28.2393C19.3366 28.4256 19.4988 28.7511 19.5602 28.9912C19.6563 29.3672 19.5732 29.7862 19.3434 30.0847C19.0928 30.4102 18.6218 30.6115 18.2234 30.5643C17.8849 30.5239 17.627 30.3096 17.457 29.9274C17.2935 29.5595 16.8627 29.3941 16.4945 29.5575C16.1267 29.7211 15.961 30.152 16.1246 30.5199C16.5069 31.3795 17.1909 31.9095 18.0504 32.0121C18.1453 32.0235 18.2409 32.029 18.3369 32.029C19.1555 32.0289 19.9964 31.6264 20.4984 30.9743C21.0031 30.3191 21.1805 29.4427 20.9727 28.6302C20.968 28.6117 20.9622 28.5936 20.957 28.5752C21.6201 28.6499 22.2928 28.6892 22.9727 28.6892C23.7011 28.6892 24.4378 28.6456 25.1782 28.5573L25.2428 28.5495C24.9107 28.9456 24.6522 29.4009 24.4852 29.8888L21.6192 36.9382L6.33183 48.693C6.08437 48.8832 5.98544 49.2101 6.08603 49.5056C6.18652 49.8012 6.46406 50 6.77627 50H24.0977C24.2944 50 24.4828 49.9205 24.62 49.7797L25.5848 48.7892C25.8657 48.5007 25.8597 48.0391 25.5712 47.7581C25.2827 47.4773 24.8211 47.4832 24.5402 47.7717L23.7901 48.5419H8.9206L22.6649 37.9739C22.6751 37.966 22.6842 37.9576 22.6937 37.9493C22.7003 37.9438 22.707 37.9384 22.7134 37.9325C22.7366 37.9113 22.7582 37.8888 22.7781 37.8652C22.782 37.8605 22.7856 37.8555 22.7894 37.8506C22.8076 37.828 22.8242 37.8044 22.8393 37.78C22.8422 37.7754 22.8453 37.771 22.848 37.7663C22.8652 37.7372 22.8801 37.7073 22.893 37.6764C22.8938 37.6743 22.8951 37.6725 22.8959 37.6704L25.8443 30.4181C25.85 30.4041 25.8553 30.39 25.8601 30.3757C26.0032 29.9495 26.2533 29.5603 26.5832 29.2497L28.6772 27.2788C29.0368 26.9404 29.5005 26.7626 29.9857 26.7788C30.4438 26.794 30.8649 26.9835 31.1714 27.3127L34.1755 30.5393C34.1756 30.5394 34.1755 30.5393 34.1756 30.5394C34.1757 30.5395 34.1754 30.5392 34.1755 30.5393L34.1756 30.5394C34.1758 30.5396 34.1753 30.5391 34.1755 30.5393C34.1753 30.5391 34.1757 30.5395 34.1755 30.5393C34.3284 30.7035 34.4079 30.9205 34.3996 31.1502C34.3907 31.3969 34.2837 31.6277 34.0984 31.7998L33.6763 32.1921C33.3842 32.4634 32.9691 32.5147 32.6469 32.3504C32.6385 32.3458 32.6297 32.342 32.621 32.3377C32.5462 32.2962 32.4769 32.2427 32.4158 32.1772L31.3526 31.0334C30.9727 30.6247 30.4535 30.3893 29.8909 30.3705C29.3144 30.3517 28.7621 30.5607 28.3377 30.9601C28.2981 30.9974 28.2632 31.0385 28.2333 31.0827C28.1586 31.1933 28.1153 31.3228 28.1091 31.4571C28.1078 31.4839 28.1081 31.511 28.1099 31.5381C28.11 31.5391 28.11 31.5401 28.11 31.541C28.1135 31.5964 28.1159 31.6512 28.1174 31.7057C28.1182 31.7364 28.1181 31.7667 28.1183 31.7972C28.1185 31.8206 28.1188 31.8442 28.1186 31.8674C28.1182 31.9063 28.1168 31.9448 28.1153 31.9831C28.1148 31.9971 28.1145 32.0111 28.1138 32.025C28.1116 32.0684 28.1086 32.1115 28.1051 32.1541C28.1046 32.1597 28.1042 32.1654 28.1037 32.1709C28.1017 32.1892 28.1 32.2075 28.0993 32.2258C28.0312 32.9008 27.7873 33.5049 27.361 34.0581C27.1152 34.3771 27.1746 34.8349 27.4935 35.0806C27.8124 35.3263 28.2703 35.2669 28.516 34.948C28.7686 34.6202 28.9757 34.275 29.1384 33.9139L35.3395 42.3952L35.1915 42.5197C35.0989 42.5514 35.0111 42.602 34.9346 42.6725C34.4192 43.1466 33.7885 43.4661 33.1085 43.5982L28.543 43.9263C28.3648 43.9391 28.1976 44.0168 28.0729 44.1448L26.9074 45.3414C26.6265 45.6299 26.6325 46.0915 26.921 46.3725C27.0627 46.5105 27.2462 46.5792 27.4296 46.5792C27.6193 46.5792 27.809 46.5056 27.9519 46.3589L28.9239 45.3608L33.2547 45.0496C33.263 45.0491 33.2711 45.0474 33.2793 45.0465C33.2981 45.3076 33.3763 45.5665 33.52 45.8003L35.2183 48.5623C35.475 48.9799 35.8997 49.2642 36.3835 49.3423C36.4731 49.3569 36.563 49.364 36.6523 49.364C37.0457 49.364 37.4295 49.2261 37.7352 48.969L48.0103 40.3272C48.3854 40.0117 48.6039 39.5497 48.61 39.0596C48.6159 38.5693 48.4087 38.1022 48.0413 37.7776ZM14.0384 27.4645C11.0492 28.5696 8.22597 29.6132 4.71035 25.433L2.98095 23.3769C2.88388 23.2614 2.83759 23.115 2.85078 22.9646C2.86396 22.8142 2.93496 22.678 3.05078 22.5812C3.80966 21.9461 4.83261 21.7235 5.78671 21.9853L6.63564 22.2183C7.52978 22.4635 8.48554 22.2627 9.20585 21.6825L10.3496 23.0424C11.7471 24.704 13.4754 26.0298 15.4175 26.9786C14.9552 27.1257 14.4948 27.2957 14.0384 27.4645ZM28.6562 24.039L28.1058 25.876C27.9558 25.977 27.8124 26.0904 27.6778 26.2169L26.9803 26.8735L25.0055 27.1094C19.697 27.7437 14.635 25.8723 11.4655 22.1038L8.12871 18.1364L9.43134 17.0408C9.73955 16.7816 9.77919 16.3216 9.52001 16.0135C9.26093 15.7053 8.80087 15.6654 8.49277 15.9247L6.63242 17.4893C6.63232 17.4894 6.63222 17.4895 6.63212 17.4895C6.63203 17.4896 6.63193 17.4897 6.63183 17.4898L6.16894 17.8791L5.29375 16.8386L21.9161 2.85852L22.7913 3.89915L22.3291 4.28792C22.3288 4.28821 22.3284 4.28841 22.3281 4.2886C22.3278 4.2888 22.3275 4.28919 22.3272 4.28938L11.1223 13.7132C10.8142 13.9725 10.7744 14.4324 11.0336 14.7405C11.2927 15.0487 11.7525 15.0881 12.0608 14.8292L22.7087 5.87376L26.0455 9.84124C29.215 13.6099 30.191 18.9175 28.6562 24.039ZM40.8632 35.2663C41.1629 35.2775 41.4404 35.4046 41.6444 35.6244C41.9923 35.9992 42.0399 36.5609 41.7696 36.9871L38.593 39.6589C38.2508 39.6876 37.9185 39.5615 37.6809 39.3055C37.2599 38.852 37.2862 38.1405 37.7394 37.7193L38.1997 37.2916C38.2838 37.2303 38.3651 37.1642 38.4426 37.0923L40.2205 35.4407C40.4107 35.3197 40.6323 35.2588 40.8632 35.2663ZM38.2469 32.1503C38.447 31.9974 38.6892 31.915 38.943 31.915C38.9574 31.915 38.972 31.9153 38.9865 31.9158C39.2937 31.9272 39.5781 32.0575 39.7873 32.2827C40.2188 32.7475 40.1919 33.4769 39.7272 33.9085L39.3073 34.2987C39.2234 34.3598 39.1424 34.4255 39.0651 34.4973L37.2851 36.151C37.0895 36.2763 36.8612 36.3401 36.6245 36.3308C36.3173 36.3194 36.0329 36.1891 35.8237 35.9638C35.4205 35.5294 35.4179 34.8642 35.7985 34.4267C35.8233 34.4053 35.8481 34.3837 35.8723 34.3614L38.1493 32.2459C38.1829 32.2147 38.2153 32.1828 38.2469 32.1503ZM34.3825 28.6221L32.8145 26.9378L33.1153 26.6582C33.3405 26.4491 33.6337 26.3421 33.9409 26.3514C34.2481 26.3628 34.5325 26.4931 34.7417 26.7184C35.1732 27.1831 35.1462 27.9125 34.6815 28.3443L34.3825 28.6221ZM34.6686 33.2605L35.0908 32.8681C35.5616 32.4308 35.8336 31.8394 35.8566 31.2032C35.8767 30.6506 35.7048 30.1228 35.3704 29.6961L35.5906 29.4915C35.8158 29.2824 36.1084 29.1728 36.4162 29.1847C36.7233 29.1961 37.0077 29.3264 37.2169 29.5517C37.6203 29.9863 37.6227 30.6518 37.2418 31.0894C37.2171 31.1107 37.1925 31.132 37.1685 31.1542L34.8914 33.2697C34.8577 33.301 34.8251 33.333 34.7935 33.3657C34.6222 33.4967 34.4196 33.575 34.2059 33.5947C34.3691 33.5033 34.5253 33.3936 34.6686 33.2605ZM29.5724 32.037C29.5745 31.9821 29.5765 31.9272 29.577 31.8717C29.5979 31.8638 29.6194 31.857 29.6411 31.8511C29.7062 31.8336 29.7739 31.8257 29.8423 31.8282C30.014 31.8338 30.171 31.9044 30.2847 32.0266L31.3478 33.1702C31.4566 33.2872 31.5751 33.3903 31.7008 33.4793C31.8179 33.7543 31.9799 34.0043 32.1848 34.225C32.659 34.7359 33.3037 35.0314 34.0003 35.0572C34.0213 35.0578 34.0421 35.058 34.063 35.0583C34.0311 35.7343 34.2595 36.4221 34.7551 36.956C35.1103 37.3387 35.5613 37.6005 36.0581 37.7187C35.7679 38.5859 35.9475 39.5817 36.6121 40.2976C36.7977 40.4974 37.0117 40.6635 37.2446 40.7929L36.4578 41.4546L29.5724 32.037ZM47.0718 39.2111L36.7966 47.8529C36.728 47.9107 36.6538 47.9088 36.616 47.9028C36.578 47.8966 36.5073 47.8749 36.4603 47.7986L34.7621 45.0365C34.7033 44.9408 34.7229 44.819 34.8089 44.7467L44.3521 36.7203C44.3525 36.72 44.3521 36.7203 44.3525 36.7201L44.3521 36.7203C44.3937 36.6854 44.4453 36.6679 44.4969 36.6679C44.5503 36.6679 44.6036 36.6866 44.6457 36.7239L47.0759 38.8704C47.1431 38.9298 47.1523 39.0033 47.1519 39.0418C47.1515 39.0802 47.1404 39.1534 47.0718 39.2111Z" fill="black"/>
</g>
<defs>
<clipPath id="clip0_1180_32590">
<rect width="50" height="50" fill="white"/>
</clipPath>
</defs>
</svg>
