<svg width="70" height="60" viewBox="0 0 70 60" fill="none" xmlns="../../../../../external.html?link=http://www.w3.org/2000/svg">
<g opacity="0.2">
<path d="M24.945 46.4834C37.0546 46.4834 46.8714 36.7462 46.8714 24.7346C46.8714 12.7231 37.0546 2.98584 24.945 2.98584C12.8353 2.98584 3.01855 12.7231 3.01855 24.7346C3.01855 36.7462 12.8353 46.4834 24.945 46.4834Z" fill="#4AA760"/>
<path d="M25.8857 50.0001C25.558 50.0001 25.2304 49.9917 24.8944 49.9834C11.5957 49.4501 1.21215 38.284 1.74141 25.0931C2.27907 11.8855 13.4019 1.60275 26.835 2.13605C33.2785 2.39437 39.2347 5.12756 43.6032 9.8273C47.9717 14.527 50.2399 20.635 49.9795 27.0263C49.4671 39.909 38.8735 50.0001 25.8857 50.0001ZM25.8521 2.95268C13.3179 2.95268 3.10237 12.6938 2.59831 25.1264C2.08586 37.8591 12.0997 48.6251 24.9364 49.1418C37.899 49.6584 48.627 39.734 49.1478 26.9847C49.3998 20.8184 47.2156 14.927 42.99 10.3856C38.7727 5.85251 33.0265 3.21933 26.8098 2.96934C26.4821 2.96101 26.1629 2.95268 25.8521 2.95268Z" fill="#4AA760"/>
<path d="M23.9705 49.3502C23.6429 49.3502 23.3153 49.3418 22.9876 49.3335C9.78979 48.8085 -0.50974 37.7258 0.019518 24.6432C0.548776 11.5356 11.5876 1.31952 24.9115 1.86116C38.1093 2.38613 48.4088 13.4688 47.8796 26.5514C47.3671 39.3341 36.8576 49.3502 23.9705 49.3502ZM23.937 2.30279C11.302 2.30279 1.00242 12.1189 0.489968 24.6599C-0.0308896 37.4925 10.067 48.3502 23.0044 48.8669C23.3237 48.8835 23.6429 48.8835 23.9622 48.8835C36.5971 48.8835 46.8967 39.0674 47.4091 26.5265C47.93 13.6938 37.8321 2.8361 24.8947 2.31946C24.5754 2.3028 24.2562 2.30279 23.937 2.30279Z" fill="#4AA760"/>
<path d="M22.7015 49.7751L22.6931 49.2334C22.6091 49.2334 15.5187 49.5751 7.63865 44.4837C7.02539 44.0837 6.94138 44.3004 7.43703 44.7337C14.0822 49.8751 22.6175 49.7751 22.7015 49.7751Z" fill="#4AA760"/>
<path d="M38.5042 6.51083C36.5972 5.69421 34.329 5.06091 31.6827 4.86092C28.9356 4.6526 24.9367 5.24423 22.282 6.05252C19.6274 6.86081 22.3325 6.20252 22.3325 6.20252C31.7583 3.57766 38.1766 6.18585 41.9066 8.80237C45.9558 11.6439 47.8209 15.102 47.8377 15.1437L48.0981 15.0354C48.0813 15.002 46.2499 11.4272 42.125 8.53572C41.1253 7.81909 39.9156 7.11079 38.5042 6.51083Z" fill="#4AA760"/>
<path d="M25.8856 47.3751C25.5579 47.3751 25.2387 47.3668 24.9111 47.3585C11.7552 46.8335 1.48091 35.7925 2.01016 22.7348C2.53942 9.6689 13.5362 -0.505536 26.8349 0.0194353C33.2112 0.277754 39.1002 2.9776 43.4267 7.62735C47.7532 12.2771 49.9962 18.3184 49.7358 24.6431C49.2149 37.3924 38.739 47.3751 25.8856 47.3751ZM25.852 0.327753C13.175 0.327753 2.85025 10.1772 2.33779 22.7515C1.81694 35.6258 11.9485 46.5169 24.9195 47.0335C38.0249 47.5585 48.8789 37.5174 49.3998 24.6347C49.6518 18.4017 47.4424 12.4437 43.1747 7.85233C38.907 3.26925 33.102 0.602736 26.8097 0.35275C26.4904 0.336084 26.1712 0.327753 25.852 0.327753Z" fill="#4AA760"/>
<path d="M23.9707 48.0918C23.6599 48.0918 23.349 48.0834 23.0382 48.0751C10.546 47.5751 0.784151 37.084 1.28821 24.6931C1.79226 12.2771 12.243 2.61096 24.8612 3.11926C37.3534 3.61923 47.1152 14.1103 46.6112 26.5013C46.1239 38.6006 36.1772 48.0918 23.9707 48.0918ZM23.9371 3.5359C11.9658 3.5359 1.80906 12.8354 1.33021 24.7097C0.834556 36.8591 10.8065 47.1501 23.055 47.6335C23.3574 47.6418 23.6599 47.6501 23.9623 47.6501C35.9336 47.6501 45.6871 38.3506 46.1659 26.4763C46.6616 14.327 37.0929 4.04421 24.8444 3.55257C24.542 3.5359 24.2395 3.5359 23.9371 3.5359Z" fill="#4AA760"/>
</g>
<g clip-path="url(#clip0_1076_16300)">
<path d="M49.8428 53.1869L44.3141 53.5842L38.9172 59.1251H18.1313L36.6644 44.8751L42.1212 35.7797C43.0358 34.2553 45.1507 34.0198 46.3781 35.3061L56.6172 43.1503C58.1648 44.3358 58.2607 46.6338 56.8173 47.9442L52.5136 51.8511C51.7638 52.5405 50.8363 53.0044 49.8428 53.1869Z" fill="#FED9A8"/>
<path d="M56.6173 43.1502L54.1139 41.2324C54.3831 42.3046 54.0808 43.4982 53.1848 44.3116L48.881 48.2186C48.1313 48.9082 47.2039 49.3722 46.2102 49.5545L40.6815 49.9518L31.7467 59.1252H38.9173L44.3141 53.5842L49.8428 53.187C50.8364 53.0045 51.7639 52.5405 52.5136 51.851L56.8173 47.9441C58.2607 46.6336 58.1649 44.3358 56.6173 43.1502Z" fill="#F4C28C"/>
<path d="M48.8244 38.6861L49.8577 39.7975C49.276 39.8596 48.68 39.6621 48.2582 39.2084L47.3181 38.1972C47.8583 38.0977 48.4298 38.2615 48.8244 38.6861Z" fill="#E8D06B"/>
<path d="M62.1346 48.1972L55.5702 53.7181L38.2644 30.0486L41.671 27.1833L62.1346 48.1972Z" fill="#F7BC14"/>
<path d="M17.4335 20.3634L23.0891 27.0878C27.0997 31.8564 33.418 34.1996 40.1103 33.4001L44.0785 32.9261L45.2257 29.098C47.1603 22.6416 45.9349 16.0153 41.9243 11.2467L36.2687 4.52222L17.4335 20.3634Z" fill="#FED130"/>
<path d="M41.9241 11.2464L36.2685 4.52197L32.2283 7.92006L38.1914 14.9792C42.202 19.7478 43.4274 26.3742 41.4928 32.8305L41.3671 33.2498L44.0785 32.9259L45.2257 29.0977C47.1602 22.6415 45.9348 16.015 41.9241 11.2464Z" fill="#F7BC14"/>
<path d="M38.0488 5.23373L17.8295 22.2392C17.535 22.4869 17.0954 22.4489 16.8478 22.1544L15.5682 20.6331C15.3205 20.3386 15.3585 19.899 15.653 19.6514L35.8724 2.64599C36.1669 2.39826 36.6064 2.43623 36.8541 2.73072L38.1335 4.25205C38.3812 4.54654 38.3433 4.98611 38.0488 5.23373Z" fill="#FFB125"/>
<path d="M38.1337 4.25205L36.8542 2.73072C36.6065 2.43623 36.167 2.39826 35.8725 2.64599L32.3005 5.65021L34.4771 8.23806L38.0491 5.23384C38.3434 4.98611 38.3813 4.54654 38.1337 4.25205Z" fill="#FF901D"/>
<path d="M31.7809 18.0898L35.3995 19.6758C35.4459 19.6962 35.4994 19.6923 35.5425 19.6656L38.9005 17.5837C39.0089 17.5165 39.1474 17.6029 39.1348 17.7298L38.7447 21.6614C38.7396 21.7118 38.7598 21.7615 38.7984 21.7942L41.8161 24.3445C41.9136 24.4269 41.8743 24.5852 41.7497 24.6125L37.8899 25.4564C37.8404 25.4672 37.7994 25.5018 37.7802 25.5486L36.2872 29.2066C36.2391 29.3248 36.0763 29.3364 36.0118 29.2262L34.0165 25.8161C33.9909 25.7723 33.9455 25.744 33.8949 25.7402L29.9545 25.4507C29.8273 25.4413 29.766 25.2901 29.8508 25.1948L32.4775 22.2434C32.5111 22.2055 32.5241 22.1535 32.5119 22.1043L31.5696 18.2673C31.5392 18.1436 31.6641 18.0386 31.7809 18.0898Z" fill="white"/>
<path d="M67.0492 47.7228L54.7189 58.0931C54.1836 58.5433 53.3734 58.4124 53.0071 57.8166L50.9692 54.5021C50.6722 54.019 50.7736 53.3915 51.2075 53.0265L62.6596 43.3948C63.0935 43.0299 63.7292 43.0376 64.1542 43.413L67.0704 45.9889C67.5944 46.4519 67.5845 47.2727 67.0492 47.7228Z" fill="#FFB125"/>
<path d="M67.0702 45.9889L64.154 43.413C63.7291 43.0376 63.0933 43.0299 62.6594 43.3948L59.318 46.2051L63.9689 50.3133L67.0491 47.7228C67.5845 47.2727 67.5945 46.4519 67.0702 45.9889Z" fill="#FF901D"/>
<path d="M54.5758 47.7617C55.411 48.6613 56.8173 48.7134 57.7166 47.8778L60.4983 45.2936C61.3971 44.4585 61.4492 43.0531 60.6144 42.1539C59.7792 41.2542 58.3729 41.2022 57.4736 42.0378L54.6919 44.622C53.793 45.4569 53.741 46.8625 54.5758 47.7617Z" fill="#F4C28C"/>
<path d="M54.6919 44.6219L57.4736 42.0377C58.3729 41.2023 59.7793 41.2542 60.6145 42.1539C61.0987 42.6755 61.2839 43.3674 61.1791 44.0197C60.3329 43.2988 59.0623 43.3094 58.2278 44.0845L55.4461 46.6687C55.0688 47.0194 54.8412 47.4705 54.7654 47.9426C54.6995 47.8864 54.636 47.8265 54.5757 47.7615C53.7411 46.8626 53.793 45.457 54.6919 44.6219Z" fill="#FED9A8"/>
<path d="M52.3472 43.7519C53.195 44.6651 54.6227 44.7178 55.5356 43.8698L58.268 41.3312C59.1804 40.4836 59.2332 39.0569 58.3859 38.1441C57.5382 37.2308 56.1105 37.1781 55.1976 38.0262L52.4651 40.5647C51.5527 41.4124 51.5 42.8391 52.3472 43.7519Z" fill="#F4C28C"/>
<path d="M52.4651 40.5647L55.1976 38.0262C56.1105 37.1781 57.5381 37.2308 58.3859 38.1441C58.8715 38.6672 59.0609 39.3592 58.9628 40.0142C58.104 39.2667 56.8019 39.2725 55.9489 40.0648L53.2164 42.6033C52.827 42.9651 52.5947 43.4325 52.5216 43.9203C52.4613 43.8678 52.4029 43.8116 52.3472 43.7517C51.5 42.8391 51.5527 41.4124 52.4651 40.5647Z" fill="#FED9A8"/>
<path d="M49.263 40.4748C50.1107 41.388 51.5384 41.4407 52.4513 40.5927L55.1838 38.0541C56.0962 37.2065 56.1489 35.7798 55.3016 34.867C54.4539 33.9537 53.0262 33.901 52.1133 34.7491L49.3809 37.2876C48.4683 38.1352 48.4156 39.562 49.263 40.4748Z" fill="#F4C28C"/>
<path d="M49.3808 37.2876L52.1132 34.7491C53.0261 33.901 54.4537 33.9537 55.3016 34.867C55.36 34.93 55.4138 34.9957 55.4637 35.0632C54.9679 35.098 54.4803 35.2955 54.0878 35.6602L51.3554 38.1987C50.5059 38.9879 50.4021 40.2787 51.0753 41.1897C50.4179 41.2359 49.7462 40.9954 49.2629 40.4748C48.4156 39.562 48.4684 38.1352 49.3808 37.2876Z" fill="#FED9A8"/>
<path d="M46.2924 37.0746C47.1402 37.9879 48.5679 38.0406 49.4808 37.1925L52.2132 34.654C53.1256 33.8064 53.1784 32.3796 52.3311 31.4668C51.4834 30.5536 50.0557 30.5009 49.1428 31.349L46.4103 33.8875C45.4979 34.7352 45.4452 36.1618 46.2924 37.0746Z" fill="#F4C28C"/>
<path d="M46.4102 33.8874L49.1427 31.3489C50.0556 30.5008 51.4832 30.5537 52.331 31.4668C52.8161 31.9893 53.0056 32.6804 52.9082 33.3349C52.0494 32.5861 50.7463 32.5913 49.8928 33.3842L47.1603 35.9227C46.7703 36.2851 46.5379 36.7532 46.4652 37.2418C46.4054 37.1897 46.3476 37.134 46.2923 37.0746C45.445 36.1618 45.4978 34.7352 46.4102 33.8874Z" fill="#FED9A8"/>
<path d="M51.5134 38.8008L51.0067 39.2715C50.2094 40.0121 48.9792 39.9839 48.2581 39.2083L46.9823 37.8361C46.3578 37.1644 45.2911 37.1434 44.6047 37.7893C44.9888 43.7321 36.6646 44.8749 36.6646 44.8749L40.2027 36.1721C40.4208 35.5229 40.7983 34.9347 41.3003 34.4625L43.8131 32.0975C45.0348 30.9477 46.9335 30.9844 48.0459 32.1792L51.6508 36.0511C52.3733 36.8273 52.3118 38.059 51.5134 38.8008Z" fill="#FED9A8"/>
<path d="M40.0054 17.8162C40.0443 17.4237 39.8605 17.0504 39.5257 16.8416C39.1911 16.633 38.7748 16.6325 38.4394 16.8404L35.4036 18.7224L32.1321 17.2886C31.7707 17.1302 31.3589 17.1895 31.057 17.4434C30.755 17.6975 30.6258 18.0933 30.72 18.4763L31.5719 21.9452L29.1974 24.6132C28.935 24.9079 28.8641 25.318 29.0123 25.6838C29.1604 26.0494 29.497 26.2946 29.8904 26.3234L33.4527 26.5852L35.2567 29.6684C35.4433 29.9872 35.778 30.1775 36.1428 30.1775C36.1675 30.1775 36.1926 30.1765 36.2175 30.1749C36.6109 30.1469 36.948 29.9028 37.0972 29.5374L38.4469 26.2302L41.937 25.4672C42.3222 25.3827 42.6204 25.0923 42.7152 24.7096C42.81 24.3269 42.6818 23.931 42.3807 23.6764L39.6525 21.3708L40.0054 17.8162ZM40.1357 24.0699L37.703 24.6018C37.3721 24.6742 37.0981 24.9047 36.9702 25.2181L36.0292 27.5236L34.7712 25.3737C34.6002 25.082 34.297 24.893 33.959 24.8679L31.4755 24.6855L33.1313 22.8249C33.3562 22.572 33.4422 22.2248 33.3616 21.8959L32.7677 19.4777L35.0478 20.4769C35.3579 20.6132 35.7149 20.5879 36.0034 20.4093L38.12 19.0971L37.8741 21.5751C37.8406 21.9121 37.975 22.2439 38.2338 22.4627L40.1357 24.0699Z" fill="black"/>
<path d="M67.6495 45.3331L64.7333 42.7572C63.9895 42.1003 62.8559 42.0866 62.0964 42.7252L61.9657 42.8352C61.8368 42.3707 61.6012 41.931 61.2556 41.5588C60.8334 41.104 60.2973 40.7929 59.7066 40.653C60.0473 39.6067 59.8271 38.4108 59.0271 37.5489C58.458 36.9359 57.6843 36.5813 56.8486 36.5505C56.8234 36.5495 56.7984 36.5499 56.7733 36.5495C56.8116 35.7381 56.5377 34.9126 55.9428 34.2718C55.3808 33.6662 54.6189 33.3135 53.7949 33.2751C53.8692 32.4238 53.598 31.5456 52.9723 30.8717C52.4033 30.2587 51.6296 29.9041 50.7938 29.8732C49.9578 29.8417 49.1602 30.1388 48.5475 30.708L48.1321 31.0937C47.5289 30.6583 46.8071 30.411 46.0406 30.3858C45.944 30.3825 45.848 30.3839 45.7524 30.3877L46.0637 29.3491C46.6218 27.4862 46.9692 24.1093 46.9589 24.2904C46.989 24.305 47.0185 24.3201 47.0493 24.3338C47.4775 24.5248 47.9389 24.6197 48.3984 24.6197C48.9252 24.6197 49.4495 24.4949 49.918 24.2468C50.8933 23.7305 51.5855 22.6512 51.6406 21.561C51.693 20.5235 51.2045 19.6075 50.2651 18.9814C49.8629 18.7136 49.3197 18.8221 49.0518 19.2242C48.7839 19.6262 48.8927 20.1694 49.2948 20.4374C49.7125 20.7157 49.9139 21.064 49.8931 21.4726C49.8689 21.9534 49.535 22.4697 49.0993 22.7003C48.6998 22.9119 48.1875 22.9254 47.7621 22.7356C47.4904 22.6145 47.1383 22.3568 47.0035 21.8174C46.6021 20.2109 47.5225 18.6163 48.5881 16.7701C50.5183 13.426 52.9204 9.26429 47.8922 3.32101L45.8097 0.859602C45.3903 0.363782 44.803 0.0615554 44.1559 0.00835223C43.5088 -0.0448509 42.8799 0.157415 42.3852 0.578118C41.0435 1.71894 40.346 3.4464 40.5192 5.19894L40.6231 6.25034C40.6764 6.78952 40.4688 7.31921 40.0692 7.68179L41.1966 9.02242C42.0379 8.28765 42.4745 7.19171 42.3643 6.0782L42.2604 5.02679C42.1435 3.84507 42.6138 2.68034 43.5185 1.91113C43.6564 1.79382 43.8313 1.7371 44.0124 1.75222C44.1929 1.76699 44.3567 1.85136 44.4738 1.98964L46.5562 4.45105C50.7897 9.45507 48.9841 12.5835 47.0725 15.8953C46.7735 16.4134 46.4721 16.9363 46.1994 17.4665C45.4764 14.9821 44.2665 12.6723 42.5935 10.6833L38.5892 5.92234L38.6117 5.90347C38.933 5.63323 39.1299 5.25413 39.166 4.83589C39.2021 4.41753 39.0732 4.01031 38.803 3.68909L37.5235 2.16788C37.2533 1.84656 36.8742 1.64968 36.4559 1.61359C36.0377 1.57761 35.6305 1.70628 35.309 1.97652L15.09 18.9819C14.4268 19.5396 14.341 20.5329 14.8987 21.1963L16.1782 22.7175C16.4484 23.0389 16.8275 23.2357 17.2459 23.2718C17.292 23.2758 17.338 23.2778 17.3837 23.2778C17.7529 23.2778 18.1068 23.1493 18.3925 22.9088L18.4152 22.8897L19.919 24.6778C19.4955 25.0041 18.9436 25.1164 18.4256 24.9744L17.4069 24.6948C15.7088 24.2287 13.8883 24.625 12.5376 25.7553C12.0397 26.1721 11.7342 26.7577 11.6776 27.4047C11.6209 28.0516 11.8198 28.6813 12.2379 29.1783L14.3131 31.6457C19.3239 37.6036 23.8311 35.9375 27.4527 34.5985C29.0871 33.9943 30.5393 33.4575 31.8431 33.6457C32.0851 33.7138 32.3286 33.7782 32.574 33.8375C32.6144 33.8533 32.6547 33.8696 32.6949 33.8871C33.2039 34.1107 33.3985 34.5013 33.4722 34.7895C33.5875 35.2407 33.4878 35.7434 33.212 36.1016C32.9112 36.4922 32.3461 36.7337 31.868 36.6771C31.4618 36.6286 31.1524 36.3715 30.9484 35.9128C30.7521 35.4714 30.2352 35.2729 29.7934 35.4691C29.3519 35.6653 29.1532 36.1824 29.3495 36.6239C29.8082 37.6554 30.629 38.2914 31.6604 38.4146C31.7743 38.4282 31.889 38.4348 32.0042 38.4348C32.9865 38.4347 33.9956 37.9517 34.598 37.1692C35.2037 36.3829 35.4165 35.3312 35.1672 34.3562C35.1615 34.334 35.1546 34.3123 35.1484 34.2903C35.9441 34.3799 36.7512 34.427 37.5672 34.427C38.4412 34.427 39.3253 34.3748 40.2138 34.2687L40.2912 34.2594C39.8928 34.7348 39.5826 35.2811 39.3821 35.8666L35.943 44.3259L17.5981 58.4316C17.3012 58.6599 17.1825 59.0521 17.3032 59.4067C17.4237 59.7614 17.7568 60 18.1314 60H38.9172C39.1532 60 39.3793 59.9046 39.5439 59.7357L40.7016 58.547C41.0388 58.2009 41.0315 57.6469 40.6853 57.3098C40.3392 56.9727 39.7852 56.9799 39.4482 57.326L38.5481 58.2503H20.7046L37.1978 45.5686C37.21 45.5592 37.2209 45.5491 37.2324 45.5392C37.2403 45.5325 37.2484 45.5261 37.256 45.5191C37.2839 45.4935 37.3098 45.4666 37.3337 45.4382C37.3384 45.4326 37.3427 45.4266 37.3473 45.4207C37.3691 45.3935 37.389 45.3653 37.4071 45.336C37.4105 45.3305 37.4143 45.3252 37.4176 45.3196C37.4382 45.2847 37.456 45.2487 37.4715 45.2117C37.4725 45.2092 37.4741 45.207 37.475 45.2045L41.0131 36.5017C41.0199 36.485 41.0262 36.468 41.032 36.4509C41.2038 35.9394 41.5039 35.4723 41.8998 35.0997L44.4126 32.7346C44.8441 32.3284 45.4005 32.1152 45.9828 32.1346C46.5325 32.1528 47.0379 32.3802 47.4056 32.7753L51.0105 36.6471C51.0106 36.6473 51.0105 36.6471 51.0106 36.6473C51.0107 36.6474 51.0104 36.647 51.0105 36.6471L51.0106 36.6473C51.0109 36.6475 51.0103 36.6469 51.0105 36.6471C51.0103 36.6469 51.0107 36.6474 51.0105 36.6471C51.194 36.8442 51.2894 37.1046 51.2795 37.3803C51.2688 37.6763 51.1404 37.9532 50.918 38.1598L50.4114 38.6305C50.0609 38.9561 49.5629 39.0176 49.1762 38.8205C49.1661 38.815 49.1555 38.8104 49.1451 38.8053C49.0554 38.7555 48.9721 38.6912 48.8989 38.6126L47.6231 37.2401C47.1671 36.7497 46.5441 36.4671 45.869 36.4446C45.1773 36.422 44.5145 36.6728 44.0052 37.1521C43.9577 37.1969 43.9157 37.2462 43.8799 37.2993C43.7902 37.4319 43.7383 37.5873 43.7308 37.7485C43.7293 37.7807 43.7296 37.8132 43.7318 37.8457C43.7319 37.8469 43.7319 37.8481 43.7319 37.8493C43.7361 37.9157 43.739 37.9814 43.7408 38.0468C43.7417 38.0836 43.7416 38.1201 43.7418 38.1566C43.7421 38.1848 43.7425 38.213 43.7422 38.2409C43.7417 38.2875 43.7401 38.3337 43.7383 38.3798C43.7377 38.3965 43.7373 38.4133 43.7364 38.43C43.7339 38.4821 43.7302 38.5337 43.726 38.585C43.7254 38.5916 43.725 38.5984 43.7244 38.6051C43.7219 38.627 43.7199 38.6489 43.7191 38.671C43.6374 39.481 43.3447 40.2059 42.8332 40.8698C42.5382 41.2525 42.6095 41.8019 42.9922 42.0967C43.3748 42.3916 43.9243 42.3203 44.2191 41.9376C44.5222 41.5443 44.7707 41.13 44.966 40.6967L52.4073 50.8743L52.2297 51.0236C52.1186 51.0617 52.0133 51.1224 51.9214 51.207C51.303 51.7759 50.5461 52.1594 49.7301 52.3178L44.2515 52.7116C44.0377 52.7269 43.837 52.8202 43.6875 52.9737L42.2888 54.4097C41.9517 54.7559 41.9589 55.3098 42.3051 55.647C42.4752 55.8126 42.6954 55.8951 42.9154 55.8951C43.1431 55.8951 43.3707 55.8067 43.5422 55.6307L44.7086 54.4329L49.9055 54.0596C49.9155 54.0589 49.9252 54.0569 49.9351 54.0558C49.9577 54.3692 50.0514 54.6798 50.2239 54.9604L52.2618 58.2748C52.5699 58.7759 53.0796 59.117 53.6601 59.2108C53.7677 59.2282 53.8755 59.2368 53.9827 59.2368C54.4548 59.2368 54.9153 59.0713 55.2821 58.7628L67.6123 48.3926C68.0625 48.0141 68.3246 47.4597 68.3319 46.8715C68.339 46.2831 68.0904 45.7226 67.6495 45.3331ZM26.846 32.9574C23.259 34.2835 19.8711 35.5359 15.6523 30.5196L13.5771 28.0523C13.4606 27.9136 13.405 27.738 13.4209 27.5575C13.4367 27.377 13.5219 27.2135 13.6609 27.0974C14.5715 26.3353 15.7991 26.0682 16.944 26.3823L17.9627 26.6619C19.0357 26.9562 20.1826 26.7153 21.047 26.0189L22.4195 27.6509C24.0964 29.6448 26.1704 31.2358 28.5009 32.3744C27.9461 32.5508 27.3937 32.7549 26.846 32.9574ZM44.3874 28.8468L43.7268 31.0512C43.5468 31.1724 43.3748 31.3084 43.2133 31.4603L42.3763 32.2482L40.0065 32.5313C33.6363 33.2924 27.5619 31.0468 23.7586 26.5246L19.7544 21.7636L21.3175 20.4489C21.6874 20.1379 21.735 19.5859 21.4239 19.2162C21.113 18.8464 20.561 18.7984 20.1912 19.1097L17.9588 20.9871C17.9587 20.9873 17.9586 20.9874 17.9585 20.9874C17.9584 20.9875 17.9582 20.9876 17.9581 20.9877L17.4027 21.455L16.3524 20.2063L36.2993 3.43023L37.3495 4.67898L36.7948 5.1455C36.7945 5.14585 36.794 5.14609 36.7937 5.14632C36.7933 5.14656 36.793 5.14702 36.7926 5.14726L23.3466 16.4559C22.9769 16.767 22.9292 17.3188 23.2402 17.6885C23.5511 18.0584 24.103 18.1057 24.4729 17.7951L37.2503 7.04851L41.2545 11.8095C45.058 16.3319 46.2291 22.701 44.3874 28.8468ZM59.0357 42.3196C59.3954 42.333 59.7284 42.4855 59.9732 42.7493C60.3907 43.1991 60.4479 43.873 60.1235 44.3846L56.3115 47.5907C55.9009 47.6251 55.5021 47.4737 55.217 47.1666C54.7118 46.6224 54.7434 45.7685 55.2873 45.2631L55.8396 44.75C55.9405 44.6764 56.0381 44.597 56.131 44.5108L58.2645 42.5288C58.4928 42.3836 58.7587 42.3106 59.0357 42.3196ZM55.8962 38.5804C56.1363 38.3969 56.4269 38.298 56.7315 38.298C56.7488 38.298 56.7663 38.2983 56.7838 38.2989C57.1524 38.3126 57.4937 38.4689 57.7447 38.7393C58.2625 39.297 58.2302 40.1723 57.6726 40.6902L57.1687 41.1584C57.0681 41.2318 56.9708 41.3106 56.8781 41.3968L54.742 43.3812C54.5074 43.5316 54.2334 43.6081 53.9493 43.5969C53.5807 43.5832 53.2394 43.4269 52.9884 43.1566C52.5045 42.6353 52.5014 41.837 52.9582 41.312C52.9879 41.2864 53.0177 41.2605 53.0466 41.2336L55.7791 38.6951C55.8194 38.6576 55.8583 38.6194 55.8962 38.5804ZM51.2589 34.3465L49.3773 32.3254L49.7383 31.9899C50.0086 31.7389 50.3604 31.6105 50.729 31.6217C51.0977 31.6354 51.4389 31.7917 51.69 32.0621C52.2078 32.6198 52.1754 33.495 51.6178 34.0131L51.2589 34.3465ZM51.6022 39.9126L52.1089 39.4417C52.6739 38.9169 53.0002 38.2073 53.0279 37.4438C53.0519 36.7807 52.8457 36.1473 52.4444 35.6353L52.7087 35.3898C52.9789 35.1388 53.33 35.0073 53.6994 35.0216C54.0679 35.0353 54.4092 35.1917 54.6602 35.462C55.1443 35.9835 55.1472 36.7821 54.6901 37.3073C54.6604 37.3328 54.6309 37.3584 54.6021 37.3851L51.8696 39.9236C51.8292 39.9612 51.79 39.9996 51.7521 40.0388C51.5465 40.196 51.3035 40.29 51.047 40.3136C51.2429 40.2039 51.4303 40.0723 51.6022 39.9126ZM45.4868 38.4444C45.4893 38.3785 45.4917 38.3126 45.4923 38.246C45.5175 38.2366 45.5432 38.2284 45.5693 38.2213C45.6474 38.2003 45.7286 38.1909 45.8107 38.1938C46.0167 38.2006 46.2051 38.2853 46.3415 38.4319L47.6173 39.8043C47.7479 39.9447 47.89 40.0683 48.0409 40.1752C48.1814 40.5052 48.3758 40.8052 48.6216 41.07C49.1907 41.683 49.9644 42.0376 50.8003 42.0686C50.8255 42.0694 50.8504 42.0696 50.8755 42.07C50.8373 42.8812 51.1113 43.7065 51.706 44.3472C52.1323 44.8064 52.6735 45.1206 53.2696 45.2624C52.9214 46.303 53.1369 47.498 53.9345 48.3571C54.1571 48.5969 54.414 48.7962 54.6935 48.9515L53.7493 49.7455L45.4868 38.4444ZM66.4861 47.0533L54.1558 57.4234C54.0736 57.4928 53.9845 57.4906 53.9391 57.4833C53.8936 57.4759 53.8087 57.4499 53.7523 57.3583L51.7145 54.0437C51.6439 53.929 51.6675 53.7828 51.7706 53.696L63.2225 44.0644C63.223 44.0641 63.2225 44.0644 63.223 44.0641L63.2225 44.0644C63.2723 44.0225 63.3343 44.0015 63.3962 44.0015C63.4603 44.0015 63.5243 44.024 63.5748 44.0686L66.491 46.6445C66.5716 46.7158 66.5827 46.8039 66.5821 46.8502C66.5817 46.8962 66.5684 46.9841 66.4861 47.0533Z" fill="black"/>
</g>
<defs>
<clipPath id="clip0_1076_16300">
<rect width="60" height="60" fill="white" transform="translate(10)"/>
</clipPath>
</defs>
</svg>
