<svg width="50" height="50" viewBox="0 0 50 50" fill="none" xmlns="../../../../../external.html?link=http://www.w3.org/2000/svg">
<g clip-path="url(#clip0_1151_89345)">
<path d="M45.8745 14.2042C43.1028 14.2571 32.8417 15.0579 31.7278 23.973C31.694 24.2437 31.9351 24.499 32.2526 24.5283C43.5638 25.5728 46.0097 17.1202 46.4669 14.7904C46.5266 14.4863 46.2344 14.1974 45.8745 14.2042Z" fill="#B5E245"/>
<path d="M12.503 14.2042C15.2748 14.2571 25.5358 15.0579 26.6498 23.973C26.6836 24.2437 26.4425 24.499 26.125 24.5283C14.8138 25.5728 12.3679 17.1202 11.9106 14.7904C11.8509 14.4863 12.143 14.1974 12.503 14.2042Z" fill="#B5E245"/>
<path d="M29.4773 0.916602C29.3212 0.670703 28.9699 0.670703 28.8138 0.916602C27.3647 3.1998 21.9748 12.7769 29.1338 18.9739H29.1573C36.3162 12.7768 30.9264 3.19971 29.4773 0.916602Z" fill="#C6E873"/>
<path d="M18.1851 33.2924L13.7021 36.8672L29.1453 44.2611L44.5885 36.8672L40.1056 33.2924C33.7197 28.2001 24.5709 28.2001 18.1851 33.2924Z" fill="#CE9875"/>
<path d="M34.0756 35.7675L38.5585 39.3423L38.9002 39.5908L44.5887 36.8672L40.1058 33.2924C34.1608 28.5517 25.822 28.2252 19.5464 32.3112C24.5406 31.2851 29.899 32.4369 34.0756 35.7675Z" fill="#C6865C"/>
<path d="M44.6118 35.4879L39.3432 38.2573C37.9557 38.9866 36.4353 39.392 34.8857 39.4459L34.9537 38.3222C34.8257 36.9648 33.8342 35.8754 32.5529 35.6843L26.6645 34.9697C25.3061 34.767 24.6273 34.2872 23.4432 33.557C22.2875 32.8444 20.1391 31.9778 18.9753 31.6293C16.932 31.0174 14.7242 31.3052 12.8638 32.3483L4.56396 37.0021L11.0674 47.3733L14.615 44.2265C15.1832 43.7225 15.9753 43.5559 16.6983 43.7883L22.6385 45.6976C23.2925 45.9547 23.9935 46.0512 24.6881 45.98L36.5136 44.7666C37.2502 44.6911 37.9587 44.4289 38.5785 44.0025L46.7415 38.3871C47.3968 37.7737 47.5183 36.7429 47.0253 35.9792C46.4859 35.1438 45.4076 34.9243 44.6118 35.4879Z" fill="#FFDDCE"/>
<path d="M4.59414 36.9854L4.56396 37.0023L4.62539 37.1003L4.59414 36.9854Z" fill="#FFCBBE"/>
<path d="M47.0252 35.9795C46.4858 35.1439 45.4075 34.9244 44.6117 35.4881L40.8757 37.4519C40.8757 37.4519 40.5059 38.2895 40.0947 39.1788C39.3303 40.8323 37.7116 41.9525 36.9007 42.0357L24.6419 43.2935C23.9218 43.3674 23.1951 43.2673 22.5172 43.0008L16.3594 41.0215C15.6099 40.7806 14.7888 40.9533 14.1998 41.4757L9.77832 45.3179L11.0673 47.3735L14.6149 44.2267C15.1831 43.7227 15.9752 43.5561 16.6982 43.7885L22.6384 45.6978C23.2924 45.9549 23.9934 46.0514 24.688 45.9802L36.5135 44.7668C37.2501 44.6913 37.9586 44.4292 38.5784 44.0027L46.7414 38.3873C47.3967 37.774 47.5182 36.7432 47.0252 35.9795Z" fill="#FFCBBE"/>
<path d="M12.657 48.0986L10.9508 49.0836C10.2969 49.4612 9.46085 49.2372 9.08331 48.5833L2.8587 37.8018C2.48116 37.1479 2.70518 36.3119 3.35909 35.9343L5.06534 34.9493C5.71924 34.5717 6.55528 34.7958 6.93282 35.4497L13.1574 46.2311C13.535 46.885 13.3108 47.721 12.657 48.0986Z" fill="#DD636E"/>
<path d="M47.6409 35.5822C46.8814 34.4053 45.3598 34.0965 44.232 34.8602L43.6381 35.1724L40.5624 32.7198C37.4966 30.275 33.7865 28.944 30.0167 28.7645C30.1969 27.7845 30.6882 26.4716 31.9464 25.213C32.3182 25.3155 33.6883 25.3493 34.1165 25.3493C36.6252 25.3493 38.8461 24.8598 40.7379 23.8878C41.0978 23.7028 41.2394 23.2613 41.0546 22.9015C40.8695 22.5415 40.4278 22.4 40.0684 22.5848C38.2288 23.5302 36.013 23.9606 33.4709 23.8718C38.061 20.0382 43.2007 16.9975 45.4847 15.7164C45.0914 17.0519 44.276 19.0289 42.6408 20.6927C42.3573 20.9811 42.3614 21.4449 42.6499 21.7284C42.9382 22.0116 43.4019 22.008 43.6856 21.7193C46.1306 19.2315 46.9478 16.1435 47.1857 14.9314C47.3388 14.1517 46.672 13.4614 45.8607 13.4719C38.6802 13.6089 31.9013 16.6793 31.0012 23.8821C30.9923 23.9529 30.991 24.0235 30.9952 24.0936C30.5507 24.5269 30.182 24.9678 29.8771 25.4054V19.3121C33.0483 16.4252 34.049 12.6152 33.2657 8.34519C32.6073 4.75672 30.8295 1.68006 30.0956 0.524002C30.0956 0.523904 30.0956 0.523904 30.0956 0.523904C29.6644 -0.15549 28.6511 -0.194162 28.1954 0.523904C27.4615 1.68006 25.6837 4.75662 25.0253 8.34519C24.2439 12.6045 25.2357 16.4181 28.4122 19.3108V25.2815C28.1251 24.8846 27.7849 24.4861 27.3822 24.0936C27.3864 24.0235 27.3852 23.9529 27.3763 23.8821C26.4775 16.6902 19.6945 13.6087 12.5167 13.4718C11.6979 13.4638 11.0395 14.1559 11.1917 14.9312C12.3337 20.7511 16.7356 25.3508 24.2317 25.3508C24.6625 25.3508 26.0611 25.3148 26.4312 25.2128C27.6918 26.4724 28.184 27.781 28.3638 28.7598C25.4635 28.8808 22.5784 29.6843 19.9734 31.1887C19.6781 31.0837 19.4098 30.9947 19.1854 30.9276C16.9956 30.2717 14.561 30.5568 12.5056 31.7094L7.24277 34.6602C6.58799 33.9937 5.54756 33.8246 4.69892 34.3148L2.99258 35.2999C1.99013 35.8788 1.64541 37.1653 2.22422 38.1679L8.44922 48.9495C9.02832 49.9524 10.3103 50.2992 11.3172 49.7179L13.0234 48.7329C14.0099 48.1633 14.3574 46.909 13.8169 45.9138L15.1014 44.7745C15.4742 44.4438 16.0004 44.3332 16.4745 44.4858L22.3935 46.3883C23.1309 46.674 23.9475 46.7922 24.7632 46.7088L36.5886 45.4953C37.444 45.4076 38.2757 45.1001 38.9939 44.606C47.6879 38.6219 47.1663 38.993 47.2423 38.9219C48.1501 38.0723 48.3215 36.6365 47.6409 35.5822ZM43.6159 15.0982C41.0171 16.611 36.7121 19.2923 32.7568 22.561C34.2921 17.108 39.9907 15.5376 43.6159 15.0982ZM25.6232 22.5632C21.6726 19.2978 17.3726 16.6186 14.7721 15.1044C19.6562 15.7102 24.2882 17.802 25.6232 22.5632ZM12.8903 15.7152C15.1732 16.9956 20.3153 20.0373 24.9072 23.8725C16.4784 24.1669 13.7438 18.6417 12.8903 15.7152ZM31.8249 8.60965C32.4527 12.0318 31.7969 14.915 29.8771 17.2053V3.09636C30.6021 4.50847 31.4314 6.46482 31.8249 8.60965ZM26.4662 8.60965C26.8595 6.46619 27.6878 4.51111 28.4124 3.09939V17.2035C26.4938 14.9135 25.8385 12.0309 26.4662 8.60965ZM39.6491 33.8652L42.222 35.9169L39.0026 37.6091C37.9468 38.1642 36.8282 38.5137 35.6679 38.6522L35.6852 38.3666C35.6874 38.3289 35.6868 38.2912 35.6832 38.2536C35.5229 36.5558 34.2804 35.2015 32.6612 34.9601C32.6547 34.9592 32.648 34.9582 32.6414 34.9575L26.7633 34.244C24.9012 33.9635 24.6479 33.1473 21.7645 31.8967C27.5519 29.0862 34.5637 29.8098 39.6491 33.8652ZM46.2756 37.8189L38.1637 43.3993C37.6473 43.7546 37.0511 43.9754 36.4392 44.0382L24.6138 45.2516C23.8053 45.3346 23.3044 45.1429 22.8629 45.0006L16.9227 43.0912C15.9577 42.7813 14.8873 43.0062 14.1293 43.6788L13.0714 44.6172L10.7014 40.5122C10.4991 40.1618 10.051 40.0421 9.70088 40.2441C9.35058 40.4464 9.23056 40.8943 9.43281 41.2446C9.83916 41.9484 11.6966 45.1655 12.5232 46.5973C12.6981 46.9005 12.5939 47.2893 12.2909 47.4643L10.5847 48.4494C10.2803 48.625 9.89287 48.5206 9.71767 48.2171L3.49306 37.4356C3.31816 37.1326 3.42226 36.7436 3.72539 36.5686L5.43164 35.5836C5.73672 35.4074 6.12392 35.5132 6.29863 35.8159L7.71719 38.2729C7.91953 38.6232 8.36748 38.7431 8.71767 38.541C9.06797 38.3387 9.18799 37.8908 8.98574 37.5405L8.03584 35.8953L13.2223 32.9872C14.9336 32.0275 16.9541 31.7886 18.7654 32.3309C23.3125 33.6926 23.8591 35.2917 26.5567 35.694C26.5633 35.695 26.5699 35.696 26.5766 35.6967L32.4543 36.41C33.3846 36.5533 34.1033 37.3411 34.2193 38.3383L34.1939 38.7571L26.7222 39.2451C26.3185 39.2716 26.0126 39.6201 26.039 40.0238C26.0644 40.4112 26.3864 40.7085 26.7691 40.7085C26.7853 40.7085 26.8014 40.708 26.8177 40.7069C34.7255 39.9925 36.4762 40.5921 39.6843 38.9055C45.2763 35.9637 44.9614 36.1382 45.0355 36.0855C45.4879 35.7651 46.0948 35.8876 46.4104 36.3764C46.7037 36.8311 46.6438 37.4424 46.2756 37.8189Z" fill="black"/>
</g>
<defs>
<clipPath id="clip0_1151_89345">
<rect width="50" height="50" fill="white"/>
</clipPath>
</defs>
</svg>
