<svg width="70" height="60" viewBox="0 0 70 60" fill="none" xmlns="../../../../../external.html?link=http://www.w3.org/2000/svg">
<g opacity="0.2">
<path d="M24.945 46.4834C37.0546 46.4834 46.8714 36.7462 46.8714 24.7346C46.8714 12.7231 37.0546 2.98584 24.945 2.98584C12.8353 2.98584 3.01855 12.7231 3.01855 24.7346C3.01855 36.7462 12.8353 46.4834 24.945 46.4834Z" fill="#4AA760"/>
<path d="M25.8858 50.0001C25.5582 50.0001 25.2305 49.9917 24.8945 49.9834C11.5958 49.4501 1.21228 38.284 1.74153 25.0931C2.27919 11.8855 13.402 1.60275 26.8351 2.13605C33.2786 2.39437 39.2348 5.12756 43.6033 9.8273C47.9718 14.527 50.2401 20.635 49.9796 27.0263C49.4672 39.909 38.8736 50.0001 25.8858 50.0001ZM25.8522 2.95268C13.318 2.95268 3.10249 12.6938 2.59844 25.1264C2.08598 37.8591 12.0999 48.6251 24.9365 49.1418C37.8991 49.6584 48.6271 39.734 49.1479 26.9847C49.4 20.8184 47.2157 14.927 42.9901 10.3856C38.7728 5.85251 33.0266 3.21933 26.8099 2.96934C26.4823 2.96101 26.163 2.95268 25.8522 2.95268Z" fill="#4AA760"/>
<path d="M23.9705 49.3502C23.6429 49.3502 23.3153 49.3418 22.9876 49.3335C9.78979 48.8085 -0.50974 37.7258 0.019518 24.6432C0.548776 11.5356 11.5876 1.31952 24.9115 1.86116C38.1093 2.38613 48.4088 13.4688 47.8796 26.5514C47.3671 39.3341 36.8576 49.3502 23.9705 49.3502ZM23.937 2.30279C11.302 2.30279 1.00242 12.1189 0.489968 24.6599C-0.0308896 37.4925 10.067 48.3502 23.0044 48.8669C23.3237 48.8835 23.6429 48.8835 23.9622 48.8835C36.5971 48.8835 46.8967 39.0674 47.4091 26.5265C47.93 13.6938 37.8321 2.8361 24.8947 2.31946C24.5754 2.3028 24.2562 2.30279 23.937 2.30279Z" fill="#4AA760"/>
<path d="M22.7016 49.7751L22.6932 49.2334C22.6092 49.2334 15.5188 49.5751 7.63878 44.4837C7.02551 44.0837 6.9415 44.3004 7.43715 44.7337C14.0823 49.8751 22.6176 49.7751 22.7016 49.7751Z" fill="#4AA760"/>
<path d="M38.5044 6.51083C36.5973 5.69421 34.3291 5.06091 31.6828 4.86092C28.9357 4.6526 24.9369 5.24423 22.2822 6.05252C19.6275 6.86081 22.3326 6.20252 22.3326 6.20252C31.7584 3.57766 38.1767 6.18585 41.9067 8.80237C45.956 11.6439 47.821 15.102 47.8378 15.1437L48.0982 15.0354C48.0814 15.002 46.25 11.4272 42.1252 8.53572C41.1254 7.81909 39.9157 7.11079 38.5044 6.51083Z" fill="#4AA760"/>
<path d="M25.8857 47.3751C25.5581 47.3751 25.2388 47.3668 24.9112 47.3585C11.7554 46.8335 1.48103 35.7925 2.01029 22.7348C2.53954 9.6689 13.5364 -0.505536 26.835 0.0194353C33.2113 0.277754 39.1004 2.9776 43.4268 7.62735C47.7533 12.2771 49.9963 18.3184 49.7359 24.6431C49.2151 37.3924 38.7391 47.3751 25.8857 47.3751ZM25.8521 0.327753C13.1751 0.327753 2.85037 10.1772 2.33791 22.7515C1.81706 35.6258 11.9486 46.5169 24.9196 47.0335C38.025 47.5585 48.879 37.5174 49.3999 24.6347C49.6519 18.4017 47.4425 12.4437 43.1748 7.85233C38.9071 3.26925 33.1021 0.602736 26.8098 0.35275C26.4906 0.336084 26.1713 0.327753 25.8521 0.327753Z" fill="#4AA760"/>
<path d="M23.9707 48.0918C23.6599 48.0918 23.349 48.0834 23.0382 48.0751C10.546 47.5751 0.784151 37.084 1.28821 24.6931C1.79226 12.2771 12.243 2.61096 24.8612 3.11926C37.3534 3.61923 47.1152 14.1103 46.6112 26.5013C46.1239 38.6006 36.1772 48.0918 23.9707 48.0918ZM23.9371 3.5359C11.9658 3.5359 1.80906 12.8354 1.33021 24.7097C0.834556 36.8591 10.8065 47.1501 23.055 47.6335C23.3574 47.6418 23.6599 47.6501 23.9623 47.6501C35.9336 47.6501 45.6871 38.3506 46.1659 26.4763C46.6616 14.327 37.0929 4.04421 24.8444 3.55257C24.542 3.5359 24.2395 3.5359 23.9371 3.5359Z" fill="#4AA760"/>
</g>
<g clip-path="url(#clip0_1076_16398)">
<path d="M65.0495 17.0453C61.7234 17.1087 49.4101 18.0698 48.0734 28.7678C48.0328 29.0927 48.3222 29.3991 48.7031 29.4343C62.2766 30.6876 65.2117 20.5445 65.7604 17.7487C65.832 17.3839 65.4813 17.0371 65.0495 17.0453Z" fill="#B5E245"/>
<path d="M25.0034 17.0453C28.3295 17.1087 40.6428 18.0698 41.9796 28.7678C42.0201 29.0927 41.7308 29.3991 41.3498 29.4343C27.7763 30.6876 24.8412 20.5445 24.2926 17.7487C24.2208 17.3839 24.5715 17.0371 25.0034 17.0453Z" fill="#B5E245"/>
<path d="M45.3728 1.09997C45.1855 0.804893 44.764 0.804893 44.5766 1.09997C42.8377 3.83981 36.3698 15.3323 44.9606 22.7688H44.9889C53.5795 15.3322 47.1117 3.8397 45.3728 1.09997Z" fill="#C6E873"/>
<path d="M31.8224 39.951L26.4429 44.2407L44.9747 53.1135L63.5065 44.2407L58.127 39.951C50.464 33.8402 39.4854 33.8402 31.8224 39.951Z" fill="#CE9875"/>
<path d="M50.8908 42.9213L56.2703 47.2111L56.6804 47.5092L63.5065 44.241L58.1271 39.9512C50.9932 34.2623 40.9865 33.8706 33.4558 38.7737C39.4489 37.5424 45.879 38.9245 50.8908 42.9213Z" fill="#C6865C"/>
<path d="M63.5345 42.5855L57.2121 45.9087C55.5471 46.7838 53.7226 47.2704 51.8632 47.3351L51.9447 45.9866C51.7911 44.3577 50.6013 43.0505 49.0638 42.8211L41.9976 41.9636C40.3676 41.7204 39.5531 41.1446 38.1321 40.2683C36.7453 39.4132 34.1672 38.3733 32.7706 37.9552C30.3187 37.2209 27.6694 37.5662 25.4368 38.8179L15.4771 44.4025L23.2812 56.8479L27.5383 53.0718C28.2201 52.467 29.1706 52.267 30.0383 52.5459L37.1665 54.8371C37.9513 55.1456 38.7924 55.2614 39.626 55.176L53.8166 53.7199C54.7005 53.6292 55.5507 53.3147 56.2945 52.8029L66.0901 46.0644C66.8764 45.3284 67.0222 44.0914 66.4306 43.175C65.7834 42.1725 64.4894 41.9091 63.5345 42.5855Z" fill="#FFDDCE"/>
<path d="M15.5133 44.3821L15.4771 44.4025L15.5508 44.52L15.5133 44.3821Z" fill="#FFCBBE"/>
<path d="M66.4306 43.1753C65.7834 42.1725 64.4894 41.909 63.5345 42.5856L59.0512 44.9421C59.0512 44.9421 58.6074 45.9472 58.1141 47.0143C57.1967 48.9985 55.2543 50.3428 54.2812 50.4426L39.5707 51.952C38.7065 52.0407 37.8345 51.9206 37.021 51.6008L29.6316 49.2256C28.7322 48.9365 27.7469 49.1437 27.0402 49.7707L21.7344 54.3813L23.2811 56.848L27.5383 53.0719C28.2201 52.4671 29.1706 52.2671 30.0383 52.546L37.1664 54.8372C37.9513 55.1457 38.7924 55.2615 39.626 55.1761L53.8166 53.72C54.7005 53.6293 55.5507 53.3148 56.2945 52.803L66.0901 46.0645C66.8764 45.3286 67.0222 44.0917 66.4306 43.1753Z" fill="#FFCBBE"/>
<path d="M25.1885 57.7183L23.141 58.9003C22.3564 59.3534 21.3531 59.0845 20.9001 58.2999L13.4305 45.3621C12.9775 44.5774 13.2463 43.5742 14.031 43.1211L16.0785 41.9391C16.8632 41.486 17.8664 41.7549 18.3195 42.5395L25.789 55.4773C26.2421 56.262 25.9731 57.2652 25.1885 57.7183Z" fill="#DD636E"/>
<path d="M67.1691 42.6987C66.2577 41.2864 64.4317 40.9158 63.0784 41.8323L62.3657 42.207L58.6749 39.2638C54.9959 36.33 50.5438 34.7329 46.02 34.5175C46.2362 33.3414 46.8258 31.7659 48.3357 30.2556C48.7818 30.3787 50.4259 30.4192 50.9398 30.4192C53.9502 30.4192 56.6153 29.8319 58.8855 28.6654C59.3173 28.4434 59.4873 27.9136 59.2655 27.4819C59.0434 27.0498 58.5134 26.88 58.082 27.1019C55.8746 28.2362 53.2156 28.7528 50.1651 28.6462C55.6732 24.0458 61.8408 20.3971 64.5816 18.8597C64.1097 20.4624 63.1312 22.8347 61.169 24.8312C60.8288 25.1774 60.8337 25.7339 61.1799 26.0741C61.5258 26.414 62.0822 26.4096 62.4228 26.0632C65.3567 23.0779 66.3374 19.3723 66.6229 17.9178C66.8065 16.9821 66.0064 16.1537 65.0329 16.1663C56.4162 16.3307 48.2815 20.0152 47.2014 28.6586C47.1907 28.7435 47.1892 28.8283 47.1943 28.9124C46.6608 29.4324 46.2184 29.9614 45.8526 30.4866V23.1746C49.658 19.7103 50.8588 15.1383 49.9189 10.0143C49.1288 5.70811 46.9954 2.01612 46.1147 0.628851C46.1147 0.628734 46.1147 0.628734 46.1147 0.628734C45.5973 -0.18654 44.3813 -0.232946 43.8345 0.628734C42.9538 2.01612 40.8204 5.70799 40.0303 10.0143C39.0927 15.1254 40.2829 19.7018 44.0946 23.173V30.3379C43.7501 29.8616 43.3418 29.3834 42.8587 28.9124C42.8637 28.8283 42.8622 28.7435 42.8515 28.6586C41.773 20.0283 33.6334 16.3305 25.02 16.1662C24.0375 16.1567 23.2473 16.9872 23.43 17.9175C24.8004 24.9013 30.0828 30.421 39.0781 30.421C39.595 30.421 41.2734 30.3778 41.7174 30.2554C43.2302 31.767 43.8208 33.3373 44.0365 34.5119C40.5562 34.6571 37.0941 35.6212 33.9681 37.4264C33.6137 37.3005 33.2917 37.1937 33.0225 37.1132C30.3947 36.326 27.4732 36.6682 25.0067 38.0513L18.6913 41.5923C17.9056 40.7925 16.6571 40.5896 15.6387 41.1778L13.5911 42.3599C12.3882 43.0546 11.9745 44.5984 12.6691 45.8015L20.1391 58.7394C20.834 59.943 22.3723 60.3591 23.5806 59.6616L25.6281 58.4795C26.8118 57.796 27.2289 56.2908 26.5803 55.0967L28.1216 53.7294C28.5691 53.3326 29.2005 53.1999 29.7694 53.383L36.8721 55.666C37.757 56.0089 38.7369 56.1507 39.7158 56.0506L53.9063 54.5944C54.9328 54.4892 55.9308 54.1201 56.7927 53.5273C67.2255 46.3463 66.5996 46.7917 66.6907 46.7063C67.7801 45.6869 67.9858 43.9639 67.1691 42.6987ZM62.3391 18.1179C59.2205 19.9333 54.0545 23.1508 49.3082 27.0733C51.1505 20.5296 57.9889 18.6451 62.3391 18.1179ZM40.7479 27.0758C36.0071 23.1574 30.8471 19.9424 27.7265 18.1253C33.5875 18.8523 39.1458 21.3625 40.7479 27.0758ZM25.4684 18.8583C28.2079 20.3947 34.3784 24.0448 39.8887 28.6471C29.7741 29.0003 26.4926 22.3701 25.4684 18.8583ZM48.1899 10.3316C48.9433 14.4382 48.1562 17.8981 45.8526 20.6465V3.71569C46.7226 5.41022 47.7177 7.75783 48.1899 10.3316ZM41.7595 10.3316C42.2314 7.75948 43.2253 5.41338 44.0949 3.71932V20.6442C41.7926 17.8962 41.0062 14.4372 41.7595 10.3316ZM57.5789 40.6383L60.6664 43.1003L56.8032 45.1309C55.5361 45.7971 54.1939 46.2165 52.8014 46.3827L52.8222 46.0399C52.8249 45.9947 52.8242 45.9495 52.8198 45.9044C52.6275 43.8671 51.1364 42.2419 49.1935 41.9522C49.1856 41.951 49.1777 41.9499 49.1697 41.949L42.1159 41.0929C39.8814 40.7562 39.5774 39.7769 36.1175 38.276C43.0622 34.9035 51.4764 35.7719 57.5789 40.6383ZM65.5307 45.3828L55.7964 52.0792C55.1767 52.5055 54.4613 52.7705 53.727 52.8458L39.5365 54.302C38.5663 54.4015 37.9653 54.1716 37.4355 54.0007L30.3072 51.7095C29.1493 51.3376 27.8648 51.6075 26.9552 52.4146L25.6857 53.5406L22.8416 48.6147C22.5989 48.1942 22.0612 48.0505 21.6411 48.293C21.2207 48.5357 21.0767 49.0732 21.3194 49.4936C21.807 50.3382 24.0359 54.1987 25.0279 55.9169C25.2378 56.2806 25.1127 56.7472 24.7491 56.9573L22.7016 58.1393C22.3363 58.35 21.8714 58.2248 21.6612 57.8605L14.1917 44.9228C13.9818 44.5592 14.1067 44.0924 14.4705 43.8824L16.518 42.7003C16.8841 42.4889 17.3487 42.6158 17.5584 42.9791L19.2606 45.9276C19.5034 46.3479 20.041 46.4918 20.4612 46.2492C20.8816 46.0065 21.0256 45.469 20.7829 45.0487L19.643 43.0744L25.8667 39.5847C27.9203 38.4331 30.3449 38.1463 32.5185 38.7972C37.975 40.4311 38.6309 42.3501 41.8681 42.8329C41.8759 42.834 41.8839 42.8352 41.8919 42.836L48.9452 43.6921C50.0615 43.864 50.924 44.8094 51.0632 46.006L51.0327 46.5086L42.0666 47.0942C41.5821 47.1259 41.2151 47.5442 41.2468 48.0286C41.2772 48.4935 41.6637 48.8502 42.123 48.8502C42.1423 48.8502 42.1616 48.8496 42.1812 48.8483C51.6706 47.991 53.7714 48.7105 57.6211 46.6867C64.3315 43.1565 63.9537 43.3658 64.0427 43.3027C64.5855 42.9182 65.3138 43.0651 65.6924 43.6518C66.0445 44.1974 65.9726 44.9309 65.5307 45.3828Z" fill="black"/>
</g>
<defs>
<clipPath id="clip0_1076_16398">
<rect width="60" height="60" fill="white" transform="translate(10)"/>
</clipPath>
</defs>
</svg>
