<svg width="60" height="50" viewBox="0 0 60 50" fill="none" xmlns="../../../../../external.html?link=http://www.w3.org/2000/svg">
<g opacity="0.2">
<path d="M24.945 46.4834C37.0546 46.4834 46.8714 36.7462 46.8714 24.7346C46.8714 12.7231 37.0546 2.98584 24.945 2.98584C12.8353 2.98584 3.01855 12.7231 3.01855 24.7346C3.01855 36.7462 12.8353 46.4834 24.945 46.4834Z" fill="#4AA760"/>
<path d="M25.8857 50.0001C25.558 50.0001 25.2304 49.9917 24.8944 49.9834C11.5957 49.4501 1.21215 38.284 1.74141 25.0931C2.27907 11.8855 13.4019 1.60275 26.835 2.13605C33.2785 2.39437 39.2347 5.12756 43.6032 9.8273C47.9717 14.527 50.2399 20.635 49.9795 27.0263C49.4671 39.909 38.8735 50.0001 25.8857 50.0001ZM25.8521 2.95268C13.3179 2.95268 3.10237 12.6938 2.59831 25.1264C2.08586 37.8591 12.0997 48.6251 24.9364 49.1418C37.899 49.6584 48.627 39.734 49.1478 26.9847C49.3998 20.8184 47.2156 14.927 42.99 10.3856C38.7727 5.85251 33.0265 3.21933 26.8098 2.96934C26.4821 2.96101 26.1629 2.95268 25.8521 2.95268Z" fill="#4AA760"/>
<path d="M23.9705 49.3502C23.6429 49.3502 23.3153 49.3418 22.9876 49.3335C9.78979 48.8085 -0.50974 37.7258 0.019518 24.6432C0.548776 11.5356 11.5876 1.31952 24.9115 1.86116C38.1093 2.38613 48.4088 13.4688 47.8796 26.5514C47.3671 39.3341 36.8576 49.3502 23.9705 49.3502ZM23.937 2.30279C11.302 2.30279 1.00242 12.1189 0.489968 24.6599C-0.0308896 37.4925 10.067 48.3502 23.0044 48.8669C23.3237 48.8835 23.6429 48.8835 23.9622 48.8835C36.5971 48.8835 46.8967 39.0674 47.4091 26.5265C47.93 13.6938 37.8321 2.8361 24.8947 2.31946C24.5754 2.3028 24.2562 2.30279 23.937 2.30279Z" fill="#4AA760"/>
<path d="M22.7015 49.7751L22.6931 49.2334C22.6091 49.2334 15.5187 49.5751 7.63865 44.4837C7.02539 44.0837 6.94138 44.3004 7.43703 44.7337C14.0822 49.8751 22.6175 49.7751 22.7015 49.7751Z" fill="#4AA760"/>
<path d="M38.5042 6.51083C36.5972 5.69421 34.329 5.06091 31.6827 4.86092C28.9356 4.6526 24.9367 5.24423 22.282 6.05252C19.6274 6.86081 22.3325 6.20252 22.3325 6.20252C31.7583 3.57766 38.1766 6.18585 41.9066 8.80237C45.9558 11.6439 47.8209 15.102 47.8377 15.1437L48.0981 15.0354C48.0813 15.002 46.2499 11.4272 42.125 8.53572C41.1253 7.81909 39.9156 7.11079 38.5042 6.51083Z" fill="#4AA760"/>
<path d="M25.8856 47.3751C25.5579 47.3751 25.2387 47.3668 24.9111 47.3585C11.7552 46.8335 1.48091 35.7925 2.01016 22.7348C2.53942 9.6689 13.5362 -0.505536 26.8349 0.0194353C33.2112 0.277754 39.1002 2.9776 43.4267 7.62735C47.7532 12.2771 49.9962 18.3184 49.7358 24.6431C49.2149 37.3924 38.739 47.3751 25.8856 47.3751ZM25.852 0.327753C13.175 0.327753 2.85025 10.1772 2.33779 22.7515C1.81694 35.6258 11.9485 46.5169 24.9195 47.0335C38.0249 47.5585 48.8789 37.5174 49.3998 24.6347C49.6518 18.4017 47.4424 12.4437 43.1747 7.85233C38.907 3.26925 33.102 0.602736 26.8097 0.35275C26.4904 0.336084 26.1712 0.327753 25.852 0.327753Z" fill="#4AA760"/>
<path d="M23.9707 48.0918C23.6599 48.0918 23.349 48.0834 23.0382 48.0751C10.546 47.5751 0.784151 37.084 1.28821 24.6931C1.79226 12.2771 12.243 2.61096 24.8612 3.11926C37.3534 3.61923 47.1152 14.1103 46.6112 26.5013C46.1239 38.6006 36.1772 48.0918 23.9707 48.0918ZM23.9371 3.5359C11.9658 3.5359 1.80906 12.8354 1.33021 24.7097C0.834556 36.8591 10.8065 47.1501 23.055 47.6335C23.3574 47.6418 23.6599 47.6501 23.9623 47.6501C35.9336 47.6501 45.6871 38.3506 46.1659 26.4763C46.6616 14.327 37.0929 4.04421 24.8444 3.55257C24.542 3.5359 24.2395 3.5359 23.9371 3.5359Z" fill="#4AA760"/>
</g>
<path d="M35 9.375C37.8021 9.375 40.4133 9.70791 42.6493 10.2762L40.7826 2.71387C40.6924 2.38318 40.496 2.09133 40.2236 1.88327C39.9512 1.67522 39.618 1.5625 39.2752 1.5625H30.7246C30.3818 1.5625 30.0486 1.67522 29.7762 1.88327C29.5038 2.09133 29.3074 2.38318 29.2172 2.71387L27.3506 10.2762C29.5866 9.70791 32.1979 9.375 35 9.375Z" fill="#EA8E49"/>
<path d="M35 8.39189C37.4877 8.3791 39.9682 8.65932 42.3903 9.22676L40.7826 2.71387C40.6925 2.38318 40.496 2.09133 40.2236 1.88327C39.9512 1.67522 39.618 1.5625 39.2752 1.5625H32.2871C31.9444 1.5625 31.6111 1.67522 31.3387 1.88327C31.0663 2.09133 30.8699 2.38318 30.7797 2.71387L29.2584 8.87744C31.1546 8.54942 33.0757 8.38696 35 8.39189Z" fill="#FCAB68"/>
<path d="M35 12.5C32.3581 12.5 29.9287 12.7359 27.9688 13.1292V16.7169C27.9687 19.0554 28.6994 21.3354 30.0586 23.2383C30.6204 24.0248 31.3619 24.6659 32.2213 25.1082C33.0808 25.5505 34.0334 25.7813 35 25.7813C35.9666 25.7813 36.9192 25.5505 37.7787 25.1082C38.6381 24.6659 39.3796 24.0248 39.9414 23.2383C41.3006 21.3354 42.0313 19.0554 42.0312 16.7169V13.1292C40.0712 12.7359 37.6418 12.5 35 12.5Z" fill="#F2B789"/>
<path d="M35 9.375C26.8021 9.375 20.1562 12.1732 20.1562 15.625C20.1562 18.1722 23.7805 20.3594 28.9715 21.333C28.3132 19.883 27.9714 18.3094 27.9688 16.7169V13.1292C29.9287 12.7359 32.3581 12.5 35 12.5C37.6419 12.5 40.0713 12.7359 42.0312 13.1292V16.7169C42.0286 18.3094 41.6868 19.883 41.0285 21.333C46.2194 20.3594 49.8438 18.1722 49.8438 15.625C49.8438 12.1732 43.1979 9.375 35 9.375Z" fill="#EA8E49"/>
<path d="M27.9688 16.7169V15.625H26.7969C26.2789 15.625 25.7821 15.8308 25.4158 16.1971C25.0495 16.5633 24.8438 17.0601 24.8438 17.5781C24.8438 18.0961 25.0495 18.5929 25.4158 18.9592C25.7821 19.3255 26.2789 19.5312 26.7969 19.5312H28.3343C28.0937 18.6124 27.9708 17.6667 27.9688 16.7169Z" fill="#F2B789"/>
<path d="M35 12.4999C33.1709 12.4943 31.3436 12.6153 29.5313 12.8621V16.7168C29.5312 19.0553 30.2619 21.3353 31.6211 23.2382C32.1063 23.9167 32.7261 24.488 33.4419 24.9163C34.1576 25.3447 34.954 25.6209 35.7812 25.7278C36.6085 25.6209 37.4049 25.3447 38.1206 24.9163C38.8364 24.488 39.4562 23.9167 39.9414 23.2382C41.3006 21.3353 42.0313 19.0553 42.0312 16.7168V13.1291C40.0712 12.7359 37.6418 12.4999 35 12.4999Z" fill="#F6CCA5"/>
<path d="M38.9062 28.125L46.0804 29.9186C47.6016 30.2989 48.9521 31.1768 49.9171 32.4128C50.8821 33.6487 51.4062 35.1718 51.4062 36.7398V48.4375H18.5938V36.7398C18.5938 35.1718 19.1179 33.6487 20.0829 32.4128C21.0479 31.1768 22.3984 30.2989 23.9196 29.9186L31.0938 28.125L31.3562 28.5187C31.7561 29.1185 32.2979 29.6104 32.9336 29.9506C33.5692 30.2907 34.279 30.4687 35 30.4688C35.721 30.4687 36.4308 30.2907 37.0664 29.9506C37.7021 29.6104 38.2439 29.1185 38.6438 28.5187L38.9062 28.125Z" fill="#EA8E49"/>
<path d="M35 30.4687C35.721 30.4686 36.4308 30.2906 37.0664 29.9505C37.7021 29.6103 38.2439 29.1184 38.6438 28.5186L38.9062 28.1249V24.353C37.8136 25.2753 36.4298 25.7811 35 25.7811C33.5702 25.7811 32.1864 25.2753 31.0938 24.353V28.1249L31.3562 28.5186C31.7561 29.1184 32.2979 29.6103 32.9336 29.9505C33.5692 30.2906 34.279 30.4686 35 30.4687Z" fill="#F2B789"/>
<path d="M35 30.4687C35.721 30.4686 36.4308 30.2906 37.0664 29.9505C37.7021 29.6103 38.2439 29.1184 38.6438 28.5186L38.9062 28.1249V24.353C37.9402 25.1708 36.7413 25.664 35.4794 25.7628C34.2175 25.8615 32.9565 25.5608 31.875 24.9032V29.1456C32.2814 29.5632 32.7673 29.8954 33.3039 30.1226C33.8406 30.3498 34.4172 30.4675 35 30.4687Z" fill="#F6CCA5"/>
<path d="M51.4062 36.7398C51.4062 35.1718 50.8821 33.6487 49.917 32.4127C48.952 31.1768 47.6015 30.2989 46.0803 29.9186L38.9062 28.125L38.6438 28.5187C38.2439 29.1185 37.7021 29.6104 37.0664 29.9506C36.4308 30.2908 35.721 30.4688 35 30.4688C34.279 30.4688 33.5692 30.2908 32.9336 29.9506C32.2979 29.6104 31.7561 29.1185 31.3562 28.5187L31.0938 28.125L23.9197 29.9186C22.4364 30.2895 21.1148 31.135 20.1562 32.3263V38.044C20.1562 40.1789 21.0043 42.2264 22.5139 43.736C24.0235 45.2456 26.071 46.0937 28.2059 46.0938H51.4062V36.7398Z" fill="#FCAB68"/>
<path d="M43.5938 48.4375L42.8643 38.2256C42.8502 38.0285 42.762 37.8441 42.6174 37.7095C42.4728 37.5748 42.2825 37.5 42.085 37.5H27.915C27.7175 37.5 27.5272 37.5748 27.3826 37.7095C27.238 37.8441 27.1498 38.0285 27.1357 38.2256L26.4062 48.4375H43.5938Z" fill="#5D6972"/>
<path d="M42.8642 38.2256C42.8502 38.0285 42.7619 37.8441 42.6173 37.7095C42.4727 37.5748 42.2825 37.5 42.0849 37.5H28.2267L27.6628 45.3948C27.6457 45.634 27.678 45.8741 27.7578 46.1003C27.8376 46.3264 27.9631 46.5337 28.1264 46.7092C28.2898 46.8847 28.4876 47.0246 28.7074 47.1204C28.9273 47.2161 29.1645 47.2656 29.4043 47.2656H43.5099L42.8642 38.2256Z" fill="#7A838B"/>
<path d="M18.5936 43.75H23.2811V48.4375H18.5936V43.75Z" fill="#F2B789"/>
<path d="M19.375 46.0938C19.375 46.5082 19.5396 46.9056 19.8326 47.1986C20.1257 47.4916 20.5231 47.6562 20.9375 47.6562H23.2812V43.75H19.375V46.0938Z" fill="#F6CCA5"/>
<path d="M46.7186 43.75H51.4061V48.4375H46.7186V43.75Z" fill="#F2B789"/>
<path d="M48.2812 46.0938C48.2812 46.5082 48.4459 46.9056 48.7389 47.1986C49.0319 47.4916 49.4293 47.6562 49.8438 47.6562H51.4062V43.75H48.2812V46.0938Z" fill="#F6CCA5"/>
<path d="M41.112 28.6765L38.9061 37.5H42.0311L44.2253 29.4548L41.112 28.6765Z" fill="#5D6972"/>
<path d="M44.2253 29.4547L41.4582 28.7629L39.6143 36.1386C39.5855 36.2538 39.5833 36.374 39.6079 36.4902C39.6326 36.6063 39.6833 36.7153 39.7564 36.8089C39.8295 36.9024 39.9229 36.9781 40.0296 37.0302C40.1363 37.0823 40.2535 37.1093 40.3722 37.1093H42.1377L44.2253 29.4547Z" fill="#7A838B"/>
<path d="M27.9687 37.5H31.0937L28.8878 28.6765L25.7745 29.4548L27.9687 37.5Z" fill="#5D6972"/>
<path d="M28.8877 28.6765L26.2678 29.3315L28.0381 35.8223C28.1264 36.1458 28.3185 36.4313 28.585 36.6348C28.8514 36.8383 29.1774 36.9486 29.5127 36.9486H30.9557L28.8877 28.6765Z" fill="#7A838B"/>
<path d="M30.3124 40.625H39.6874V48.4375H30.3124V40.625Z" fill="#CECECE"/>
<path d="M30.3124 40.625H39.6874V46.875H30.3124V40.625Z" fill="#E6E6E6"/>
<path d="M30.3124 40.625H39.6874V43.75H30.3124V40.625Z" fill="#80BBCE"/>
<path d="M31.0938 41.4062C31.0938 41.8207 31.2584 42.2181 31.5514 42.5111C31.8444 42.8041 32.2418 42.9688 32.6562 42.9688H39.6875V40.625H31.0938V41.4062Z" fill="#A7D0E1"/>
<path d="M43.2031 15.625H42.0313V16.7169C42.0292 17.6667 41.9063 18.6124 41.6656 19.5312H43.2031C43.7211 19.5312 44.2179 19.3255 44.5842 18.9592C44.9505 18.5929 45.1563 18.0961 45.1563 17.5781C45.1563 17.0601 44.9505 16.5633 44.5842 16.1971C44.2179 15.8308 43.7211 15.625 43.2031 15.625Z" fill="#F2B789"/>
<path d="M43.2031 15.625H42.0313V16.7169C42.0292 17.6667 41.9063 18.6124 41.6656 19.5312H43.2031C43.7211 19.5312 44.2179 19.3255 44.5842 18.9592C44.9505 18.5929 45.1563 18.0961 45.1563 17.5781C45.1563 17.0601 44.9505 16.5633 44.5842 16.1971C44.2179 15.8308 43.7211 15.625 43.2031 15.625Z" fill="#F2B789"/>
<path d="M42.0324 15.625H43.2031C43.6777 15.6259 44.1355 15.8001 44.4906 16.1148C44.8457 16.4295 45.0737 16.863 45.1317 17.334C47.1455 16.6412 48.7305 15.7355 49.6614 14.6907C48.588 11.6834 42.4432 9.375 35.0012 9.375C28.6431 9.375 23.2343 11.0613 21.1198 13.4271C21.5779 14.7208 22.9775 15.8838 25.0131 16.7909C25.1655 16.4444 25.4154 16.1497 25.7323 15.9426C26.0492 15.7356 26.4195 15.6253 26.7981 15.625H27.9699V13.1292C29.9299 12.7359 32.3593 12.5 35.0012 12.5C37.6431 12.5 40.0725 12.7359 42.0324 13.1292V15.625Z" fill="#FCAB68"/>
<path d="M46.2695 29.161L39.6875 27.5154V24.6932C40.0162 24.3898 40.3142 24.0546 40.5771 23.6927C40.9541 23.1637 41.2878 22.6053 41.5751 22.0228C47.1651 20.8924 50.625 18.4614 50.625 15.625C50.625 13.2154 48.0539 11.1295 44.0607 9.86797L41.5657 2.3834C41.4105 1.91662 41.1122 1.5106 40.7131 1.223C40.314 0.935396 39.8345 0.780831 39.3426 0.781251H30.6572C30.1653 0.780846 29.6858 0.935416 29.2867 1.22302C28.8876 1.51061 28.5893 1.91663 28.4341 2.3834L25.9392 9.86797C21.946 11.1295 19.375 13.2154 19.375 15.625C19.375 18.4614 22.8346 20.8923 28.4246 22.0215C28.7119 22.6042 29.0458 23.1628 29.423 23.6919C29.6858 24.054 29.9838 24.3892 30.3125 24.6928V27.515L23.7305 29.1606C22.039 29.5812 20.5371 30.5561 19.4645 31.9299C18.3919 33.3037 17.8103 34.9972 17.8125 36.7401C17.8125 36.9473 17.8948 37.146 18.0413 37.2926C18.1878 37.4391 18.3866 37.5214 18.5938 37.5214C18.801 37.5214 18.9997 37.4391 19.1462 37.2926C19.2927 37.146 19.375 36.9473 19.375 36.7401C19.3733 35.3458 19.8386 33.9911 20.6966 32.892C21.5547 31.793 22.756 31.0129 24.1091 30.6763L25.511 30.3258L27.0483 36.9859C26.8506 37.1175 26.6854 37.2925 26.5655 37.4976C26.4457 37.7027 26.3742 37.9324 26.3566 38.1693L25.679 47.6562H24.0625V40.625C24.0625 40.4178 23.9802 40.2191 23.8337 40.0726C23.6872 39.9261 23.4885 39.8438 23.2813 39.8438C23.0741 39.8438 22.8753 39.9261 22.7288 40.0726C22.5823 40.2191 22.5 40.4178 22.5 40.625V42.9688H19.375V40.625C19.375 40.4178 19.2927 40.2191 19.1462 40.0726C18.9997 39.9261 18.801 39.8438 18.5938 39.8438C18.3866 39.8438 18.1878 39.9261 18.0413 40.0726C17.8948 40.2191 17.8125 40.4178 17.8125 40.625V48.4375C17.8125 48.6447 17.8948 48.8434 18.0413 48.9899C18.1878 49.1364 18.3866 49.2188 18.5938 49.2188H51.4063C51.6135 49.2188 51.8122 49.1364 51.9587 48.9899C52.1052 48.8434 52.1875 48.6447 52.1875 48.4375V36.7401C52.1897 34.9973 51.608 33.3039 50.5354 31.9302C49.4627 30.5564 47.9609 29.5816 46.2695 29.161ZM50.625 36.7401V42.9688H47.5V40.625C47.5 40.4178 47.4177 40.2191 47.2712 40.0726C47.1247 39.9261 46.926 39.8438 46.7188 39.8438C46.5116 39.8438 46.3128 39.9261 46.1663 40.0726C46.0198 40.2191 45.9375 40.4178 45.9375 40.625V47.6562H44.3208L43.6433 38.1706C43.6258 37.9336 43.5544 37.7037 43.4345 37.4985C43.3146 37.2932 43.1494 37.1181 42.9516 36.9864L44.4884 30.3257L45.8908 30.6763C47.2439 31.0129 48.4453 31.7929 49.3034 32.892C50.1614 33.9911 50.6267 35.3458 50.625 36.7401ZM31.7152 36.7188L29.982 29.208L30.7496 29.0161C31.224 29.7051 31.8587 30.2684 32.5991 30.6575C33.3395 31.0467 34.1635 31.25 34.9999 31.25C35.8364 31.25 36.6603 31.0467 37.4007 30.6575C38.1411 30.2684 38.7758 29.7051 39.2502 29.0161L40.0176 29.2079L38.2845 36.7188H31.7152ZM41.5339 29.587L42.9721 29.9466L41.4096 36.7188H39.8884L41.5339 29.587ZM45.9375 15.625C45.9375 15.6852 45.8379 15.8636 45.4974 16.1011C45.2508 15.7162 44.9115 15.3994 44.5107 15.1797C44.1098 14.96 43.6602 14.8445 43.2031 14.8438H42.8125V14.0997C44.8775 14.616 45.9375 15.2526 45.9375 15.625ZM42.8125 16.7168V16.4063H43.2031C43.5139 16.4063 43.812 16.5297 44.0318 16.7495C44.2515 16.9693 44.375 17.2673 44.375 17.5781C44.375 17.8889 44.2515 18.187 44.0318 18.4068C43.812 18.6265 43.5139 18.75 43.2031 18.75H42.6357C42.7519 18.0785 42.811 17.3983 42.8125 16.7168ZM29.9157 2.87783C29.9676 2.72224 30.0672 2.58693 30.2003 2.49107C30.3333 2.39521 30.4932 2.34367 30.6572 2.34375H39.3426C39.5066 2.34365 39.6665 2.39518 39.7996 2.49104C39.9327 2.5869 40.0323 2.72223 40.0842 2.87783L42.2501 9.37559C39.8704 8.84363 37.4384 8.58137 35 8.59375C32.5616 8.58136 30.1295 8.84362 27.7498 9.37559L29.9157 2.87783ZM24.0625 15.625C24.0625 15.3734 24.896 14.6777 27.1875 14.1022V14.8438H26.7969C26.3398 14.8445 25.8903 14.96 25.4894 15.1796C25.0886 15.3993 24.7493 15.716 24.5027 16.1009C24.1621 15.8633 24.0625 15.6852 24.0625 15.625ZM26.7969 16.4063H27.1875V16.7168C27.189 17.3983 27.2481 18.0785 27.3643 18.75H26.7969C26.4861 18.75 26.188 18.6265 25.9682 18.4068C25.7485 18.187 25.625 17.8889 25.625 17.5781C25.625 17.2673 25.7485 16.9693 25.9682 16.7495C26.188 16.5297 26.4861 16.4063 26.7969 16.4063ZM28.75 16.7168V13.7732C29.2512 13.6865 29.7995 13.6067 30.3987 13.5368C30.6045 13.5127 30.7923 13.4079 30.9207 13.2453C31.0492 13.0828 31.1079 12.8759 31.0838 12.6701C31.0734 12.5676 31.0425 12.4682 30.993 12.3779C30.9434 12.2875 30.8763 12.2081 30.7954 12.1442C30.7146 12.0803 30.6217 12.0333 30.5224 12.0059C30.4231 11.9786 30.3192 11.9715 30.2171 11.9851C27.3355 12.3207 22.5 13.2408 22.5 15.625C22.5 16.4083 23.0286 17.0947 24.0723 17.6703C24.0924 18.2493 24.2977 18.8065 24.6582 19.2601C22.3362 18.2574 20.9375 16.9531 20.9375 15.625C20.9375 13.0387 26.713 10.1563 35 10.1563C43.287 10.1563 49.0625 13.0387 49.0625 15.625C49.0625 16.9531 47.6636 18.2575 45.3418 19.2604C45.7023 18.8067 45.9077 18.2493 45.9277 17.6702C46.9717 17.0956 47.5 16.4086 47.5 15.625C47.5 12.941 41.0203 11.7188 35 11.7188C34.4629 11.7188 33.9334 11.7279 33.4147 11.747C33.3103 11.748 33.2073 11.7699 33.1116 11.8114C33.0158 11.8529 32.9294 11.9131 32.8573 11.9886C32.7853 12.064 32.7291 12.1532 32.692 12.2507C32.655 12.3482 32.6378 12.4522 32.6416 12.5564C32.6453 12.6607 32.67 12.7631 32.714 12.8577C32.758 12.9523 32.8205 13.0371 32.8978 13.1072C32.9751 13.1772 33.0657 13.2311 33.1641 13.2655C33.2626 13.3 33.367 13.3144 33.4711 13.3079C33.9716 13.2901 34.4812 13.2813 35 13.2813C37.5143 13.2813 39.594 13.4827 41.25 13.7723V16.7168C41.2538 18.8931 40.5738 21.0155 39.3061 22.7844C38.8164 23.4697 38.1703 24.0283 37.4213 24.4136C36.6724 24.799 35.8423 25 35 25C34.1577 25 33.3276 24.799 32.5787 24.4136C31.8297 24.0283 31.1836 23.4697 30.694 22.7844C29.4262 21.0155 28.7462 18.8931 28.75 16.7168ZM35 26.5625C36.0869 26.5617 37.1581 26.3025 38.125 25.8062V27.8885L37.9938 28.0854C37.6652 28.5782 37.22 28.9823 36.6977 29.2618C36.1755 29.5412 35.5923 29.6875 35 29.6875C34.4077 29.6875 33.8245 29.5412 33.3023 29.2618C32.78 28.9823 32.3348 28.5782 32.0063 28.0854L31.875 27.8885V25.8062C32.842 26.3025 33.9131 26.5617 35 26.5625ZM28.4658 29.5871L30.1114 36.7188H28.5902L27.0277 29.9467L28.4658 29.5871ZM27.9145 38.2812H42.0854L42.7549 47.6562H40.4688V40.625C40.4688 40.4178 40.3864 40.2191 40.2399 40.0726C40.0934 39.9261 39.8947 39.8438 39.6875 39.8438H34.9932C34.786 39.8438 34.5873 39.9261 34.4407 40.0726C34.2942 40.2191 34.2119 40.4178 34.2119 40.625C34.2119 40.8322 34.2942 41.0309 34.4407 41.1774C34.5873 41.3239 34.786 41.4062 34.9932 41.4062H38.9063V42.9688H31.0938V41.4062H31.875C32.0822 41.4062 32.2809 41.3239 32.4274 41.1774C32.5739 41.0309 32.6563 40.8322 32.6563 40.625C32.6563 40.4178 32.5739 40.2191 32.4274 40.0726C32.2809 39.9261 32.0822 39.8438 31.875 39.8438H30.3125C30.1053 39.8438 29.9066 39.9261 29.7601 40.0726C29.6136 40.2191 29.5313 40.4178 29.5313 40.625V47.6562H27.2449L27.9145 38.2812ZM31.0938 44.5312H38.9063V47.6562H31.0938V44.5312ZM19.375 44.5312H22.5V47.6562H19.375V44.5312ZM47.5 47.6562V44.5312H50.625V47.6562H47.5Z" fill="black"/>
<path d="M31.875 20.3125C31.875 21.1413 32.2042 21.9362 32.7903 22.5222C33.3763 23.1083 34.1712 23.4375 35 23.4375C35.8288 23.4375 36.6237 23.1083 37.2097 22.5222C37.7958 21.9362 38.125 21.1413 38.125 20.3125C38.125 20.1053 38.0427 19.9066 37.8962 19.7601C37.7497 19.6136 37.551 19.5312 37.3438 19.5312C37.1365 19.5312 36.9378 19.6136 36.7913 19.7601C36.6448 19.9066 36.5625 20.1053 36.5625 20.3125C36.5625 20.7269 36.3979 21.1243 36.1049 21.4174C35.8118 21.7104 35.4144 21.875 35 21.875C34.5856 21.875 34.1882 21.7104 33.8951 21.4174C33.6021 21.1243 33.4375 20.7269 33.4375 20.3125C33.4375 20.1053 33.3552 19.9066 33.2087 19.7601C33.0622 19.6136 32.8635 19.5312 32.6562 19.5312C32.449 19.5312 32.2503 19.6136 32.1038 19.7601C31.9573 19.9066 31.875 20.1053 31.875 20.3125Z" fill="black"/>
<path d="M31.875 17.1875C32.0822 17.1875 32.2809 17.1052 32.4274 16.9587C32.5739 16.8122 32.6562 16.6135 32.6562 16.4062V15.625C32.6562 15.4178 32.5739 15.2191 32.4274 15.0726C32.2809 14.9261 32.0822 14.8438 31.875 14.8438C31.6678 14.8438 31.4691 14.9261 31.3226 15.0726C31.1761 15.2191 31.0938 15.4178 31.0938 15.625V16.4062C31.0938 16.6135 31.1761 16.8122 31.3226 16.9587C31.4691 17.1052 31.6678 17.1875 31.875 17.1875Z" fill="black"/>
<path d="M38.125 17.1875C38.3322 17.1875 38.5309 17.1052 38.6774 16.9587C38.8239 16.8122 38.9062 16.6135 38.9062 16.4062V15.625C38.9062 15.4178 38.8239 15.2191 38.6774 15.0726C38.5309 14.9261 38.3322 14.8438 38.125 14.8438C37.9178 14.8438 37.7191 14.9261 37.5726 15.0726C37.4261 15.2191 37.3438 15.4178 37.3438 15.625V16.4062C37.3438 16.6135 37.4261 16.8122 37.5726 16.9587C37.7191 17.1052 37.9178 17.1875 38.125 17.1875Z" fill="black"/>
</svg>
