<svg width="50" height="50" viewBox="0 0 50 50" fill="none" xmlns="../../../../../external.html?link=http://www.w3.org/2000/svg">
<g clip-path="url(#clip0_1180_32553)">
<path d="M12.0312 5.78124L10.625 11.4062L6.48437 12.9687L1.71874 9.60937C0.937493 9.06249 0.703118 7.96874 1.32812 7.18749C1.87499 6.40624 2.96874 6.17187 3.74999 6.71874L4.99999 7.65624L4.21874 5.62499C3.90624 4.68749 4.37499 3.74999 5.23437 3.35937C6.17187 3.04687 7.10937 3.43749 7.49999 4.37499L8.28124 6.40624L8.67187 4.92187C8.90624 3.98437 9.84374 3.43749 10.7812 3.67187C11.7187 3.90624 12.2656 4.84374 12.0312 5.78124Z" fill="#80D34A"/>
<path d="M6.4844 13.9063C6.25003 13.9063 6.09378 13.8281 5.93753 13.75L1.1719 10.3906C-0.0780986 9.53126 -0.312474 7.81251 0.546901 6.64064C1.1719 5.78126 2.18753 5.39064 3.28128 5.54689C3.0469 5.00001 3.12503 4.37501 3.3594 3.90626C3.6719 3.28126 4.21878 2.73439 4.84378 2.50001C5.5469 2.26564 6.25003 2.26564 6.95315 2.57814C7.50003 2.81251 7.89065 3.20314 8.20315 3.67189C8.43753 3.43751 8.6719 3.20314 8.9844 3.04689C9.6094 2.65626 10.3125 2.57814 11.0157 2.73439C11.7188 2.89064 12.2657 3.35939 12.6563 3.98439C13.0469 4.60939 13.125 5.31251 12.9688 6.01564L11.5625 11.6406C11.4844 11.9531 11.25 12.1875 10.9375 12.3438L6.7969 13.9063C6.71878 13.9063 6.56253 13.9063 6.4844 13.9063ZM2.7344 7.42189C2.65628 7.42189 2.65628 7.42189 2.57815 7.42189C2.34378 7.50001 2.18753 7.57814 2.1094 7.73439C1.87503 8.12501 1.95315 8.59376 2.26565 8.82814L6.56253 11.875L9.76565 10.7031L11.0938 5.54689C11.1719 5.31251 11.0938 5.15626 11.0157 4.92189C10.9375 4.76564 10.7032 4.68751 10.5469 4.60939C10.3125 4.53126 10.1563 4.60939 9.9219 4.68751C9.76565 4.76564 9.6094 5.00001 9.53128 5.15626L9.14065 6.64064C9.06253 7.03126 8.6719 7.34376 8.28128 7.34376C7.81253 7.34376 7.50003 7.10939 7.34378 6.71876L6.56253 4.68751C6.4844 4.53126 6.40628 4.37501 6.1719 4.29689C6.01565 4.21876 5.78128 4.21876 5.5469 4.29689C5.39065 4.37501 5.2344 4.53126 5.15628 4.68751C5.07815 4.84376 5.07815 5.07814 5.15628 5.31251L5.93753 7.34376C6.09378 7.73439 5.93753 8.20314 5.62503 8.43751C5.31253 8.67189 4.84378 8.67189 4.45315 8.43751L3.12503 7.57814C3.0469 7.42189 2.89065 7.42189 2.7344 7.42189Z" fill="#0E0E0F"/>
<path d="M16.3281 33.2031C15.625 33.4375 14.8437 33.2031 14.375 32.5781L4.99995 18.9844C3.35933 16.6406 4.37495 13.4375 7.0312 12.4219L9.76558 11.4062C12.4218 10.3906 15.3125 12.1875 15.625 15L17.4218 31.4844C17.5 32.1875 17.0312 32.8906 16.3281 33.2031Z" fill="#F48F42"/>
<path d="M15.7031 34.2188C14.8438 34.2188 14.0625 33.8282 13.5156 33.0469L4.14063 19.4532C3.20312 18.125 2.96875 16.4063 3.4375 14.8438C3.90625 13.2813 5.07813 12.0313 6.64062 11.4844L9.375 10.4688C10.9375 9.92192 12.5781 10.0782 13.9844 10.9375C15.3906 11.7969 16.3281 13.2813 16.4844 14.9219L18.2812 31.4063C18.4375 32.5782 17.7344 33.75 16.5625 34.1407C16.3281 34.2188 16.0156 34.2188 15.7031 34.2188ZM11.3281 12.0313C10.9375 12.0313 10.5469 12.1094 10.1562 12.2657L7.34375 13.2813C6.32812 13.6719 5.625 14.4532 5.3125 15.4688C5 16.4844 5.15625 17.5782 5.78125 18.4375L15.1562 32.0313C15.3125 32.2657 15.7031 32.4219 15.9375 32.2657C16.25 32.1875 16.4062 31.875 16.4062 31.5625L14.6094 15.0782C14.5312 14.0625 13.9062 13.125 13.0469 12.5782C12.5 12.2657 11.9531 12.0313 11.3281 12.0313Z" fill="#0E0E0F"/>
<path d="M4.84386 19.6876C4.45324 19.6876 4.06261 19.4532 3.90636 19.0626C3.75011 18.5938 3.98449 18.0469 4.45324 17.8125L7.57824 16.6407C8.04699 16.4844 8.59386 16.7188 8.82824 17.1876C8.98449 17.6563 8.75011 18.2032 8.28136 18.4376L5.15636 19.6094C5.07824 19.6876 4.92199 19.6876 4.84386 19.6876Z" fill="#0E0E0F"/>
<path d="M19.6094 27.1875C23.8378 27.1875 27.2656 23.8996 27.2656 19.8437C27.2656 15.7879 23.8378 12.5 19.6094 12.5C15.3809 12.5 11.9531 15.7879 11.9531 19.8437C11.9531 23.8996 15.3809 27.1875 19.6094 27.1875Z" fill="#EF3A3A"/>
<path d="M19.6094 28.125C19.0625 28.125 18.6719 27.6562 18.6719 27.1875C18.6719 26.7187 19.0625 26.25 19.6094 26.25C19.9219 26.25 21.6406 26.1719 23.2031 25.4687C25.3125 24.4531 26.3281 22.5781 26.3281 19.9219C26.3281 17.2656 25.2344 15.3906 23.2031 14.375C21.6406 13.5937 19.9219 13.5937 19.6094 13.5937C18.5156 13.5937 13.2031 13.9062 12.8906 19.375C12.8906 19.9219 12.4219 20.3125 11.875 20.3125C11.3281 20.3125 10.9375 19.8438 10.9375 19.2969C11.4062 11.875 18.75 11.7188 19.5312 11.7188C20.0781 11.7188 22.0312 11.7969 23.9844 12.7344C25.9375 13.6719 28.2031 15.7031 28.2031 20C28.2031 24.2969 25.9375 26.3281 23.9844 27.2656C22.1094 28.0469 20.1562 28.125 19.6094 28.125Z" fill="#0E0E0F"/>
<path d="M19.6094 13.5156C19.0625 13.5156 18.6719 13.0469 18.6719 12.5781V8.59375C18.6719 8.04687 19.1406 7.65625 19.6094 7.65625C20.0781 7.65625 20.5469 8.125 20.5469 8.59375V12.5781C20.5469 13.125 20.1563 13.5156 19.6094 13.5156Z" fill="#0E0E0F"/>
<path d="M19.6094 13.5156C19.375 13.5156 19.1406 13.4375 18.9063 13.2031L15.8594 10.0781C15.4688 9.6875 15.4688 9.0625 15.8594 8.75C16.25 8.35938 16.875 8.35938 17.1875 8.75L20.2344 11.875C20.625 12.2656 20.625 12.8906 20.2344 13.2031C20.0781 13.4375 19.8438 13.5156 19.6094 13.5156Z" fill="#0E0E0F"/>
<path d="M19.6094 13.5156C19.375 13.5156 19.1406 13.4375 18.9063 13.2812C18.5156 12.8906 18.5156 12.2656 18.9063 11.9531L21.9531 8.82812C22.3438 8.4375 22.9687 8.4375 23.2812 8.82812C23.6719 9.21875 23.6719 9.84375 23.2812 10.1562L20.2344 13.2812C20.0781 13.4375 19.8437 13.5156 19.6094 13.5156Z" fill="#0E0E0F"/>
<path d="M44.1407 19.2969C44.6876 18.75 45.1563 18.125 45.4688 17.4219C46.3282 15.0781 45.3126 12.5781 43.2032 11.4063V11.3281C44.1407 8.75002 42.8907 5.93752 40.3126 4.92189C37.7345 3.98439 34.922 5.23439 33.9063 7.81252V7.89064C31.5626 7.42189 29.1407 8.67189 28.2813 11.0156C27.9688 11.7969 27.9688 12.5781 28.047 13.2813C26.172 13.4375 24.4532 14.6094 23.7501 16.4844C22.8126 19.0625 24.0626 21.875 26.6407 22.8906L38.9845 27.5C41.5626 28.4375 44.3751 27.1875 45.3907 24.6094C45.9376 22.7344 45.4688 20.7031 44.1407 19.2969Z" fill="#80D34A"/>
<path d="M40.6251 28.75C39.922 28.75 39.2188 28.5938 38.5157 28.3594L26.172 23.75C23.1251 22.5781 21.5626 19.2188 22.7345 16.0938C23.5157 13.9063 25.547 12.4219 27.8907 12.2656C28.4376 12.2656 28.9063 12.6563 28.9063 13.125C28.9063 13.5938 28.5157 14.1406 28.047 14.1406C26.4845 14.2188 25.0782 15.2344 24.5313 16.7188C23.7501 18.75 24.8438 21.0938 26.8751 21.875L39.2188 26.5625C40.2345 26.9531 41.3282 26.875 42.2657 26.4844C43.2032 26.0156 43.9845 25.2344 44.3751 24.2188C44.922 22.7344 44.5313 21.0938 43.4376 20C43.2813 19.8438 43.1251 19.5313 43.1251 19.2969C43.1251 19.0625 43.2813 18.75 43.4376 18.5938C43.9063 18.125 44.297 17.6563 44.5313 17.0313C45.2345 15.1563 44.4532 13.125 42.7345 12.1875C42.3438 11.9531 42.1095 11.4063 42.3438 11.0156C42.7345 10 42.7345 8.90626 42.2657 7.89064C41.797 6.87501 41.0157 6.17189 40.0001 5.78126C37.9688 5.00001 35.6251 6.09376 34.8438 8.12501C34.6876 8.59376 34.2188 8.90626 33.7501 8.82814C33.1251 8.67189 32.5001 8.75001 31.8751 8.90626C31.3282 9.06251 30.8595 8.75001 30.7032 8.20314C30.4688 7.73439 30.7813 7.18751 31.2501 7.03126C31.8751 6.87501 32.5782 6.79689 33.2813 6.79689C34.6876 4.14064 37.8126 2.89064 40.6251 3.98439C42.1095 4.53126 43.2813 5.62501 43.9063 7.10939C44.4532 8.35939 44.6095 9.68751 44.297 10.9375C46.4063 12.5 47.1876 15.2344 46.3282 17.7344C46.0938 18.2813 45.7813 18.8281 45.3907 19.2969C46.5626 20.8594 46.8751 22.9688 46.172 24.8438C45.6251 26.3281 44.5313 27.5 43.047 28.125C42.2657 28.5938 41.4845 28.75 40.6251 28.75Z" fill="#0E0E0F"/>
<path d="M32.7345 26.1719C32.6564 26.1719 32.5001 26.1719 32.422 26.0937C31.9532 25.9375 31.6407 25.3906 31.8751 24.8437L36.3282 12.9687C36.4845 12.5 37.1095 12.1875 37.5782 12.4219C38.047 12.5781 38.3595 13.125 38.1251 13.6719L33.5939 25.5469C33.4376 25.9375 33.1251 26.1719 32.7345 26.1719Z" fill="#0E0E0F"/>
<path d="M35.1564 19.6094C34.7658 19.6094 34.4533 19.375 34.297 19.0625L32.5001 15.2344C32.2658 14.7657 32.5002 14.2188 32.9689 13.9844C33.4377 13.75 33.9845 13.9844 34.2189 14.4532L36.0158 18.2813C36.2501 18.75 36.0158 19.2969 35.547 19.5313C35.4689 19.6094 35.3127 19.6094 35.1564 19.6094Z" fill="#0E0E0F"/>
<path d="M35.1564 19.6094C34.7658 19.6094 34.4533 19.375 34.297 19.0625C34.0626 18.5938 34.297 18.0469 34.7658 17.8125L38.5939 16.0938C39.0626 15.8594 39.6095 16.0938 39.8439 16.5625C40.0783 17.0313 39.8439 17.5782 39.3751 17.8125L35.547 19.5313C35.4689 19.6094 35.3126 19.6094 35.1564 19.6094Z" fill="#0E0E0F"/>
<path d="M45.5469 27.3438H5.3125V38.5156C5.3125 44.1406 9.92187 48.75 15.5469 48.75H35.3125C40.9375 48.75 45.5469 44.1406 45.5469 38.5156V27.3438Z" fill="#BF5230"/>
<path d="M35.3125 49.6875H15.5469C9.375 49.6875 4.375 44.6875 4.375 38.5156V27.3438C4.375 26.7969 4.84375 26.4062 5.3125 26.4062H45.5469C46.0938 26.4062 46.4844 26.875 46.4844 27.3438C46.4844 27.8125 46.0156 28.2813 45.5469 28.2813H6.25V38.4375C6.25 43.5156 10.3906 47.7344 15.5469 47.7344H35.3125C40.3906 47.7344 44.6094 43.5938 44.6094 38.4375V32.5781C44.6094 32.0313 45.0781 31.6406 45.5469 31.6406C46.0156 31.6406 46.4844 32.1094 46.4844 32.5781V38.4375C46.5625 44.6094 41.4844 49.6875 35.3125 49.6875Z" fill="#0E0E0F"/>
<path d="M16.5625 34.2969H13.2812C12.7344 34.2969 12.3438 33.8281 12.3438 33.3594C12.3438 32.8906 12.8125 32.4219 13.2812 32.4219H16.5625C17.1094 32.4219 17.5 32.8906 17.5 33.3594C17.5 33.8281 17.1094 34.2969 16.5625 34.2969ZM28.0469 33.2812C28.0469 32.7344 27.5781 32.3438 27.1094 32.3438H23.8281C23.2812 32.3438 22.8906 32.8125 22.8906 33.2812C22.8906 33.75 23.3594 34.2187 23.8281 34.2187H27.1094C27.6563 34.2969 28.0469 33.8281 28.0469 33.2812ZM38.5938 33.2812C38.5938 32.7344 38.125 32.3438 37.6563 32.3438H34.375C33.8281 32.3438 33.4375 32.8125 33.4375 33.2812C33.4375 33.75 33.9062 34.2187 34.375 34.2187H37.6563C38.125 34.2969 38.5938 33.8281 38.5938 33.2812ZM17.5781 38.0469C17.5781 37.5 17.1094 37.1094 16.6406 37.1094H13.2812C12.7344 37.1094 12.3438 37.5781 12.3438 38.0469C12.3438 38.5156 12.8125 38.9844 13.2812 38.9844H16.5625C17.1094 38.9844 17.5781 38.5156 17.5781 38.0469ZM28.0469 38.0469C28.0469 37.5 27.5781 37.1094 27.1094 37.1094H23.8281C23.2812 37.1094 22.8906 37.5781 22.8906 38.0469C22.8906 38.5156 23.3594 38.9844 23.8281 38.9844H27.1094C27.6563 38.9844 28.0469 38.5156 28.0469 38.0469ZM38.5938 38.0469C38.5938 37.5 38.125 37.1094 37.6563 37.1094H34.375C33.8281 37.1094 33.4375 37.5781 33.4375 38.0469C33.4375 38.5156 33.9062 38.9844 34.375 38.9844H37.6563C38.125 38.9844 38.5938 38.5156 38.5938 38.0469ZM17.5781 42.7344C17.5781 42.1875 17.1094 41.7969 16.6406 41.7969H13.2812C12.7344 41.7969 12.3438 42.2656 12.3438 42.7344C12.3438 43.2031 12.8125 43.6719 13.2812 43.6719H16.5625C17.1094 43.6719 17.5781 43.2812 17.5781 42.7344ZM28.0469 42.7344C28.0469 42.1875 27.5781 41.7969 27.1094 41.7969H23.8281C23.2812 41.7969 22.8906 42.2656 22.8906 42.7344C22.8906 43.2031 23.3594 43.6719 23.8281 43.6719H27.1094C27.6563 43.6719 28.0469 43.2812 28.0469 42.7344ZM38.5938 42.7344C38.5938 42.1875 38.125 41.7969 37.6563 41.7969H34.375C33.8281 41.7969 33.4375 42.2656 33.4375 42.7344C33.4375 43.2031 33.9062 43.6719 34.375 43.6719H37.6563C38.125 43.6719 38.5938 43.2812 38.5938 42.7344Z" fill="#0E0E0F"/>
<path d="M46.25 28.5156H4.60938C3.04688 28.5156 1.875 27.2656 1.875 25.7812V25.5469C1.875 23.9844 3.125 22.8125 4.60938 22.8125H46.25C47.8125 22.8125 48.9844 24.0625 48.9844 25.5469V25.7812C49.0625 27.2656 47.8125 28.5156 46.25 28.5156Z" fill="#F2B583"/>
<path d="M46.25 29.5312H4.60938C2.57813 29.5312 0.859375 27.8906 0.859375 25.7813V25.5469C0.859375 23.5156 2.5 21.7969 4.60938 21.7969H46.25C48.2812 21.7969 50 23.4375 50 25.5469V25.7813C50 27.8125 48.3594 29.5312 46.25 29.5312ZM4.60938 23.75C3.59375 23.75 2.8125 24.5313 2.8125 25.5469V25.7813C2.8125 26.7969 3.59375 27.5781 4.60938 27.5781H46.25C47.2656 27.5781 48.0469 26.7969 48.0469 25.7813V25.5469C48.0469 24.5313 47.2656 23.75 46.25 23.75H4.60938Z" fill="#0E0E0F"/>
<path d="M22.5781 25.625V4.14063C22.5781 2.57813 23.8281 1.25 25.4687 1.25C27.0312 1.25 28.3594 2.5 28.3594 4.14063V25.625C28.2812 25.625 22.5781 25.625 22.5781 25.625Z" fill="#F2B583"/>
<path d="M28.3594 26.6406H22.5781C22.0312 26.6406 21.6406 26.1719 21.6406 25.7031V4.14062C21.6406 2.03125 23.3594 0.3125 25.4687 0.3125C27.5781 0.3125 29.2969 2.03125 29.2969 4.14062V25.625C29.2969 26.1719 28.8281 26.6406 28.3594 26.6406ZM23.5156 24.6875H27.3437V4.14062C27.3437 3.125 26.4844 2.26562 25.4687 2.26562C24.4531 2.26562 23.5938 3.125 23.5938 4.14062C23.5156 4.14062 23.5156 24.6875 23.5156 24.6875Z" fill="#0E0E0F"/>
<path d="M25.4687 28.5156C27.0652 28.5156 28.3594 27.2214 28.3594 25.625C28.3594 24.0286 27.0652 22.7344 25.4687 22.7344C23.8723 22.7344 22.5781 24.0286 22.5781 25.625C22.5781 27.2214 23.8723 28.5156 25.4687 28.5156Z" fill="#F4E995"/>
<path d="M25.4687 29.5312C23.3594 29.5312 21.6406 27.8125 21.6406 25.7031C21.6406 23.5938 23.3594 21.875 25.4687 21.875C27.5781 21.875 29.2969 23.5938 29.2969 25.7031C29.2969 27.8125 27.5781 29.5312 25.4687 29.5312ZM25.4687 23.75C24.4531 23.75 23.5938 24.6094 23.5938 25.625C23.5938 26.6406 24.4531 27.5 25.4687 27.5C26.5625 27.5 27.3437 26.6406 27.3437 25.625C27.3437 24.6094 26.4844 23.75 25.4687 23.75Z" fill="#0E0E0F"/>
</g>
<defs>
<clipPath id="clip0_1180_32553">
<rect width="50" height="50" fill="white"/>
</clipPath>
</defs>
</svg>
