<svg width="50" height="50" viewBox="0 0 50 50" fill="none" xmlns="../../../../../external.html?link=http://www.w3.org/2000/svg">
<g clip-path="url(#clip0_1151_88455)">
<path d="M22.3013 21.1065H42.4722L42.6991 20.5964C45.2619 13.3142 37.8235 9.87625 34.6982 11.939C33.8205 12.5182 32.1543 13.1458 31.1559 12.6389L31.1209 12.6199C30.7671 12.4224 30.394 12.1969 30.0033 11.939C26.8909 9.88485 19.5012 13.2858 21.971 20.5059C21.971 20.5059 22.0763 20.7394 22.3013 21.1065Z" fill="#FB5657"/>
<path d="M25.0254 48.9637C30.8449 48.9637 35.5625 44.2461 35.5625 38.4266C35.5625 32.6072 30.8449 27.8895 25.0254 27.8895C19.2059 27.8895 14.4883 32.6072 14.4883 38.4266C14.4883 44.2461 19.2059 48.9637 25.0254 48.9637Z" fill="#D8F68B"/>
<path d="M32.467 30.9669C34.3792 32.8744 35.5624 35.5123 35.5624 38.4267C35.5624 44.2461 30.8448 48.9638 25.0253 48.9638C19.2058 48.9638 14.4882 44.2462 14.4882 38.4267C14.4882 35.5123 15.6714 32.8744 17.5836 30.9669H6.26514V48.386C6.26514 48.7096 6.52744 48.9719 6.85107 48.9719H43.1485C43.4722 48.9719 43.7345 48.7096 43.7345 48.386V30.9669H32.467Z" fill="#FFCEA3"/>
<path d="M29.0696 28.6944L24.9998 21.1066L20.9155 28.7213C22.1784 28.1859 23.5672 27.8897 25.0252 27.8897C26.4582 27.8897 27.8242 28.1762 29.0696 28.6944Z" fill="#EF8D51"/>
<path d="M24.692 44.1547C21.9965 39.1312 24.3015 36.4669 27.2038 35.0267C30.0996 33.5896 30.757 32.6987 30.757 32.6987C30.757 32.6987 32.6257 35.8779 31.4921 39.8664C30.2146 44.3612 24.692 44.1547 24.692 44.1547Z" fill="#93CF00"/>
<path d="M24.4408 3.7344C22.4677 5.34309 21.146 9.0636 20.9736 9.5675C21.3652 9.63118 21.5936 9.69075 21.5936 9.69075C21.5936 9.69075 21.9013 9.74143 22.3924 9.87981C23.3919 9.56985 23.9282 8.3052 23.9282 8.3052C25.8218 9.55022 26.9156 7.03205 26.9156 7.03205C26.9156 7.03205 29.077 7.91526 29.6401 5.51682C30.2033 3.11838 26.5596 2.00696 24.4408 3.7344Z" fill="#93CF00"/>
<path d="M22.3312 6.49396C22.1763 5.25499 21.874 3.89103 21.2913 2.88927C19.9167 0.526379 16.1149 0.283312 15.7973 2.72638C15.4797 5.16954 17.8137 5.10402 17.8137 5.10402C17.8137 5.10402 17.9506 7.8461 20.1613 7.34776C20.1613 7.34776 20.2179 8.7214 21.0452 9.36319C21.2269 8.85909 21.6752 7.69318 22.3312 6.49396Z" fill="#00B387"/>
<path d="M34.6979 11.9391C34.8135 11.8628 34.9357 11.7949 35.0623 11.7336C37.5075 10.0199 38.112 6.88577 37.6281 4.12561C37.6281 4.12561 33.0029 4.25061 31.9402 7.4385C30.878 10.6251 32.4413 12.7962 32.4426 12.798C33.2636 12.6945 34.14 12.3073 34.6978 11.9391H34.6979Z" fill="#93CF00"/>
<path d="M22.3012 21.1066C22.0763 20.7395 21.9709 20.506 21.9709 20.506C20.3825 15.8625 22.8721 12.7992 25.6792 11.7502C25.3819 11.2335 24.7947 10.7923 23.7797 10.3654C22.5479 9.84748 21.5935 9.69064 21.5935 9.69064C21.5935 9.69064 20.6577 9.44601 19.3217 9.41867C16.3706 9.35822 16.1846 10.6403 15.8656 13.2685C15.5997 15.4584 15.4891 19.0182 15.4912 20.2499C15.4917 20.5473 15.4979 20.832 15.5084 21.1066H22.3012Z" fill="#FFA300"/>
<path d="M15.8652 13.2686C16.0096 12.0793 16.1276 11.1667 16.486 10.5283C16.1086 9.27483 15.2032 9.36321 15.2032 9.36321C15.2032 9.36321 14.943 7.55754 12.9564 7.37903C11.511 7.24914 11.5558 9.60159 11.5558 9.60159C12.6546 11.1612 13.2171 13.0756 13.2171 13.0756C13.2171 13.0756 14.6624 13.1778 15.7178 14.797C15.7604 14.25 15.8093 13.7289 15.8652 13.2686Z" fill="#00B387"/>
<path d="M8.70107 20.4279C8.65781 20.6721 8.63886 20.8973 8.64013 21.1067H15.5085C15.4979 20.8322 15.4918 20.5474 15.4913 20.25C15.4896 19.2772 15.5584 16.8524 15.7183 14.797C14.6629 13.1778 13.2176 13.0756 13.2176 13.0756C13.2176 13.0756 11.1277 5.9593 7.13242 7.99045C3.13711 10.0215 7.4917 15.49 7.4917 15.49C7.4917 15.49 5.19052 18.09 8.70107 20.4279Z" fill="#93CF00"/>
<path d="M48.5605 30.104L43.7347 21.1066H25L29.0698 28.6944C30.3492 29.2267 31.5013 30.0034 32.4672 30.967H48.0442C48.4872 30.967 48.7699 30.4945 48.5606 30.1041L48.5605 30.104Z" fill="#FFCEA3"/>
<path d="M20.9159 28.7213L25.0002 21.1066H6.26552L1.43954 30.104C1.23017 30.4944 1.51298 30.9669 1.95585 30.9669H17.584C18.5334 30.0198 19.6626 29.2528 20.9159 28.7213Z" fill="#FFCEA3"/>
<path d="M25.9829 35.7407C23.0392 33.866 18.759 34.9354 18.759 34.9354C18.759 34.9354 17.34 41.704 24.692 44.1547C22.3906 39.8657 23.7346 37.2967 25.9829 35.7407Z" fill="#00B387"/>
<path d="M18.6169 34.4209C18.4031 34.4744 18.2303 34.6534 18.1855 34.8692C18.1697 34.944 17.808 36.7265 18.4045 38.8392C18.9567 40.7953 20.4605 43.4079 24.4854 44.757C25.2498 44.8497 26.162 44.7854 27.7971 44.3062C29.9996 43.5766 31.4699 42.1205 32.0509 40.0954C32.0518 40.0926 32.0526 40.09 32.0534 40.0872C32.0541 40.0849 32.0549 40.0828 32.0556 40.0804C33.244 35.899 31.3434 32.5942 31.2619 32.4556C31.26 32.4524 31.2576 32.4496 31.2557 32.4463C31.2489 32.4354 31.2417 32.4247 31.2343 32.4143C31.1299 32.2645 30.9666 32.1643 30.7827 32.1581C30.5869 32.1527 30.4018 32.2374 30.2884 32.4002C30.2332 32.4654 29.509 33.2826 26.9431 34.5558C26.5951 34.7285 26.2705 34.9117 25.9668 35.104C22.8771 33.3865 18.7951 34.3764 18.6168 34.421L18.6169 34.4209ZM23.3113 38.0722C23.2825 38.0519 23.2541 38.0321 23.225 38.0112V35.4041C23.7941 35.4985 24.3679 35.6527 24.9114 35.8895C24.1778 36.5348 23.6428 37.264 23.3113 38.0721V38.0722ZM22.0531 35.2845V37.1088C21.3072 36.5026 20.5745 35.8569 20.0329 35.3673C20.5823 35.3014 21.2879 35.2513 22.0531 35.2845ZM19.5449 38.5656C19.2892 37.6805 19.2296 36.8528 19.2368 36.2288C20.1935 37.0949 21.7455 38.4463 22.9801 39.2663C22.7991 40.4304 22.9846 41.7165 23.5346 43.11C21.4691 42.1105 20.1292 40.5869 19.5449 38.5656ZM27.4603 43.1832C26.9543 43.3534 26.4633 43.458 26.0394 43.5224C26.5899 42.8342 27.0877 42.1401 27.5371 41.4538C28.0591 41.4156 29.1595 41.2942 30.4413 40.9133C29.8284 41.9615 28.8304 42.7227 27.4603 43.1832ZM30.8558 34.5476C31.2101 35.725 31.4992 37.4942 31.0013 39.4854C29.9961 39.8733 29.0295 40.0776 28.3213 40.1841C29.6195 37.9538 30.4122 35.9059 30.8557 34.5476H30.8558ZM27.464 35.6055C28.4112 35.1355 29.1296 34.7194 29.6727 34.3671C28.9837 36.4036 27.5205 39.9111 24.8256 43.1559C24.0768 41.4986 23.8923 40.0437 24.2815 38.8237C24.5911 37.8534 25.2723 37.0011 26.3119 36.2796C26.3138 36.2784 26.3157 36.2772 26.3176 36.2758C26.6609 36.038 27.043 35.8143 27.464 35.6054V35.6055Z" fill="black"/>
<path d="M43.8877 12.202C44.0376 12.202 44.1876 12.1448 44.302 12.0304L44.9943 11.338C45.2232 11.1092 45.2232 10.7382 44.9943 10.5094C44.7656 10.2806 44.3944 10.2806 44.1658 10.5094L43.4734 11.2018C43.2445 11.4306 43.2445 11.8016 43.4734 12.0304C43.5878 12.1448 43.7378 12.202 43.8877 12.202Z" fill="black"/>
<path d="M41.8701 11.3662C42.1937 11.3662 42.4561 11.1038 42.4561 10.7803V9.80121C42.4561 9.47767 42.1937 9.21527 41.8701 9.21527C41.5466 9.21527 41.2842 9.47767 41.2842 9.80121V10.7803C41.2842 11.1038 41.5466 11.3662 41.8701 11.3662Z" fill="black"/>
<path d="M44.1885 13.6845C44.1885 14.008 44.4509 14.2704 44.7744 14.2704H45.7535C46.0771 14.2704 46.3395 14.008 46.3395 13.6845C46.3395 13.361 46.0771 13.0986 45.7535 13.0986H44.7744C44.4509 13.0986 44.1885 13.361 44.1885 13.6845Z" fill="black"/>
<path d="M41.7402 14.1951C42.0638 14.1951 42.3262 13.9328 42.3262 13.6092C42.3262 13.2856 42.0638 13.0233 41.7402 13.0233C41.4166 13.0233 41.1543 13.2856 41.1543 13.6092C41.1543 13.9328 41.4166 14.1951 41.7402 14.1951Z" fill="black"/>
<path d="M49.0768 29.8064L44.2509 20.8089C44.1488 20.6187 43.9505 20.4999 43.7346 20.4999H43.3417C43.9436 18.6434 43.9717 16.9135 43.4216 15.355C43.3138 15.0499 42.9793 14.8898 42.674 14.9975C42.3689 15.1052 42.2088 15.4399 42.3165 15.745C42.8086 17.1352 42.7503 18.8159 42.0913 20.4999H22.6373C21.4469 17.6534 22.1359 14.8038 24.2597 13.1815C25.9616 11.8647 28.3427 11.5244 29.6803 12.4074C30.0623 12.6596 30.4484 12.8948 30.8328 13.1095C30.8336 13.11 30.8343 13.1105 30.8351 13.111C33.4151 14.5505 35.06 14.5671 35.1287 14.5671C35.4508 14.5671 35.7106 14.3072 35.7126 13.9851C35.7148 13.663 35.4545 13.3995 35.1325 13.3952C35.1239 13.3951 34.5864 13.3821 33.6494 13.0819C34.2062 12.8823 34.6962 12.6216 35.0205 12.4075C36.1598 11.6555 38.0896 11.7746 39.7132 12.697C39.9946 12.857 40.3523 12.7582 40.5121 12.477C40.672 12.1957 40.5735 11.838 40.2921 11.6782C39.1954 11.0552 37.9947 10.7412 36.8833 10.7431C37.4188 10.0252 37.8303 9.15647 38.0693 8.23811C38.4139 6.93392 38.4621 5.48069 38.2074 4.01731C38.1669 3.7305 37.9002 3.51263 37.6122 3.51917C37.4067 3.52474 32.5632 3.69602 31.3844 7.23255C30.6732 9.36624 31.0474 11.0885 31.4473 12.1072C31.0715 11.9081 30.7014 11.6741 30.3258 11.4293C29.1668 10.6644 27.505 10.5579 25.903 11.041C25.4996 10.574 24.8847 10.174 24.0068 9.80481C23.901 9.76038 23.7982 9.71927 23.6967 9.67981C23.8921 9.47308 24.0504 9.25647 24.1712 9.06595C24.734 9.27854 25.2111 9.22923 25.5427 9.1303C26.3682 8.88431 26.9212 8.17688 27.2129 7.69817C27.6502 7.7806 28.2992 7.81321 28.9079 7.49925C29.5599 7.16311 29.9981 6.53421 30.2104 5.63011C30.4693 4.52737 30.0266 3.49563 29.0261 2.87015C27.7974 2.10198 25.6428 1.97747 24.0703 3.2596C23.5453 3.68763 23.0675 4.24563 22.6424 4.8512C22.4326 3.94329 22.1505 3.1802 21.7979 2.57395C20.7776 0.820048 18.7171 0.177665 17.2967 0.464189C16.14 0.697196 15.3622 1.50696 15.2162 2.6302C15.0965 3.5511 15.2852 4.29407 15.777 4.83831C16.2362 5.34661 16.8551 5.54466 17.2933 5.62151C17.3977 6.1722 17.666 7.02903 18.3521 7.55003C18.627 7.75931 19.0589 7.97395 19.6585 7.97288C19.7117 8.22893 19.7996 8.53528 19.9421 8.83997C19.6935 8.82269 19.4045 8.81028 19.1398 8.81028C17.9458 8.81028 17.1531 9.04837 16.6114 9.46927C16.3248 9.10345 15.98 8.90833 15.6742 8.81858C15.3973 8.00745 14.625 6.92005 13.009 6.77483C12.5299 6.73226 12.0999 6.87474 11.7636 7.18802C11.4679 7.46341 11.2822 7.84036 11.1654 8.21468C10.7683 7.82747 10.3252 7.50364 9.83537 7.29222C8.87941 6.87962 7.88048 6.93196 6.86662 7.44739C5.81476 7.98206 5.16808 8.77522 4.94425 9.80472C4.47345 11.9714 6.10138 14.541 6.76623 15.4758C6.46564 15.9542 6.05548 16.8264 6.19191 17.8746C6.31798 18.8437 6.87082 19.7244 7.83615 20.4999H6.26515C6.04923 20.4999 5.85089 20.6187 5.74884 20.8089L0.922768 29.8065C0.726186 30.1731 0.736343 30.6051 0.950014 30.962C1.16369 31.3191 1.53947 31.5322 1.95548 31.5322H5.67921V48.4297C5.67921 49.0759 6.2049 49.6016 6.85109 49.6016H43.1486C43.7948 49.6016 44.3205 49.0759 44.3205 48.4297V31.5322H48.0442C48.4602 31.5322 48.836 31.3191 49.0496 30.962C49.2633 30.6051 49.2735 30.1731 49.0768 29.8064ZM34.375 11.4293C34.0634 11.635 33.6915 11.8194 33.311 11.9588C33.5084 11.3925 33.8112 10.6157 34.2411 9.73645L36.5536 9.02308C36.075 10.038 35.352 10.9039 34.375 11.4293ZM37.0153 7.65423L35.0383 8.26409C35.2165 7.96565 35.4074 7.66331 35.6134 7.35979C36.1001 6.64231 36.6274 5.97903 37.1866 5.37513C37.2322 6.17913 37.1735 6.94495 37.0153 7.65423ZM32.4962 7.60306C33.0364 5.98216 34.7073 5.26106 36.0007 4.94163C35.5224 5.48899 35.0681 6.0763 34.6437 6.70188C33.5016 8.38528 32.7765 10.0186 32.3557 11.1449C32.1218 10.2973 32.0053 9.07571 32.4961 7.60306H32.4962ZM24.4096 27.3759C23.6112 27.42 22.8348 27.5473 22.0895 27.7515L24.4096 23.4258V27.3759ZM25.5815 23.4098L27.9015 27.7353C27.1559 27.5355 26.3795 27.4125 25.5815 27.3728V23.4098ZM22.8294 6.78108C22.8407 6.76272 22.8509 6.74358 22.8602 6.72405C23.389 5.76018 24.0521 4.78626 24.8107 4.1677C25.9193 3.2639 27.5084 3.30335 28.4048 3.8636C28.8092 4.11643 29.2528 4.58157 29.0695 5.36204C28.9399 5.91409 28.7067 6.28167 28.3764 6.45462C27.8353 6.73802 27.1406 6.47015 27.137 6.46878C26.8434 6.34886 26.5069 6.48597 26.3786 6.77601C26.2534 7.0594 25.7985 7.83304 25.2051 8.00784C24.9119 8.09427 24.5994 8.02454 24.2497 7.79466C24.1051 7.69944 23.9256 7.67415 23.7594 7.72376C23.5936 7.77337 23.4577 7.89476 23.3891 8.05374C23.2766 8.31438 22.8874 8.99095 22.3591 9.24251C22.0732 9.16731 21.8639 9.12415 21.7604 9.10462C21.9827 8.53265 22.349 7.66477 22.8293 6.78089L22.8294 6.78108ZM19.0633 6.61839C18.5694 6.24573 18.4162 5.36145 18.3988 5.05393C18.3831 4.73567 18.1121 4.49026 17.7973 4.49749C17.7903 4.49729 17.0493 4.49817 16.6465 4.05237C16.3951 3.77415 16.3049 3.34642 16.3784 2.78099C16.4818 1.98597 17.0607 1.70686 17.5281 1.61272C18.5643 1.40384 20.0656 1.92679 20.7849 3.16302C21.2232 3.91634 21.539 4.99134 21.7249 6.35862C21.3937 6.97923 21.1186 7.58186 20.9051 8.09026C20.7976 7.77259 20.7544 7.46087 20.7468 7.30276C20.7397 7.12913 20.6557 6.96751 20.5177 6.86185C20.3798 6.75608 20.2018 6.71722 20.0324 6.7553C19.6242 6.84729 19.3071 6.80247 19.0632 6.61839H19.0633ZM16.1025 18.757C16.7036 18.7494 17.6944 18.7547 18.5209 18.8443C18.5424 18.8466 18.5637 18.8478 18.5848 18.8478C18.88 18.8478 19.134 18.6252 19.1665 18.3249C19.2014 18.0033 18.969 17.7142 18.6472 17.6793C17.7801 17.5853 16.7775 17.577 16.1433 17.5841C16.201 16.1738 16.2988 14.5376 16.4469 13.3184C16.4633 13.1831 16.4791 13.054 16.4946 12.9284C17.279 12.9156 18.813 12.9178 19.6799 13.1019C19.9883 13.1699 20.3088 12.9691 20.3747 12.6504C20.4419 12.3339 20.2399 12.0228 19.9233 11.9555C19.0101 11.7616 17.5425 11.744 16.6708 11.7535C16.7565 11.3279 16.8474 11.036 17.0254 10.736C17.3867 10.1613 18.0238 9.95726 19.3093 9.98372C20.6086 10.0137 21.4221 10.2357 21.4974 10.248C21.5064 10.2494 22.407 10.4033 23.5523 10.8849C24.0434 11.0914 24.4265 11.3019 24.7083 11.5201C24.3022 11.7256 23.9098 11.9702 23.5424 12.2546C22.4063 13.1336 21.5916 14.3032 21.1868 15.6365C20.7358 17.1222 20.795 18.7578 21.3594 20.4999H16.0798C16.072 19.9606 16.0815 19.5623 16.1024 18.7571L16.1025 18.757ZM12.563 8.04475C12.6279 7.9845 12.7188 7.92483 12.9041 7.94183C14.3634 8.07288 14.6018 9.29202 14.6234 9.42591C14.6458 9.58235 14.71 9.72571 14.8376 9.81868C14.9628 9.90999 15.0989 9.95013 15.2515 9.92688C15.3372 9.92845 15.6379 9.97239 15.8503 10.4703C15.5061 11.2306 15.3867 12.3129 15.2601 13.3786C14.9264 13.0998 14.5959 12.9054 14.3019 12.7713C14.0891 12.6713 13.8358 12.5874 13.6686 12.545C13.4586 11.929 12.9536 10.6047 12.1451 9.40735C12.1651 8.99446 12.2747 8.31224 12.563 8.04475ZM14.908 20.4998H14.1392L13.0573 18.4902L14.3676 14.1628C14.6153 14.3485 14.8748 14.5997 15.1184 14.9382C15.0392 16.0113 14.9843 17.1595 14.9501 18.139C14.9492 18.1501 14.9491 18.1615 14.9489 18.1728C14.9181 19.0655 14.9044 19.8145 14.9051 20.2302C14.9053 20.3199 14.9069 20.4099 14.9081 20.4997L14.908 20.4998ZM9.36974 8.36741C10.0523 8.65784 10.648 9.2888 11.1173 9.96809C12.1105 11.4063 12.6474 13.1935 12.6552 13.2198C12.7241 13.4546 12.9259 13.6214 13.1701 13.6387C13.1788 13.6395 13.2236 13.6442 13.2957 13.659L12.2737 17.0344L7.62003 8.38938C8.23341 8.13265 8.80812 8.12532 9.36974 8.36741ZM7.35548 17.7344C7.21486 16.6978 7.92511 15.8633 7.93029 15.8574C8.11867 15.6446 8.12687 15.3269 7.95011 15.1043C7.92687 15.075 5.63156 12.1534 6.08986 10.0517C6.1757 9.65804 6.35675 9.32122 6.63654 9.03479L12.8083 20.4997H9.27873C9.31505 20.2736 9.21671 20.0465 9.0256 19.9192C8.02355 19.2519 7.46164 18.5168 7.35539 17.7343L7.35548 17.7344ZM1.95548 30.3603L6.61583 21.6718H24.0207L20.4403 28.3471C19.3281 28.8523 18.3136 29.5359 17.4324 30.3603H1.95548ZM6.85109 48.4297V31.5322H16.3464C14.8181 33.4372 13.9023 35.8538 13.9023 38.4806C13.9023 42.8287 16.4105 46.6015 20.0557 48.4297H6.85109ZM24.8637 48.4297C19.4509 48.343 15.0741 43.9137 15.0741 38.4806C15.0741 32.9935 19.5382 28.5294 25.0252 28.5294C30.5122 28.5294 34.9763 32.9935 34.9763 38.4806C34.9763 43.9137 30.5995 48.343 25.1867 48.4297H24.8636H24.8637ZM43.1486 48.4297H29.9948C33.6401 46.6015 36.1483 42.8287 36.1483 38.4806C36.1483 35.8538 35.2324 33.4373 33.7041 31.5322H43.1486V48.4297ZM32.6181 30.3603C31.7194 29.5195 30.6818 28.8255 29.5435 28.3175L25.9789 21.6718H43.3839L48.0442 30.3603H32.6182H32.6181Z" fill="black"/>
</g>
<defs>
<clipPath id="clip0_1151_88455">
<rect width="50" height="50" fill="white"/>
</clipPath>
</defs>
</svg>
