<svg width="60" height="60" viewBox="0 0 60 60" fill="none" xmlns="../../../../../external.html?link=http://www.w3.org/2000/svg">
<g clip-path="url(#clip0_1151_89180)">
<path d="M41.1097 32.3721C46.51 28.6477 45.2397 19.3771 38.7728 17.595C38.3137 17.4682 36.4945 17.5373 36.2738 17.3276C35.9053 16.9779 35.6884 15.3016 35.4046 14.7806C34.5952 13.2938 33.3066 12.0972 31.7845 11.3634C28.6163 9.83629 24.7862 10.495 22.4264 13.1382C20.1531 10.061 16.1825 9.12766 12.7483 10.7829C11.2272 11.5163 9.91154 12.6964 9.05689 14.1562C8.61835 14.9051 8.30478 15.7232 8.13449 16.5742C7.92941 17.5982 8.19033 18.5352 8.11068 19.5322C8.05529 20.2212 8.21414 20.082 7.46111 20.3709C7.03356 20.5347 6.62203 20.7385 6.22972 20.9751C5.36225 21.4997 4.61014 22.1914 4.00314 23.0026C2.84133 24.5549 2.2412 26.5095 2.30483 28.4459C2.33413 29.3298 2.50075 30.2124 2.80654 31.0423C2.98553 31.528 3.21212 31.9968 3.48037 32.439C3.59344 32.6253 3.8681 32.9128 3.92761 33.0968C4.10019 33.6319 4.10889 33.208 3.84659 33.7184C3.35357 34.6779 2.45452 35.3732 2.01644 36.4362C1.57469 37.5074 1.35542 38.6586 1.36961 39.8177C1.38289 40.9054 1.59987 41.9907 2.02376 42.9937C2.22564 43.4716 2.55248 43.8877 2.76122 44.3528C2.93701 44.7451 3.08029 44.7002 2.98644 45.0376C2.94387 45.1914 2.28469 45.6762 2.1881 45.7797C0.748882 47.3242 -0.0151306 49.423 -2.43753e-05 51.526C0.0329348 56.0657 3.77197 59.877 8.37436 59.6372C10.4412 59.5296 12.4425 58.6173 13.8524 57.0975C14.0612 56.8727 14.6403 55.78 14.8833 55.7059C15.0816 55.645 16.1065 56.1755 16.3139 56.23C17.3988 56.5129 18.5317 56.5463 19.6345 56.3509C21.6839 55.9869 23.5644 54.8118 24.7871 53.1273C25.1227 52.6649 25.3131 52.0987 25.639 51.6459C25.7159 51.5397 25.7768 51.0907 25.8812 51.0362C25.9324 51.0092 26.6475 51.2454 26.7921 51.2738C27.9933 51.5095 29.2503 51.45 30.4277 51.1195C31.6765 50.7693 32.8337 50.1147 33.7804 49.2298C34.0404 48.9863 34.8259 47.7119 35.1116 47.6144C35.4338 47.5041 36.5014 47.9838 36.8772 48.0255C39.3633 48.3001 41.8929 47.3132 43.5999 45.499C47.3271 41.538 46.0549 34.6857 41.1097 32.3721ZM34.5087 23.968C34.798 23.6297 35.091 23.2292 35.2901 22.8295C35.3579 22.7114 35.4219 22.5915 35.4824 22.4693C35.7666 21.8993 35.9932 21.3065 36.1416 20.6858C36.3462 19.8321 36.1622 19.7066 37.0145 19.6339C37.8202 19.5652 38.7943 19.958 39.4727 20.3654C40.8231 21.1756 41.7052 22.5883 42.0532 24.1044C42.391 25.5789 42.2454 27.1998 41.5418 28.5498C41.1637 29.2749 40.6272 29.9107 39.9644 30.3918C39.7446 30.5516 37.7822 31.4928 37.7822 31.2859C37.7845 31.2474 37.7859 31.2085 37.7859 31.1691C37.7927 30.8935 37.7872 30.6074 37.7616 30.3323C37.7593 30.2907 37.7556 30.249 37.7511 30.2074C37.7511 30.2019 37.7501 30.1959 37.7501 30.189C37.4984 27.794 36.2871 25.5958 34.3027 24.2124C34.3714 24.131 34.44 24.0495 34.5087 23.968C34.5435 23.9273 34.4432 24.0509 34.5087 23.968C34.8049 23.6215 34.4432 24.0509 34.5087 23.968ZM34.3416 27.4461C34.3599 27.469 34.3764 27.491 34.3911 27.5143C34.6813 27.9213 34.9129 28.3685 35.0905 28.835C35.1111 28.8881 35.1308 28.9412 35.1482 28.9952C35.1574 29.0172 35.1642 29.0391 35.1711 29.0611C35.1839 29.0968 35.1954 29.1325 35.2059 29.1696C35.335 29.5441 35.3922 29.9414 35.448 30.3319C35.4535 30.3873 35.4595 30.4426 35.4627 30.4985C35.4663 30.525 35.4673 30.5516 35.4686 30.5781C35.4732 30.6312 35.4755 30.6843 35.4778 30.7374C35.4792 30.7498 35.4792 30.764 35.4792 30.7764C35.503 31.2772 35.4892 31.8846 35.3295 32.3648C35.3189 32.4101 35.3121 32.4541 35.3084 32.4989C34.4693 34.5177 33.1793 36.3117 30.9221 36.791C30.9207 36.791 30.9184 36.7923 30.9175 36.7923C29.5067 37.0935 27.8102 36.839 26.637 35.9578C26.5427 35.8965 26.4525 35.8319 26.3687 35.7674C26.3673 35.766 26.365 35.7646 26.3641 35.7637C23.9558 33.9331 23.5159 30.6312 24.9473 28.0485C26.431 25.3724 29.1272 24.5846 31.9232 25.5194C31.9846 25.545 32.0441 25.5725 32.1041 25.6004C32.1054 25.6004 32.1068 25.6004 32.1077 25.6013C32.1663 25.6292 32.2254 25.6567 32.283 25.6869C32.2931 25.6915 32.3036 25.6974 32.3142 25.702C32.4813 25.7876 32.6438 25.8819 32.8003 25.9845C32.9441 26.0774 33.0837 26.1763 33.2187 26.2815C33.3469 26.3804 33.4705 26.4857 33.5881 26.5965C33.6101 26.6148 33.6312 26.6345 33.6518 26.6555C33.8037 26.7874 34.2903 27.3747 34.3416 27.4461C34.3599 27.469 34.2748 27.3527 34.3416 27.4461ZM22.0373 28.7182C21.9632 28.9778 21.9032 29.241 21.856 29.5088C20.1907 29.5541 18.7176 28.8116 17.5663 27.6548C16.8485 26.8721 16.3532 25.9048 16.134 24.8579C15.0376 21.9964 17.6936 18.5178 20.3637 17.8472C20.0621 20.7742 21.4042 23.7684 23.8102 25.4686C22.9803 26.4047 22.366 27.5308 22.0314 28.7366C22.0781 28.5695 22.1266 28.4028 22.1724 28.2353C22.1275 28.3964 22.0822 28.5576 22.0373 28.7182C22.3756 27.5107 21.9632 28.9778 22.0373 28.7182ZM23.7471 36.4504H23.7457V36.4517C22.4173 37.3888 21.222 38.8454 20.7698 40.4334H20.7684C20.5789 40.3872 20.3921 40.3336 20.2072 40.2718C19.6771 40.0947 19.1039 40.0553 18.5482 40.0452C18.3257 40.0406 18.1033 40.0438 17.8808 40.0548C17.7087 40.0846 17.5361 40.0997 17.3626 40.0997C17.2212 40.1066 17.0824 40.1276 16.9465 40.1619C16.9373 40.1633 16.9268 40.1642 16.9177 40.1665C16.8586 40.1899 16.7982 40.2013 16.7368 40.2013C14.8183 39.153 13.5549 36.996 13.6638 34.8033V34.7882C13.6666 34.7278 13.6693 34.6674 13.6716 34.6069C13.6716 34.6001 13.6716 34.5932 13.673 34.5873C13.6753 34.5424 13.679 34.4985 13.6822 34.4545C13.6822 34.449 13.6835 34.4431 13.6835 34.4371C13.6982 34.2714 13.7124 34.054 13.7549 33.8832C13.7939 33.6607 13.8447 33.4424 13.9106 33.2263C13.9129 33.2195 13.9152 33.2112 13.9175 33.2044C13.9197 33.1906 13.9243 33.1778 13.9289 33.1641C14.0429 32.7594 14.2173 32.4129 14.4022 32.0421C14.4947 31.8741 14.5945 31.7116 14.7021 31.5536C15.0088 31.084 15.397 30.6628 15.8359 30.3136C15.9595 30.1836 16.0992 30.0796 16.2553 30.0018C16.3033 29.9684 16.3519 29.9364 16.4013 29.9061C16.4361 29.8833 16.4709 29.8622 16.5052 29.8416L16.5066 29.8425C17.9604 31.1183 19.8052 31.8192 21.7297 31.8192H21.764C21.8011 32.2659 21.8515 32.9141 22.0542 33.3211C22.0781 33.4058 22.1037 33.49 22.1316 33.5738C22.1339 33.5816 22.1376 33.5889 22.1399 33.5967C22.1678 33.6818 22.1971 33.7665 22.2273 33.8507C22.5729 34.8029 23.0879 35.68 23.7471 36.4504ZM23.3415 15.8248C23.3461 15.8143 23.3516 15.8037 23.3566 15.7937C23.3575 15.7914 23.3598 15.7877 23.3612 15.7854C26.1568 10.6694 34.0166 12.95 34.0789 18.6323C34.0789 18.6446 34.0789 18.6588 34.0802 18.6716V18.6886C34.0802 20.0495 33.6119 21.3615 32.7852 22.4336C32.7783 22.4418 32.7724 22.4496 32.7655 22.4578C32.5733 22.7014 32.3558 22.928 32.1274 23.1367C30.5742 22.6272 28.4456 22.5388 26.9409 23.2937C26.7235 23.3747 25.862 23.9263 25.6688 23.9158C25.3657 23.8993 24.8965 23.4045 24.6878 23.225C24.0121 22.6446 23.4697 21.9099 23.1167 21.0909C23.1131 21.0818 23.1099 21.0726 23.1053 21.0635C22.3967 19.3912 22.5679 17.2535 23.304 15.8935C23.2371 16.0175 23.2495 15.9942 23.3415 15.8248C23.3461 15.8143 23.163 16.1548 23.3415 15.8248ZM16.0213 12.186C18.1275 12.186 20.0497 13.3799 21.0485 15.2659C21.0389 15.2846 21.0311 15.3029 21.0229 15.3226C21.0105 15.3492 20.9986 15.3757 20.9872 15.4032C16.8934 15.7854 13.7485 19.4535 13.6982 23.513C13.2262 23.3138 12.7662 23.0195 12.3848 22.6771C12.3423 22.6428 12.3006 22.6057 12.2603 22.5686C8.026 19.3899 11.0175 12.186 16.0213 12.186ZM9.1022 22.2834C9.10907 22.2962 9.11731 22.3104 9.12509 22.3219C9.26609 22.5668 9.47849 22.9568 9.69089 23.1692C9.72202 23.2118 9.75544 23.2543 9.78885 23.296C9.80945 23.3239 9.83143 23.3505 9.85477 23.377C9.88544 23.4164 9.91657 23.4544 9.94999 23.4938C9.94999 23.4947 9.94999 23.4947 9.95136 23.4947C10.5748 24.2481 11.4011 24.9655 12.2901 25.3917C12.7543 25.6416 13.7087 25.7606 14.0731 26.0829C14.4434 26.4111 14.6938 27.6022 14.9914 28.071C14.5867 28.32 14.2081 28.6404 13.8721 28.9769C13.8538 28.9934 13.8355 29.0108 13.8181 29.0291C13.7861 29.0588 13.7549 29.0899 13.7247 29.1224C13.1818 29.6663 12.7355 30.2907 12.3652 30.9627C12.3597 30.9718 12.3551 30.9824 12.3505 30.9915C12.2356 31.0899 12.1784 31.2025 12.1789 31.3284C12.1523 31.3898 12.1244 31.4502 12.0946 31.5097C12.0933 31.512 12.0923 31.5134 12.0923 31.5157C12.0095 31.6974 11.9339 31.8819 11.8662 32.0695C11.8117 32.2197 11.7426 32.3886 11.7083 32.5475C11.6941 32.5937 11.6808 32.6404 11.668 32.6871C11.6543 32.7319 11.6419 32.7773 11.6314 32.8235C11.6268 32.8381 11.6231 32.8532 11.6199 32.8684C11.6094 32.9041 11.6002 32.9398 11.592 32.9755C11.5911 32.9823 11.5888 32.9883 11.5874 32.9952C11.5242 33.2561 11.5023 33.5275 11.4377 33.7871C11.4368 33.793 11.4368 33.7976 11.4354 33.8036C11.4341 33.8077 11.4341 33.8127 11.4341 33.8173C11.4318 33.8265 11.4318 33.8356 11.4309 33.8448L11.4272 33.8727C11.4272 33.8727 11.4272 33.8727 11.4263 33.8727C11.3636 33.8818 11.3013 33.8937 11.2395 33.9084C10.7882 33.9835 10.3107 34.0196 9.85569 33.972C9.85111 33.972 9.84516 33.9707 9.84058 33.9707C9.78519 33.9661 9.7298 33.9615 9.67579 33.9555C9.66434 33.9533 9.65381 33.9523 9.64374 33.9523C9.17041 33.8905 8.70486 33.7761 8.25854 33.6058C8.04797 33.523 7.84335 33.4277 7.64468 33.3206C7.54305 33.2542 7.43822 33.1938 7.33019 33.1393C7.2716 33.1032 7.21392 33.0656 7.15715 33.0263C7.11321 32.9965 7.06835 32.9663 7.0244 32.9352C7.02211 32.9329 7.01983 32.9315 7.01754 32.9306C6.90493 32.8391 6.79048 32.7498 6.67421 32.6628C3.1018 29.6608 4.46137 23.2997 9.1022 22.2834C9.08298 22.2482 8.09008 22.5031 7.95321 22.5379C8.33316 22.4418 8.71997 22.3672 9.1022 22.2834C9.10907 22.2962 6.50255 22.8529 9.1022 22.2834ZM5.91157 34.9704C6.31578 35.2391 7.09215 35.82 7.58929 35.82C8.29928 36.0732 9.0752 36.2599 9.83143 36.2842H9.8328C10.2105 36.3089 10.6517 36.3387 11.0267 36.2636C11.3105 36.0869 11.4519 36.0704 11.4515 36.2137C11.6373 37.4236 12.0969 38.888 12.9195 39.8296C12.9195 39.8305 12.9209 39.8319 12.9209 39.8319C13.2821 40.3354 13.6918 40.8005 14.1637 41.2034C14.1683 41.2066 14.172 41.2111 14.1779 41.2148C12.9983 41.9372 10.7763 43.8721 10.7763 45.4226C10.5016 45.4913 10.2164 45.5489 9.93305 45.5727C9.9097 45.5764 9.88682 45.5782 9.86393 45.5796C4.21189 46.0955 1.56828 38.3757 5.91157 34.9704C5.92119 34.9768 5.38423 35.5307 5.30412 35.4776C5.29038 35.4685 6.08323 34.8358 5.91157 34.9704C6.10155 35.0968 4.49662 36.08 5.91157 34.9704ZM7.99487 57.3859C5.01847 57.3859 2.7452 55.0252 2.38997 52.1481C2.22381 50.7986 2.48107 49.4006 3.1961 48.236C3.48999 47.7577 4.03427 46.9007 4.57993 46.7153C5.22218 46.497 6.41832 47.3429 7.18966 47.6011C8.03698 47.8433 8.96213 47.976 9.84516 47.8955C9.99439 47.8826 10.1432 47.8698 10.2924 47.8575C10.2338 48.8522 10.3579 49.9357 10.698 50.8737C10.8262 51.2811 10.9795 51.7306 11.2061 52.0936C11.5133 52.6979 11.8955 53.3223 12.3766 53.8048C12.9676 54.4877 13.0312 54.4525 12.4439 55.2019C12.1065 55.6322 11.7128 56.0066 11.2693 56.3252C10.3153 57.0105 9.17133 57.3859 7.99487 57.3859ZM23.9599 49.2596C23.9599 49.2619 23.959 49.2633 23.959 49.2655C23.2303 53.715 17.7654 55.7338 14.4645 52.5848C12.9799 51.1694 12.1161 49.0692 12.6581 47.0394C13.1704 45.1209 14.7483 42.8422 16.8911 42.5355C17.955 42.253 20.1179 42.1619 20.9886 43.034C20.9909 43.0353 20.9922 43.0363 20.9945 43.0376H20.9954C20.9968 43.0376 20.9968 43.039 20.9977 43.039C23.2032 44.2489 24.339 46.9918 23.9723 49.1886C23.992 49.0683 23.9883 49.0921 23.9599 49.2596C24.0144 48.9355 23.9599 49.2619 23.9599 49.2596ZM28.333 49.12C27.6486 49.12 26.9688 48.9932 26.3312 48.7483C26.3495 48.432 26.3646 48.0667 26.3289 47.7462C26.3087 47.4029 26.2529 47.0683 26.2044 46.7281C26.1906 46.6563 26.1769 46.5849 26.1618 46.5135C26.1609 46.5112 26.1609 46.5089 26.1595 46.5066C26.1467 46.4439 26.1329 46.3816 26.1178 46.3207C26.1169 46.3148 26.1156 46.3102 26.1146 46.3043C25.8262 45.2203 25.233 43.3787 24.2387 42.7131C24.1925 42.66 24.1453 42.6082 24.0959 42.557C24.0725 42.5304 24.0474 42.5039 24.0199 42.4773C23.672 42.102 23.2678 41.7756 22.8526 41.4789C22.8563 41.4661 22.8595 41.4547 22.864 41.4432C22.8732 41.4084 22.8837 41.375 22.8952 41.3416C23.0023 40.9841 23.1602 40.6142 23.3479 40.2887C23.6093 39.7948 23.9485 39.3407 24.3504 38.9521C24.3815 38.9196 24.4136 38.8884 24.4461 38.8587C24.4758 38.8285 24.506 38.8005 24.5372 38.7731C24.5624 38.7488 24.5889 38.7259 24.6155 38.704C24.6292 38.6898 24.6429 38.6774 24.6571 38.6669C24.6846 38.6426 24.7111 38.6197 24.7386 38.5978C24.9904 38.3776 25.2788 38.1821 25.5717 38.0191C26.842 38.8147 28.2767 39.2139 29.774 39.2222C29.7727 39.2373 29.7717 39.2533 29.7694 39.2698C29.6935 40.4398 29.8637 41.6167 30.2625 42.7186C30.4854 43.3347 31.0924 44.9552 31.7397 45.2807C31.7571 45.3013 31.7745 45.3223 31.7937 45.3429C31.7937 45.3443 31.7951 45.3466 31.7983 45.3475L31.7996 45.3489C31.8353 45.3906 31.872 45.4318 31.9104 45.472V45.4734C32.1439 45.7334 32.3952 45.976 32.663 46.2008C33.1638 46.3729 33.2077 46.61 32.7953 46.9117C32.6241 47.3434 31.9759 47.7828 31.6115 48.0456C30.658 48.7336 29.5126 49.12 28.333 49.12ZM37.7822 45.7737C34.2125 45.7737 31.5968 42.2869 32.1375 38.8541C33.1789 38.5254 34.5037 37.9111 35.2036 37.0336C35.2851 36.9567 35.3643 36.8784 35.4421 36.7978C35.4558 36.7855 35.4686 36.7726 35.4801 36.7589C35.5881 36.6477 35.6916 36.5332 35.7909 36.4147C35.822 36.3799 35.8509 36.3455 35.8797 36.3098C35.8925 36.2956 35.904 36.2819 35.9154 36.2668C36.0871 36.0599 36.3315 35.7747 36.457 35.5234C36.7559 35.0707 37.0205 34.5708 37.2104 34.0622C37.2246 34.0311 37.2361 33.9986 37.2484 33.9661C40.5187 33.6452 43.3907 36.4151 43.502 39.6369C43.6118 42.8234 41.0319 45.7737 37.7822 45.7737Z" fill="#4AA760"/>
<path d="M51.1133 17.4567C50.4771 17.4567 49.9607 16.9399 49.9607 16.3022C49.9607 15.665 50.4761 15.1482 51.1124 15.1482H51.1133C51.7501 15.1482 52.2655 15.665 52.2655 16.3022C52.2655 16.9399 51.7501 17.4567 51.1133 17.4567Z" fill="#4AA760"/>
<path d="M59.5051 20.1791C58.4751 15.9342 55.3847 12.3037 50.3141 9.37624C51.0433 8.26845 54.808 1.04855 52.1287 0.603604C50.4985 0.333064 50.5072 3.1703 50.2033 4.17693C49.6901 5.87616 48.9238 7.51588 47.8238 8.91573C47.8229 8.91573 47.8229 8.91573 47.8215 8.91664C45.6851 11.7195 42.1324 13.308 38.6442 13.308C37.6573 13.2544 37.0553 14.49 37.7218 15.2292C38.1814 15.7392 38.9592 15.6307 39.5712 15.5918C41.8262 15.4499 44.0875 14.7376 46.0138 13.5575C43.7891 21.7954 49.2511 27.9593 55.7537 32.1341C55.7537 32.1341 55.7546 32.1355 55.756 32.1355C55.7674 32.1423 55.778 32.1492 55.7903 32.1561C55.9803 32.2737 56.2476 32.3369 56.4655 32.3122C56.4829 32.3122 56.5003 32.3099 56.5186 32.3062C56.5607 32.3021 56.6019 32.2948 56.6431 32.2842C56.7141 32.2701 56.7869 32.2412 56.8528 32.2115C56.861 32.2092 56.8688 32.2046 56.8761 32.2009C56.8839 32.1977 56.8922 32.1941 56.899 32.1895C57.0597 32.1089 57.1993 31.9872 57.306 31.842C57.3101 31.8366 57.3151 31.8297 57.3197 31.8237C57.4712 31.6054 61.0203 26.4221 59.5051 20.1791C61.0203 26.4221 58.4751 15.9342 59.5051 20.1791ZM56.6326 28.0984C56.0178 26.1346 55.3971 24.1717 54.732 22.2244C54.4115 21.2846 54.0201 18.9898 52.7874 18.8511C50.775 18.6254 51.8682 21.0204 52.195 21.9351C52.9439 24.0293 53.6054 26.1575 54.2728 28.2783C51.6796 26.2733 49.2008 23.7483 48.2088 20.5389C47.2507 17.4384 48.0229 14.3183 49.1857 11.3881C55.2877 14.9198 59.4108 20.9307 56.6326 28.0984Z" fill="#4AA760"/>
</g>
<defs>
<clipPath id="clip0_1151_89180">
<rect width="60" height="60" fill="white"/>
</clipPath>
</defs>
</svg>
