<svg width="60" height="60" viewBox="0 0 60 60" fill="none" xmlns="../../../../../external.html?link=http://www.w3.org/2000/svg">
<g clip-path="url(#clip0_850_1867)">
<path d="M59.3386 39.819L46.3678 32.4645V29.4471H48.4955C51.0208 29.4471 53.0752 27.3926 53.0752 24.8673V23.852C53.0752 22.9329 52.3275 22.1852 51.4084 22.1852H49.1827C48.122 22.1852 47.145 22.5488 46.3678 23.1565C46.3678 23.1565 46.3476 17.1639 46.3123 16.8839H49.6866C51.0131 16.8839 52.2959 16.6033 53.4988 16.05C53.9416 15.8464 54.1354 15.3223 53.9317 14.8797C53.7283 14.437 53.2044 14.2432 52.7614 14.4467C51.7914 14.8929 50.7569 15.1191 49.6866 15.1191H46.3678V13.7665C46.3678 9.70292 49.6738 6.39692 53.7374 6.39692H57.0563V7.74944C57.0563 9.4122 56.5139 10.9826 55.4878 12.2912C55.187 12.6748 55.2542 13.2294 55.6377 13.5301C56.0212 13.8307 56.5758 13.7636 56.8765 13.3802C58.1487 11.7578 58.8209 9.81069 58.8209 7.74944V6.14997C58.8209 5.31323 58.1401 4.63239 57.3032 4.63239H53.7372C48.8919 4.63239 44.9176 8.42511 44.6224 13.1974C43.3778 11.8148 41.5755 10.9437 39.5731 10.9437H36.7528C35.9841 10.9437 35.3587 11.569 35.3587 12.3378V14.3746C35.3587 18.1211 38.4067 21.1691 42.1532 21.1691H44.6028V31.4642L30.8572 23.6704V21.8085H32.1154C33.7365 21.8085 35.0555 20.4895 35.0555 18.8683V17.9973C35.0555 17.0736 34.304 16.3222 33.3804 16.3222H32.0327C31.548 16.3222 31.0908 16.4408 30.6874 16.6494C30.2817 15.5107 29.1933 14.693 27.917 14.693H26.5693C25.6457 14.693 24.8942 15.4445 24.8942 16.3682V17.2392C24.8942 18.8603 26.2132 20.1793 27.8343 20.1793H29.0925V20.9261V23.7873L13.4898 32.6341V29.5047V28.4144H14.7176C16.8143 28.4144 18.52 26.7087 18.52 24.6122V23.5798C18.52 22.6893 17.7955 21.9648 16.905 21.9648H15.5276C14.0563 21.9648 12.7785 22.8053 12.1465 24.0308C11.2402 23.0639 9.95298 22.4578 8.52622 22.4578H7.19041C6.29191 22.4578 5.56094 23.1888 5.56094 24.0873V25.4232C5.56094 28.1603 7.78773 30.3869 10.5246 30.3869H11.7252V33.6346L8.28504 35.5851C7.86102 35.8255 7.71231 36.364 7.95267 36.788C8.19303 37.2119 8.73164 37.3605 9.15554 37.1204L11.7253 35.6634V41.3893C11.7253 41.8768 12.1202 42.2717 12.6077 42.2717C13.0951 42.2717 13.49 41.8768 13.49 41.3893V34.6626L16.7802 32.7971L28.2449 39.2977L13.6971 47.5464L2.38448 40.9596L5.58518 39.1448C6.00919 38.9044 6.1579 38.3659 5.91754 37.9419C5.67706 37.5179 5.13846 37.3692 4.71468 37.6096L0.817832 39.819C0.412641 40.0488 0.159102 40.4809 0.156514 40.9468C0.153926 41.4126 0.402405 41.8476 0.805008 42.0819L13.2522 49.3293C13.253 49.3297 13.2538 49.3302 13.2546 49.3307L29.4217 58.7439C29.6241 58.8618 29.8511 58.9208 30.0782 58.9208C30.3052 58.9208 30.5323 58.8618 30.7348 58.7439L51.7918 46.4835C52.2129 46.2383 52.3555 45.6981 52.1104 45.277C51.8651 44.8558 51.3246 44.713 50.9038 44.9584L46.4157 47.5717L31.8229 39.2975L43.332 32.7717L44.603 33.4923V40.1543C44.603 40.6418 44.998 41.0367 45.4854 41.0367C45.9728 41.0367 46.3678 40.6418 46.3678 40.1543V34.4932L57.7721 40.9594L54.4335 42.9034C54.0123 43.1486 53.8697 43.6888 54.1149 44.1099C54.2789 44.3914 54.5744 44.5485 54.8782 44.5485C55.0289 44.5485 55.1818 44.5099 55.3214 44.4285L59.3516 42.0819C59.7542 41.8476 60.0026 41.4126 60 40.9468C59.9973 40.4809 59.7439 40.0488 59.3386 39.819ZM49.1827 23.95H51.3104V24.8673C51.3104 26.4195 50.0477 27.6824 48.4955 27.6824H46.3678V26.7651C46.3678 25.2129 47.6307 23.95 49.1827 23.95ZM42.1534 19.4041C39.38 19.4041 37.1237 17.1478 37.1237 14.3744V12.7083H39.5732C42.3466 12.7083 44.603 14.9648 44.603 17.7381V19.4041H42.1534ZM13.49 25.7669C13.49 24.6433 14.4042 23.7293 15.5276 23.7293H16.7555V24.6119C16.7555 25.7355 15.8413 26.6494 14.7179 26.6494H13.49V25.7669ZM10.5248 28.6219C8.76082 28.6219 7.32583 27.1869 7.32583 25.423V24.2224H8.52634C10.2903 24.2224 11.7253 25.6574 11.7253 27.4213V28.6219H10.5248ZM32.0331 18.0866H33.2911V18.8681C33.2911 19.5162 32.7639 20.0435 32.1158 20.0435H30.8576V19.262C30.8575 18.6138 31.3849 18.0866 32.0331 18.0866ZM26.6592 17.2388V16.4573H27.9173C28.5654 16.4573 29.0927 16.9846 29.0927 17.6327V18.4142H27.8346C27.1864 18.4143 26.6592 17.887 26.6592 17.2388ZM44.6504 48.5996L30.0784 57.0842L15.4625 48.5741L30.034 40.312L44.6504 48.5996ZM30.0339 38.2832L18.5692 31.7826L29.0928 25.8157V31.7826C29.0928 32.2701 29.4878 32.665 29.9752 32.665C30.4626 32.665 30.8576 32.2701 30.8576 31.7826V25.6988L41.5432 31.7576L30.0339 38.2832Z" fill="#4AA760"/>
<path d="M27.8346 50.619H29.0928V52.6337C29.0928 53.1211 29.4878 53.516 29.9752 53.516C30.4626 53.516 30.8576 53.1211 30.8576 52.6337V50.619H31.975C33.5027 50.619 34.7456 49.3762 34.7456 47.8484V47.0691C34.7456 46.2631 34.0898 45.6073 33.2838 45.6073H31.8634C31.2263 45.6073 30.6392 45.824 30.1707 46.1867C29.6309 45.5429 28.8213 45.1326 27.9173 45.1326H26.5696C25.646 45.1326 24.8945 45.8841 24.8945 46.8078V47.6788C24.8945 49.3 26.2135 50.619 27.8346 50.619ZM31.8634 47.3722H32.9808V47.8485C32.9808 48.4032 32.5296 48.8543 31.975 48.8543H30.8576V48.378C30.8576 47.8233 31.3088 47.3722 31.8634 47.3722ZM26.6593 46.8973H27.9173C28.5655 46.8973 29.0928 47.4245 29.0928 48.0727V48.8542H27.8346C27.1865 48.8542 26.6593 48.327 26.6593 47.6789V46.8973Z" fill="#4AA760"/>
<path d="M3.85731 8.79361C5.68055 8.79361 7.21131 7.52156 7.61144 5.81868H12.2421L21.3939 14.9707C21.5663 15.1429 21.7922 15.229 22.018 15.229C22.2437 15.229 22.4696 15.1429 22.642 14.9707C22.9866 14.6259 22.9866 14.0673 22.642 13.7227L13.2316 4.31239C13.0661 4.14697 12.8417 4.05403 12.6076 4.05403H7.61156C7.21131 2.35103 5.68055 1.0791 3.85731 1.0791C1.73041 1.0791 0 2.8094 0 4.9363C0 7.06319 1.73041 8.79361 3.85731 8.79361ZM3.85731 2.84387C5.01112 2.84387 5.94974 3.78261 5.94974 4.9363C5.94974 6.09022 5.011 7.02884 3.85731 7.02884C2.70351 7.02884 1.76477 6.09022 1.76477 4.9363C1.76477 3.78249 2.70351 2.84387 3.85731 2.84387Z" fill="#4AA760"/>
<path d="M12.6075 10.6901H7.7962C7.30877 10.6901 6.91382 11.0851 6.91382 11.5725C6.91382 12.0599 7.30877 12.4549 7.7962 12.4549H12.6077C13.0951 12.4549 13.4901 12.0599 13.4901 11.5725C13.4901 11.0851 13.095 10.6901 12.6075 10.6901Z" fill="#4AA760"/>
<path d="M12.6077 14.3516H2.56525C2.07782 14.3516 1.68286 14.7465 1.68286 15.2339C1.68286 15.7214 2.07782 16.1163 2.56525 16.1163H12.6077C13.0951 16.1163 13.4901 15.7214 13.4901 15.2339C13.4901 14.7465 13.0951 14.3516 12.6077 14.3516Z" fill="#4AA760"/>
<path d="M12.6077 18.013H2.56525C2.07782 18.013 1.68286 18.408 1.68286 18.8954C1.68286 19.3828 2.07782 19.7778 2.56525 19.7778H12.6077C13.0951 19.7778 13.4901 19.3828 13.4901 18.8954C13.4901 18.408 13.0951 18.013 12.6077 18.013Z" fill="#4AA760"/>
<path d="M2.56525 12.4549H4.61414C5.10157 12.4549 5.49652 12.0599 5.49652 11.5725C5.49652 11.0851 5.10157 10.6901 4.61414 10.6901H2.56525C2.07782 10.6901 1.68286 11.0851 1.68286 11.5725C1.68286 12.0599 2.07782 12.4549 2.56525 12.4549Z" fill="#4AA760"/>
</g>
<defs>
<clipPath id="clip0_850_1867">
<rect width="60" height="60" fill="white"/>
</clipPath>
</defs>
</svg>
