<svg width="60" height="60" viewBox="0 0 60 60" fill="none" xmlns="../../../../../external.html?link=http://www.w3.org/2000/svg">
<g clip-path="url(#clip0_850_1765)">
<path d="M53.383 31.934L52.462 32.704C48.8672 29.1604 44.047 27.1355 39 27.049V17.349C39.04 17.362 39.077 17.382 39.118 17.394C41.255 18.0329 43.4698 18.3747 45.7 18.41C48.1407 18.506 50.5481 17.8185 52.57 16.448C56.678 13.424 57.399 7.27699 57.47 3.88299C57.4881 3.23634 57.2895 2.6022 56.9057 2.08144C56.5219 1.56067 55.975 1.18318 55.352 1.00899C52.085 0.061989 46 -1.07101 41.9 1.95299C39.7244 3.737 38.2374 6.22244 37.694 8.98299C36.9506 6.8435 35.5534 4.99187 33.7 3.68999C29.785 1.14799 24.38 2.37399 21.508 3.33199C20.9368 3.51938 20.4468 3.89647 20.1194 4.40069C19.7919 4.9049 19.6468 5.50592 19.708 6.10399C20 9.11699 21.079 14.553 25 17.1C26.7188 18.1465 28.7046 18.6711 30.716 18.61C32.8544 18.5677 34.9737 18.1977 37 17.513V27.029C30.106 27.318 24.127 30.574 21.44 35.529C18.318 36.3082 15.483 37.9619 13.268 40.296C12.937 40.627 9.824 43.996 5.468 48.711C3.49 50.844 1.68 52.8 0.800002 53.752C0.284985 54.3052 -0.000928611 55.0332 2.26593e-06 55.789V57C2.26593e-06 57.7956 0.316073 58.5587 0.878682 59.1213C1.44129 59.6839 2.20435 60 3 60H15.975C16.4406 59.9992 16.8997 59.8904 17.3161 59.6822C17.7326 59.474 18.095 59.172 18.375 58.8L22.575 53.2C22.8552 52.8282 23.2177 52.5264 23.6341 52.3182C24.0505 52.11 24.5095 52.0011 24.975 52H43C44.2614 51.9645 45.46 51.4416 46.344 50.541L58.824 37.835C59.5478 37.099 59.9606 36.1128 59.977 35.0807C59.9934 34.0486 59.612 33.0498 58.912 32.2912C58.2119 31.5327 57.2469 31.0726 56.2168 31.0063C55.1867 30.9399 54.1706 31.2725 53.379 31.935L53.383 31.934ZM43.083 3.56399C44.7631 2.45546 46.7513 1.90792 48.762 1.99999C50.8033 2.03585 52.8303 2.34768 54.788 2.92699C54.9864 2.98278 55.1605 3.10317 55.2828 3.26908C55.4051 3.435 55.4685 3.63696 55.463 3.84299C55.416 6.27899 54.926 12.227 51.383 14.835C47.84 17.443 42.014 16.149 39.674 15.469C39.654 15.463 39.638 15.449 39.618 15.442C40.778 12.88 43.824 8.31899 51.179 6.98099C51.3125 6.96229 51.4408 6.9168 51.5562 6.84726C51.6716 6.77773 51.7718 6.68558 51.8508 6.57635C51.9297 6.46711 51.9857 6.34306 52.0155 6.21163C52.0453 6.08019 52.0482 5.9441 52.024 5.81152C51.9999 5.67894 51.9492 5.5526 51.875 5.4401C51.8008 5.32761 51.7046 5.23126 51.5923 5.15687C51.4799 5.08247 51.3537 5.03155 51.2211 5.00717C51.0886 4.98279 50.9525 4.98545 50.821 5.01499C48.4889 5.35347 46.2507 6.16594 44.2445 7.40233C42.2384 8.63872 40.5066 10.2728 39.156 12.204C39.476 9.38199 40.413 5.52799 43.081 3.56399H43.083ZM26.083 15.418C22.75 13.254 21.905 8.04699 21.696 5.90799C21.6784 5.76109 21.7129 5.61268 21.7935 5.4886C21.8741 5.36452 21.9956 5.27265 22.137 5.22899C24.0237 4.58503 25.998 4.23396 27.991 4.18799C29.6115 4.12892 31.2146 4.53864 32.608 5.36799C34.888 6.84799 36.003 9.75099 36.547 12.122C33.186 9.15599 27.517 8.07799 27.178 8.01699C27.0465 7.98745 26.9104 7.98479 26.7779 8.00917C26.6453 8.03355 26.5191 8.08447 26.4067 8.15887C26.2944 8.23326 26.1982 8.32961 26.124 8.4421C26.0498 8.5546 25.9991 8.68094 25.975 8.81352C25.9508 8.9461 25.9537 9.08219 25.9835 9.21363C26.0133 9.34506 26.0693 9.46911 26.1483 9.57835C26.2272 9.68758 26.3274 9.77973 26.4428 9.84926C26.5582 9.9188 26.6865 9.96428 26.82 9.98299C29.294 10.437 35.22 12.228 36.672 15.495C36.635 15.5198 36.5954 15.5406 36.554 15.557C34.518 16.235 29.419 17.584 26.083 15.418ZM38 29C40.378 28.9334 42.7456 29.3401 44.9651 30.1964C47.1846 31.0527 49.2119 32.3415 50.929 33.988L45.252 38.74C44.8583 38.1969 44.3405 37.7556 43.7418 37.453C43.1431 37.1503 42.4808 36.995 41.81 37H31.622C31.4148 37.0075 31.2113 36.9432 31.046 36.818C29.6173 35.6429 27.8249 35.0003 25.975 35C25.331 35 24.7053 35.026 24.098 35.078C26.911 31.38 32.219 29 38 29ZM57.4 36.431L44.922 49.136C44.408 49.6633 43.7109 49.9726 42.975 50H24.975C24.1991 50.0016 23.4341 50.1831 22.74 50.5301C22.046 50.8771 21.4419 51.3802 20.975 52L16.775 57.6C16.6819 57.7242 16.5611 57.825 16.4222 57.8944C16.2834 57.9639 16.1302 58 15.975 58H3C2.73479 58 2.48043 57.8946 2.2929 57.7071C2.10536 57.5196 2 57.2652 2 57V55.789C1.99889 55.5385 2.09289 55.2969 2.263 55.113C3.146 54.163 4.957 52.203 6.933 50.065C10.238 46.488 14.353 42.036 14.682 41.707C16.1238 40.1675 17.876 38.9518 19.8229 38.1404C21.7697 37.3289 23.8667 36.9402 25.975 37C27.3623 36.9928 28.7077 37.4747 29.775 38.361C30.2984 38.7808 30.951 39.0066 31.622 39H41.81C42.2746 38.9918 42.7295 39.1332 43.1076 39.4033C43.4858 39.6734 43.7671 40.0579 43.91 40.5C43.9176 40.5502 43.9294 40.5997 43.945 40.648C43.9606 40.7295 43.9706 40.8121 43.975 40.895C43.9886 41.1659 43.9469 41.4368 43.8525 41.6911C43.758 41.9454 43.6129 42.1779 43.4258 42.3743C43.2387 42.5707 43.0136 42.7271 42.7642 42.8338C42.5148 42.9405 42.2463 42.9953 41.975 42.995H30.975C30.7098 42.995 30.4554 43.1003 30.2679 43.2879C30.0804 43.4754 29.975 43.7298 29.975 43.995C29.975 44.2602 30.0804 44.5146 30.2679 44.7021C30.4554 44.8896 30.7098 44.995 30.975 44.995H41.975C42.5178 44.9958 43.0551 44.8859 43.5541 44.672C44.053 44.4582 44.5031 44.1449 44.8769 43.7512C45.2507 43.3576 45.5403 42.8919 45.7281 42.3826C45.9158 41.8733 45.9978 41.3311 45.969 40.789V40.745L54.669 33.463C55.0792 33.1203 55.6087 32.9544 56.1411 33.0016C56.6736 33.0488 57.1655 33.3054 57.509 33.715C57.8278 34.102 57.9929 34.5928 57.9728 35.0938C57.9527 35.5948 57.7488 36.0708 57.4 36.431Z" fill="#4AA760"/>
</g>
<defs>
<clipPath id="clip0_850_1765">
<rect width="60" height="60" fill="white"/>
</clipPath>
</defs>
</svg>
