<svg width="60" height="60" viewBox="0 0 60 60" fill="none" xmlns="../../../../../external.html?link=http://www.w3.org/2000/svg">
<path d="M55.3125 52.5H53.9326C53.1902 51.9821 50.8631 50.452 47.2847 48.9296V35.8347C49.0188 34.6189 50.0835 32.6274 50.0835 30.4953C50.0835 28.1754 48.832 26.0092 46.8173 24.8419C46.5262 24.6735 46.1682 24.6735 45.8771 24.8419C43.8629 26.0092 42.6114 28.1754 42.6114 30.4953C42.6114 32.6273 43.676 34.6188 45.4097 35.8345V48.1837C43.8159 47.5875 42.0412 47.0193 40.0882 46.5491C39.586 46.4291 39.0788 46.7377 38.9575 47.2412C38.8362 47.7448 39.1461 48.251 39.6497 48.3728C44.3141 49.4952 48.0074 51.2192 50.3315 52.5H9.5251C13.1252 50.4238 20.291 47.1574 29.6805 47.2064C31.7912 47.1799 33.9281 47.3483 36.0397 47.6669C36.5451 47.7374 37.029 47.3914 37.1063 46.8787C37.1837 46.3669 36.8308 45.8899 36.319 45.8121C34.1945 45.4926 32.043 45.3305 29.9291 45.3305H29.4283C23.7024 45.3305 18.8369 46.4795 15.0188 47.8675V35.8343C16.7526 34.6186 17.8171 32.6272 17.8171 30.4953C17.8171 28.1754 16.5656 26.0092 14.5509 24.8419C14.2598 24.6735 13.9018 24.6735 13.6107 24.8419C11.5965 26.0092 10.345 28.1754 10.345 30.4953C10.345 32.6275 11.4099 34.6191 13.1438 35.8349V48.5988C9.2969 50.2127 6.82794 51.9224 6.05238 52.5H4.6875C3.13659 52.5 1.875 53.7616 1.875 55.3125C1.875 56.8634 3.13659 58.125 4.6875 58.125H55.3125C56.8634 58.125 58.125 56.8634 58.125 55.3125C58.125 53.7616 56.8634 52.5 55.3125 52.5ZM44.4864 30.4953C44.4864 29.0305 45.1877 27.6508 46.3472 26.7764C47.5072 27.6508 48.2085 29.0305 48.2085 30.4953C48.2085 31.9611 47.5072 33.3408 46.3472 34.2151C45.1877 33.3408 44.4864 31.9611 44.4864 30.4953ZM12.22 30.4953C12.22 29.0305 12.9213 27.6508 14.0808 26.7764C15.2408 27.6508 15.9421 29.0305 15.9421 30.4953C15.9421 31.9611 15.2408 33.3408 14.0808 34.2151C12.9213 33.3408 12.22 31.9611 12.22 30.4953ZM55.3125 56.25H4.68751C4.17069 56.25 3.75001 55.8298 3.75001 55.3125C3.75001 54.7952 4.17069 54.375 4.68751 54.375H55.3125C55.8293 54.375 56.25 54.7952 56.25 55.3125C56.25 55.8298 55.8293 56.25 55.3125 56.25Z" fill="#4AA760"/>
<path d="M25.0116 19.8074C25.768 19.8074 26.5278 19.7059 27.2799 19.5364C28.0651 20.8399 28.62 22.3089 28.6856 23.9001C28.653 26.5524 28.7967 29.577 29.1896 33.0331C27.1791 33.6749 22.0998 35.7294 21.3431 40.2704C21.258 40.7803 21.6031 41.2637 22.1135 41.3489C22.6127 41.4356 23.1096 41.0916 23.1925 40.578C23.4787 38.8613 24.6671 37.579 25.9989 36.6481C26.4396 37.494 27.0215 38.9891 26.8203 40.7638C26.754 41.3163 27.1979 41.81 27.7532 41.8066C28.2233 41.8066 28.6289 41.4532 28.6834 40.9744C28.945 38.6659 28.1906 36.7615 27.6188 35.6932C29.1095 34.9571 30.404 34.6331 30.4329 34.6261C30.8957 34.5145 31.2024 34.0732 31.1448 33.6008C31.1057 33.2819 31.0752 32.9783 31.0404 32.6669C32.0811 32.9683 33.6447 33.5536 35.0652 34.59C34.156 35.4134 32.9798 36.8806 32.86 39.0353C32.8312 39.5526 33.2271 39.9948 33.7439 40.0232C34.2555 40.0547 34.7048 39.6568 34.7323 39.1397C34.8243 37.4828 35.8147 36.399 36.4721 35.8507C37.3319 36.808 38.01 38.0115 38.2753 39.5279C38.3622 40.0408 38.8619 40.3792 39.3602 40.2896C39.8702 40.1999 40.2112 39.7147 40.122 39.2038C39.0477 33.0639 32.927 31.1514 30.8405 30.6723C30.382 27.1916 30.3634 23.2436 32.9026 20.9053C34.5057 21.8361 36.3012 22.3297 38.1092 22.3297C39.7109 22.3297 41.3149 21.9608 42.7816 21.2146C46.055 19.5493 48.2139 16.2286 48.4148 12.5482C48.4331 12.2122 48.2706 11.8927 47.9886 11.7105C44.8955 9.7046 40.9404 9.49402 37.6665 11.1575C34.6207 12.7079 32.5622 15.6958 32.1262 19.0679C31.6198 19.5316 31.1431 20.0508 30.7118 20.6269C31.0055 16.952 31.6817 14.2567 32.4246 12.3217C34.6085 12.2488 36.6632 11.155 37.9137 9.3393C39.3113 7.3114 39.5218 4.66371 38.4635 2.42981C38.3197 2.12586 38.0245 1.92261 37.6894 1.89606C35.2294 1.70837 32.8266 2.84271 31.429 4.87152C30.1023 6.79813 29.8598 9.27892 30.7437 11.4366C30.0273 13.2458 29.378 15.6353 29.006 18.7608C28.8454 18.4823 28.6818 18.2066 28.5055 17.9428C29.094 14.6327 28.058 11.2009 25.6663 8.80921C25.2501 8.39264 24.7983 8.01178 24.3236 7.67579C23.9002 7.37641 23.3161 7.47803 23.0167 7.9001C22.7178 8.32216 22.8181 8.90718 23.2406 9.20655C23.6292 9.48121 23.9991 9.79341 24.3406 10.1349C25.8629 11.6572 26.7188 13.6969 26.7996 15.804C24.6426 13.4763 22.328 12.0922 22.1502 11.9888C21.7057 11.7288 21.1307 11.879 20.8689 12.3248C20.6075 12.7716 20.7581 13.3456 21.2044 13.6075C21.2486 13.6332 23.9409 15.2434 26.0841 17.8484C23.5018 18.1796 20.8732 17.3202 19.0145 15.4614C17.0191 13.4665 16.159 10.5835 16.7037 7.8241C18.0477 7.55677 19.4384 7.61811 20.7558 8.00446C21.253 8.15002 21.7739 7.86439 21.919 7.36817C22.0646 6.87104 21.7799 6.3501 21.2832 6.20453C19.4581 5.66987 17.5213 5.64697 15.6815 6.1377C15.357 6.22376 15.1034 6.47736 15.0169 6.80146C14.0679 10.3638 15.0915 14.1898 17.6888 16.7871C19.6449 18.7436 22.2985 19.8074 25.0116 19.8074ZM38.5166 12.8293C41.0315 11.5494 44.0386 11.6254 46.4945 12.9977C46.1576 15.7901 44.4465 18.2638 41.932 19.5428C39.5649 20.7468 36.7702 20.7366 34.4028 19.5906C37.0652 17.6654 40.1495 17.147 40.3664 17.113C40.8777 17.0343 41.2288 16.5555 41.1506 16.0446C41.0723 15.5337 40.598 15.1813 40.0835 15.26C40.0298 15.268 37.2558 15.7196 34.4522 17.3659C35.1921 15.4275 36.6272 13.791 38.5166 12.8293ZM32.9735 5.93535C33.8863 4.61058 35.3855 3.80492 36.9812 3.75273C37.5008 5.26243 37.2829 6.95066 36.3697 8.27543C35.6476 9.32343 34.5566 10.0393 33.3433 10.3215C34.3084 8.55759 35.1625 7.90683 35.201 7.87901C35.6244 7.58971 35.7366 7.01201 35.4509 6.58446C35.163 6.15416 34.5807 6.03697 34.1504 6.32628C34.0447 6.39683 33.1353 7.0369 32.0871 8.72101C32.1028 7.73865 32.4015 6.76562 32.9735 5.93535Z" fill="#4AA760"/>
</svg>
