<svg width="50" height="50" viewBox="0 0 50 50" fill="none" xmlns="../../../../../external.html?link=http://www.w3.org/2000/svg">
<path d="M49.5859 27.9513C49.5859 24.4691 47.8976 21.1436 45.0696 19.0562C44.493 18.6291 43.778 18.3948 43.0574 18.3948C42.1552 18.3948 41.3099 18.7555 40.6893 19.3689C40.5733 19.2721 40.4677 19.1658 40.3478 19.0738C39.9039 18.7347 39.3712 18.5331 38.8242 18.45L39.1769 14.5719C39.1849 14.4791 39.1889 14.3855 39.1889 14.2919C39.1889 12.5852 37.8005 11.1968 36.0938 11.1968H35.8858C34.1791 11.1968 32.7907 12.5852 32.7907 14.2919C32.7907 14.3855 32.7947 14.4791 32.8035 14.5727L33.1578 18.4676C32.6507 18.5635 32.1605 18.7595 31.7462 19.0682C31.603 19.1754 31.4759 19.2985 31.3383 19.4113C31.2671 19.3377 31.192 19.2689 31.1144 19.2026C31.16 18.9362 31.1912 18.6667 31.1912 18.3948C31.1912 17.3791 30.8744 16.4073 30.2874 15.5956C30.8744 14.7838 31.1912 13.8129 31.1912 12.7964C31.1912 10.0579 28.8742 7.83858 26.1134 8.00653C25.5999 6.53495 24.4027 5.42566 22.9311 4.99778C21.957 3.78293 20.4886 3.10872 18.9154 3.20789C18.2532 1.31003 16.4601 0 14.3959 0C12.6644 0 11.0881 0.926137 10.2387 2.40172C8.1209 2.4729 6.29022 3.96767 5.76556 6.0039C3.28947 6.92764 1.59955 9.32456 1.59955 11.9966C1.59955 14.1392 2.65365 16.0978 4.39795 17.2815C4.13483 17.8821 3.99887 18.5315 3.99887 19.1946C3.99887 20.6341 4.63868 21.9722 5.73677 22.8783C5.6448 23.2494 5.59841 23.6229 5.59841 23.9932C5.59841 26.4437 7.44589 28.4719 9.82121 28.7574L11.5903 33.712C10.6842 34.3798 9.91239 35.2156 9.31816 36.1753L5.12815 35.2444C4.96899 35.2076 4.80504 35.19 4.64028 35.19C3.40463 35.19 2.39932 36.1953 2.39932 37.431V37.7477C2.39932 37.9716 2.44251 38.1844 2.50409 38.3891H2.39932C1.07649 38.3891 0 39.4656 0 40.7884C0 42.1113 1.07649 43.1878 2.39932 43.1878H2.50409C2.44251 43.3925 2.39932 43.6052 2.39932 43.8292V44.1459C2.39932 45.3815 3.40463 46.3868 4.64028 46.3868C4.80504 46.3868 4.96899 46.3692 5.12655 46.3333L9.31816 45.4015C10.8705 47.908 13.6369 49.5859 16.7952 49.5859H16.9832C17.4279 49.5859 17.8781 49.5515 18.3204 49.4836L45.7454 45.2648C47.9704 44.9217 49.5859 43.0398 49.5859 40.7884C49.5859 38.9881 48.5438 37.439 46.9923 36.7088C48.6494 34.7293 49.5859 32.2181 49.5859 29.6324V27.9513ZM39.3752 20.3446C41.7626 22.1697 43.1878 25.0769 43.1878 28.1232V31.0608C43.1878 32.7003 42.7791 34.3055 42.0089 35.7379L35.5955 34.7509C35.3316 33.5905 35.19 32.4052 35.19 31.2151V27.9681C35.19 27.1619 35.2708 26.3565 35.3932 25.5584C35.5891 25.5751 35.7843 25.5927 35.9898 25.5927C38.2699 25.5927 39.9887 24.561 39.9887 23.1934C39.9887 22.4384 39.4664 21.7682 38.5619 21.3283L38.6794 20.0343C38.929 20.0847 39.1689 20.1855 39.3752 20.3446ZM35.8858 12.7964H36.0946C36.9191 12.7964 37.5901 13.4674 37.5901 14.2919C37.5901 14.3375 37.5885 14.3831 37.5837 14.4279L36.8575 22.4152L37.4678 22.6112C38.1684 22.8351 38.3891 23.1302 38.3891 23.1934C38.3891 23.3926 37.5382 23.9932 35.9898 23.9932C34.4414 23.9932 33.5905 23.3926 33.5905 23.1934C33.5905 23.1302 33.8112 22.8351 34.5118 22.6104L35.122 22.4144L34.3958 14.4279C34.3918 14.3823 34.3902 14.3367 34.3902 14.2919C34.3902 13.4674 35.0613 12.7964 35.8858 12.7964ZM33.3026 20.0607L33.4177 21.3283C32.5132 21.7682 31.9909 22.4384 31.9909 23.1934C31.9909 24.0748 32.7099 24.8114 33.8272 25.2272C33.684 26.135 33.5905 27.0515 33.5905 27.9681V31.2151C33.5905 32.314 33.696 33.4113 33.9008 34.4902L29.1861 33.7648C28.9294 32.8859 28.7918 31.9797 28.7918 31.06V28.1224C28.7918 25.0809 30.2538 22.1745 32.7027 20.3494C32.8811 20.2167 33.0866 20.1191 33.3026 20.0607ZM24.6594 33.0682C24.2251 31.9693 23.9932 30.8185 23.9932 29.6324V27.9505C23.9932 24.9737 25.4392 22.1297 27.8601 20.3414C28.164 20.1175 28.5415 19.9943 28.9222 19.9943C29.4053 19.9943 29.8499 20.1887 30.1754 20.5142C28.2896 22.5808 27.1923 25.2952 27.1923 28.1232V31.0608C27.1923 31.8854 27.2907 32.7011 27.469 33.5009L24.6594 33.0682ZM24.7346 9.03824L24.8801 9.8612L25.6959 9.67965C25.9438 9.62447 26.1718 9.59728 26.3925 9.59728C28.1568 9.59728 29.5916 11.0321 29.5916 12.7964C29.5916 13.6369 29.2653 14.4319 28.6735 15.0349L28.1232 15.5956L28.6735 16.1562C29.2653 16.7592 29.5916 17.5542 29.5916 18.3948C29.5916 18.4188 29.5868 18.4428 29.5868 18.4676C29.3701 18.4244 29.1493 18.3948 28.9222 18.3948C28.2016 18.3948 27.4866 18.6291 26.91 19.0554C25.4544 20.1295 24.3083 21.5347 23.5309 23.1174C23.2278 22.1737 22.9095 21.27 22.5816 20.4118C23.3214 16.5041 26.0654 14.2424 26.0934 14.2192L25.5927 13.5961L25.0929 12.9715C24.9817 13.0603 22.8183 14.827 21.6035 18.0141C19.9391 14.1928 18.3684 11.7207 18.2676 11.5639L16.9216 12.4293C16.9432 12.4621 18.1628 14.3807 19.5824 17.4351C17.1903 16.5345 14.4719 16.7832 14.3159 16.7992L14.4751 18.3908C15.678 18.27 19.085 18.3284 20.6765 19.9527C21.2372 21.3307 21.7898 22.8415 22.2777 24.4603C19.8464 23.2134 16.9456 23.1934 16.7952 23.1934V24.793C16.8328 24.793 20.3934 24.817 22.5008 26.4925C22.4352 26.9739 22.3936 27.4602 22.3936 27.9513V29.6332C22.3936 30.7137 22.56 31.7702 22.8687 32.7939L18.3204 32.0941C18.0805 32.0573 17.8381 32.0325 17.595 32.0149C15.8307 32.0149 14.3959 30.5689 14.3959 28.7926C14.3959 28.4199 14.4703 28.0376 14.6159 27.6546L14.8494 27.0427L14.2951 26.6924C13.357 26.099 12.7964 25.0905 12.7964 23.9932C12.7964 23.3638 12.9811 22.7535 13.3306 22.2273L13.8289 21.4787L13.0275 21.0716C11.4048 20.2463 10.3971 18.6083 10.3971 16.7952C10.3971 14.667 11.827 12.7716 13.8753 12.1853L14.3719 12.043L14.4463 11.5319C14.6742 9.97317 16.0283 8.7975 17.595 8.7975C17.6246 8.7975 17.6534 8.8039 17.6822 8.8079C17.7382 8.8159 17.795 8.8231 17.8517 8.8271L18.4252 8.87348L18.6507 8.34403C19.1554 7.16197 20.3102 6.39819 21.5939 6.39819C23.1438 6.39819 24.4643 7.50827 24.7346 9.03824ZM10.9609 27.1923H10.3971C8.63275 27.1923 7.19796 25.7575 7.19796 23.9932C7.19796 23.6197 7.27234 23.2374 7.4179 22.8559L7.65223 22.2441L7.09799 21.8938C6.15905 21.3004 5.59841 20.2918 5.59841 19.1946C5.59841 18.5651 5.78316 17.9549 6.13266 17.4287L6.63092 16.6801L5.82955 16.273C4.20681 15.4476 3.19909 13.8097 3.19909 11.9966C3.19909 9.8684 4.62909 7.97294 6.67651 7.3867L7.17317 7.24434L7.24754 6.73329C7.47628 5.17453 8.8303 3.99887 10.3971 3.99887C10.4274 3.99887 10.457 4.00526 10.4866 4.00926C10.541 4.01646 10.5954 4.02366 10.6514 4.02846L11.2272 4.07644L11.4536 3.54459C11.9574 2.36333 13.1123 1.59955 14.3959 1.59955C15.9459 1.59955 17.2663 2.70963 17.5366 4.2396L17.6822 5.06256L18.498 4.88102C18.7459 4.82583 18.9738 4.79864 19.1946 4.79864C19.5625 4.79864 19.912 4.87942 20.2463 4.99618C19.0706 5.34009 18.0581 6.12066 17.4367 7.20036C15.3189 7.27154 13.4882 8.76631 12.9635 10.8025C10.4874 11.7263 8.7975 14.1232 8.7975 16.7952C8.7975 18.9378 9.85161 20.8965 11.5959 22.0801C11.3328 22.6808 11.1968 23.3302 11.1968 23.9932C11.1968 25.4328 11.8366 26.7708 12.9347 27.6777C12.8428 28.0488 12.7964 28.4215 12.7964 28.7918C12.7964 30.197 13.401 31.4599 14.3583 32.3412C13.8833 32.4788 13.4266 32.6571 12.9883 32.8691L10.9609 27.1923ZM3.99887 37.7477V37.431C3.99887 37.0295 4.38756 36.72 4.78024 36.8048L8.58636 37.6509C8.49359 37.8925 8.41041 38.138 8.33923 38.3891H4.64028C4.28678 38.3891 3.99887 38.1012 3.99887 37.7477ZM1.59955 40.7884C1.59955 40.3478 1.95864 39.9887 2.39932 39.9887H4.64028H8.03772C8.01453 40.2526 7.99773 40.5181 7.99773 40.7884C7.99773 41.0588 8.01453 41.3243 8.03852 41.5882H4.64028H2.39932C1.95864 41.5882 1.59955 41.2291 1.59955 40.7884ZM4.77864 44.7721C4.39955 44.8537 3.99887 44.5466 3.99887 44.1459V43.8292C3.99887 43.4757 4.28678 43.1878 4.64028 43.1878H8.33843C8.40961 43.4389 8.49359 43.6844 8.58556 43.9259L4.77864 44.7721ZM47.9864 40.7884C47.9864 42.2448 46.9419 43.4621 45.5031 43.6836L18.0789 47.9024C17.7158 47.9584 17.3471 47.9864 16.9832 47.9864H16.7952C12.8268 47.9864 9.59728 44.7569 9.59728 40.7884C9.59728 36.82 12.8268 33.5905 16.7952 33.5905H16.9832C17.3471 33.5905 17.7158 33.6185 18.0781 33.6736L45.5023 37.8925C46.9419 38.1148 47.9864 39.332 47.9864 40.7884ZM47.9864 29.6324C47.9864 32.0925 46.9907 34.4726 45.2584 36.2369L43.6692 35.9922C44.3994 34.4582 44.7873 32.7763 44.7873 31.06V28.1224C44.7873 25.28 43.7044 22.552 41.8441 20.4822C42.1672 20.1775 42.5959 19.9943 43.0574 19.9943C43.4389 19.9943 43.8156 20.1175 44.1195 20.343C46.5404 22.1297 47.9864 24.9745 47.9864 27.9513V29.6324Z" fill="#4AA760"/>
<path d="M15.9955 36.7896H17.595V44.7873H15.9955V36.7896Z" fill="#4AA760"/>
<path d="M22.3937 36.7896H23.9932V44.7873H22.3937V36.7896Z" fill="#4AA760"/>
<path d="M28.7919 36.7896H30.3914V44.7873H28.7919V36.7896Z" fill="#4AA760"/>
<path d="M35.1901 38.3891H36.7896V43.1877H35.1901V38.3891Z" fill="#4AA760"/>
<path d="M41.5883 39.1889H43.1878V42.388H41.5883V39.1889Z" fill="#4AA760"/>
</svg>
