<svg width="40" height="41" viewBox="0 0 40 41" fill="none" xmlns="../../../../../external.html?link=http://www.w3.org/2000/svg">
<path d="M38.9986 24.7288C37.5159 24.4871 36.0657 24.331 34.647 24.2437V18.4397C37.3042 18.0091 39.3511 15.5324 39.3511 12.5417C39.3511 9.96317 37.3307 1.84535 33.8266 1.84535C30.3225 1.84535 28.3021 9.96317 28.3021 12.5417C28.3021 15.5324 30.349 18.0091 33.0063 18.4397V24.1751C28.5239 24.0706 24.3977 24.6787 20.6923 25.6762V22.2305C24.2372 21.7877 27.0003 18.5196 27.0003 14.5611C27.0003 10.9462 24.2004 0.5 19.872 0.5C15.5435 0.5 12.7436 10.9462 12.7436 14.5611C12.7436 18.5196 15.5067 21.7877 19.0516 22.2305V26.1025C15.2024 24.775 10.6092 24.2687 6.65671 24.3407V18.4397C9.31397 18.0091 11.3609 15.5324 11.3609 12.5417C11.3609 9.96317 9.34046 1.84535 5.83637 1.84535C2.33228 1.84535 0.311861 9.96317 0.311861 12.5417C0.311861 15.5324 2.35877 18.0091 5.01602 18.4397V24.4035C3.48995 24.4978 2.10206 24.6806 0.953557 24.9393C0.51134 25.0389 0.233352 25.4818 0.331088 25.9288C0.430427 26.3761 0.87024 26.6555 1.31085 26.5579C4.26297 25.8938 10.5914 25.5509 16.4348 27.0447C14.9616 27.5987 13.5758 28.2012 12.2846 28.8294C6.58336 27.6427 2.38916 28.5188 0.798139 29.2357C0.383962 29.4219 0.198102 29.9122 0.383161 30.3304C0.567679 30.7484 1.05269 30.9372 1.46627 30.7498C2.59935 30.2396 5.63018 29.5699 9.84206 30.1008C3.98639 33.3595 0.617838 36.7579 0.546589 36.8312C0.229346 37.1579 0.234153 37.683 0.557804 38.0037C0.882751 38.3263 1.40338 38.3173 1.71782 37.9923C1.86603 37.8397 16.762 22.7854 38.7375 26.366C39.1829 26.4409 39.6059 26.1308 39.678 25.6794C39.7501 25.2271 39.4457 24.8016 38.9986 24.7288ZM29.9428 12.5417C29.9428 9.55466 32.0786 3.50365 33.8266 3.50365C35.5747 3.50365 37.7104 9.55466 37.7104 12.5417C37.7104 14.6068 36.3951 16.3337 34.647 16.7535V11.5231C34.647 11.0652 34.2801 10.6939 33.8266 10.6939C33.3732 10.6939 33.0063 11.0652 33.0063 11.5231V16.7535C31.2582 16.3337 29.9428 14.6068 29.9428 12.5417ZM1.95255 12.5417C1.95255 9.55466 4.08833 3.50365 5.83637 3.50365C7.58441 3.50365 9.72019 9.55466 9.72019 12.5417C9.72019 14.6068 8.4048 16.3337 6.65671 16.7535V11.5231C6.65671 11.0652 6.2898 10.6939 5.83637 10.6939C5.38294 10.6939 5.01602 11.0652 5.01602 11.5231V16.7535C3.26794 16.3337 1.95255 14.6068 1.95255 12.5417ZM14.3843 14.5611C14.3843 10.7644 17.1962 2.1583 19.872 2.1583C22.5477 2.1583 25.3596 10.7644 25.3596 14.5611C25.3596 17.5971 23.3293 20.1121 20.6923 20.5521V19.5443C20.7216 19.3415 20.9814 17.8276 22.2649 17.6304C22.7127 17.5616 23.0203 17.1385 22.9522 16.6858C22.8842 16.2332 22.4644 15.9219 22.0181 15.9907C21.5498 16.0627 21.1566 16.2174 20.8231 16.4204C21.0566 15.5724 21.6602 14.1778 23.1429 13.9401C23.5899 13.868 23.8952 13.4433 23.8239 12.9911C23.7526 12.5393 23.3416 12.2312 22.885 12.302C21.9406 12.4537 21.2323 12.8756 20.6923 13.4012V9.21337C20.6923 8.75547 20.3254 8.38422 19.872 8.38422C19.4185 8.38422 19.0516 8.75547 19.0516 9.21337V13.4012C18.5117 12.8756 17.8033 12.4537 16.8589 12.302C16.4055 12.2324 15.9913 12.5397 15.92 12.9911C15.8487 13.4433 16.154 13.868 16.601 13.9401C18.0833 14.1777 18.6869 15.5719 18.9202 16.42C18.587 16.2173 18.1944 16.0627 17.7266 15.9907C17.2771 15.9219 16.8606 16.2332 16.7925 16.6858C16.7244 17.1385 17.032 17.5616 17.4798 17.6304C18.76 17.8273 19.0216 19.3353 19.0516 19.5433V20.5521C16.4146 20.1121 14.3843 17.5971 14.3843 14.5611Z" fill="white"/>
<path d="M39.0234 28.8328C19.4497 25.0199 7.57874 36.7227 5.39729 39.1077C5.08966 39.4438 5.11049 39.9685 5.44296 40.2794C5.77796 40.5922 6.29656 40.5674 6.60217 40.2332C8.68027 37.962 19.9985 26.8142 38.7126 30.4612C39.166 30.5498 39.5882 30.2531 39.6731 29.8041C39.7596 29.3543 39.468 28.9195 39.0234 28.8328Z" fill="white"/>
<path d="M39.6726 34.1336C39.7615 33.6847 39.4731 33.2478 39.0293 33.1583C26.0839 30.5428 16.3738 34.119 11.591 39.0924C11.2753 39.4207 11.2826 39.9454 11.607 40.2648C11.929 40.5812 12.4481 40.5799 12.767 40.2486C13.1643 39.8357 13.9816 39.0599 15.2417 38.1936C15.5868 38.5624 16.0923 39.1802 16.5619 40.0632C16.7784 40.47 17.2787 40.6157 17.6731 40.4009C18.072 40.1839 18.2218 39.681 18.0071 39.2778C17.5509 38.4203 17.0627 37.7714 16.6633 37.3107C17.9464 36.5713 19.3421 35.9465 20.8323 35.4433C21.3982 36.1325 22.5689 37.7203 23.3955 39.96C23.5526 40.3875 24.0239 40.6082 24.4505 40.4474C24.8751 40.2875 25.0906 39.8098 24.932 39.381C24.1897 37.3685 23.2116 35.8535 22.5189 34.9273C23.8564 34.5709 25.26 34.3115 26.7085 34.1471C27.4666 35.001 29.6009 37.5547 30.201 39.8798C30.3155 40.3239 30.7644 40.5874 31.2024 40.4729C31.6406 40.3571 31.9033 39.9041 31.7888 39.4612C31.2551 37.3944 29.7711 35.2825 28.7241 33.9789C30.3333 33.8999 32.0124 33.9346 33.7358 34.0756C35.1558 35.596 37.1955 38.2696 37.1955 39.6664C37.1955 40.1243 37.5624 40.4956 38.0159 40.4956C38.4693 40.4956 38.8362 40.1243 38.8362 39.6664C38.8362 38.0104 37.3511 35.8366 36.1522 34.3509C36.9944 34.4694 37.8464 34.6105 38.7072 34.7843C39.1558 34.8721 39.5844 34.5822 39.6726 34.1336Z" fill="white"/>
</svg>
