<svg width="50" height="50" viewBox="0 0 50 50" fill="none" xmlns="../../../../../external.html?link=http://www.w3.org/2000/svg">
<g clip-path="url(#clip0_1670_31451)">
<path d="M44.4742 28.0157C44.4742 26.2823 43.064 24.8723 41.3307 24.8723C39.5974 24.8723 38.1873 26.2824 38.1873 28.0157C38.1873 29.749 39.5974 31.1592 41.3307 31.1592C43.064 31.1592 44.4742 29.749 44.4742 28.0157ZM39.652 28.0157C39.652 27.09 40.405 26.3371 41.3306 26.3371C42.2562 26.3371 43.0092 27.0901 43.0092 28.0157C43.0092 28.9413 42.2562 29.6943 41.3306 29.6943C40.405 29.6943 39.652 28.9413 39.652 28.0157Z" fill="#4AA760"/>
<path d="M42.9873 47.0443C45.0168 47.0443 46.6679 45.3932 46.6679 43.3636C46.6679 41.334 45.0168 39.6828 42.9873 39.6828C40.9577 39.6828 39.3065 41.334 39.3065 43.3636C39.3065 45.3932 40.9577 47.0443 42.9873 47.0443ZM42.9873 41.1476C44.2092 41.1476 45.2031 42.1417 45.2031 43.3636C45.2031 44.5854 44.2091 45.5795 42.9873 45.5795C41.7655 45.5795 40.7714 44.5854 40.7714 43.3636C40.7714 42.1417 41.7655 41.1476 42.9873 41.1476Z" fill="#4AA760"/>
<path d="M35.5817 36.2315C35.5817 37.5992 36.6945 38.712 38.0621 38.712C39.4298 38.712 40.5425 37.5992 40.5425 36.2315C40.5425 34.8638 39.4297 33.751 38.0621 33.751C36.6945 33.751 35.5817 34.8637 35.5817 36.2315ZM39.0778 36.2315C39.0778 36.7915 38.6222 37.2471 38.0622 37.2471C37.5023 37.2471 37.0466 36.7915 37.0466 36.2315C37.0466 35.6715 37.5023 35.2159 38.0622 35.2159C38.6222 35.2159 39.0778 35.6714 39.0778 36.2315Z" fill="#4AA760"/>
<path d="M48.9284 36.8995C47.3919 36.43 46.3594 35.0345 46.3594 33.427C46.3594 31.8195 47.3918 30.4241 48.9283 29.9546C49.5692 29.7589 50 29.1749 50 28.5015C50 26.7874 49.3327 25.1762 48.1213 23.9648C46.9098 22.7533 45.2989 22.086 43.5855 22.086H38.7436V18.1685C38.7436 15.7351 38.0052 13.404 36.6646 11.6045L33.0021 6.68787H33.0063C33.8409 6.68787 34.5199 6.00886 34.5199 5.17419V1.74207C34.5199 0.907398 33.8409 0.228394 33.0063 0.228394H21.8739C21.0393 0.228394 20.3603 0.907398 20.3603 1.74207V5.1741C20.3603 6.00876 21.0393 6.68777 21.8739 6.68777H21.878L18.2155 11.6044C16.8749 13.4041 16.1366 15.7352 16.1366 18.1684V26.3419H10.9391C10.5345 26.3419 10.2066 26.6698 10.2066 27.0743C10.2066 27.4788 10.5345 27.8067 10.9391 27.8067H23.0217V29.6052H1.46484V27.8067H7.48213C7.88672 27.8067 8.21455 27.4788 8.21455 27.0743C8.21455 26.6698 7.88672 26.3419 7.48213 26.3419H1.325C0.594434 26.3419 0 26.9363 0 27.6669V29.7449C0 30.3581 0.419238 30.8738 0.985742 31.0243L2.44043 42.8332C2.44043 42.8335 2.44053 42.8337 2.44053 42.834L3.13066 48.4364C3.22568 49.1975 3.8752 49.7715 4.6417 49.7715H20.1244H33.3306H42.8319C43.2365 49.7715 43.5644 49.4435 43.5644 49.039C43.5644 48.6345 43.2365 48.3066 42.8319 48.3066H33.3306C33.2993 48.3066 33.2729 48.2802 33.2729 48.2489V28.5014C33.2729 25.7717 35.4937 23.5508 38.2234 23.5508H43.5854C44.9075 23.5508 46.1506 24.0656 47.0854 25.0006C48.0203 25.9353 48.5352 27.1787 48.5352 28.5014C48.5352 28.5256 48.5206 28.5474 48.5005 28.5536C46.3438 29.2126 44.8946 31.171 44.8946 33.4269C44.8946 35.6829 46.3438 37.6414 48.5007 38.3004C48.5207 38.3064 48.5353 38.3284 48.5353 38.3524V48.2489C48.5353 48.2807 48.5094 48.3066 48.4775 48.3066H46.2889C45.8843 48.3066 45.5564 48.6345 45.5564 49.039C45.5564 49.4435 45.8843 49.7715 46.2889 49.7715H48.4775C49.3171 49.7715 50.0001 49.0885 50.0001 48.2489V38.3525C50 37.679 49.5693 37.0951 48.9284 36.8995ZM21.8251 5.1741V1.74207C21.8251 1.71511 21.8471 1.69324 21.8739 1.69324H33.0062C33.033 1.69324 33.055 1.71511 33.055 1.74207V5.1741C33.055 5.20105 33.033 5.22292 33.0062 5.22292H21.8739C21.8471 5.22292 21.8251 5.20105 21.8251 5.1741ZM17.6014 18.1684C17.6014 16.0483 18.2366 14.028 19.3901 12.4795L23.7046 6.68777H31.1755L35.4898 12.4795C36.6434 14.0278 37.2786 16.0482 37.2786 18.1684V22.156C36.7562 22.2335 36.2542 22.3745 35.7805 22.5704V18.1684C35.7805 16.3949 35.2366 14.6474 34.2883 13.3743L32.8692 11.4694C32.5462 11.0353 32.0305 10.7761 31.4895 10.7761H23.3906C22.8498 10.7761 22.3341 11.0352 22.0111 11.469L20.5919 13.3743C19.6436 14.6474 19.0997 16.3949 19.0997 18.1684V26.3419H17.6015L17.6014 18.1684ZM31.8109 48.3067H21.6513L21.8358 46.8086H31.808V48.249C31.808 48.2684 31.8102 48.2874 31.8109 48.3067ZM20.9491 42.0261H17.3061C17.644 41.3173 17.8339 40.5247 17.8339 39.6885C17.8339 38.8521 17.644 38.0595 17.3061 37.3507H21.5252L20.9491 42.0261ZM3.24092 37.3506H7.46064C7.12266 38.0594 6.93281 38.8521 6.93281 39.6884C6.93281 40.5246 7.12256 41.3172 7.46055 42.0261H3.81689L3.24092 37.3506ZM8.39766 39.6885C8.39766 37.4908 10.1856 35.7028 12.3832 35.7028C14.581 35.7028 16.3688 37.4908 16.3688 39.6885C16.3688 41.8861 14.5809 43.6741 12.3832 43.6741C10.1856 43.6741 8.39766 41.8861 8.39766 39.6885ZM21.7055 35.8857H16.2828C15.2923 34.8702 13.9105 34.2379 12.3832 34.2379C10.8559 34.2379 9.47422 34.8701 8.48369 35.8857H3.06045L2.46719 31.07H22.2987L21.7055 35.8857ZM4.58428 48.2562L3.99727 43.491H8.48359C9.47412 44.5066 10.8559 45.1389 12.3833 45.1389C13.9107 45.1389 15.2925 44.5066 16.283 43.491H20.7687L20.1815 48.2571C20.178 48.2858 20.154 48.3067 20.1243 48.3067H4.6416C4.61211 48.3067 4.58789 48.2849 4.58428 48.2562ZM31.808 28.5014V45.3436H22.0163L22.3249 42.8382C22.3251 42.8359 22.3255 42.8338 22.3257 42.8315L23.7944 30.9086C24.2063 30.6836 24.4864 30.2464 24.4864 29.7449V27.6669C24.4864 26.9363 23.892 26.3419 23.1614 26.3419H20.5645V18.1684C20.5645 16.7035 21.0025 15.275 21.7666 14.2494L23.186 12.3439C23.2347 12.2786 23.3093 12.241 23.3906 12.241H31.4896C31.5709 12.241 31.6455 12.2785 31.6943 12.3441L33.1137 14.2493C33.8776 15.275 34.3158 16.7035 34.3158 18.1684V23.4185C32.7922 24.5927 31.808 26.4338 31.808 28.5014Z" fill="#4AA760"/>
</g>
<defs>
<clipPath id="clip0_1670_31451">
<rect width="50" height="50" fill="white"/>
</clipPath>
</defs>
</svg>
