<svg width="50" height="50" viewBox="0 0 50 50" fill="none" xmlns="../../../../../external.html?link=http://www.w3.org/2000/svg">
<path d="M46.8483 29.8114C45.1432 29.5364 43.4755 29.3589 41.8439 29.2595V22.6558C44.8998 22.1659 47.2537 19.3479 47.2537 15.9452C47.2537 13.0113 44.9302 3.77498 40.9005 3.77498C36.8708 3.77498 34.5473 13.0113 34.5473 15.9452C34.5473 19.3479 36.9013 22.1659 39.9571 22.6558V29.1814C34.8024 29.0625 30.0573 29.7544 25.796 30.8894V26.969C29.8727 26.4651 33.0502 22.7467 33.0502 18.2428C33.0502 14.1298 29.8304 2.24426 24.8526 2.24426C19.8749 2.24426 16.655 14.1298 16.655 18.2428C16.655 22.7467 19.8326 26.4651 23.9093 26.969V31.3744C19.4827 29.864 14.2005 29.288 9.65512 29.3699V22.6558C12.711 22.1659 15.0649 19.3479 15.0649 15.9452C15.0649 13.0113 12.7414 3.77498 8.71173 3.77498C4.68202 3.77498 2.35854 13.0113 2.35854 15.9452C2.35854 19.3479 4.71248 22.1659 7.76833 22.6558V29.4414C6.01334 29.5487 4.41727 29.7566 3.09649 30.051C2.58794 30.1643 2.26826 30.6682 2.38065 31.1768C2.49489 31.6858 3.00068 32.0036 3.50739 31.8926C6.90232 31.137 14.18 30.7468 20.8999 32.4465C19.2057 33.0767 17.612 33.7623 16.1272 34.477C9.57077 33.1268 4.74744 34.1236 2.91776 34.9393C2.44146 35.1512 2.22772 35.709 2.44054 36.1849C2.65273 36.6604 3.2105 36.8753 3.68611 36.6621C4.98916 36.0815 8.47461 35.3196 13.3183 35.9236C6.58425 39.6313 2.71042 43.498 2.62848 43.5814C2.26365 43.9532 2.26918 44.5506 2.64138 44.9154C3.01507 45.2826 3.61379 45.2723 3.9754 44.9025C4.14584 44.7289 21.2762 27.6003 46.548 31.6743C47.0602 31.7595 47.5467 31.4066 47.6296 30.893C47.7125 30.3785 47.3624 29.8943 46.8483 29.8114ZM36.4341 15.9452C36.4341 12.5465 38.8903 5.66177 40.9005 5.66177C42.9108 5.66177 45.3669 12.5465 45.3669 15.9452C45.3669 18.2948 43.8542 20.2596 41.8439 20.7373V14.7862C41.8439 14.2652 41.422 13.8428 40.9005 13.8428C40.3791 13.8428 39.9571 14.2652 39.9571 14.7862V20.7373C37.9468 20.2596 36.4341 18.2948 36.4341 15.9452ZM4.24534 15.9452C4.24534 12.5465 6.70148 5.66177 8.71173 5.66177C10.722 5.66177 13.1781 12.5465 13.1781 15.9452C13.1781 18.2948 11.6654 20.2596 9.65512 20.7373V14.7862C9.65512 14.2652 9.23317 13.8428 8.71173 13.8428C8.19028 13.8428 7.76833 14.2652 7.76833 14.7862V20.7373C5.75803 20.2596 4.24534 18.2948 4.24534 15.9452ZM18.5418 18.2428C18.5418 13.9229 21.7756 4.13106 24.8526 4.13106C27.9297 4.13106 31.1635 13.9229 31.1635 18.2428C31.1635 21.6971 28.8286 24.5587 25.796 25.0593V23.9126C25.8297 23.6819 26.1285 21.9594 27.6045 21.735C28.1195 21.6567 28.4733 21.1753 28.395 20.6603C28.3167 20.1453 27.8339 19.7911 27.3208 19.8694C26.7822 19.9513 26.33 20.1273 25.9465 20.3583C26.2149 19.3934 26.9091 17.8067 28.6143 17.5362C29.1283 17.4542 29.4793 16.971 29.3973 16.4565C29.3154 15.9424 28.8427 15.5918 28.3176 15.6725C27.2316 15.845 26.417 16.325 25.796 16.9231V12.1582C25.796 11.6372 25.3741 11.2148 24.8526 11.2148C24.3312 11.2148 23.9093 11.6372 23.9093 12.1582V16.9231C23.2883 16.325 22.4737 15.845 21.3877 15.6725C20.8662 15.5932 20.3899 15.9429 20.3079 16.4565C20.226 16.971 20.577 17.4542 21.091 17.5362C22.7956 17.8066 23.4899 19.3928 23.7582 20.3578C23.375 20.1272 22.9234 19.9513 22.3854 19.8694C21.8686 19.7911 21.3895 20.1453 21.3112 20.6603C21.2329 21.1753 21.5867 21.6567 22.1017 21.735C23.5738 21.9591 23.8748 23.6749 23.9093 23.9115V25.0593C20.8767 24.5587 18.5418 21.6971 18.5418 18.2428Z" fill="#4AA760"/>
<path d="M46.8769 34.4809C24.3671 30.1426 10.7155 43.4579 8.20683 46.1716C7.85305 46.5539 7.87701 47.1509 8.25934 47.5047C8.6446 47.8606 9.24099 47.8323 9.59244 47.4522C11.9823 44.868 24.9982 32.1842 46.5194 36.3336C47.0409 36.4345 47.5264 36.0969 47.624 35.586C47.7235 35.0742 47.3882 34.5795 46.8769 34.4809Z" fill="#4AA760"/>
<path d="M47.6231 40.5122C47.7254 40.0013 47.3937 39.5043 46.8833 39.4025C31.9961 36.4265 20.8296 40.4955 15.3293 46.1541C14.9663 46.5277 14.9746 47.1247 15.3477 47.4881C15.718 47.8481 16.3149 47.8466 16.6817 47.4697C17.1386 46.9999 18.0785 46.1171 19.5277 45.1315C19.9244 45.5512 20.5058 46.254 21.0459 47.2587C21.2948 47.7216 21.8702 47.8873 22.3237 47.6429C22.7825 47.396 22.9548 46.8239 22.7079 46.3651C22.1831 45.3895 21.6218 44.6511 21.1625 44.1269C22.638 43.2857 24.243 42.5747 25.9568 42.0023C26.6076 42.7864 27.9538 44.593 28.9044 47.1413C29.0851 47.6277 29.6272 47.8788 30.1178 47.6959C30.6061 47.5139 30.8539 46.9704 30.6715 46.4825C29.8178 44.1927 28.693 42.469 27.8964 41.4151C29.4345 41.0096 31.0486 40.7145 32.7145 40.5275C33.5863 41.499 36.0407 44.4046 36.7308 47.0501C36.8624 47.5554 37.3787 47.8552 37.8824 47.7249C38.3863 47.5932 38.6885 47.0777 38.5567 46.5738C37.943 44.2222 36.2364 41.8193 35.0324 40.3361C36.8829 40.2462 38.814 40.2856 40.7959 40.4462C42.4289 42.176 44.7745 45.218 44.7745 46.8073C44.7745 47.3283 45.1964 47.7507 45.7179 47.7507C46.2393 47.7507 46.6613 47.3283 46.6613 46.8073C46.6613 44.9231 44.9534 42.4498 43.5747 40.7593C44.5433 40.8942 45.523 41.0547 46.513 41.2524C47.0289 41.3524 47.5218 41.0225 47.6231 40.5122Z" fill="#4AA760"/>
</svg>
