<svg width="50" height="50" viewBox="0 0 50 50" fill="none" xmlns="../../../../../external.html?link=http://www.w3.org/2000/svg">
<g clip-path="url(#clip0_1670_9624)">
<path d="M34.258 26.9768C38.7583 23.8731 37.6997 16.1476 32.3106 14.6625C31.928 14.5568 30.412 14.6144 30.2282 14.4397C29.9211 14.1483 29.7403 12.7513 29.5038 12.3172C28.8293 11.0782 27.7555 10.081 26.4871 9.46953C23.8469 8.19694 20.6551 8.74587 18.6886 10.9485C16.7942 8.38424 13.4854 7.60642 10.6236 8.98582C9.35592 9.59694 8.25957 10.5804 7.54736 11.7969C7.18191 12.421 6.92061 13.1027 6.7787 13.8118C6.6078 14.6652 6.82524 15.446 6.75886 16.2769C6.7127 16.851 6.84507 16.735 6.21755 16.9758C5.86126 17.1123 5.51831 17.2821 5.19139 17.4793C4.4685 17.9165 3.84174 18.4929 3.33591 19.1688C2.36774 20.4624 1.86763 22.0913 1.92065 23.7049C1.94507 24.4415 2.08392 25.177 2.33874 25.8686C2.4879 26.2734 2.67673 26.664 2.90027 27.0325C2.99449 27.1878 3.22338 27.4273 3.27297 27.5807C3.41678 28.0266 3.42403 27.6734 3.20545 28.0987C2.7946 28.8983 2.04539 29.4777 1.68032 30.3635C1.3122 31.2562 1.12948 32.2156 1.1413 33.1814C1.15237 34.0878 1.33318 34.9923 1.68643 35.8281C1.85466 36.2264 2.12703 36.5731 2.30098 36.9607C2.44746 37.2876 2.56686 37.2502 2.48866 37.5314C2.45319 37.6595 1.90387 38.0635 1.82338 38.1497C0.624027 39.4368 -0.0126496 41.1859 -6.10028e-05 42.9384C0.027405 46.7214 3.14327 49.8976 6.97859 49.6977C8.70094 49.608 10.3687 48.8477 11.5437 47.5813C11.7176 47.394 12.2002 46.4834 12.4027 46.4216C12.5679 46.3708 13.422 46.813 13.5948 46.8584C14.4989 47.0941 15.4431 47.122 16.362 46.9591C18.0699 46.6558 19.637 45.6766 20.6559 44.2728C20.9355 43.8875 21.0942 43.4156 21.3658 43.0383C21.4299 42.9498 21.4806 42.5756 21.5676 42.5302C21.6103 42.5077 22.2062 42.7045 22.3267 42.7282C23.3277 42.9246 24.3752 42.875 25.3564 42.5996C26.397 42.3078 27.3614 41.7623 28.1503 41.0249C28.367 40.822 29.0216 39.7599 29.2596 39.6787C29.5282 39.5867 30.4178 39.9865 30.7309 40.0212C32.8027 40.2501 34.9107 39.4277 36.3332 37.9159C39.4392 34.615 38.3791 28.9048 34.258 26.9768ZM28.7572 19.9734C28.9983 19.6915 29.2424 19.3577 29.4084 19.0246C29.4648 18.9262 29.5182 18.8263 29.5686 18.7244C29.8055 18.2495 29.9943 17.7555 30.1179 17.2382C30.2884 16.5268 30.1351 16.4222 30.8454 16.3616C31.5168 16.3044 32.3286 16.6317 32.8939 16.9712C34.0192 17.6464 34.7543 18.8236 35.0443 20.087C35.3258 21.3158 35.2045 22.6666 34.6181 23.7915C34.3031 24.3958 33.856 24.9256 33.3036 25.3266C33.1205 25.4597 31.4851 26.244 31.4851 26.0716C31.487 26.0395 31.4882 26.0071 31.4882 25.9743C31.4939 25.7447 31.4893 25.5062 31.468 25.277C31.466 25.2423 31.463 25.2075 31.4592 25.1728C31.4592 25.1682 31.4584 25.1633 31.4584 25.1576C31.2486 23.1617 30.2392 21.3299 28.5855 20.1771C28.6428 20.1092 28.7 20.0413 28.7572 19.9734C28.7862 19.9394 28.7027 20.0424 28.7572 19.9734C29.004 19.6846 28.7027 20.0424 28.7572 19.9734ZM28.618 22.8718C28.6332 22.8909 28.647 22.9092 28.6592 22.9286C28.901 23.2678 29.0941 23.6405 29.2421 24.0292C29.2592 24.0734 29.2756 24.1177 29.2901 24.1627C29.2978 24.181 29.3035 24.1993 29.3092 24.2176C29.3199 24.2474 29.3294 24.2771 29.3382 24.308C29.4458 24.6201 29.4935 24.9512 29.54 25.2766C29.5446 25.3227 29.5495 25.3689 29.5522 25.4154C29.5553 25.4376 29.556 25.4597 29.5572 25.4818C29.561 25.5261 29.5629 25.5703 29.5648 25.6146C29.5659 25.6249 29.5659 25.6367 29.5659 25.647C29.5858 26.0643 29.5743 26.5705 29.4412 26.9707C29.4324 27.0085 29.4267 27.0451 29.4236 27.0825C28.7244 28.7648 27.6494 30.2598 25.7684 30.6592C25.7672 30.6592 25.7653 30.6603 25.7646 30.6603C24.5889 30.9113 23.1751 30.6992 22.1974 29.9649C22.1188 29.9138 22.0437 29.86 21.9739 29.8062C21.9727 29.805 21.9708 29.8039 21.9701 29.8031C19.9631 28.2776 19.5965 25.5261 20.7894 23.3738C22.0258 21.1437 24.2726 20.4872 26.6027 21.2662C26.6538 21.2875 26.7034 21.3104 26.7533 21.3337C26.7545 21.3337 26.7556 21.3337 26.7564 21.3345C26.8052 21.3577 26.8544 21.3806 26.9025 21.4058C26.9109 21.4096 26.9197 21.4146 26.9284 21.4184C27.0677 21.4897 27.2031 21.5683 27.3336 21.6537C27.4533 21.7312 27.5697 21.8136 27.6822 21.9013C27.789 21.9837 27.892 22.0715 27.9901 22.1638C28.0084 22.179 28.0259 22.1954 28.0431 22.213C28.1697 22.3228 28.5752 22.8123 28.618 22.8718C28.6332 22.8909 28.5623 22.794 28.618 22.8718ZM18.3644 23.9319C18.3026 24.1482 18.2526 24.3675 18.2133 24.5907C16.8255 24.6285 15.598 24.0097 14.6385 23.0457C14.0404 22.3934 13.6276 21.5874 13.4449 20.7149C12.5313 18.3304 14.7446 15.4316 16.9697 14.8727C16.7183 17.3118 17.8368 19.807 19.8418 21.2238C19.1502 22.0039 18.6383 22.9424 18.3594 23.9472C18.3983 23.8079 18.4388 23.6691 18.4769 23.5294C18.4395 23.6637 18.4018 23.798 18.3644 23.9319C18.6463 22.9256 18.3026 24.1482 18.3644 23.9319ZM19.7892 30.3753H19.788V30.3765C18.681 31.1574 17.685 32.3712 17.3081 33.6945H17.3069C17.149 33.656 16.9934 33.6114 16.8393 33.5599C16.3975 33.4122 15.9199 33.3794 15.4568 33.371C15.2714 33.3672 15.086 33.3699 14.9006 33.3791C14.7572 33.4038 14.6134 33.4164 14.4688 33.4164C14.3509 33.4222 14.2353 33.4397 14.122 33.4683C14.1144 33.4695 14.1056 33.4702 14.098 33.4721C14.0488 33.4916 13.9984 33.5011 13.9473 33.5011C12.3486 32.6276 11.2957 30.8301 11.3865 29.0028V28.9902C11.3888 28.9399 11.3911 28.8895 11.393 28.8392C11.393 28.8334 11.393 28.8277 11.3941 28.8228C11.396 28.7854 11.3991 28.7487 11.4018 28.7121C11.4018 28.7075 11.4029 28.7026 11.4029 28.6976C11.4151 28.5595 11.4269 28.3783 11.4624 28.236C11.4948 28.0506 11.5372 27.8687 11.5921 27.6886C11.594 27.6829 11.5959 27.676 11.5978 27.6703C11.5997 27.6589 11.6036 27.6482 11.6074 27.6368C11.7024 27.2995 11.8477 27.0108 12.0018 26.7018C12.0789 26.5618 12.162 26.4263 12.2517 26.2947C12.5073 25.9033 12.8308 25.5524 13.1966 25.2613C13.2996 25.153 13.4159 25.0664 13.546 25.0015C13.5861 24.9737 13.6265 24.947 13.6677 24.9218C13.6967 24.9027 13.7257 24.8852 13.7543 24.868L13.7554 24.8688C14.967 25.932 16.5043 26.516 18.108 26.516H18.1366C18.1675 26.8883 18.2095 27.4285 18.3785 27.7676C18.3983 27.8382 18.4197 27.9084 18.443 27.9782C18.4449 27.9847 18.4479 27.9908 18.4498 27.9972C18.4731 28.0682 18.4975 28.1388 18.5227 28.209C18.8107 29.0024 19.2399 29.7333 19.7892 30.3753ZM19.4512 13.1874C19.455 13.1786 19.4596 13.1698 19.4638 13.1614C19.4646 13.1595 19.4665 13.1565 19.4676 13.1545C21.7973 8.89122 28.3471 10.7917 28.399 15.5269C28.399 15.5372 28.399 15.549 28.4002 15.5597V15.5738C28.4002 16.708 28.0099 17.8013 27.321 18.6947C27.3152 18.7015 27.3103 18.708 27.3046 18.7149C27.1443 18.9178 26.9631 19.1067 26.7728 19.2806C25.4785 18.856 23.7046 18.7824 22.4507 19.4115C22.2695 19.479 21.5516 19.9386 21.3906 19.9299C21.1381 19.9161 20.7471 19.5038 20.5731 19.3542C20.0101 18.8705 19.558 18.2583 19.2639 17.5758C19.2608 17.5682 19.2582 17.5605 19.2544 17.5529C18.6638 16.1594 18.8065 14.3779 19.4199 13.2446C19.3642 13.348 19.3745 13.3285 19.4512 13.1874C19.455 13.1786 19.3024 13.4624 19.4512 13.1874ZM13.3511 10.155C15.1062 10.155 16.708 11.1499 17.5404 12.7216C17.5324 12.7372 17.5259 12.7525 17.519 12.7689C17.5087 12.791 17.4988 12.8131 17.4893 12.836C14.0778 13.1545 11.4571 16.2113 11.4151 19.5942C11.0218 19.4282 10.6384 19.183 10.3207 18.8976C10.2852 18.869 10.2505 18.8381 10.2169 18.8072C6.68829 16.1583 9.18121 10.155 13.3511 10.155ZM7.58513 18.5695C7.59085 18.5802 7.59772 18.592 7.6042 18.6016C7.7217 18.8057 7.8987 19.1307 8.0757 19.3077C8.10164 19.3432 8.12949 19.3786 8.15734 19.4134C8.1745 19.4366 8.19281 19.4588 8.21227 19.4809C8.23783 19.5137 8.26377 19.5453 8.29162 19.5782C8.29162 19.5789 8.29162 19.5789 8.29276 19.5789C8.81233 20.2068 9.50088 20.8046 10.2417 21.1597C10.6285 21.368 11.4239 21.4672 11.7275 21.7358C12.0361 22.0093 12.2448 23.0019 12.4928 23.3925C12.1555 23.6 11.8401 23.867 11.5601 24.1474C11.5448 24.1612 11.5296 24.1757 11.5151 24.1909C11.4884 24.2157 11.4624 24.2417 11.4372 24.2687C10.9848 24.7219 10.6129 25.2423 10.3043 25.8023C10.2997 25.8099 10.2959 25.8187 10.2921 25.8263C10.1963 25.9083 10.1486 26.0021 10.149 26.107C10.1269 26.1582 10.1036 26.2085 10.0788 26.2581C10.0777 26.26 10.0769 26.2612 10.0769 26.2631C10.0079 26.4145 9.94492 26.5683 9.88846 26.7247C9.84306 26.8498 9.78546 26.9905 9.75685 27.1229C9.74502 27.1614 9.73396 27.2003 9.72328 27.2393C9.71184 27.2766 9.70154 27.3144 9.69276 27.3529C9.68895 27.3651 9.6859 27.3777 9.68323 27.3903C9.67445 27.4201 9.66682 27.4498 9.65996 27.4796C9.65919 27.4853 9.65729 27.4903 9.65614 27.496C9.6035 27.7134 9.58519 27.9396 9.5314 28.1559C9.53064 28.1609 9.53064 28.1647 9.52949 28.1697C9.52835 28.1731 9.52835 28.1773 9.52835 28.1811C9.52644 28.1887 9.52644 28.1964 9.52568 28.204L9.52263 28.2273C9.52263 28.2273 9.52263 28.2273 9.52186 28.2273C9.4696 28.2349 9.41772 28.2448 9.36622 28.257C8.99009 28.3196 8.59222 28.3497 8.21303 28.3101C8.20922 28.3101 8.20426 28.3089 8.20044 28.3089C8.15429 28.3051 8.10813 28.3013 8.06311 28.2963C8.05358 28.2944 8.0448 28.2936 8.03641 28.2936C7.64197 28.2421 7.25401 28.1468 6.88208 28.0049C6.7066 27.9358 6.53608 27.8565 6.37052 27.7672C6.28584 27.7119 6.19848 27.6615 6.10845 27.6162C6.05962 27.586 6.01156 27.5547 5.96426 27.5219C5.92763 27.4971 5.89025 27.472 5.85363 27.446C5.85172 27.4441 5.84981 27.443 5.84791 27.4422C5.75406 27.3659 5.6587 27.2915 5.5618 27.219C2.58479 24.7173 3.71777 19.4164 7.58513 18.5695C7.56911 18.5402 6.7417 18.7526 6.62764 18.7816C6.94426 18.7015 7.2666 18.6394 7.58513 18.5695C7.59085 18.5802 5.41875 19.0441 7.58513 18.5695ZM4.92627 29.142C5.26311 29.366 5.91009 29.8501 6.32436 29.8501C6.91603 30.061 7.56262 30.2166 8.19281 30.2369H8.19396C8.50867 30.2575 8.87641 30.2823 9.18884 30.2197C9.42535 30.0725 9.54323 30.0587 9.54284 30.1781C9.69772 31.1863 10.0807 32.4067 10.7662 33.1914C10.7662 33.1921 10.7674 33.1933 10.7674 33.1933C11.0684 33.6129 11.4098 34.0005 11.8031 34.3362C11.8069 34.3388 11.8099 34.3427 11.8149 34.3457C10.8318 34.9477 8.98017 36.5601 8.98017 37.8522C8.75129 37.9094 8.51363 37.9575 8.2775 37.9773C8.25805 37.9804 8.23897 37.9819 8.2199 37.983C3.50986 38.413 1.30686 31.9798 4.92627 29.142C4.93428 29.1474 4.48681 29.609 4.42006 29.5647C4.40861 29.5571 5.06932 29.0299 4.92627 29.142C5.08458 29.2473 3.74714 30.0667 4.92627 29.142ZM6.66235 47.8216C4.18202 47.8216 2.28763 45.8543 1.9916 43.4568C1.85313 42.3322 2.06752 41.1672 2.66338 40.1967C2.90828 39.7981 3.36185 39.084 3.81657 38.9295C4.35177 38.7475 5.34856 39.4525 5.99134 39.6676C6.69744 39.8694 7.4684 39.98 8.20426 39.9129C8.32862 39.9022 8.4526 39.8915 8.57696 39.8812C8.52813 40.7102 8.63151 41.6131 8.91494 42.3948C9.02175 42.7343 9.14955 43.1089 9.33838 43.4114C9.59434 43.9149 9.91287 44.4353 10.3138 44.8373C10.8063 45.4065 10.8593 45.3771 10.3699 46.0016C10.0887 46.3602 9.76067 46.6722 9.39102 46.9377C8.59603 47.5088 7.64273 47.8216 6.66235 47.8216ZM19.9666 41.0497C19.9666 41.0516 19.9658 41.0527 19.9658 41.0547C19.3585 44.7626 14.8045 46.4449 12.0537 43.8207C10.8166 42.6412 10.0967 40.891 10.5484 39.1996C10.9753 37.6008 12.2902 35.7018 14.0759 35.4462C14.9624 35.2109 16.7649 35.135 17.4904 35.8617C17.4923 35.8628 17.4935 35.8636 17.4954 35.8647H17.4962C17.4973 35.8647 17.4973 35.8659 17.4981 35.8659C19.336 36.8741 20.2824 39.1599 19.9769 40.9906C19.9933 40.8902 19.9902 40.9101 19.9666 41.0497C20.012 40.7796 19.9666 41.0516 19.9666 41.0497ZM23.6108 40.9333C23.0405 40.9333 22.474 40.8277 21.9426 40.6236C21.9579 40.36 21.9704 40.0556 21.9407 39.7885C21.9239 39.5024 21.8774 39.2236 21.8369 38.9402C21.8255 38.8803 21.814 38.8208 21.8015 38.7612C21.8007 38.7593 21.8007 38.7574 21.7995 38.7555C21.7889 38.7033 21.7774 38.6514 21.7648 38.6006C21.7641 38.5957 21.7629 38.5919 21.7622 38.5869C21.5218 37.6836 21.0274 36.1489 20.1989 35.5943C20.1604 35.55 20.1211 35.5069 20.0799 35.4642C20.0604 35.4421 20.0394 35.4199 20.0165 35.3978C19.7266 35.085 19.3898 34.813 19.0438 34.5658C19.0468 34.5551 19.0495 34.5456 19.0533 34.5361C19.061 34.5071 19.0697 34.4792 19.0793 34.4514C19.1685 34.1534 19.3001 33.8452 19.4565 33.574C19.6744 33.1624 19.957 32.784 20.292 32.4601C20.3179 32.433 20.3446 32.4071 20.3717 32.3823C20.3965 32.3571 20.4217 32.3338 20.4476 32.3109C20.4686 32.2907 20.4907 32.2716 20.5128 32.2533C20.5243 32.2415 20.5357 32.2312 20.5476 32.2224C20.5704 32.2022 20.5926 32.1831 20.6155 32.1648C20.8253 31.9813 21.0656 31.8184 21.3097 31.6826C22.3683 32.3456 23.5639 32.6783 24.8116 32.6852C24.8105 32.6977 24.8097 32.7111 24.8078 32.7248C24.7445 33.6999 24.8864 34.6806 25.2187 35.5988C25.4045 36.1123 25.9103 37.4627 26.4497 37.7339C26.4642 37.7511 26.4787 37.7687 26.4947 37.7858C26.4947 37.787 26.4958 37.7889 26.4985 37.7896L26.4997 37.7908C26.5294 37.8255 26.5599 37.8598 26.592 37.8934V37.8945C26.7865 38.1112 26.996 38.3134 27.2191 38.5007C27.6364 38.6441 27.6731 38.8417 27.3294 39.0931C27.1867 39.4529 26.6465 39.8191 26.3429 40.038C25.5483 40.6114 24.5938 40.9333 23.6108 40.9333ZM31.4851 38.1448C28.5104 38.1448 26.3307 35.2391 26.7812 32.3785C27.649 32.1046 28.753 31.5926 29.3363 30.8613C29.4042 30.7972 29.4702 30.732 29.535 30.6649C29.5465 30.6546 29.5572 30.6439 29.5667 30.6325C29.6567 30.5398 29.7429 30.4444 29.8257 30.3456C29.8517 30.3166 29.8757 30.288 29.8997 30.2582C29.9104 30.2464 29.9199 30.235 29.9295 30.2224C30.0725 30.0499 30.2762 29.8123 30.3808 29.6029C30.6299 29.2256 30.8503 28.809 31.0087 28.3852C31.0205 28.3593 31.03 28.3322 31.0403 28.3051C33.7656 28.0377 36.1589 30.346 36.2516 33.0308C36.3432 35.6862 34.1932 38.1448 31.4851 38.1448Z" fill="#4AA760"/>
<path d="M42.5945 14.5473C42.0642 14.5473 41.6339 14.1166 41.6339 13.5852C41.6339 13.0542 42.0634 12.6235 42.5937 12.6235H42.5945C43.1251 12.6235 43.5546 13.0542 43.5546 13.5852C43.5546 14.1166 43.1251 14.5473 42.5945 14.5473Z" fill="#4AA760"/>
<path d="M49.5875 16.8159C48.7292 13.2785 46.1539 10.253 41.9283 7.81352C42.536 6.89036 45.6733 0.873784 43.4405 0.502993C42.0821 0.277543 42.0893 2.64191 41.836 3.48076C41.4084 4.89679 40.7698 6.26322 39.8531 7.42976C39.8524 7.42976 39.8524 7.42976 39.8512 7.43053C38.0709 9.76628 35.1103 11.09 32.2035 11.09C31.381 11.0454 30.8794 12.0749 31.4348 12.691C31.8178 13.116 32.4659 13.0256 32.976 12.9931C34.8551 12.8749 36.7396 12.2813 38.3448 11.2979C36.4908 18.1629 41.0426 23.2994 46.4614 26.7784C46.4614 26.7784 46.4621 26.7796 46.4633 26.7796C46.4728 26.7853 46.4816 26.791 46.4919 26.7967C46.6502 26.8948 46.873 26.9474 47.0546 26.9268C47.0691 26.9268 47.0836 26.9249 47.0988 26.9218C47.1339 26.9184 47.1682 26.9123 47.2026 26.9035C47.2617 26.8917 47.3224 26.8677 47.3773 26.8429C47.3842 26.841 47.3906 26.8372 47.3967 26.8341C47.4032 26.8314 47.4101 26.8284 47.4158 26.8246C47.5497 26.7574 47.6661 26.656 47.755 26.535C47.7584 26.5304 47.7626 26.5247 47.7664 26.5198C47.8927 26.3378 50.8502 22.0184 49.5875 16.8159C50.8502 22.0184 48.7292 13.2785 49.5875 16.8159ZM47.1938 23.4153C46.6815 21.7788 46.1642 20.1431 45.6099 18.5203C45.3429 17.7371 45.0167 15.8248 43.9894 15.7092C42.3125 15.5212 43.2234 17.517 43.4958 18.2792C44.1199 20.0244 44.6711 21.7979 45.2273 23.5653C43.0663 21.8944 41.0006 19.7902 40.174 17.1157C39.3755 14.532 40.0191 11.9319 40.988 9.49009C46.073 12.4332 49.509 17.4423 47.1938 23.4153Z" fill="#4AA760"/>
</g>
<defs>
<clipPath id="clip0_1670_9624">
<rect width="50" height="50" fill="white"/>
</clipPath>
</defs>
</svg>
