<svg width="90" height="90" viewBox="0 0 90 90" fill="none" xmlns="../../../../../external.html?link=http://www.w3.org/2000/svg">
<path d="M44.9006 83.6704C66.698 83.6704 84.3682 66.1433 84.3682 44.5226C84.3682 22.9018 66.698 5.37476 44.9006 5.37476C23.1033 5.37476 5.43311 22.9018 5.43311 44.5226C5.43311 66.1433 23.1033 83.6704 44.9006 83.6704Z" fill="#4AA760"/>
<path d="M46.5941 90C46.0044 90 45.4146 89.985 44.8098 89.97C20.8722 89.0101 2.18181 68.9112 3.13447 45.1675C4.10226 21.3938 24.1233 2.88485 48.3029 3.8448C59.9012 4.30977 70.6224 9.22951 78.4857 17.689C86.349 26.1486 90.4318 37.143 89.9631 48.6473C89.0406 71.836 69.9722 90 46.5941 90ZM46.5336 5.31472C23.9721 5.31472 5.58419 22.8487 4.67689 45.2275C3.75447 68.1462 21.7795 87.5251 44.8854 88.4551C68.2181 89.385 87.5284 71.5211 88.466 48.5723C88.9196 37.4729 84.988 26.8685 77.3818 18.694C69.7908 10.5344 59.4475 5.79469 48.2575 5.34471C47.6678 5.32971 47.0931 5.31472 46.5336 5.31472Z" fill="#4AA760"/>
<path d="M43.147 88.8301C42.5572 88.8301 41.9675 88.8152 41.3778 88.8002C17.6216 87.8552 -0.917532 67.9063 0.0351324 44.3576C0.987797 20.7639 20.8577 2.37496 44.8406 3.34991C68.5968 4.29486 87.1359 24.2437 86.1833 47.7924C85.2608 70.8012 66.3436 88.8301 43.147 88.8301ZM43.0865 4.14486C20.3435 4.14486 1.80436 21.8139 0.881942 44.3876C-0.0556013 67.4863 18.1206 87.0303 41.408 87.9602C41.9826 87.9902 42.5572 87.9902 43.1319 87.9902C65.8749 87.9902 84.414 70.3212 85.3364 47.7474C86.274 24.6487 68.0977 5.10481 44.8104 4.17486C44.2357 4.14487 43.6611 4.14486 43.0865 4.14486Z" fill="#4AA760"/>
<path d="M40.8626 89.5952L40.8475 88.6202C40.6963 88.6202 27.9336 89.2352 13.7495 80.0707C12.6456 79.3507 12.4944 79.7407 13.3866 80.5207C25.3478 89.7752 40.7114 89.5952 40.8626 89.5952Z" fill="#4AA760"/>
<path d="M69.3077 11.7194C65.8751 10.2495 61.7923 9.10955 57.029 8.74957C52.0842 8.37459 44.8863 9.43952 40.1078 10.8944C35.3294 12.3494 40.1985 11.1644 40.1985 11.1644C57.165 6.43969 68.718 11.1344 75.432 15.8442C82.7206 20.9589 86.0777 27.1835 86.1079 27.2585L86.5767 27.0635C86.5464 27.0036 83.2499 20.5689 75.8252 15.3642C74.0257 14.0743 71.8482 12.7993 69.3077 11.7194Z" fill="white"/>
<path d="M46.594 85.2753C46.0042 85.2753 45.4296 85.2603 44.8399 85.2453C21.1593 84.3003 2.66556 64.4264 3.61822 40.9227C4.57089 17.404 24.3651 -0.909964 48.3027 0.0349835C59.7801 0.499958 70.3804 5.35969 78.168 13.7292C85.9557 22.0988 89.9931 32.9732 89.5244 44.3575C88.5868 67.3062 69.7301 85.2753 46.594 85.2753ZM46.5335 0.589955C23.7149 0.589955 5.13037 18.319 4.20795 40.9527C3.27041 64.1264 21.5071 83.7303 44.855 84.6603C68.4448 85.6052 87.9819 67.5312 88.9195 44.3425C89.3731 33.1231 85.3962 22.3987 77.7144 14.1342C70.0326 5.88465 59.5835 1.08493 48.2574 0.63495C47.6827 0.604952 47.1081 0.589955 46.5335 0.589955Z" fill="#4AA760"/>
<path d="M43.1473 86.5651C42.5878 86.5651 42.0283 86.5501 41.4688 86.5351C18.9828 85.6351 1.41147 66.7512 2.31877 44.4474C3.22607 22.0987 22.0374 4.69962 44.7502 5.61457C67.2361 6.51452 84.8074 25.3985 83.9001 47.7022C83.0231 69.481 65.119 86.5651 43.1473 86.5651ZM43.0868 6.36453C21.5384 6.36453 3.25631 23.1036 2.39438 44.4774C1.5022 66.3462 19.4516 84.8702 41.499 85.7401C42.0434 85.7551 42.5878 85.7701 43.1321 85.7701C64.6805 85.7701 82.2367 69.031 83.0987 47.6572C83.9909 25.7884 66.7673 7.27947 44.7199 6.39452C44.1755 6.36452 43.6312 6.36453 43.0868 6.36453Z" fill="white"/>
</svg>
