<svg width="40" height="40" viewBox="0 0 40 40" fill="none" xmlns="../../../../../external.html?link=http://www.w3.org/2000/svg">
<g clip-path="url(#clip0_1632_11370)">
<path d="M27.4064 21.5814C31.0066 19.0985 30.1597 12.918 25.8485 11.73C25.5424 11.6454 24.3296 11.6915 24.1825 11.5518C23.9368 11.3186 23.7922 10.201 23.603 9.85375C23.0634 8.86253 22.2043 8.0648 21.1896 7.5756C19.0775 6.55752 16.5241 6.99668 14.9509 8.75877C13.4353 6.70737 10.7882 6.08511 8.4988 7.18863C7.48469 7.67753 6.60761 8.46427 6.03784 9.43749C5.74548 9.93676 5.53644 10.4821 5.42291 11.0494C5.28619 11.7321 5.46014 12.3568 5.40704 13.0215C5.37011 13.4808 5.47601 13.388 4.97399 13.5806C4.68896 13.6898 4.4146 13.8256 4.15307 13.9834C3.57475 14.3331 3.07335 14.7943 2.66868 15.335C1.89414 16.3699 1.49405 17.673 1.53647 18.9639C1.556 19.5532 1.66709 20.1416 1.87095 20.6949C1.99027 21.0187 2.14133 21.3312 2.32017 21.626C2.39555 21.7502 2.57865 21.9418 2.61833 22.0645C2.73338 22.4213 2.73918 22.1387 2.56431 22.4789C2.23563 23.1186 1.63627 23.5822 1.34421 24.2908C1.04971 25.0049 0.903533 25.7724 0.912994 26.5451C0.921844 27.2702 1.0665 27.9938 1.34909 28.6625C1.48368 28.9811 1.70157 29.2585 1.84073 29.5685C1.95792 29.8301 2.05344 29.8002 1.99088 30.0251C1.9625 30.1276 1.52304 30.4508 1.45865 30.5198C0.499173 31.5494 -0.0101685 32.9487 -9.76304e-05 34.3507C0.0218752 37.3771 2.51457 39.918 5.58282 39.7581C6.9607 39.6864 8.29494 39.0782 9.23488 38.065C9.37405 37.9151 9.76009 37.1867 9.92214 37.1372C10.0543 37.0967 10.7376 37.4504 10.8758 37.4867C11.5991 37.6753 12.3544 37.6975 13.0896 37.5672C14.4559 37.3246 15.7095 36.5412 16.5247 35.4182C16.7484 35.1099 16.8753 34.7324 17.0926 34.4306C17.1439 34.3598 17.1845 34.0604 17.254 34.0241C17.2882 34.0061 17.7649 34.1636 17.8613 34.1825C18.6621 34.3397 19.5001 34.3 20.2851 34.0797C21.1176 33.8462 21.8891 33.4098 22.5202 32.8199C22.6935 32.6575 23.2172 31.8079 23.4076 31.7429C23.6225 31.6694 24.3342 31.9892 24.5847 32.017C26.2421 32.2001 27.9285 31.5421 29.0665 30.3327C31.5513 27.692 30.7032 23.1238 27.4064 21.5814ZM23.0057 15.9787C23.1986 15.7531 23.3939 15.4861 23.5267 15.2197C23.5718 15.141 23.6145 15.061 23.6548 14.9795C23.8443 14.5996 23.9954 14.2044 24.0943 13.7905C24.2307 13.2214 24.108 13.1378 24.6763 13.0892C25.2134 13.0435 25.8628 13.3053 26.3151 13.5769C27.2153 14.1171 27.8034 15.0589 28.0354 16.0696C28.2606 17.0526 28.1635 18.1332 27.6945 19.0332C27.4424 19.5166 27.0847 19.9405 26.6428 20.2612C26.4963 20.3677 25.188 20.9952 25.188 20.8572C25.1896 20.8316 25.1905 20.8057 25.1905 20.7794C25.1951 20.5957 25.1914 20.405 25.1743 20.2215C25.1728 20.1938 25.1703 20.166 25.1673 20.1382C25.1673 20.1346 25.1667 20.1306 25.1667 20.126C24.9988 18.5293 24.1913 17.0639 22.8684 16.1416C22.9142 16.0873 22.9599 16.033 23.0057 15.9787C23.0289 15.9515 22.9621 16.0339 23.0057 15.9787C23.2032 15.7476 22.9621 16.0339 23.0057 15.9787ZM22.8943 18.2974C22.9065 18.3127 22.9175 18.3273 22.9273 18.3429C23.1208 18.6142 23.2752 18.9123 23.3936 19.2233C23.4073 19.2587 23.4205 19.2941 23.4321 19.3301C23.4382 19.3448 23.4427 19.3594 23.4473 19.3741C23.4559 19.3979 23.4635 19.4217 23.4705 19.4464C23.5566 19.696 23.5947 19.9609 23.6319 20.2212C23.6356 20.2582 23.6396 20.2951 23.6417 20.3323C23.6442 20.35 23.6448 20.3677 23.6457 20.3854C23.6487 20.4208 23.6503 20.4562 23.6518 20.4916C23.6527 20.4999 23.6527 20.5093 23.6527 20.5176C23.6686 20.8514 23.6594 21.2564 23.5529 21.5765C23.5459 21.6067 23.5413 21.636 23.5389 21.666C22.9795 23.0118 22.1195 24.2078 20.6147 24.5273C20.6137 24.5273 20.6122 24.5282 20.6116 24.5282C19.671 24.729 18.5401 24.5593 17.7579 23.9719C17.695 23.931 17.6349 23.888 17.5791 23.8449C17.5781 23.844 17.5766 23.8431 17.576 23.8425C15.9705 22.6221 15.6772 20.4208 16.6315 18.699C17.6206 16.9149 19.4181 16.3897 21.2821 17.0129C21.323 17.03 21.3626 17.0483 21.4026 17.0669C21.4035 17.0669 21.4045 17.0669 21.4051 17.0675C21.4441 17.0862 21.4835 17.1045 21.5219 17.1246C21.5287 17.1277 21.5357 17.1316 21.5427 17.1347C21.6541 17.1917 21.7624 17.2546 21.8668 17.323C21.9626 17.3849 22.0557 17.4508 22.1457 17.521C22.2312 17.5869 22.3136 17.6571 22.392 17.731C22.4067 17.7432 22.4207 17.7563 22.4344 17.7704C22.5357 17.8583 22.8602 18.2498 22.8943 18.2974C22.9065 18.3127 22.8498 18.2351 22.8943 18.2974ZM14.6915 19.1455C14.642 19.3185 14.602 19.494 14.5706 19.6725C13.4604 19.7027 12.4783 19.2077 11.7108 18.4366C11.2323 17.9147 10.9021 17.2699 10.7559 16.5719C10.025 14.6643 11.7956 12.3452 13.5757 11.8981C13.3746 13.8494 14.2694 15.8456 15.8734 16.979C15.3201 17.6031 14.9106 18.3539 14.6875 19.1577C14.7186 19.0463 14.751 18.9352 14.7815 18.8235C14.7516 18.931 14.7214 19.0384 14.6915 19.1455C14.917 18.3404 14.642 19.3185 14.6915 19.1455ZM15.8313 24.3002H15.8304V24.3012C14.9448 24.9259 14.1479 25.8969 13.8464 26.9556H13.8455C13.7192 26.9248 13.5947 26.8891 13.4714 26.8479C13.118 26.7298 12.7359 26.7035 12.3654 26.6968C12.2171 26.6938 12.0688 26.6959 11.9204 26.7032C11.8057 26.7231 11.6906 26.7331 11.575 26.7331C11.4807 26.7377 11.3882 26.7517 11.2976 26.7746C11.2915 26.7755 11.2845 26.7762 11.2784 26.7777C11.239 26.7932 11.1987 26.8009 11.1578 26.8009C9.87881 26.102 9.03652 24.664 9.10915 23.2022V23.1921C9.11098 23.1519 9.11281 23.1116 9.11434 23.0713C9.11434 23.0667 9.11434 23.0621 9.11525 23.0582C9.11678 23.0283 9.11922 22.999 9.12136 22.9697C9.12136 22.966 9.12227 22.962 9.12227 22.9581C9.13204 22.8476 9.1415 22.7026 9.16988 22.5888C9.19582 22.4405 9.2297 22.2949 9.27364 22.1509C9.27517 22.1463 9.27669 22.1408 9.27822 22.1362C9.27975 22.1271 9.2828 22.1185 9.28585 22.1094C9.36184 21.8396 9.47811 21.6086 9.6014 21.3614C9.66305 21.2494 9.72958 21.141 9.80129 21.0358C10.0058 20.7226 10.2646 20.4419 10.5572 20.209C10.6396 20.1224 10.7327 20.0531 10.8368 20.0012C10.8688 19.9789 10.9012 19.9576 10.9341 19.9374C10.9573 19.9222 10.9805 19.9081 11.0034 19.8944L11.0043 19.895C11.9735 20.7455 13.2034 21.2128 14.4864 21.2128H14.5093C14.534 21.5106 14.5676 21.9427 14.7028 22.2141C14.7186 22.2705 14.7357 22.3267 14.7543 22.3825C14.7559 22.3877 14.7583 22.3926 14.7598 22.3978C14.7784 22.4545 14.798 22.511 14.8181 22.5671C15.0485 23.2019 15.3918 23.7866 15.8313 24.3002ZM15.5609 10.5499C15.564 10.5428 15.5676 10.5358 15.571 10.5291C15.5716 10.5276 15.5731 10.5251 15.574 10.5236C17.4378 7.11295 22.6777 8.63334 22.7192 12.4215C22.7192 12.4298 22.7192 12.4392 22.7201 12.4478V12.459C22.7201 13.3663 22.4079 14.241 21.8567 14.9557C21.8521 14.9612 21.8482 14.9664 21.8436 14.9719C21.7154 15.1342 21.5705 15.2853 21.4182 15.4245C20.3827 15.0848 18.9636 15.0259 17.9605 15.5291C17.8156 15.5832 17.2412 15.9509 17.1124 15.9439C16.9104 15.9329 16.5976 15.603 16.4584 15.4834C16.008 15.0964 15.6464 14.6066 15.4111 14.0606C15.4086 14.0545 15.4065 14.0484 15.4034 14.0423C14.931 12.9275 15.0452 11.5023 15.5359 10.5956C15.4913 10.6783 15.4996 10.6628 15.5609 10.5499C15.564 10.5428 15.4419 10.7699 15.5609 10.5499ZM10.6808 8.124C12.0849 8.124 13.3664 8.9199 14.0323 10.1772C14.0259 10.1897 14.0207 10.202 14.0152 10.2151C14.0069 10.2328 13.999 10.2505 13.9914 10.2688C11.2622 10.5236 9.16561 12.969 9.13204 15.6753C8.8174 15.5426 8.5107 15.3463 8.25648 15.1181C8.2281 15.0952 8.20033 15.0705 8.17348 15.0457C5.35058 12.9266 7.34492 8.124 10.6808 8.124ZM6.06806 14.8556C6.07263 14.8642 6.07813 14.8736 6.08331 14.8812C6.17731 15.0445 6.31891 15.3045 6.46051 15.4461C6.48127 15.4745 6.50354 15.5029 6.52582 15.5307C6.53955 15.5493 6.5542 15.567 6.56977 15.5847C6.59021 15.6109 6.61097 15.6363 6.63324 15.6625C6.63324 15.6631 6.63324 15.6631 6.63416 15.6631C7.04981 16.1654 7.60066 16.6436 8.19331 16.9278C8.50276 17.0944 9.13906 17.1737 9.38198 17.3886C9.62887 17.6074 9.7958 18.4015 9.99417 18.714C9.72439 18.88 9.47201 19.0936 9.24801 19.3179C9.2358 19.3289 9.22359 19.3405 9.212 19.3527C9.19063 19.3725 9.16988 19.3933 9.14974 19.415C8.7878 19.7775 8.49025 20.1938 8.24336 20.6418C8.2397 20.6479 8.23665 20.6549 8.2336 20.661C8.157 20.7266 8.11885 20.8017 8.11915 20.8856C8.10145 20.9265 8.08284 20.9668 8.063 21.0065C8.06209 21.008 8.06148 21.0089 8.06148 21.0104C8.00624 21.1316 7.95588 21.2546 7.91072 21.3797C7.8744 21.4798 7.82832 21.5924 7.80543 21.6983C7.79597 21.7291 7.78712 21.7603 7.77858 21.7914C7.76942 21.8213 7.76118 21.8515 7.75416 21.8823C7.75111 21.8921 7.74867 21.9022 7.74653 21.9122C7.73951 21.936 7.73341 21.9598 7.72792 21.9836C7.72731 21.9882 7.72578 21.9922 7.72486 21.9968C7.68275 22.1707 7.6681 22.3517 7.62507 22.5247C7.62446 22.5287 7.62446 22.5317 7.62355 22.5357C7.62263 22.5385 7.62263 22.5418 7.62263 22.5449C7.6211 22.551 7.6211 22.5571 7.62049 22.5632L7.61805 22.5818C7.61805 22.5818 7.61805 22.5818 7.61744 22.5818C7.57563 22.5879 7.53413 22.5958 7.49293 22.6056C7.19202 22.6556 6.87372 22.6798 6.57038 22.648C6.56733 22.648 6.56336 22.6471 6.56031 22.6471C6.52338 22.644 6.48645 22.641 6.45044 22.637C6.44281 22.6355 6.43579 22.6349 6.42908 22.6349C6.11353 22.5937 5.80316 22.5174 5.50561 22.4039C5.36523 22.3486 5.22882 22.2852 5.09637 22.2137C5.02862 22.1695 4.95873 22.1292 4.88671 22.0929C4.84765 22.0688 4.8092 22.0438 4.77136 22.0175C4.74206 21.9977 4.71215 21.9775 4.68285 21.9568C4.68133 21.9553 4.6798 21.9543 4.67828 21.9537C4.6032 21.8927 4.52691 21.8332 4.44939 21.7752C2.06779 19.7739 2.97416 15.5331 6.06806 14.8556C6.05524 14.8321 5.39331 15.0021 5.30206 15.0253C5.55536 14.9612 5.81323 14.9115 6.06806 14.8556C6.07263 14.8642 4.33495 15.2353 6.06806 14.8556ZM3.94097 23.3136C4.21044 23.4927 4.72802 23.88 5.05944 23.88C5.53277 24.0488 6.05005 24.1733 6.5542 24.1895H6.55512C6.80689 24.2059 7.10108 24.2258 7.35102 24.1757C7.54023 24.0579 7.63453 24.0469 7.63423 24.1425C7.75813 24.9491 8.06453 25.9253 8.61293 26.5531C8.61293 26.5537 8.61385 26.5546 8.61385 26.5546C8.85463 26.8903 9.12777 27.2004 9.4424 27.4689C9.44546 27.471 9.4479 27.4741 9.45187 27.4765C8.66542 27.9581 7.18409 29.2481 7.18409 30.2817C7.00098 30.3275 6.81086 30.366 6.62195 30.3818C6.60639 30.3843 6.59113 30.3855 6.57587 30.3864C2.80784 30.7303 1.04544 25.5838 3.94097 23.3136C3.94738 23.3179 3.5894 23.6871 3.536 23.6517C3.52684 23.6456 4.05541 23.2239 3.94097 23.3136C4.06762 23.3978 2.99766 24.0534 3.94097 23.3136ZM5.32983 38.2572C3.34557 38.2572 1.83005 36.6834 1.59323 34.7654C1.48246 33.8657 1.65397 32.9337 2.13065 32.1574C2.32658 31.8384 2.68943 31.2671 3.05321 31.1436C3.48137 30.998 4.2788 31.5619 4.79302 31.7341C5.35791 31.8955 5.97467 31.984 6.56336 31.9303C6.66285 31.9218 6.76203 31.9132 6.86152 31.905C6.82245 32.5681 6.90516 33.2905 7.1319 33.9158C7.21735 34.1874 7.31959 34.4871 7.47065 34.7291C7.67543 35.1319 7.93025 35.5482 8.25099 35.8698C8.64498 36.3252 8.6874 36.3017 8.29585 36.8012C8.07094 37.0881 7.80848 37.3377 7.51277 37.5501C6.87678 38.007 6.11414 38.2572 5.32983 38.2572ZM15.9732 32.8397C15.9732 32.8413 15.9726 32.8422 15.9726 32.8437C15.4868 35.81 11.8435 37.1559 9.64291 35.0565C8.65322 34.1129 8.07735 32.7128 8.43868 31.3596C8.78017 30.0806 9.83212 28.5614 11.2607 28.357C11.9699 28.1687 13.4119 28.1079 13.9923 28.6893C13.9938 28.6902 13.9947 28.6908 13.9963 28.6918H13.9969C13.9978 28.6918 13.9978 28.6927 13.9984 28.6927C15.4687 29.4993 16.2259 31.3279 15.9814 32.7924C15.9946 32.7122 15.9921 32.728 15.9732 32.8397C16.0095 32.6237 15.9732 32.8413 15.9732 32.8397ZM18.8886 32.7466C18.4323 32.7466 17.9791 32.6621 17.554 32.4988C17.5662 32.288 17.5763 32.0444 17.5525 31.8308C17.5391 31.6019 17.5018 31.3788 17.4695 31.1521C17.4603 31.1042 17.4512 31.0566 17.4411 31.009C17.4405 31.0074 17.4405 31.0059 17.4396 31.0044C17.431 30.9626 17.4219 30.9211 17.4118 30.8805C17.4112 30.8765 17.4103 30.8735 17.4097 30.8695C17.2174 30.1468 16.8219 28.9191 16.1591 28.4754C16.1282 28.44 16.0968 28.4055 16.0638 28.3713C16.0483 28.3536 16.0315 28.3359 16.0132 28.3182C15.7813 28.068 15.5118 27.8504 15.235 27.6526C15.2374 27.6441 15.2396 27.6364 15.2426 27.6288C15.2487 27.6056 15.2557 27.5833 15.2634 27.5611C15.3348 27.3227 15.4401 27.0761 15.5652 26.8592C15.7394 26.5299 15.9656 26.2271 16.2335 25.968C16.2543 25.9464 16.2756 25.9256 16.2973 25.9058C16.3171 25.8856 16.3373 25.867 16.358 25.8487C16.3748 25.8325 16.3925 25.8173 16.4102 25.8026C16.4194 25.7932 16.4285 25.7849 16.438 25.7779C16.4563 25.7617 16.474 25.7465 16.4923 25.7318C16.6602 25.585 16.8524 25.4547 17.0477 25.3461C17.8946 25.8765 18.851 26.1426 19.8493 26.1481C19.8484 26.1582 19.8477 26.1688 19.8462 26.1798C19.7956 26.9599 19.9091 27.7445 20.1749 28.479C20.3235 28.8898 20.7282 29.9701 21.1597 30.1871C21.1713 30.2009 21.1829 30.2149 21.1957 30.2286C21.1957 30.2295 21.1966 30.2311 21.1988 30.2317L21.1997 30.2326C21.2235 30.2604 21.2479 30.2878 21.2735 30.3147V30.3156C21.4292 30.4889 21.5967 30.6507 21.7752 30.8005C22.1091 30.9153 22.1384 31.0734 21.8634 31.2745C21.7493 31.5623 21.3172 31.8552 21.0743 32.0304C20.4386 32.4891 19.675 32.7466 18.8886 32.7466ZM25.188 30.5158C22.8083 30.5158 21.0645 28.1913 21.4249 25.9027C22.1192 25.6836 23.0024 25.2741 23.469 24.689C23.5233 24.6378 23.5761 24.5856 23.628 24.5319C23.6371 24.5236 23.6457 24.5151 23.6533 24.5059C23.7253 24.4318 23.7943 24.3555 23.8605 24.2764C23.8813 24.2532 23.9005 24.2304 23.9197 24.2066C23.9283 24.1971 23.9359 24.1879 23.9435 24.1779C24.058 24.0399 24.2209 23.8498 24.3046 23.6823C24.5038 23.3804 24.6802 23.0472 24.8069 22.7081C24.8163 22.6874 24.824 22.6657 24.8322 22.644C27.0124 22.4301 28.9271 24.2767 29.0012 26.4246C29.0745 28.5489 27.3545 30.5158 25.188 30.5158Z" fill="white"/>
<path d="M34.0756 11.6378C33.6514 11.6378 33.3071 11.2933 33.3071 10.8682C33.3071 10.4434 33.6508 10.0988 34.075 10.0988H34.0756C34.5001 10.0988 34.8437 10.4434 34.8437 10.8682C34.8437 11.2933 34.5001 11.6378 34.0756 11.6378Z" fill="white"/>
<path d="M39.67 13.4527C38.9833 10.6228 36.9231 8.20245 33.5426 6.25084C34.0288 5.51231 36.5386 0.699045 34.7524 0.402413C33.6656 0.222053 33.6714 2.11354 33.4688 2.78463C33.1267 3.91745 32.6158 5.0106 31.8825 5.94383C31.8819 5.94383 31.8819 5.94383 31.8809 5.94444C30.4567 7.81304 28.0882 8.87201 25.7627 8.87201C25.1048 8.8363 24.7035 9.65998 25.1478 10.1528C25.4542 10.4928 25.9727 10.4205 26.3807 10.3945C27.884 10.2999 29.3916 9.82508 30.6758 9.03833C29.1926 14.5303 32.834 18.6395 37.1691 21.4227C37.1691 21.4227 37.1697 21.4237 37.1706 21.4237C37.1782 21.4282 37.1852 21.4328 37.1935 21.4374C37.3201 21.5158 37.4983 21.5579 37.6436 21.5415C37.6552 21.5415 37.6668 21.5399 37.679 21.5375C37.7071 21.5347 37.7346 21.5299 37.762 21.5228C37.8093 21.5134 37.8578 21.4942 37.9018 21.4743C37.9073 21.4728 37.9125 21.4697 37.9174 21.4673C37.9225 21.4652 37.928 21.4627 37.9326 21.4597C38.0397 21.406 38.1328 21.3248 38.2039 21.228C38.2067 21.2244 38.21 21.2198 38.2131 21.2158C38.3141 21.0703 40.6801 17.6147 39.67 13.4527C40.6801 17.6147 38.9833 10.6228 39.67 13.4527ZM37.755 18.7323C37.3451 17.4231 36.9313 16.1145 36.4879 14.8163C36.2743 14.1897 36.0133 12.6599 35.1915 12.5674C33.8499 12.417 34.5787 14.0136 34.7966 14.6234C35.2959 16.0196 35.7369 17.4383 36.1818 18.8522C34.453 17.5156 32.8004 15.8322 32.1391 13.6926C31.5004 11.6256 32.0152 9.54553 32.7904 7.59209C36.8584 9.94654 39.6071 13.9538 37.755 18.7323Z" fill="white"/>
</g>
<defs>
<clipPath id="clip0_1632_11370">
<rect width="40" height="40" fill="white"/>
</clipPath>
</defs>
</svg>
