<svg width="40" height="40" viewBox="0 0 40 40" fill="none" xmlns="../../../../../external.html?link=http://www.w3.org/2000/svg">
<g clip-path="url(#clip0_1632_25132)">
<path d="M35.5793 22.4126C35.5793 21.0259 34.4512 19.8978 33.0646 19.8978C31.6779 19.8978 30.5498 21.026 30.5498 22.4126C30.5498 23.7992 31.6779 24.9274 33.0646 24.9274C34.4512 24.9274 35.5793 23.7992 35.5793 22.4126ZM31.7216 22.4126C31.7216 21.672 32.324 21.0697 33.0645 21.0697C33.805 21.0697 34.4074 21.6721 34.4074 22.4126C34.4074 23.1531 33.805 23.7555 33.0645 23.7555C32.324 23.7555 31.7216 23.1531 31.7216 22.4126Z" fill="white"/>
<path d="M34.3899 37.6355C36.0135 37.6355 37.3345 36.3145 37.3345 34.6909C37.3345 33.0672 36.0135 31.7462 34.3899 31.7462C32.7663 31.7462 31.4453 33.0672 31.4453 34.6909C31.4453 36.3145 32.7663 37.6355 34.3899 37.6355ZM34.3899 32.9181C35.3674 32.9181 36.1626 33.7134 36.1626 34.6909C36.1626 35.6684 35.3673 36.4636 34.3899 36.4636C33.4125 36.4636 32.6172 35.6684 32.6172 34.6909C32.6172 33.7134 33.4125 32.9181 34.3899 32.9181Z" fill="white"/>
<path d="M28.4653 28.9852C28.4653 30.0794 29.3556 30.9696 30.4497 30.9696C31.5438 30.9696 32.434 30.0794 32.434 28.9852C32.434 27.8911 31.5438 27.0009 30.4497 27.0009C29.3556 27.0009 28.4653 27.891 28.4653 28.9852ZM31.2622 28.9852C31.2622 29.4332 30.8978 29.7977 30.4498 29.7977C30.0018 29.7977 29.6373 29.4332 29.6373 28.9852C29.6373 28.5373 30.0018 28.1727 30.4498 28.1727C30.8978 28.1727 31.2622 28.5372 31.2622 28.9852Z" fill="white"/>
<path d="M39.1427 29.5196C37.9135 29.144 37.0875 28.0277 37.0875 26.7416C37.0875 25.4556 37.9134 24.3393 39.1427 23.9637C39.6554 23.8071 40 23.3399 40 22.8013C40 21.4299 39.4662 20.141 38.497 19.1719C37.5278 18.2027 36.2391 17.6688 34.8684 17.6688H30.9948V14.5348C30.9948 12.5881 30.4041 10.7232 29.3317 9.2836L26.4017 5.35032H26.405C27.0727 5.35032 27.6159 4.80711 27.6159 4.13938V1.39368C27.6159 0.725942 27.0727 0.182739 26.405 0.182739H17.4991C16.8314 0.182739 16.2882 0.725942 16.2882 1.39368V4.1393C16.2882 4.80704 16.8314 5.35024 17.4991 5.35024H17.5024L14.5724 9.28352C13.4999 10.7233 12.9093 12.5882 12.9093 14.5348V21.0735H8.75125C8.42758 21.0735 8.16531 21.3359 8.16531 21.6595C8.16531 21.9831 8.42758 22.2454 8.75125 22.2454H18.4173V23.6841H1.17188V22.2454H5.9857C6.30937 22.2454 6.57164 21.9831 6.57164 21.6595C6.57164 21.3359 6.30937 21.0735 5.9857 21.0735H1.06C0.475547 21.0735 0 21.5491 0 22.1335V23.7959C0 24.2865 0.335391 24.6991 0.788594 24.8195L1.95234 34.2666C1.95234 34.2668 1.95242 34.267 1.95242 34.2672L2.50453 38.7491C2.58055 39.3581 3.10016 39.8172 3.71336 39.8172H16.0995H26.6645H34.2655C34.5892 39.8172 34.8515 39.5548 34.8515 39.2313C34.8515 38.9077 34.5892 38.6453 34.2655 38.6453H26.6645C26.6395 38.6453 26.6183 38.6241 26.6183 38.5991V22.8012C26.6183 20.6174 28.3949 18.8406 30.5787 18.8406H34.8684C35.926 18.8406 36.9205 19.2525 37.6684 20.0005C38.4162 20.7483 38.8281 21.743 38.8281 22.8012C38.8281 22.8205 38.8165 22.838 38.8004 22.8429C37.075 23.3701 35.9157 24.9368 35.9157 26.7416C35.9157 28.5463 37.075 30.1131 38.8005 30.6403C38.8166 30.6452 38.8282 30.6627 38.8282 30.682V38.5991C38.8282 38.6246 38.8075 38.6453 38.782 38.6453H37.0311C36.7074 38.6453 36.4452 38.9077 36.4452 39.2313C36.4452 39.5548 36.7074 39.8172 37.0311 39.8172H38.782C39.4537 39.8172 40.0001 39.2708 40.0001 38.5991V30.682C40 30.1432 39.6555 29.6761 39.1427 29.5196ZM17.4601 4.1393V1.39368C17.4601 1.37211 17.4777 1.35461 17.4991 1.35461H26.4049C26.4264 1.35461 26.444 1.37211 26.444 1.39368V4.1393C26.444 4.16086 26.4264 4.17836 26.4049 4.17836H17.4991C17.4777 4.17836 17.4601 4.16086 17.4601 4.1393ZM14.0811 14.5348C14.0811 12.8387 14.5893 11.2224 15.5121 9.9836L18.9637 5.35024H24.9404L28.3919 9.9836C29.3147 11.2223 29.8229 12.8386 29.8229 14.5348V17.7248C29.4049 17.7868 29.0034 17.8996 28.6244 18.0563V14.5348C28.6244 13.1159 28.1893 11.718 27.4306 10.6995L26.2954 9.17555C26.037 8.82829 25.6244 8.62094 25.1916 8.62094H18.7125C18.2798 8.62094 17.8673 8.82821 17.6089 9.17524L16.4735 10.6995C15.7148 11.718 15.2798 13.1159 15.2798 14.5348V21.0735H14.0812L14.0811 14.5348ZM25.4487 38.6454H17.321L17.4687 37.4469H25.4464V38.5992C25.4464 38.6148 25.4481 38.6299 25.4487 38.6454ZM16.7593 33.6209H13.8448C14.1152 33.0538 14.2671 32.4198 14.2671 31.7508C14.2671 31.0817 14.1152 30.4477 13.8448 29.8806H17.2202L16.7593 33.6209ZM2.59273 29.8805H5.96852C5.69813 30.4476 5.54625 31.0817 5.54625 31.7507C5.54625 32.4197 5.69805 33.0538 5.96844 33.6209H3.05352L2.59273 29.8805ZM6.71812 31.7508C6.71812 29.9927 8.14852 28.5623 9.90656 28.5623C11.6648 28.5623 13.0951 29.9927 13.0951 31.7508C13.0951 33.5089 11.6647 34.9393 9.90656 34.9393C8.14852 34.9393 6.71812 33.5089 6.71812 31.7508ZM17.3644 28.7086H13.0262C12.2338 27.8962 11.1284 27.3903 9.90656 27.3903C8.68469 27.3903 7.57938 27.8961 6.78695 28.7086H2.44836L1.97375 24.856H17.839L17.3644 28.7086ZM3.66742 38.605L3.19781 34.7928H6.78688C7.5793 35.6053 8.68469 36.1112 9.90664 36.1112C11.1286 36.1112 12.234 35.6053 13.0264 34.7928H16.6149L16.1452 38.6057C16.1424 38.6287 16.1232 38.6454 16.0995 38.6454H3.71328C3.68969 38.6454 3.67031 38.628 3.66742 38.605ZM25.4464 22.8012V36.2749H17.613L17.8599 34.2706C17.8601 34.2688 17.8604 34.267 17.8605 34.2652L19.0355 24.7269C19.3651 24.5469 19.5891 24.1971 19.5891 23.7959V22.1335C19.5891 21.5491 19.1136 21.0735 18.5291 21.0735H16.4516V14.5348C16.4516 13.3628 16.802 12.22 17.4133 11.3995L18.5488 9.87516C18.5877 9.8229 18.6474 9.79282 18.7125 9.79282H25.1916C25.2567 9.79282 25.3164 9.82282 25.3555 9.87532L26.4909 11.3995C27.1021 12.22 27.4527 13.3628 27.4527 14.5348V18.7348C26.2338 19.6741 25.4464 21.147 25.4464 22.8012Z" fill="white"/>
</g>
<defs>
<clipPath id="clip0_1632_25132">
<rect width="40" height="40" fill="white"/>
</clipPath>
</defs>
</svg>
