<svg width="40" height="40" viewBox="0 0 40 40" fill="none" xmlns="../../../../../external.html?link=http://www.w3.org/2000/svg">
<path d="M7.66724 29.1256L8.14677 30.2801C8.485 30.1398 8.83726 30.036 9.19755 29.9706L8.97403 28.7407C8.52598 28.8222 8.0879 28.9512 7.66724 29.1256Z" fill="#4AA760"/>
<path d="M4.38403 32.2282L5.50903 32.7731C5.89837 31.9699 6.49064 31.2823 7.22724 30.7783L6.52177 29.7463C5.6053 30.3734 4.86842 31.2289 4.38403 32.2282Z" fill="#4AA760"/>
<path d="M38.7495 31.8756C38.7502 30.7993 38.3535 29.7606 37.6353 28.9588L36.7039 29.7924C37.0734 30.2048 37.3265 30.7081 37.437 31.2506H33.1245C33.0216 31.2506 32.9203 31.276 32.8296 31.3246C32.7389 31.3731 32.6616 31.4433 32.6045 31.5289L30.2901 35.0006H28.7495V33.1256C28.7508 31.9657 29.2122 30.8537 30.0324 30.0335C30.8526 29.2133 31.9646 28.7519 33.1245 28.7506H34.3745C34.9891 28.7496 35.5903 28.9307 36.102 29.2711L36.7942 28.2301C36.2545 27.8709 35.6413 27.6369 34.9995 27.5453V25.6256C34.9995 25.4599 34.9337 25.3009 34.8165 25.1837C34.6992 25.0665 34.5403 25.0006 34.3745 25.0006C33.7117 24.9999 33.0762 24.7362 32.6076 24.2676C32.1389 23.7989 31.8753 23.1634 31.8745 22.5006V20.0006H33.7495C33.9153 20.0006 34.0742 19.9348 34.1915 19.8176C34.3087 19.7003 34.3745 19.5414 34.3745 19.3756V15.0006C34.3745 14.8349 34.3087 14.6759 34.1915 14.5587C34.0742 14.4415 33.9153 14.3756 33.7495 14.3756H32.6472C32.386 14.376 32.1261 14.4118 31.8745 14.4821V13.7506C31.8746 13.6086 31.8263 13.4709 31.7376 13.36L29.6926 10.8037C29.9605 10.3519 30.0569 9.81871 29.9641 9.30166C29.8713 8.78462 29.5955 8.31825 29.1872 7.98777C28.7789 7.65729 28.2652 7.48479 27.7402 7.50178C27.2152 7.51878 26.7138 7.72414 26.3277 8.08034C25.9416 8.43653 25.6966 8.91977 25.6374 9.44173C25.5782 9.96369 25.7089 10.4895 26.0054 10.9231C26.302 11.3567 26.7447 11.6691 27.2526 11.8032C27.7605 11.9373 28.2997 11.8841 28.7716 11.6534L30.6245 13.9698V14.7584L27.8769 13.8426C27.6969 13.7805 27.5076 13.7494 27.3172 13.7506H22.162L19.1948 10.2888C19.4431 10.1163 19.6459 9.88637 19.786 9.61852C19.9262 9.35067 19.9994 9.0529 19.9995 8.75061V8.51186L20.904 8.05959C20.9833 8.01996 21.0532 7.96392 21.1092 7.89519C21.1651 7.82647 21.2058 7.74663 21.2286 7.66098C21.2513 7.57533 21.2556 7.48582 21.2411 7.3984C21.2266 7.31097 21.1937 7.22762 21.1445 7.15389L20.1179 5.61405C20.2605 5.58654 20.389 5.51027 20.4814 5.39833C20.5739 5.2864 20.6245 5.14578 20.6245 5.00061C20.6234 4.0064 20.2279 3.05323 19.5249 2.35022C18.8219 1.6472 17.8687 1.25175 16.8745 1.25061C15.6976 1.25061 14.6077 1.58866 13.7972 2.48436C13.446 2.87305 13.1799 3.3309 13.0162 3.82849C12.8524 4.32609 12.7945 4.85244 12.8462 5.37374L12.9799 6.71061C13.0362 7.28702 13.3117 7.8198 13.7495 8.19889V20.0006C13.7492 20.4397 13.8652 20.871 14.0858 21.2506H13.1245C12.9116 21.2505 12.7002 21.2869 12.4995 21.3581V13.1256C12.499 12.6285 12.3012 12.1519 11.9497 11.8004C11.5982 11.4489 11.1216 11.2512 10.6245 11.2506H3.12451C2.6274 11.2512 2.15081 11.4489 1.7993 11.8004C1.44779 12.1519 1.25007 12.6285 1.24951 13.1256V16.2506H2.49951V15.0006H11.2495V21.2506H2.49951V17.5006H1.24951V22.604C1.24937 22.8967 1.35207 23.1803 1.53966 23.405C1.72726 23.6298 1.98784 23.7816 2.27592 23.8338L8.12451 24.8973V26.3639C7.59462 26.4866 7.07717 26.6579 6.57873 26.8756H3.12451C2.95875 26.8756 2.79978 26.9415 2.68257 27.0587C2.56536 27.1759 2.49951 27.3349 2.49951 27.5006V30.4672C1.68289 31.8385 1.25107 33.4046 1.24951 35.0006C1.24951 35.1664 1.31536 35.3253 1.43257 35.4426C1.54978 35.5598 1.70875 35.6256 1.87451 35.6256H4.73943C5.11294 36.5489 5.75367 37.3396 6.57948 37.8963C7.40529 38.4531 8.37855 38.7505 9.37451 38.7505C10.3705 38.7505 11.3437 38.4531 12.1695 37.8963C12.9954 37.3396 13.6361 36.5489 14.0096 35.6256H24.5183C24.9536 35.6254 25.3842 35.5343 25.7824 35.3582C26.1806 35.1821 26.5376 34.9249 26.8308 34.603L27.4995 33.8671V35.6256C27.4995 35.7914 27.5654 35.9503 27.6826 36.0676C27.7998 36.1848 27.9588 36.2506 28.1245 36.2506H29.4195C29.9699 37.2038 30.8194 37.9487 31.8362 38.3698C32.8531 38.791 33.9805 38.8649 35.0436 38.58C36.1068 38.2951 37.0462 37.6675 37.7162 36.7943C38.3863 35.9211 38.7495 34.8512 38.7495 33.7506C38.75 33.2719 38.6814 32.7957 38.5459 32.3365C38.6101 32.2781 38.6614 32.207 38.6964 32.1276C38.7315 32.0482 38.7496 31.9624 38.7495 31.8756ZM26.8745 9.68811C26.8745 9.50269 26.9295 9.32143 27.0325 9.16726C27.1355 9.01309 27.2819 8.89293 27.4532 8.82197C27.6246 8.75102 27.8131 8.73245 27.9949 8.76862C28.1768 8.8048 28.3438 8.89409 28.4749 9.0252C28.606 9.15631 28.6953 9.32336 28.7315 9.50521C28.7677 9.68707 28.7491 9.87557 28.6781 10.0469C28.6072 10.2182 28.487 10.3646 28.3329 10.4676C28.1787 10.5706 27.9974 10.6256 27.812 10.6256C27.5635 10.6253 27.3252 10.5265 27.1494 10.3507C26.9736 10.175 26.8748 9.93667 26.8745 9.68811ZM17.9331 31.8756C17.321 31.8749 16.7342 31.6314 16.3014 31.1986C15.8686 30.7658 15.6252 30.179 15.6245 29.5669C15.6245 28.9533 15.7797 28.3794 16.1886 27.9073C16.553 27.4877 17.0562 27.2132 17.6063 27.1339C18.2704 27.0391 18.878 26.708 19.3176 26.2013C19.7572 25.6946 19.9993 25.0464 19.9995 24.3756C19.9996 24.2935 19.9835 24.2121 19.9521 24.1363C19.9206 24.0604 19.8745 23.9915 19.8163 23.9335C19.9225 23.7114 19.9839 23.4705 19.9969 23.2246C20.0099 22.9787 19.9742 22.7327 19.892 22.5006H21.5895L18.8469 29.6314C18.7806 29.8031 18.7475 29.9859 18.7495 30.1699V31.8756H17.9331ZM19.9995 30.6256H23.1245C23.2586 30.6257 23.389 30.6689 23.4966 30.7489C23.6042 30.8288 23.6833 30.9412 23.7221 31.0695C23.761 31.1978 23.7575 31.3351 23.7124 31.4613C23.6672 31.5875 23.5826 31.6958 23.4712 31.7703C23.3141 31.8392 23.1445 31.875 22.9729 31.8756H19.9995V30.6256ZM24.8497 30.5162C24.7254 30.2254 24.5297 29.9707 24.2808 29.7755C24.0319 29.5804 23.7378 29.4512 23.4258 29.3998L26.0141 23.1683C26.2441 22.6145 26.3339 22.0125 26.2756 21.4157C26.2172 20.8188 26.0125 20.2456 25.6795 19.7468C25.3466 19.248 24.8957 18.8391 24.3669 18.5563C23.8381 18.2735 23.2476 18.1256 22.6479 18.1256H19.9995V17.1345L20.1826 17.3176C20.2406 17.3756 20.3095 17.4216 20.3853 17.453C20.4612 17.4844 20.5424 17.5006 20.6245 17.5006H26.982C26.8819 17.7834 26.8511 18.0861 26.8922 18.3832C26.9334 18.6804 27.0452 18.9633 27.2184 19.2083C27.3916 19.4533 27.621 19.6531 27.8875 19.7909C28.1539 19.9288 28.4495 20.0007 28.7495 20.0006H28.7512C28.3438 20.5408 28.1238 21.1991 28.1245 21.8756V26.724C28.1236 27.0554 27.992 27.373 27.7583 27.6079L24.8497 30.5162ZM28.7495 18.7506C28.6259 18.7506 28.5051 18.714 28.4023 18.6453C28.2995 18.5766 28.2194 18.479 28.1721 18.3648C28.1248 18.2506 28.1124 18.1249 28.1365 18.0037C28.1606 17.8824 28.2202 17.7711 28.3076 17.6837C28.395 17.5963 28.5063 17.5367 28.6276 17.5126C28.7488 17.4885 28.8745 17.5009 28.9887 17.5482C29.1029 17.5955 29.2005 17.6756 29.2692 17.7784C29.3379 17.8812 29.3745 18.002 29.3745 18.1256C29.3743 18.2913 29.3084 18.4502 29.1912 18.5673C29.0741 18.6845 28.9152 18.7504 28.7495 18.7506ZM33.1245 15.6256V18.7506H31.8745V15.8202C32.1122 15.6929 32.3776 15.6261 32.6472 15.6256H33.1245ZM30.6245 18.1256C30.6246 17.8256 30.5527 17.53 30.4148 17.2636C30.277 16.9971 30.0772 16.7677 29.8322 16.5945C29.5872 16.4213 29.3043 16.3095 29.0071 16.2683C28.71 16.2272 28.4073 16.258 28.1245 16.3581V15.2428L30.6245 16.0761V18.1256ZM21.8745 15.0006H26.8745V16.2506H20.8834L17.3165 12.6837L16.4326 13.5676L18.7495 15.8844V18.1256H14.9995V10.6256H17.837L21.4 14.7824C21.4587 14.8509 21.5315 14.9058 21.6134 14.9435C21.6953 14.9811 21.7844 15.0006 21.8745 15.0006ZM14.724 3.32311C15.2953 2.69178 16.0535 2.50061 16.8745 2.50061C17.4286 2.50131 17.9668 2.68575 18.4049 3.02503C18.843 3.36432 19.1562 3.8393 19.2955 4.37561H16.8745C16.7088 4.37561 16.5498 4.44146 16.4326 4.55867C16.3154 4.67588 16.2495 4.83485 16.2495 5.00061V6.48499C16.2486 6.74491 16.148 6.99459 15.9686 7.18261C15.7891 7.37064 15.5444 7.48269 15.2847 7.49571C15.0251 7.50872 14.7704 7.42171 14.5731 7.25258C14.3757 7.08345 14.2507 6.84508 14.2237 6.58655L14.09 5.24967C14.0534 4.90197 14.0909 4.55046 14.2002 4.21835C14.3095 3.88625 14.488 3.58111 14.724 3.32311ZM15.2339 8.75061C15.8346 8.74999 16.4105 8.51109 16.8352 8.08634C17.26 7.66159 17.4989 7.08568 17.4995 6.48499V5.62561H18.7495C18.7495 5.74902 18.786 5.86967 18.8545 5.97233L19.7118 7.25842L19.0946 7.56686C18.9909 7.61881 18.9037 7.69858 18.8427 7.79726C18.7818 7.89594 18.7495 8.00963 18.7495 8.12561V8.75061C18.7493 8.91631 18.6834 9.07518 18.5662 9.19235C18.4491 9.30952 18.2902 9.37542 18.1245 9.37561H14.9995V8.73835C15.0774 8.74641 15.1556 8.7505 15.2339 8.75061ZM14.9995 20.0006V19.3756H22.6479C23.042 19.3756 23.4299 19.4729 23.7774 19.6587C24.1249 19.8445 24.4211 20.1133 24.6399 20.441C24.8586 20.7687 24.9931 21.1454 25.0314 21.5376C25.0698 21.9297 25.0107 22.3253 24.8596 22.6892L22.0823 29.3756H20.2845L23.0829 22.1C23.1193 22.0053 23.1321 21.9032 23.1202 21.8025C23.1084 21.7017 23.0722 21.6054 23.0147 21.5218C22.9573 21.4382 22.8804 21.3698 22.7906 21.3225C22.7009 21.2753 22.6009 21.2506 22.4995 21.2506H16.2495C15.9181 21.2502 15.6004 21.1184 15.3661 20.8841C15.1317 20.6497 14.9999 20.332 14.9995 20.0006ZM13.1245 22.5006H18.1245C18.2903 22.5006 18.4492 22.5665 18.5665 22.6837C18.6837 22.8009 18.7495 22.9599 18.7495 23.1256C18.7495 23.2914 18.6837 23.4503 18.5665 23.5676C18.4492 23.6848 18.2903 23.7506 18.1245 23.7506H13.1245C12.9588 23.7506 12.7998 23.6848 12.6826 23.5676C12.5654 23.4503 12.4995 23.2914 12.4995 23.1256C12.4995 22.9599 12.5654 22.8009 12.6826 22.6837C12.7998 22.5665 12.9588 22.5006 13.1245 22.5006ZM2.49951 13.7506V13.1256C2.4997 12.9599 2.56561 12.801 2.68278 12.6839C2.79995 12.5667 2.95881 12.5008 3.12451 12.5006H10.6245C10.7902 12.5008 10.9491 12.5667 11.0662 12.6839C11.1834 12.801 11.2493 12.9599 11.2495 13.1256V13.7506H2.49951ZM2.49951 22.5006H11.2495V23.7506H8.80584L2.49951 22.604V22.5006ZM4.52217 28.1256C4.25087 28.3459 3.99287 28.582 3.74951 28.8328V28.1256H4.52217ZM9.37451 37.5006C8.71696 37.4977 8.07156 37.3232 7.50213 36.9943C6.93271 36.6655 6.45898 36.1937 6.12779 35.6256H7.72248C8.17857 36.0284 8.76606 36.2506 9.37451 36.2506C9.98296 36.2506 10.5705 36.0284 11.0265 35.6256H12.6212C12.29 36.1937 11.8163 36.6655 11.2469 36.9943C10.6775 37.3232 10.0321 37.4977 9.37451 37.5006ZM25.9058 33.7623C25.7299 33.9554 25.5156 34.1097 25.2767 34.2153C25.0378 34.3209 24.7795 34.3755 24.5183 34.3756H2.52537C2.65978 32.7439 3.31667 31.199 4.39857 29.9702C5.48046 28.7414 6.9297 27.8941 8.53123 27.554C8.69279 27.5189 8.85762 27.501 9.02295 27.5006H13.1245V26.2506H9.37451V25.0006H18.6167C18.5108 25.2383 18.3463 25.4452 18.1386 25.6019C17.9309 25.7587 17.6868 25.8602 17.4292 25.8969C16.5814 26.0188 15.8057 26.4418 15.244 27.0884C14.6393 27.7848 14.3745 28.6561 14.3745 29.567C14.374 30.4139 14.6769 31.2329 15.2283 31.8756H9.99951V33.1256H22.9729C23.635 33.1207 24.2691 32.8581 24.7407 32.3933L28.6422 28.4918C29.1095 28.0219 29.3726 27.3867 29.3745 26.724V21.8756C29.375 21.488 29.4953 21.11 29.7191 20.7934C29.9429 20.4769 30.2592 20.2374 30.6245 20.1077V22.5006C30.6256 23.3865 30.9399 24.2436 31.5117 24.9202C32.0836 25.5969 32.8762 26.0497 33.7495 26.1985V27.5006C33.3615 27.5006 32.9644 27.4772 32.5787 27.5276C31.4095 27.6435 30.3057 28.1219 29.4218 28.8959C28.5378 29.6699 27.9178 30.7007 27.6484 31.8444L25.9058 33.7623ZM33.459 32.5006H33.4907L34.2451 33.2551C34.3762 33.3867 34.4499 33.5648 34.4503 33.7506C34.4503 33.8892 34.4092 34.0247 34.3322 34.14C34.2552 34.2552 34.1458 34.345 34.0177 34.3981C33.8896 34.4511 33.7487 34.465 33.6128 34.438C33.4768 34.4109 33.352 34.3442 33.254 34.2462L32.6787 33.671L33.459 32.5006ZM33.7495 37.5006C33.208 37.4989 32.6731 37.3806 32.1814 37.1536C31.6897 36.9267 31.2526 36.5966 30.8999 36.1856C30.9988 36.1374 31.0832 36.0638 31.1445 35.9723L31.6864 35.1598C31.9873 35.6012 32.4218 35.9345 32.926 36.1108C33.4303 36.2872 33.9777 36.2972 34.4881 36.1396C34.9985 35.982 35.445 35.665 35.762 35.235C36.079 34.805 36.2499 34.2848 36.2495 33.7506C36.2504 33.3802 36.1679 33.0144 36.0082 32.6803C35.979 32.6188 35.9469 32.5593 35.9131 32.5006H37.2858C37.4854 33.0663 37.5464 33.6716 37.4637 34.2657C37.381 34.8598 37.1571 35.4254 36.8108 35.9152C36.4644 36.4049 36.0057 36.8045 35.473 37.0803C34.9404 37.3562 34.3493 37.5003 33.7495 37.5006Z" fill="#4AA760"/>
<path d="M4.99951 16.2506H3.74951V20.0006H4.99951V16.2506Z" fill="white"/>
</svg>
