<svg width="40" height="40" viewBox="0 0 40 40" fill="none" xmlns="../../../../../external.html?link=http://www.w3.org/2000/svg">
<path d="M38.1245 5.62561H36.2495V4.37561C36.2495 4.20985 36.1837 4.05088 36.0665 3.93367C35.9492 3.81646 35.7903 3.75061 35.6245 3.75061H22.4995C22.0127 3.75249 21.5331 3.86821 21.099 4.08851C20.665 4.3088 20.2884 4.62758 19.9995 5.01936C19.7106 4.62758 19.3341 4.3088 18.9 4.08851C18.4659 3.86821 17.9863 3.75249 17.4995 3.75061H4.37451C4.20875 3.75061 4.04978 3.81646 3.93257 3.93367C3.81536 4.05088 3.74951 4.20985 3.74951 4.37561V5.62561H1.87451C1.70875 5.62561 1.54978 5.69146 1.43257 5.80867C1.31536 5.92588 1.24951 6.08485 1.24951 6.25061V30.6256C1.24951 30.7914 1.31536 30.9503 1.43257 31.0676C1.54978 31.1848 1.70875 31.2506 1.87451 31.2506H27.4995V35.6256C27.4995 36.4544 27.8288 37.2493 28.4148 37.8353C29.0009 38.4214 29.7957 38.7506 30.6245 38.7506C31.4533 38.7506 32.2482 38.4214 32.8342 37.8353C33.4203 37.2493 33.7495 36.4544 33.7495 35.6256V31.2506H38.1245C38.2903 31.2506 38.4492 31.1848 38.5665 31.0676C38.6837 30.9503 38.7495 30.7914 38.7495 30.6256V6.25061C38.7495 6.08485 38.6837 5.92588 38.5665 5.80867C38.4492 5.69146 38.2903 5.62561 38.1245 5.62561ZM27.4995 30.0006H2.49951V6.87561H3.74951V28.1256C3.74951 28.2914 3.81536 28.4503 3.93257 28.5676C4.04978 28.6848 4.20875 28.7506 4.37451 28.7506H27.4995V30.0006ZM32.4995 35.6256C32.4995 36.1229 32.302 36.5998 31.9503 36.9514C31.5987 37.3031 31.1218 37.5006 30.6245 37.5006C30.1272 37.5006 29.6503 37.3031 29.2987 36.9514C28.9471 36.5998 28.7495 36.1229 28.7495 35.6256V35.0006H32.4995V35.6256ZM32.4995 33.7506H28.7495V32.5006H32.4995V33.7506ZM29.9995 21.2506V31.2506H28.7495V21.2506H29.9995ZM29.137 20.0006L30.6245 17.0256L32.112 20.0006H29.137ZM32.4995 31.2506H31.2495V21.2506H32.4995V31.2506ZM33.6808 20.3444L31.1808 15.3444C31.123 15.2485 31.0414 15.1691 30.944 15.1141C30.8465 15.059 30.7365 15.0301 30.6245 15.0301C30.5126 15.0301 30.4025 15.059 30.3051 15.1141C30.2076 15.1691 30.126 15.2485 30.0683 15.3444L27.5683 20.3444C27.5236 20.4314 27.5001 20.5278 27.4995 20.6256V27.5006H18.7495V22.5006H19.9995C20.9941 22.5006 21.9479 22.1055 22.6512 21.4023C23.3544 20.699 23.7495 19.7452 23.7495 18.7506C23.7495 18.5849 23.6837 18.4259 23.5665 18.3087C23.4492 18.1915 23.2903 18.1256 23.1245 18.1256H21.2495C20.2549 18.1256 19.3011 18.5207 18.5979 19.224C17.8946 19.9272 17.4995 20.881 17.4995 21.8756V22.5194C16.9626 22.1038 16.3034 21.8775 15.6245 21.8756H13.1245C12.9588 21.8756 12.7998 21.9415 12.6826 22.0587C12.5654 22.1759 12.4995 22.3349 12.4995 22.5006C12.4995 22.911 12.5803 23.3174 12.7374 23.6965C12.8944 24.0756 13.1246 24.4201 13.4148 24.7103C13.705 25.0005 14.0495 25.2307 14.4286 25.3877C14.8078 25.5448 15.2141 25.6256 15.6245 25.6256H17.4995V27.5006H4.99951V5.00061H17.4995C17.9963 5.00209 18.4724 5.20011 18.8237 5.55142C19.175 5.90273 19.373 6.37879 19.3745 6.87561V7.50061H20.6245V6.87561C20.626 6.37879 20.824 5.90273 21.1753 5.55142C21.5266 5.20011 22.0027 5.00209 22.4995 5.00061H34.9995V27.5006H33.7495V20.6256C33.7489 20.5278 33.7254 20.4314 33.6808 20.3444ZM18.8308 21.2506C18.9692 20.7143 19.2819 20.2391 19.7197 19.8998C20.1575 19.5604 20.6956 19.376 21.2495 19.3756H22.4183C22.2798 19.9119 21.9671 20.3871 21.5293 20.7265C21.0915 21.0658 20.5534 21.2502 19.9995 21.2506H18.8308ZM17.3933 24.3756H15.6245C15.2369 24.3745 14.8591 24.2539 14.5425 24.0302C14.226 23.8065 13.9862 23.4906 13.8558 23.1256H15.6245C16.0121 23.1267 16.39 23.2473 16.7065 23.471C17.023 23.6947 17.2629 24.0106 17.3933 24.3756ZM37.4995 30.0006H33.7495V28.7506H35.6245C35.7903 28.7506 35.9492 28.6848 36.0665 28.5676C36.1837 28.4503 36.2495 28.2914 36.2495 28.1256V6.87561H37.4995V30.0006Z" fill="#4AA760"/>
<path d="M33.1245 6.25061H22.4995C22.3338 6.25061 22.1748 6.31646 22.0576 6.43367C21.9404 6.55088 21.8745 6.70985 21.8745 6.87561V11.8756C21.8745 12.0414 21.9404 12.2003 22.0576 12.3176C22.1748 12.4348 22.3338 12.5006 22.4995 12.5006H33.1245C33.2903 12.5006 33.4492 12.4348 33.5665 12.3176C33.6837 12.2003 33.7495 12.0414 33.7495 11.8756V6.87561C33.7495 6.70985 33.6837 6.55088 33.5665 6.43367C33.4492 6.31646 33.2903 6.25061 33.1245 6.25061ZM32.4995 11.2506H23.1245V7.50061H32.4995V11.2506Z" fill="#4AA760"/>
<path d="M11.2495 13.7506C11.744 13.7506 12.2273 13.604 12.6384 13.3293C13.0496 13.0546 13.37 12.6641 13.5592 12.2073C13.7484 11.7505 13.7979 11.2478 13.7015 10.7629C13.605 10.2779 13.3669 9.83248 13.0173 9.48284C12.6676 9.13321 12.2222 8.89511 11.7372 8.79865C11.2523 8.70219 10.7496 8.75169 10.2928 8.94091C9.83599 9.13013 9.44554 9.45056 9.17084 9.86169C8.89613 10.2728 8.74951 10.7562 8.74951 11.2506C8.74951 11.9137 9.0129 12.5495 9.48174 13.0184C9.95059 13.4872 10.5865 13.7506 11.2495 13.7506ZM11.2495 10.0006C11.4967 10.0006 11.7384 10.0739 11.944 10.2113C12.1495 10.3486 12.3098 10.5438 12.4044 10.7723C12.499 11.0007 12.5237 11.252 12.4755 11.4945C12.4273 11.737 12.3082 11.9597 12.1334 12.1345C11.9586 12.3093 11.7359 12.4284 11.4934 12.4766C11.2509 12.5248 10.9996 12.5001 10.7712 12.4055C10.5427 12.3109 10.3475 12.1506 10.2102 11.9451C10.0728 11.7395 9.99951 11.4978 9.99951 11.2506C9.99951 10.9191 10.1312 10.6011 10.3656 10.3667C10.6 10.1323 10.918 10.0006 11.2495 10.0006Z" fill="#4AA760"/>
<path d="M10.6245 6.25061H11.8745V7.50061H10.6245V6.25061Z" fill="white"/>
<path d="M7.2699 8.15686L8.15378 7.27298L9.03811 8.1573L8.15422 9.04119L7.2699 8.15686Z" fill="white"/>
<path d="M6.24951 10.6256H7.49951V11.8756H6.24951V10.6256Z" fill="white"/>
<path d="M7.26953 14.3439L8.15386 13.4595L9.03774 14.3434L8.15341 15.2278L7.26953 14.3439Z" fill="white"/>
<path d="M10.6245 15.0006H11.8745V16.2506H10.6245V15.0006Z" fill="white"/>
<path d="M13.4562 14.3439L14.3401 13.46L15.2244 14.3443L14.3405 15.2282L13.4562 14.3439Z" fill="white"/>
<path d="M14.9995 10.6256H16.2495V11.8756H14.9995V10.6256Z" fill="white"/>
<path d="M13.4565 8.15771L14.3409 7.27339L15.2248 8.15727L14.3404 9.0416L13.4565 8.15771Z" fill="white"/>
<path d="M6.24951 18.1256H8.74951V19.3756H6.24951V18.1256Z" fill="white"/>
<path d="M9.99951 18.1256H14.9995V19.3756H9.99951V18.1256Z" fill="white"/>
<path d="M6.24951 21.2506H8.74951V22.5006H6.24951V21.2506Z" fill="white"/>
<path d="M22.4995 14.3756H24.9995V15.6256H22.4995V14.3756Z" fill="white"/>
<path d="M26.2495 14.3756H28.7495V15.6256H26.2495V14.3756Z" fill="white"/>
</svg>
