<svg width="40" height="40" viewBox="0 0 40 40" fill="none" xmlns="../../../../../external.html?link=http://www.w3.org/2000/svg">
<g clip-path="url(#clip0_1681_12185)">
<path d="M37.5898 23.8475C37.4944 23.6733 37.3549 23.5271 37.1854 23.4236C37.0158 23.3201 36.8221 23.2628 36.6235 23.2575L28.4526 23.0022C28.1217 22.9916 27.794 23.0708 27.5043 23.2312C27.2147 23.3916 26.9737 23.6273 26.807 23.9134L25.9154 25.4417V25.0241C25.9175 23.6738 25.4919 22.3575 24.6997 21.264C23.9074 20.1705 22.7893 19.3559 21.5056 18.937L17.9537 17.7722V17.5514L19.654 17.784C19.8369 17.809 20.023 17.7945 20.1998 17.7415C20.3766 17.6885 20.54 17.5983 20.679 17.4768C20.818 17.3554 20.9294 17.2055 21.0056 17.0374C21.0818 16.8693 21.121 16.6868 21.1208 16.5022L21.1184 14.9885L22.1229 14.59C22.2041 14.5578 22.2777 14.5089 22.3388 14.4465C22.4 14.3841 22.4474 14.3096 22.4779 14.2277C22.5085 14.1459 22.5215 14.0585 22.5163 13.9713C22.511 13.8841 22.4875 13.7989 22.4472 13.7214L21.0073 10.9448V9.25223C21.8839 9.17473 22.7246 9.08036 23.51 8.9695C27.2426 8.44317 27.727 7.86137 27.8862 7.67012C27.9668 7.57797 28.0258 7.46895 28.0588 7.35105C28.0919 7.23316 28.0982 7.10936 28.0772 6.98872C27.9753 6.43567 27.3625 6.17005 26.4738 5.94184C25.5988 5.73228 24.7119 5.57541 23.8181 5.47208C23.6543 5.45276 23.4896 5.49895 23.3597 5.60058C23.2299 5.70221 23.1454 5.85104 23.1248 6.01465C23.1042 6.17826 23.1491 6.34338 23.2497 6.47404C23.3503 6.60471 23.4984 6.69032 23.6619 6.71223C24.5148 6.80981 25.361 6.95973 26.1955 7.16114C25.619 7.33427 24.6671 7.55012 23.1829 7.75333C20.8344 8.07505 17.9908 8.25216 15.1762 8.25216C12.3266 8.25216 9.47311 8.07364 7.14029 7.74942C5.62053 7.53848 4.66506 7.31192 4.10123 7.13356C4.54475 7.01755 5.25654 6.87567 6.38811 6.73747C6.47004 6.72807 6.54931 6.70254 6.62134 6.66237C6.69336 6.62219 6.75673 6.56815 6.80777 6.50337C6.85882 6.4386 6.89654 6.36435 6.91876 6.28493C6.94098 6.2055 6.94726 6.12247 6.93724 6.0406C6.92722 5.95874 6.90109 5.87967 6.86037 5.80795C6.81965 5.73623 6.76514 5.67327 6.69997 5.62272C6.63481 5.57217 6.56028 5.53501 6.48069 5.51339C6.4011 5.49178 6.31802 5.48612 6.23623 5.49677C5.13467 5.63161 4.26217 5.78825 3.64342 5.96223C3.231 6.07817 2.26514 6.34981 2.26514 7.10223C2.26514 7.79833 2.96709 8.37091 6.39279 8.9027C7.0285 9.00137 7.70576 9.08856 8.41404 9.16395V11.9639C8.41277 12.8306 8.74398 13.6648 9.33944 14.2947L10.9891 16.0447V17.0511L4.94748 20.3182C4.13592 20.7565 3.45809 21.4063 2.98585 22.1985C2.51361 22.9908 2.26457 23.8961 2.26514 24.8185V37.4313C2.26503 38.112 2.5351 38.7649 3.01603 39.2467C3.49696 39.7284 4.14942 39.9996 4.83014 40.0007C4.87092 40.0007 4.91183 39.9997 4.95287 39.9979C12.4247 39.6518 21.4751 39.2088 22.1601 39.0617C22.7634 38.9324 24.2756 38.0523 26.6547 36.4457C26.8487 36.3138 27.0057 36.1344 27.1108 35.9246C27.2159 35.7149 27.2656 35.4817 27.2551 35.2473L27.1208 32.4438C27.1101 32.2173 27.0432 31.997 26.9261 31.8028C26.809 31.6086 26.6455 31.4465 26.4502 31.3312C26.2549 31.216 26.034 31.1511 25.8074 31.1424C25.5808 31.1337 25.3556 31.1816 25.1521 31.2816L23.4753 32.1047L27.8865 24.5433C27.9398 24.4517 28.017 24.3763 28.1097 24.3249C28.2025 24.2735 28.3074 24.2482 28.4133 24.2516L36.4088 24.5016L29.9205 35.6237C29.8669 35.7152 29.7897 35.7905 29.697 35.8419C29.6043 35.8932 29.4995 35.9186 29.3936 35.9154L28.4388 35.8856C28.2736 35.8812 28.1134 35.9424 27.9933 36.0559C27.8731 36.1693 27.8028 36.3257 27.7976 36.4908C27.7924 36.656 27.8529 36.8165 27.9657 36.9372C28.0786 37.0579 28.2346 37.129 28.3997 37.135L29.3545 37.1648C29.3739 37.1654 29.3931 37.1658 29.4124 37.1658C29.7337 37.1658 30.0494 37.0816 30.328 36.9216C30.6066 36.7615 30.8384 36.5312 31.0001 36.2536L37.5772 24.9797C37.6781 24.8085 37.7324 24.6139 37.7346 24.4153C37.7368 24.2166 37.6869 24.0209 37.5898 23.8475ZM24.6654 25.0241V27.5847L23.2212 30.0602V28.4625C23.2212 28.2968 23.1554 28.1378 23.0382 28.0206C22.921 27.9034 22.762 27.8375 22.5962 27.8375H21.3222C21.3177 26.4019 21.2254 24.9678 21.0458 23.5434C20.8757 22.2271 20.5048 20.9446 19.9461 19.7407L21.116 20.1243C22.1493 20.4615 23.0493 21.1172 23.6869 21.9974C24.3245 22.8777 24.6671 23.9372 24.6654 25.0241ZM10.3185 30.3061C10.3355 30.3075 10.3525 30.3083 10.3693 30.3083C10.5262 30.3081 10.6774 30.2489 10.7926 30.1424C10.9079 30.0359 10.9789 29.8899 10.9915 29.7335C10.9943 29.6998 11.0124 29.466 11.0291 29.0875H20.0611C20.0528 29.4372 20.0427 29.6436 20.0423 29.6513C20.0381 29.7333 20.0501 29.8153 20.0776 29.8926C20.1051 29.97 20.1475 30.0412 20.2025 30.1021C20.2575 30.163 20.324 30.2126 20.3981 30.2478C20.4723 30.2831 20.5526 30.3034 20.6346 30.3075C20.6455 30.3081 20.6563 30.3084 20.6671 30.3084C20.8272 30.3083 20.9812 30.2467 21.0972 30.1364C21.2133 30.026 21.2826 29.8754 21.2908 29.7154C21.2924 29.6825 21.3036 29.4557 21.3124 29.0877H21.9712V31.441C21.956 31.4305 21.9405 31.4204 21.9244 31.4107C21.7762 31.3196 21.6082 31.2656 21.4348 31.2531C21.2613 31.2405 21.0874 31.2699 20.9276 31.3387L18.5284 32.3737C18.2551 32.4911 18.0242 32.6891 17.8663 32.9411L17.1048 34.1538L9.086 34.338V29.088H9.77631C9.76123 29.4268 9.74584 29.626 9.74506 29.6336C9.73194 29.7989 9.78498 29.9625 9.89252 30.0886C10.0001 30.2148 10.1533 30.293 10.3185 30.3061ZM19.8276 11.385L21.0191 13.6825L20.2621 13.983C20.1456 14.0293 20.0456 14.1095 19.9753 14.2132C19.905 14.317 19.8674 14.4395 19.8676 14.5649L19.8706 16.5037C19.8706 16.5097 19.8693 16.5156 19.8669 16.521C19.8644 16.5264 19.8608 16.5313 19.8564 16.5352C19.8519 16.5391 19.8466 16.542 19.8409 16.5437C19.8352 16.5455 19.8292 16.5459 19.8233 16.5451L17.4136 16.2154C17.3252 16.2033 17.2352 16.2102 17.1497 16.2358C17.0642 16.2614 16.9852 16.305 16.918 16.3637C16.8507 16.4224 16.7968 16.4947 16.7599 16.576C16.723 16.6572 16.7039 16.7454 16.7039 16.8347V19.2539C16.7039 20.0039 16.4974 20.4846 16.0902 20.683C15.5327 20.9547 14.586 20.7277 13.8394 20.1434C12.7047 19.2554 12.3059 17.6596 12.2394 17.3593V15.5637L12.4542 11.1555C12.468 10.9237 12.557 10.7027 12.7077 10.526C12.8584 10.3493 13.0625 10.2265 13.2893 10.1763C13.516 10.126 13.7529 10.151 13.9641 10.2474C14.1754 10.3439 14.3495 10.5065 14.46 10.7108L15.0738 11.8454C15.1295 11.9483 15.2129 12.0336 15.3146 12.0914C15.4164 12.1492 15.5323 12.1773 15.6492 12.1725C15.7661 12.1677 15.8793 12.1302 15.9759 12.0642C16.0725 11.9982 16.1487 11.9065 16.1958 11.7993L17.2183 9.47122C18.079 9.44591 18.9297 9.40489 19.7579 9.34903V11.0972C19.7577 11.1973 19.7817 11.296 19.8276 11.385ZM15.8408 9.49825L15.5647 10.1267L15.559 10.116C15.4346 9.88547 15.2721 9.67767 15.0783 9.50137C15.1111 9.50137 15.1437 9.50177 15.1764 9.50177C15.3979 9.50177 15.6194 9.50059 15.8409 9.49825H15.8408ZM9.66397 11.9637V9.2813C10.4333 9.34505 11.2301 9.39552 12.0448 9.43192C11.799 9.63424 11.5976 9.88516 11.4532 10.1689C11.3089 10.4527 11.2247 10.7633 11.206 11.0811L11.0169 14.2518L10.249 13.4371C9.87255 13.039 9.66311 12.5116 9.66397 11.9637ZM11.2215 18.3465C11.489 19.1329 12.0365 20.3204 13.0686 21.1278C13.7326 21.6475 14.6537 22.0474 15.5412 22.0474C15.9201 22.0519 16.295 21.9696 16.6372 21.8068C17.1288 21.5672 17.9535 20.9171 17.9535 19.2539V19.0872L18.1964 19.1669C18.4248 19.5108 18.6271 19.8714 18.8016 20.2455C19.312 21.3418 19.6511 22.51 19.8068 23.7092C19.9781 25.0787 20.0661 26.4574 20.0703 27.8375H11.058C11.062 26.6615 11.0028 25.0837 10.745 23.5243C10.409 21.4931 9.70358 20.0877 9.28459 19.3939L11.2215 18.3465ZM5.54186 21.4181L8.18248 19.9901C8.52756 20.5526 9.19897 21.8372 9.51162 23.7284C9.75428 25.1959 9.80943 26.7098 9.80568 27.8378H8.46139C8.29563 27.8378 8.13666 27.9036 8.01945 28.0208C7.90224 28.138 7.83639 28.297 7.83639 28.4628V31.631H3.51514V24.8185C3.5147 24.1215 3.70289 23.4374 4.05976 22.8387C4.41663 22.24 4.92887 21.749 5.54217 21.4179L5.54186 21.4181ZM25.703 32.4036C25.7205 32.395 25.7399 32.3909 25.7594 32.3917C25.7789 32.3924 25.7979 32.398 25.8146 32.4079C25.8314 32.4178 25.8455 32.4318 25.8556 32.4485C25.8656 32.4651 25.8714 32.4841 25.8723 32.5036L26.0065 35.3071C26.0076 35.3272 26.0034 35.3472 25.9944 35.3653C25.9854 35.3833 25.9719 35.3987 25.9552 35.4099C23.6172 36.9886 22.2329 37.7677 21.9005 37.839C21.3771 37.9388 14.8609 38.2876 4.8949 38.7492C4.71674 38.7574 4.53876 38.7294 4.37172 38.6669C4.20469 38.6044 4.05207 38.5086 3.92309 38.3854C3.79412 38.2622 3.69147 38.1141 3.62135 37.9502C3.55123 37.7862 3.5151 37.6096 3.51514 37.4313V32.8807H7.83639V34.9345C7.83638 35.0234 7.85415 35.1113 7.88863 35.1933C7.92311 35.2752 7.97361 35.3494 8.03718 35.4115C8.10074 35.4736 8.17607 35.5224 8.25876 35.555C8.34144 35.5875 8.4298 35.6033 8.51865 35.6012L17.47 35.3956C17.5733 35.3932 17.6744 35.3653 17.7643 35.3142C17.8541 35.2632 17.9299 35.1907 17.9849 35.1032L18.9253 33.6057C18.9489 33.5683 18.9832 33.5388 19.0239 33.5213L21.2054 32.5803L21.2684 33.6161C21.2747 33.7189 21.3062 33.8185 21.3602 33.9061C21.4142 33.9937 21.4891 34.0667 21.578 34.1184C21.667 34.1702 21.7674 34.1992 21.8703 34.2028C21.9731 34.2064 22.0753 34.1846 22.1677 34.1392L25.703 32.4036Z" fill="#4AA760"/>
<path d="M33.2495 19.478C32.7117 19.4781 32.184 19.6237 31.7222 19.8993C31.6517 19.9413 31.5902 19.9969 31.5412 20.0627C31.4922 20.1285 31.4566 20.2034 31.4365 20.283C31.4164 20.3625 31.4122 20.4453 31.4241 20.5265C31.436 20.6077 31.4637 20.6858 31.5058 20.7563C31.5479 20.8267 31.6034 20.8883 31.6692 20.9373C31.7351 20.9863 31.8099 21.0218 31.8895 21.0419C31.9691 21.062 32.0518 21.0663 32.133 21.0544C32.2142 21.0425 32.2923 21.0147 32.3628 20.9726C32.6309 20.8126 32.9373 20.728 33.2495 20.728C33.5617 20.728 33.8682 20.8126 34.1362 20.9726C34.2067 21.0147 34.2848 21.0425 34.366 21.0544C34.4472 21.0663 34.53 21.062 34.6095 21.0419C34.6891 21.0218 34.764 20.9863 34.8298 20.9373C34.8956 20.8883 34.9512 20.8267 34.9932 20.7563C35.0353 20.6858 35.0631 20.6077 35.0749 20.5265C35.0868 20.4453 35.0826 20.3625 35.0625 20.283C35.0424 20.2034 35.0069 20.1285 34.9579 20.0627C34.9088 19.9969 34.8473 19.9413 34.7769 19.8993C34.3151 19.6237 33.7873 19.4781 33.2495 19.478Z" fill="#4AA760"/>
<path d="M29.8682 17.7205C30.8552 17.0164 32.0374 16.6379 33.2498 16.6379C34.4622 16.6379 35.6444 17.0164 36.6314 17.7205C36.7663 17.8169 36.9339 17.8557 37.0974 17.8284C37.261 17.8011 37.407 17.71 37.5033 17.5751C37.5997 17.4402 37.6385 17.2726 37.6112 17.109C37.5839 16.9455 37.4928 16.7995 37.3579 16.7032C36.159 15.8477 34.7229 15.3879 33.2501 15.3879C31.7773 15.3879 30.3412 15.8477 29.1423 16.7032C29.0755 16.7509 29.0187 16.8113 28.9753 16.8809C28.9318 16.9506 28.9025 17.0281 28.889 17.109C28.8755 17.19 28.8781 17.2728 28.8966 17.3528C28.9151 17.4328 28.9492 17.5083 28.9969 17.5751C29.0446 17.6419 29.105 17.6987 29.1746 17.7421C29.2443 17.7856 29.3218 17.8149 29.4028 17.8284C29.4837 17.8419 29.5666 17.8393 29.6465 17.8208C29.7265 17.8023 29.8021 17.7682 29.8689 17.7205H29.8682Z" fill="#4AA760"/>
<path d="M35.726 19.4472C35.8597 19.4474 35.9898 19.4047 36.0974 19.3254C36.205 19.2461 36.2844 19.1344 36.3238 19.0067C36.3633 18.8791 36.3608 18.7421 36.3167 18.6159C36.2726 18.4898 36.1892 18.3811 36.0788 18.3058C35.2448 17.7371 34.2588 17.433 33.2494 17.433C32.24 17.433 31.254 17.7371 30.42 18.3058C30.3515 18.3518 30.2928 18.4108 30.2473 18.4796C30.2017 18.5483 30.1702 18.6254 30.1546 18.7064C30.139 18.7873 30.1396 18.8706 30.1563 18.9514C30.173 19.0321 30.2055 19.1088 30.252 19.1769C30.2984 19.245 30.3579 19.3033 30.427 19.3483C30.4961 19.3934 30.5734 19.4243 30.6545 19.4393C30.7356 19.4543 30.8189 19.4531 30.8995 19.4358C30.9801 19.4185 31.0565 19.3854 31.1243 19.3385C31.7507 18.9114 32.4912 18.683 33.2493 18.683C34.0074 18.683 34.7479 18.9114 35.3743 19.3385C35.4779 19.4093 35.6005 19.4472 35.726 19.4472Z" fill="#4AA760"/>
<path d="M8.63473 7.31311C8.71285 7.32538 10.5957 7.61264 15.0474 7.61264C19.4991 7.61264 21.3823 7.32522 21.4604 7.31311C21.5463 7.29964 21.6284 7.2684 21.7016 7.22139C21.7747 7.17439 21.8372 7.11264 21.8851 7.0401C21.933 6.96756 21.9653 6.88582 21.9798 6.80011C21.9943 6.7144 21.9908 6.62661 21.9695 6.54233L20.7315 1.65053C20.6125 1.17874 20.3394 0.760192 19.9554 0.461294C19.5715 0.162395 19.0987 0.000260322 18.6122 0.000610964H11.4827C10.9961 0.000246749 10.5234 0.162376 10.1394 0.461277C9.75546 0.760178 9.48232 1.17873 9.36332 1.65053L8.12567 6.54217C8.10434 6.62645 8.10083 6.71425 8.11536 6.79996C8.12989 6.88567 8.16214 6.9674 8.21004 7.03994C8.25795 7.11248 8.32047 7.17423 8.39359 7.22124C8.46672 7.26825 8.54885 7.29949 8.63473 7.31295V7.31311ZM10.5751 1.95725C10.6261 1.7552 10.743 1.57596 10.9075 1.44794C11.0719 1.31993 11.2743 1.25048 11.4827 1.25061H18.6122C18.8205 1.25046 19.0229 1.31989 19.1873 1.44787C19.3517 1.57586 19.4687 1.75508 19.5197 1.9571L20.5822 6.15561C19.6927 6.23983 17.9068 6.36249 15.0475 6.36249C12.1883 6.36249 10.4022 6.23983 9.51301 6.15561L10.5751 1.95725Z" fill="#4AA760"/>
</g>
<defs>
<clipPath id="clip0_1681_12185">
<rect width="40" height="40" fill="white" transform="translate(-0.000488281 0.000610352)"/>
</clipPath>
</defs>
</svg>
