<svg width="36" height="36" viewBox="0 0 36 36" fill="none" xmlns="../../../../../external.html?link=http://www.w3.org/2000/svg">
<path d="M5.19359 35.3654C8.02631 35.3654 10.333 33.0849 10.383 30.2637L17.3138 29.8523C18.7508 33.0937 21.997 35.3614 25.765 35.3614C30.8602 35.3614 35.0058 31.2162 35.0058 26.1208C35.0058 24.1707 34.397 22.361 33.3618 20.8683L35.7801 18.8358C36.0388 18.6186 36.0736 18.2338 35.859 17.9735C34.6934 16.5612 33.2629 15.4397 31.6714 14.6481L30.8746 6.03408C30.8718 6.0036 30.8643 5.97464 30.8573 5.94576C32.0406 5.64328 32.9967 4.67168 33.2156 3.4064C33.2444 3.24024 33.204 3.06992 33.1035 2.93456C33.003 2.79944 32.8517 2.71136 32.6843 2.69088L15.8905 0.640877C15.7159 0.618077 15.5402 0.673917 15.4085 0.790877C15.2767 0.907517 15.201 1.07512 15.201 1.25128V1.60304C15.201 2.83336 15.9402 3.9324 17.0296 4.42232L14.5485 12.965L13.608 13.2335V11.9798C13.608 11.6401 13.3326 11.3649 12.993 11.3649H12.1386V7.836C12.1386 6.06672 10.9331 4.56088 9.20711 4.17408L5.53391 3.35064C5.20239 3.27656 4.87327 3.48496 4.79919 3.81624L4.26111 6.21648C4.22543 6.3756 4.25471 6.5424 4.34199 6.68016C4.42927 6.81808 4.56783 6.91544 4.72679 6.9512L8.39983 7.77464C8.43111 7.78144 8.44871 7.80384 8.44871 7.83592V11.3648H7.59471C7.25519 11.3648 6.97975 11.6401 6.97975 11.9798V15.127L4.27119 15.9009C2.13799 16.5102 0.799112 18.621 1.15751 20.8105L2.01775 26.0706C0.792472 27.0216 -0.000488281 28.504 -0.000488281 30.1714C-0.000488281 33.0354 2.32967 35.3654 5.19359 35.3654ZM33.7758 26.1207C33.7758 30.5379 30.182 34.1314 25.765 34.1314C21.3477 34.1314 17.7539 30.5378 17.7539 26.1207C17.7539 21.7035 21.3477 18.1098 25.765 18.1098C30.1819 18.1098 33.7758 21.7035 33.7758 26.1207ZM18.376 4.19624C18.4237 4.03168 18.4008 3.85456 18.3123 3.70776C18.2242 3.5608 18.0786 3.45752 17.9107 3.42248C17.1688 3.26816 16.6031 2.6744 16.4638 1.94992L31.7814 3.81968C31.4087 4.47912 30.6673 4.88952 29.8773 4.806L19.9915 3.7832C19.6532 3.75 19.3514 3.99384 19.3165 4.33168C19.2817 4.66936 19.5271 4.97176 19.865 5.00672L23.9018 5.4244L22.7166 13.7282C22.1734 13.871 21.6409 14.0493 21.1218 14.261C21.1154 14.2595 21.1096 14.2566 21.103 14.2553L15.7588 13.2065L18.376 4.19624ZM30.3854 14.0941C28.9866 13.5807 27.4936 13.3061 25.9616 13.3061C25.3006 13.3061 24.6443 13.359 23.9978 13.46L25.1266 5.5512L29.6519 6.01944C29.6471 6.06112 29.6462 6.10392 29.6502 6.14736L30.3854 14.0941ZM5.59599 5.88544L5.86503 4.68552L8.93791 5.3744C10.0982 5.63424 10.9086 6.64656 10.9086 7.83592V11.3648H9.67855V7.83592C9.67855 7.22632 9.26343 6.70768 8.66887 6.57432L5.59599 5.88544ZM8.20959 12.5947H12.3779V21.4777H8.20959V12.5947ZM12.7787 24.6295L14.5556 25.0277C14.6765 25.0547 14.7798 25.1274 14.8459 25.2321C14.9123 25.3368 14.934 25.461 14.9068 25.5818L14.8407 25.8765C14.8138 25.9974 14.741 26.1005 14.6365 26.1668C14.5316 26.2334 14.4074 26.2549 14.2866 26.2277L12.5093 25.8293C10.9824 25.487 9.88223 24.2317 9.71911 22.7078H10.9591C11.1142 23.6502 11.8183 24.414 12.7787 24.6295ZM5.67327 19.0314C5.57671 18.7054 5.23479 18.5204 4.90895 18.6161L2.42455 19.3508C2.68815 18.2878 3.49687 17.4014 4.60903 17.0836L6.97967 16.4063V22.0927C6.97967 22.4325 7.25519 22.7077 7.59463 22.7077H8.48255C8.64943 24.8126 10.147 26.5602 12.2402 27.0295L14.0175 27.4279C14.1417 27.4558 14.267 27.4695 14.3914 27.4695C14.7086 27.4695 15.02 27.3796 15.2947 27.2057C15.6771 26.9633 15.9422 26.5866 16.041 26.1455L16.1071 25.8512C16.206 25.4096 16.1271 24.9558 15.885 24.5736C15.6427 24.1914 15.2664 23.9264 14.8248 23.8273L13.0479 23.4291C12.657 23.3415 12.3546 23.065 12.225 22.7076H12.993C13.3326 22.7076 13.608 22.4323 13.608 22.0926V14.5126L14.6134 14.2254C14.6423 14.2358 14.6711 14.2462 14.7022 14.2522L19.326 15.1598C18.4197 15.7067 17.5781 16.3666 16.8258 17.1294L15.513 16.8649C15.183 16.7984 14.8559 17.013 14.7886 17.3466C14.7218 17.6794 14.9372 18.0038 15.2703 18.0708L16.9142 18.4018C17.1228 18.443 17.339 18.3743 17.4848 18.2186C19.6709 15.8781 22.7606 14.5359 25.9616 14.5359C29.2315 14.5359 32.3135 15.8992 34.51 18.2962L32.5966 19.9046C30.9051 18.0474 28.4689 16.8798 25.765 16.8798C20.6694 16.8798 16.5238 21.0254 16.5238 26.1207C16.5238 26.9962 16.6489 27.8426 16.8774 28.6459L10.2594 29.0387C9.74063 26.7183 7.66807 24.9774 5.19351 24.9774C4.46967 24.9774 3.78039 25.1272 3.15367 25.396L3.03447 24.667C3.04111 24.6653 3.04767 24.6661 3.05439 24.6642L6.07807 23.7699C6.40359 23.6737 6.58975 23.3315 6.49319 23.0058C6.39671 22.6796 6.05479 22.4949 5.72887 22.5904L2.83487 23.4463L2.70607 22.6586L5.66807 21.7828C5.99359 21.6866 6.17975 21.3444 6.08319 21.0186C5.98671 20.6927 5.64519 20.5082 5.31887 20.6033L2.50591 21.435L2.37719 20.6476L5.25807 19.7955C5.58351 19.6993 5.76975 19.3571 5.67327 19.0314ZM5.19359 26.2074C7.37927 26.2074 9.15775 27.9857 9.15775 30.1714C9.15775 32.3572 7.37927 34.1355 5.19359 34.1355C3.00791 34.1355 1.22943 32.3572 1.22943 30.1714C1.22943 27.9857 3.00791 26.2074 5.19359 26.2074Z" fill="#4AA760"/>
<path d="M5.19364 32.5724C6.51772 32.5724 7.59468 31.4954 7.59468 30.1714C7.59468 28.8473 6.51772 27.7703 5.19364 27.7703C3.86964 27.7703 2.7926 28.8473 2.7926 30.1714C2.7926 31.4954 3.86956 32.5724 5.19364 32.5724ZM5.19364 29.0003C5.83948 29.0003 6.36476 29.5255 6.36476 30.1714C6.36476 30.8171 5.83948 31.3424 5.19364 31.3424C4.54788 31.3424 4.02252 30.8171 4.02252 30.1714C4.02252 29.5255 4.5478 29.0003 5.19364 29.0003Z" fill="#4AA760"/>
<path d="M25.765 21.1755C23.0384 21.1755 20.8199 23.3939 20.8199 26.1207C20.8199 28.8472 23.0385 31.0655 25.765 31.0655C28.4915 31.0655 30.7097 28.8472 30.7097 26.1207C30.7097 23.3939 28.4916 21.1755 25.765 21.1755ZM25.765 29.8355C23.7167 29.8355 22.0499 28.169 22.0499 26.1207C22.0499 24.0721 23.7167 22.4055 25.765 22.4055C27.8133 22.4055 29.4797 24.0721 29.4797 26.1207C29.4797 28.169 27.8134 29.8355 25.765 29.8355Z" fill="#4AA760"/>
<path d="M25.765 24.304C24.7632 24.304 23.948 25.119 23.948 26.1207C23.948 27.1222 24.7632 27.9372 25.765 27.9372C26.1045 27.9372 26.3799 27.6619 26.3799 27.3222C26.3799 26.9824 26.1045 26.7072 25.765 26.7072C25.4414 26.7072 25.178 26.4442 25.178 26.1207C25.178 25.7972 25.4414 25.5339 25.765 25.5339C26.0885 25.5339 26.3515 25.7971 26.3515 26.1207C26.3515 26.4604 26.627 26.7356 26.9665 26.7356C27.306 26.7356 27.5814 26.4604 27.5814 26.1207C27.5815 25.1189 26.7668 24.304 25.765 24.304Z" fill="#4AA760"/>
</svg>
