<svg width="20" height="18" viewBox="0 0 20 18" fill="none" xmlns="../../../../../external.html?link=http://www.w3.org/2000/svg">
<path d="M9.43537 2.53092L9.21265 3.42181L9.47587 3.36107L9.73908 3.42181L9.51636 2.53092C9.51636 2.49043 9.43537 2.49043 9.43537 2.53092Z" fill="#FF9C00"/>
<path d="M12.3913 7.57256L12.5938 6.60068L12.3103 6.21598L12.7557 5.2441C12.776 5.20361 12.857 5.20361 12.857 5.26435L12.8975 6.03375C12.9177 6.62093 12.776 7.20811 12.4925 7.7143L12.3913 7.57256Z" fill="#DD9403"/>
<path d="M12.5737 6.15524C11.8245 5.89203 10.9539 6.05401 10.3464 6.66143C10.2857 6.72217 10.2452 6.78291 10.1845 6.84366C9.71878 7.43083 9.59729 8.22049 9.84026 8.88865C10.2655 9.03038 10.7312 9.05063 11.1563 8.92915C11.4803 8.82791 11.8043 8.64568 12.0675 8.38247C12.6749 7.77504 12.8369 6.9044 12.5737 6.15524Z" fill="#FF9C00"/>
<path d="M12.5736 6.15527H12.5534C12.5534 6.70196 12.3509 7.24864 11.9257 7.67383C11.6625 7.93705 11.3385 8.11928 11.0146 8.22051C10.5894 8.342 10.1439 8.342 9.71875 8.18002C9.71875 8.42299 9.75925 8.66596 9.84024 8.88868C10.2654 9.03041 10.7311 9.05066 11.1563 8.92918C11.4803 8.82794 11.8042 8.64571 12.0675 8.38249C12.6749 7.77507 12.8369 6.90443 12.5736 6.15527Z" fill="#DD9403"/>
<path d="M6.56034 7.57256L6.35786 6.60068L6.64133 6.21598L6.19588 5.2441C6.17564 5.20361 6.09465 5.20361 6.09465 5.26435L6.05415 6.03375C6.0339 6.62093 6.17563 7.20811 6.4591 7.7143L6.56034 7.57256Z" fill="#DD9403"/>
<path d="M6.39823 6.15524C7.14738 5.89203 8.01802 6.05401 8.62545 6.66143C8.68619 6.72217 8.72668 6.78291 8.78742 6.84366C9.25312 7.43083 9.3746 8.22049 9.13163 8.88865C8.70644 9.03038 8.24074 9.05063 7.81555 8.92915C7.49159 8.82791 7.16763 8.64568 6.90441 8.38247C6.29699 7.77504 6.13501 6.9044 6.39823 6.15524Z" fill="#FF9C00"/>
<path d="M6.39823 6.15527H6.41847C6.41847 6.70196 6.62095 7.24864 7.04615 7.67383C7.30936 7.93705 7.63332 8.11928 7.95728 8.22051C8.38248 8.342 8.82792 8.342 9.25312 8.18002C9.25312 8.42299 9.21262 8.66596 9.13163 8.88868C8.70644 9.03041 8.24074 9.05066 7.81555 8.92918C7.49159 8.82794 7.16763 8.64571 6.90441 8.38249C6.29699 7.77507 6.13501 6.90443 6.39823 6.15527Z" fill="#DD9403"/>
<path d="M12.3913 10.7514L12.5938 9.77952L12.3103 9.39482L12.7557 8.42294C12.776 8.38244 12.857 8.38244 12.857 8.44318L12.8975 9.21259C12.9177 9.79976 12.776 10.3869 12.4925 10.8931L12.3913 10.7514Z" fill="#DD9403"/>
<path d="M12.5737 9.33408C11.8245 9.07086 10.9539 9.23284 10.3464 9.84026C10.2857 9.90101 10.2452 9.96175 10.1845 10.0225C9.71878 10.6097 9.59729 11.3993 9.84026 12.0675C10.2655 12.2092 10.7312 12.2295 11.1563 12.108C11.4803 12.0067 11.8043 11.8245 12.0675 11.5613C12.6749 10.9539 12.8369 10.0832 12.5737 9.33408Z" fill="#FF9C00"/>
<path d="M12.5736 9.33411H12.5534C12.5534 9.88079 12.3509 10.4275 11.9257 10.8527C11.6625 11.1159 11.3385 11.2981 11.0146 11.3993C10.5894 11.5208 10.1439 11.5208 9.71875 11.3589C9.71875 11.6018 9.75925 11.8448 9.84024 12.0675C10.2654 12.2092 10.7311 12.2295 11.1563 12.108C11.4803 12.0068 11.8042 11.8245 12.0675 11.5613C12.6749 10.9539 12.8369 10.0833 12.5736 9.33411Z" fill="#DD9403"/>
<path d="M6.56034 10.7514L6.35786 9.77952L6.64133 9.39482L6.19588 8.42294C6.17564 8.38244 6.09465 8.38244 6.09465 8.44318L6.05415 9.21259C6.0339 9.79976 6.17563 10.3869 6.4591 10.8931L6.56034 10.7514Z" fill="#DD9403"/>
<path d="M6.39823 9.33408C7.14738 9.07086 8.01802 9.23284 8.62545 9.84026C8.68619 9.90101 8.72668 9.96175 8.78742 10.0225C9.25312 10.6097 9.3746 11.3993 9.13163 12.0675C8.70644 12.2092 8.24074 12.2295 7.81555 12.108C7.49159 12.0067 7.16763 11.8245 6.90441 11.5613C6.29699 10.9539 6.13501 10.0832 6.39823 9.33408Z" fill="#FF9C00"/>
<path d="M6.39823 9.33411H6.41847C6.41847 9.88079 6.62095 10.4275 7.04615 10.8527C7.30936 11.1159 7.63332 11.2981 7.95728 11.3993C8.38248 11.5208 8.82792 11.5208 9.25312 11.3589C9.25312 11.6018 9.21262 11.8448 9.13163 12.0675C8.70644 12.2092 8.24074 12.2295 7.81555 12.108C7.49159 12.0068 7.16763 11.8245 6.90441 11.5613C6.29699 10.9539 6.13501 10.0833 6.39823 9.33411Z" fill="#DD9403"/>
<path d="M9.47559 0C8.74668 0.344207 8.26074 1.07312 8.26074 1.92351C8.26074 2.59168 8.56445 3.17885 9.03014 3.56356C9.17188 3.68504 9.31361 3.76603 9.47559 3.84702C9.59708 3.78628 9.71856 3.72553 9.81979 3.64454C10.3462 3.25984 10.6904 2.63217 10.6904 1.92351C10.7107 1.07312 10.2045 0.344207 9.47559 0Z" fill="#FF9C00"/>
<path d="M9.81979 2.8954C9.71856 2.97639 9.59708 3.03713 9.47559 3.09787C9.31361 3.01688 9.15163 2.91565 9.03014 2.81441C8.64544 2.49045 8.38222 2.045 8.30123 1.53882C8.28099 1.6603 8.26074 1.80203 8.26074 1.92352C8.26074 2.59169 8.56445 3.17886 9.03014 3.56356C9.17188 3.68505 9.31361 3.76604 9.47559 3.84703C9.59708 3.78629 9.71856 3.72554 9.81979 3.64455C10.3462 3.25985 10.6904 2.63218 10.6904 1.92352C10.6904 1.80203 10.6702 1.6603 10.6499 1.53882C10.569 2.10575 10.2652 2.57144 9.81979 2.8954Z" fill="#DD9403"/>
<path d="M12.3913 4.41399L12.5938 3.44211L12.3103 3.05741L12.7557 2.08553C12.776 2.04504 12.857 2.04504 12.857 2.10578L12.8975 2.87518C12.9177 3.46236 12.776 4.04954 12.4925 4.55572L12.3913 4.41399Z" fill="#DD9403"/>
<path d="M12.5737 2.97635C11.8245 2.71313 10.9539 2.87511 10.3464 3.48254C10.2857 3.54328 10.2452 3.60402 10.1845 3.66477C9.71878 4.25194 9.59729 5.04159 9.84026 5.70976C10.2655 5.85149 10.7312 5.87174 11.1563 5.75026C11.4803 5.64902 11.8043 5.46679 12.0675 5.20357C12.6749 4.6164 12.8369 3.74575 12.5737 2.97635Z" fill="#FF9C00"/>
<path d="M12.5736 2.97638H12.5534C12.5534 3.52306 12.3509 4.06974 11.9257 4.49494C11.6625 4.75816 11.3385 4.94039 11.0146 5.04162C10.5894 5.16311 10.1439 5.16311 9.71875 5.00113C9.71875 5.2441 9.75925 5.48707 9.84024 5.70979C10.2654 5.85152 10.7311 5.87177 11.1563 5.75028C11.4803 5.64905 11.8042 5.46682 12.0675 5.2036C12.6749 4.61642 12.8369 3.74578 12.5736 2.97638Z" fill="#DD9403"/>
<path d="M6.56034 4.41399L6.35786 3.44211L6.64133 3.05741L6.19588 2.08553C6.17564 2.04504 6.09465 2.04504 6.09465 2.10578L6.05415 2.87518C6.0339 3.46236 6.17563 4.04954 6.4591 4.55572L6.56034 4.41399Z" fill="#DD9403"/>
<path d="M6.39823 2.97635C7.14738 2.71313 8.01802 2.87511 8.62545 3.48254C8.68619 3.54328 8.72668 3.60402 8.78742 3.66477C9.25312 4.25194 9.3746 5.04159 9.13163 5.70976C8.70644 5.85149 8.24074 5.87174 7.81555 5.75026C7.49159 5.64902 7.16763 5.46679 6.90441 5.20357C6.29699 4.6164 6.13501 3.74575 6.39823 2.97635Z" fill="#FF9C00"/>
<path d="M6.39823 2.97638H6.41847C6.41847 3.52306 6.62095 4.06974 7.04615 4.49494C7.30936 4.75816 7.63332 4.94039 7.95728 5.04162C8.38248 5.16311 8.82792 5.16311 9.25312 5.00113C9.25312 5.2441 9.21262 5.48707 9.13163 5.70979C8.70644 5.85152 8.24074 5.87177 7.81555 5.75028C7.49159 5.64905 7.16763 5.46682 6.90441 5.2036C6.29699 4.61642 6.13501 3.74578 6.39823 2.97638Z" fill="#DD9403"/>
<path d="M9.49611 15.0438H9.45562C9.31389 15.0438 9.21265 14.9224 9.21265 14.8009V12.2699C9.21265 12.1282 9.33413 12.027 9.45562 12.027H9.49611C9.63784 12.027 9.73908 12.1485 9.73908 12.2699V14.8009C9.75933 14.9224 9.63784 15.0438 9.49611 15.0438Z" fill="#4AA760"/>
<path d="M9.47586 14.6389C9.47586 14.6389 9.37462 12.6142 10.9944 12.6142C12.6142 12.6142 13.7278 12.0675 14.0113 11.1361C14.0113 11.1361 13.8291 13.2014 12.3712 13.5456C10.9134 13.8898 10.144 13.3836 9.47586 14.6389Z" fill="#4AA760"/>
<path d="M9.47587 14.6389C9.47587 14.6389 9.5771 12.6142 7.95731 12.6142C6.33751 12.6142 5.22389 12.0675 4.94043 11.1361C4.94043 11.1361 5.12266 13.2014 6.58048 13.5456C8.03829 13.8898 8.82795 13.3836 9.47587 14.6389Z" fill="#4AA760"/>
<path d="M17.6963 3.74579C18.0405 4.67717 18.2227 5.6693 18.2227 6.70192C18.2227 11.5208 14.315 15.4286 9.49608 15.4286C4.67718 15.4286 0.769422 11.5208 0.769422 6.70192C0.769422 5.6693 0.951645 4.65692 1.29585 3.74579C0.485953 5.14286 0.0202637 6.76266 0.0202637 8.50394C0.0202637 13.748 4.27223 18 9.51632 18C14.7604 18 19.0124 13.748 19.0124 8.50394C18.9719 6.76266 18.5062 5.14286 17.6963 3.74579Z" fill="#4AA760"/>
<path d="M17.7773 3.90777C17.7368 3.84703 17.7165 3.78628 17.676 3.74579C17.7165 3.78628 17.757 3.84703 17.7773 3.90777Z" fill="#DD9403"/>
<path d="M17.7773 3.90771C18.7492 5.89197 19.8628 16.0157 9.47582 16.7649C-0.911132 16.0157 0.202478 5.89197 1.17436 3.90771C0.425201 5.2643 0 6.82335 0 8.48364C0 13.7277 4.25197 17.9797 9.47582 17.9797C14.7199 17.9797 18.9516 13.7277 18.9516 8.48364C18.9719 6.82335 18.5264 5.2643 17.7773 3.90771Z" fill="black" fill-opacity="0.1"/>
</svg>
