<svg width="180" height="53" viewBox="0 0 180 53" fill="none" xmlns="../../../../external.html?link=http://www.w3.org/2000/svg">
<path d="M22.9932 53C22.7788 53 22.5645 52.8372 22.5645 52.566V7.7029C22.5645 7.48591 22.7252 7.26892 22.9932 7.26892C23.2076 7.26892 23.422 7.43166 23.422 7.7029V52.566C23.3684 52.8372 23.2076 53 22.9932 53Z" fill="#FF9C00"/>
<path d="M26.0487 10.0359C25.4055 7.64897 23.7976 5.80454 23.208 3.58037C23.0472 2.60391 23.2616 1.41045 23.2616 1.41045C23.2616 1.30196 23.3152 1.13922 23.3152 0.976474C23.3152 0.433994 23.1544 0 22.94 0C22.7256 0 22.5648 0.433994 22.5648 0.976474C22.5648 1.13922 22.5648 1.24771 22.6184 1.41045C22.6184 1.41045 22.8864 2.60391 22.672 3.58037C22.0824 5.80454 20.4745 7.64897 19.8313 10.0359C19.1345 12.6398 19.5097 18.2273 22.7792 18.2273H23.0472C26.3167 18.2273 26.7455 12.6398 26.0487 10.0359Z" fill="#FF9C00"/>
<path d="M31.1944 20.9944C32.3736 18.8245 32.5344 16.3833 33.7135 14.3761C34.2495 13.5624 35.2679 12.9115 35.2679 12.9115C35.3751 12.8572 35.4823 12.7487 35.5895 12.6402C35.9646 12.2605 36.179 11.8265 36.0182 11.718C35.8574 11.5553 35.4823 11.7723 35.1071 12.152C34.9999 12.2605 34.8927 12.369 34.8391 12.4775C34.8391 12.4775 34.1959 13.5082 33.3919 14.0507C31.4088 15.2441 28.9969 15.4069 26.853 16.6003C24.4946 17.9565 20.9036 22.1879 23.2083 24.5205L23.3691 24.6833C25.6202 27.0159 29.8545 23.3813 31.1944 20.9944Z" fill="#FF9C00"/>
<path d="M14.8476 20.9944C13.6684 18.8245 13.5076 16.3833 12.3285 14.3761C11.7925 13.5624 10.7741 12.9115 10.7741 12.9115C10.6669 12.8572 10.5597 12.7487 10.4525 12.6402C10.0773 12.2605 9.86295 11.8265 10.0237 11.718C10.1845 11.5553 10.5597 11.7723 10.9349 12.152C11.0421 12.2605 11.1493 12.369 11.2029 12.4775C11.2029 12.4775 11.8461 13.5082 12.6501 14.0507C14.6332 15.2441 17.0451 15.4069 19.189 16.6003C21.5473 17.9565 25.1384 22.1879 22.8337 24.5205L22.6729 24.6833C20.3682 27.0159 16.1339 23.3813 14.8476 20.9944Z" fill="#FF9C00"/>
<path d="M31.1944 31.2464C32.3736 29.0764 32.5344 26.6353 33.7135 24.6281C34.2495 23.8144 35.2679 23.1634 35.2679 23.1634C35.3751 23.1092 35.4823 23.0007 35.5895 22.8922C35.9646 22.5124 36.179 22.0784 36.0182 21.97C35.8574 21.8072 35.4823 22.0242 35.1071 22.4039C34.9999 22.5124 34.8927 22.6209 34.8391 22.7294C34.8391 22.7294 34.1959 23.7601 33.3919 24.3026C31.4088 25.4961 28.9969 25.6588 26.853 26.8523C24.4946 28.2085 20.9036 32.4398 23.2083 34.7725L23.3691 34.9352C25.6202 37.2679 29.8545 33.579 31.1944 31.2464Z" fill="#FF9C00"/>
<path d="M14.8476 31.2464C13.6684 29.0764 13.5076 26.6353 12.3285 24.6281C11.7925 23.8144 10.7741 23.1634 10.7741 23.1634C10.6669 23.1092 10.5597 23.0007 10.4525 22.8922C10.0773 22.5124 9.86295 22.0784 10.0237 21.97C10.1845 21.8072 10.5597 22.0242 10.9349 22.4039C11.0421 22.5124 11.1493 22.6209 11.2029 22.7294C11.2029 22.7294 11.8461 23.7601 12.6501 24.3026C14.6332 25.4961 17.0451 25.6588 19.189 26.8523C21.5473 28.2085 25.1384 32.4398 22.8337 34.7725L22.6729 34.9352C20.3682 37.2679 16.1339 33.579 14.8476 31.2464Z" fill="#FF9C00"/>
<path d="M31.1944 41.4453C32.3736 39.2754 32.5344 36.8343 33.7135 34.8271C34.2495 34.0134 35.2679 33.3624 35.2679 33.3624C35.3751 33.3081 35.4823 33.1996 35.5895 33.0911C35.9646 32.7114 36.179 32.2774 36.0182 32.1689C35.8574 32.0062 35.4823 32.2232 35.1071 32.6029C34.9999 32.7114 34.8927 32.8199 34.8391 32.9284C34.8391 32.9284 34.1959 33.9591 33.3919 34.5016C31.4088 35.695 28.9969 35.8578 26.853 37.0512C24.4946 38.4074 20.9036 42.6388 23.2083 44.9715L23.3691 45.1342C25.6202 47.4669 29.8545 43.8323 31.1944 41.4453Z" fill="#FF9C00"/>
<path d="M14.8476 41.4453C13.6684 39.2754 13.5076 36.8343 12.3285 34.8271C11.7925 34.0134 10.7741 33.3624 10.7741 33.3624C10.6669 33.3081 10.5597 33.1996 10.4525 33.0911C10.0773 32.7114 9.86295 32.2774 10.0237 32.1689C10.1845 32.0062 10.5597 32.2232 10.9349 32.6029C11.0421 32.7114 11.1493 32.8199 11.2029 32.9284C11.2029 32.9284 11.8461 33.9591 12.6501 34.5016C14.6332 35.695 17.0451 35.8578 19.189 37.0512C21.5473 38.4074 25.1384 42.6388 22.8337 44.9715L22.6729 45.1342C20.3682 47.4669 16.1339 43.8323 14.8476 41.4453Z" fill="#FF9C00"/>
<path d="M19.9385 46.9787C9.91564 45.514 2.14393 36.7258 2.14393 26.1474C2.14393 15.5691 9.86205 6.78091 19.9385 5.31621V3.09204C8.68289 4.61098 0 14.3756 0 26.1474C0 37.9193 8.68289 47.6839 19.9385 49.2028V46.9787Z" fill="#4AA760"/>
<path d="M25.9956 3.09204V5.31621C36.0185 6.78091 43.7902 15.5691 43.7902 26.1474C43.7902 36.7258 36.0721 45.514 25.9956 46.9787V49.2028C37.2512 47.6839 45.9341 37.9193 45.9341 26.1474C45.9341 14.3756 37.2512 4.61098 25.9956 3.09204Z" fill="#4AA760"/>
<path d="M74.2437 20.2756C74.1301 19.1297 73.6424 18.2396 72.7807 17.6051C71.9189 16.9706 70.7494 16.6534 69.2722 16.6534C68.2684 16.6534 67.4208 16.7955 66.7295 17.0795C66.0382 17.3542 65.5079 17.7377 65.1386 18.2301C64.7788 18.7225 64.5989 19.2812 64.5989 19.9062C64.5799 20.4271 64.6888 20.8816 64.9256 21.2699C65.1718 21.6581 65.5079 21.9943 65.9341 22.2784C66.3602 22.553 66.8526 22.7945 67.4114 23.0028C67.9701 23.2017 68.5667 23.3722 69.2011 23.5142L71.8148 24.1392C73.0837 24.4233 74.2485 24.8021 75.3091 25.2756C76.3697 25.7491 77.2882 26.3314 78.0648 27.0227C78.8413 27.714 79.4426 28.5284 79.8687 29.4659C80.3043 30.4034 80.5269 31.4782 80.5364 32.6903C80.5269 34.4706 80.0723 36.0142 79.1727 37.321C78.2826 38.6184 76.9947 39.6269 75.3091 40.3466C73.6329 41.0568 71.6112 41.4119 69.2437 41.4119C66.8953 41.4119 64.8498 41.0521 63.1074 40.3324C61.3744 39.6127 60.0203 38.5473 59.0449 37.1364C58.079 35.7159 57.5723 33.9593 57.525 31.8665H63.4767C63.543 32.8419 63.8223 33.6562 64.3148 34.3097C64.8167 34.9536 65.4843 35.4413 66.3176 35.7727C67.1604 36.0947 68.1121 36.2557 69.1727 36.2557C70.2144 36.2557 71.1187 36.1042 71.8858 35.8011C72.6623 35.4981 73.2636 35.0767 73.6898 34.5369C74.1159 33.9972 74.329 33.3769 74.329 32.6761C74.329 32.0227 74.1348 31.4735 73.7466 31.0284C73.3678 30.5833 72.8091 30.2045 72.0704 29.892C71.3413 29.5795 70.4464 29.2955 69.3858 29.0398L66.2182 28.2443C63.7655 27.6477 61.829 26.715 60.4085 25.446C58.9881 24.1771 58.2826 22.4678 58.292 20.3182C58.2826 18.5568 58.7513 17.018 59.6983 15.7017C60.6547 14.3854 61.9663 13.358 63.6329 12.6193C65.2996 11.8807 67.1936 11.5114 69.3148 11.5114C71.4739 11.5114 73.3583 11.8807 74.9682 12.6193C76.5875 13.358 77.847 14.3854 78.7466 15.7017C79.6462 17.018 80.1102 18.5426 80.1386 20.2756H74.2437ZM94.503 41.4261C92.2587 41.4261 90.3268 40.9716 88.7075 40.0625C87.0977 39.1439 85.8571 37.8466 84.9859 36.1705C84.1147 34.4848 83.6791 32.4915 83.6791 30.1903C83.6791 27.946 84.1147 25.9763 84.9859 24.2812C85.8571 22.5862 87.0835 21.2652 88.6649 20.3182C90.2558 19.3712 92.1213 18.8977 94.2615 18.8977C95.7009 18.8977 97.0409 19.1297 98.2814 19.5938C99.5314 20.0483 100.62 20.7348 101.548 21.6534C102.486 22.572 103.215 23.7273 103.736 25.1193C104.257 26.5019 104.517 28.1212 104.517 29.9773V31.6392H86.0939V27.8892H98.8212C98.8212 27.018 98.6318 26.2462 98.253 25.5739C97.8742 24.9015 97.3486 24.3759 96.6763 23.9972C96.0134 23.6089 95.2416 23.4148 94.3609 23.4148C93.4424 23.4148 92.628 23.6278 91.9177 24.054C91.217 24.4706 90.6677 25.0341 90.27 25.7443C89.8723 26.4451 89.6687 27.2263 89.6592 28.0881V31.6534C89.6592 32.733 89.8581 33.6657 90.2558 34.4517C90.663 35.2377 91.2359 35.8438 91.9746 36.2699C92.7132 36.696 93.5891 36.9091 94.6024 36.9091C95.2748 36.9091 95.8903 36.8144 96.449 36.625C97.0077 36.4356 97.4859 36.1515 97.8837 35.7727C98.2814 35.3939 98.5844 34.9299 98.7927 34.3807L104.389 34.75C104.105 36.0947 103.523 37.2689 102.642 38.2727C101.771 39.267 100.644 40.0436 99.2615 40.6023C97.8884 41.1515 96.3022 41.4261 94.503 41.4261ZM118.409 41.4261C116.165 41.4261 114.233 40.9716 112.614 40.0625C111.004 39.1439 109.763 37.8466 108.892 36.1705C108.021 34.4848 107.585 32.4915 107.585 30.1903C107.585 27.946 108.021 25.9763 108.892 24.2812C109.763 22.5862 110.99 21.2652 112.571 20.3182C114.162 19.3712 116.028 18.8977 118.168 18.8977C119.607 18.8977 120.947 19.1297 122.188 19.5938C123.438 20.0483 124.527 20.7348 125.455 21.6534C126.392 22.572 127.121 23.7273 127.642 25.1193C128.163 26.5019 128.423 28.1212 128.423 29.9773V31.6392H110V27.8892H122.727C122.727 27.018 122.538 26.2462 122.159 25.5739C121.78 24.9015 121.255 24.3759 120.583 23.9972C119.92 23.6089 119.148 23.4148 118.267 23.4148C117.349 23.4148 116.534 23.6278 115.824 24.054C115.123 24.4706 114.574 25.0341 114.176 25.7443C113.779 26.4451 113.575 27.2263 113.565 28.0881V31.6534C113.565 32.733 113.764 33.6657 114.162 34.4517C114.569 35.2377 115.142 35.8438 115.881 36.2699C116.619 36.696 117.495 36.9091 118.509 36.9091C119.181 36.9091 119.797 36.8144 120.355 36.625C120.914 36.4356 121.392 36.1515 121.79 35.7727C122.188 35.3939 122.491 34.9299 122.699 34.3807L128.296 34.75C128.011 36.0947 127.429 37.2689 126.548 38.2727C125.677 39.267 124.55 40.0436 123.168 40.6023C121.795 41.1515 120.208 41.4261 118.409 41.4261ZM140.412 41.3551C138.755 41.3551 137.254 40.929 135.909 40.0767C134.574 39.215 133.513 37.9508 132.727 36.2841C131.951 34.608 131.563 32.553 131.563 30.1193C131.563 27.6193 131.965 25.5407 132.77 23.8835C133.575 22.2169 134.645 20.9716 135.98 20.1477C137.325 19.3144 138.797 18.8977 140.398 18.8977C141.619 18.8977 142.637 19.1061 143.452 19.5227C144.276 19.9299 144.939 20.4413 145.44 21.0568C145.952 21.6629 146.34 22.2595 146.605 22.8466H146.79V11.9091H152.827V41H146.861V37.5057H146.605C146.321 38.1117 145.919 38.7131 145.398 39.3097C144.886 39.8968 144.219 40.3845 143.395 40.7727C142.581 41.161 141.586 41.3551 140.412 41.3551ZM142.33 36.5398C143.305 36.5398 144.129 36.2746 144.801 35.7443C145.483 35.2045 146.004 34.4517 146.364 33.4858C146.733 32.5199 146.918 31.3883 146.918 30.0909C146.918 28.7936 146.738 27.6667 146.378 26.7102C146.018 25.7538 145.497 25.0152 144.815 24.4943C144.134 23.9735 143.305 23.7131 142.33 23.7131C141.335 23.7131 140.497 23.983 139.815 24.5227C139.134 25.0625 138.618 25.8106 138.267 26.767C137.917 27.7235 137.742 28.8314 137.742 30.0909C137.742 31.3598 137.917 32.482 138.267 33.4574C138.627 34.4233 139.143 35.1809 139.815 35.7301C140.497 36.2699 141.335 36.5398 142.33 36.5398ZM167.66 41.4261C165.453 41.4261 163.545 40.9574 161.936 40.0199C160.335 39.0729 159.099 37.7566 158.228 36.071C157.357 34.3759 156.921 32.411 156.921 30.1761C156.921 27.9223 157.357 25.9527 158.228 24.267C159.099 22.572 160.335 21.2557 161.936 20.3182C163.545 19.3712 165.453 18.8977 167.66 18.8977C169.866 18.8977 171.77 19.3712 173.37 20.3182C174.98 21.2557 176.221 22.572 177.092 24.267C177.963 25.9527 178.399 27.9223 178.399 30.1761C178.399 32.411 177.963 34.3759 177.092 36.071C176.221 37.7566 174.98 39.0729 173.37 40.0199C171.77 40.9574 169.866 41.4261 167.66 41.4261ZM167.688 36.7386C168.692 36.7386 169.53 36.4545 170.203 35.8864C170.875 35.3087 171.382 34.5227 171.722 33.5284C172.073 32.5341 172.248 31.4025 172.248 30.1335C172.248 28.8646 172.073 27.733 171.722 26.7386C171.382 25.7443 170.875 24.9583 170.203 24.3807C169.53 23.803 168.692 23.5142 167.688 23.5142C166.675 23.5142 165.823 23.803 165.132 24.3807C164.45 24.9583 163.934 25.7443 163.583 26.7386C163.242 27.733 163.072 28.8646 163.072 30.1335C163.072 31.4025 163.242 32.5341 163.583 33.5284C163.934 34.5227 164.45 35.3087 165.132 35.8864C165.823 36.4545 166.675 36.7386 167.688 36.7386Z" fill="#141414"/>
</svg>
