<svg width="177" height="50" viewBox="0 0 177 50" fill="none" xmlns="../../../../external.html?link=http://www.w3.org/2000/svg">
<path d="M21.5244 49.9999C21.3237 49.9999 21.123 49.8464 21.123 49.5905V7.26683C21.123 7.06213 21.2736 6.85742 21.5244 6.85742C21.7251 6.85742 21.9258 7.01095 21.9258 7.26683V49.5905C21.8757 49.8464 21.7251 49.9999 21.5244 49.9999Z" fill="#FF9C00"/>
<path d="M24.3847 9.46781C23.7826 7.21601 22.2774 5.47598 21.7255 3.37771C21.5749 2.45652 21.7756 1.33061 21.7756 1.33061C21.7756 1.22826 21.8258 1.07473 21.8258 0.921202C21.8258 0.409428 21.6753 0 21.4746 0C21.2739 0 21.1234 0.409428 21.1234 0.921202C21.1234 1.07473 21.1234 1.17708 21.1735 1.33061C21.1735 1.33061 21.4244 2.45652 21.2237 3.37771C20.6718 5.47598 19.1666 7.21601 18.5645 9.46781C17.9122 11.9243 18.2634 17.1956 21.3241 17.1956H21.5749C24.6356 17.1956 25.037 11.9243 24.3847 9.46781Z" fill="#FF9C00"/>
<path d="M29.2019 19.8058C30.3057 17.7587 30.4562 15.4558 31.5601 13.5622C32.0618 12.7945 33.0152 12.1804 33.0152 12.1804C33.1155 12.1292 33.2159 12.0269 33.3162 11.9245C33.6674 11.5663 33.8681 11.1569 33.7176 11.0545C33.5671 10.901 33.2159 11.1057 32.8646 11.4639C32.7643 11.5663 32.6639 11.6686 32.6138 11.771C32.6138 11.771 32.0117 12.7434 31.259 13.2551C29.4026 14.381 27.1447 14.5346 25.1377 15.6605C22.9301 16.9399 19.5684 20.9317 21.7259 23.1324L21.8764 23.2859C23.9837 25.4865 27.9475 22.0576 29.2019 19.8058Z" fill="#FF9C00"/>
<path d="M13.8993 19.8058C12.7954 17.7587 12.6449 15.4558 11.5411 13.5622C11.0393 12.7945 10.086 12.1804 10.086 12.1804C9.98568 12.1292 9.88533 12.0269 9.78498 11.9245C9.43376 11.5663 9.23305 11.1569 9.38357 11.0545C9.5341 10.901 9.88532 11.1057 10.2365 11.4639C10.3369 11.5663 10.4372 11.6686 10.4874 11.771C10.4874 11.771 11.0895 12.7434 11.8421 13.2551C13.6986 14.381 15.9564 14.5346 17.9634 15.6605C20.1711 16.9399 23.5328 20.9317 21.3753 23.1324L21.2248 23.2859C19.0673 25.4865 15.1035 22.0576 13.8993 19.8058Z" fill="#FF9C00"/>
<path d="M29.2019 29.4777C30.3057 27.4306 30.4562 25.1276 31.5601 23.2341C32.0618 22.4664 33.0152 21.8523 33.0152 21.8523C33.1155 21.8011 33.2159 21.6988 33.3162 21.5964C33.6674 21.2382 33.8681 20.8287 33.7176 20.7264C33.5671 20.5728 33.2159 20.7776 32.8646 21.1358C32.7643 21.2382 32.6639 21.3405 32.6138 21.4429C32.6138 21.4429 32.0117 22.4152 31.259 22.927C29.4026 24.0529 27.1447 24.2064 25.1377 25.3323C22.9301 26.6118 19.5684 30.6036 21.7259 32.8042L21.8764 32.9578C23.9837 35.1584 27.9475 31.6783 29.2019 29.4777Z" fill="#FF9C00"/>
<path d="M13.8993 29.4777C12.7954 27.4306 12.6449 25.1276 11.5411 23.2341C11.0393 22.4664 10.086 21.8523 10.086 21.8523C9.98568 21.8011 9.88533 21.6988 9.78498 21.5964C9.43376 21.2382 9.23305 20.8287 9.38357 20.7264C9.5341 20.5728 9.88532 20.7776 10.2365 21.1358C10.3369 21.2382 10.4372 21.3405 10.4874 21.4429C10.4874 21.4429 11.0895 22.4152 11.8421 22.927C13.6986 24.0529 15.9564 24.2064 17.9634 25.3323C20.1711 26.6118 23.5328 30.6036 21.3753 32.8042L21.2248 32.9578C19.0673 35.1584 15.1035 31.6783 13.8993 29.4777Z" fill="#FF9C00"/>
<path d="M29.2019 39.0993C30.3057 37.0522 30.4562 34.7492 31.5601 32.8557C32.0618 32.088 33.0152 31.4739 33.0152 31.4739C33.1155 31.4227 33.2159 31.3203 33.3162 31.218C33.6674 30.8597 33.8681 30.4503 33.7176 30.348C33.5671 30.1944 33.2159 30.3991 32.8646 30.7574C32.7643 30.8597 32.6639 30.9621 32.6138 31.0644C32.6138 31.0644 32.0117 32.0368 31.259 32.5486C29.4026 33.6745 27.1447 33.828 25.1377 34.9539C22.9301 36.2334 19.5684 40.2252 21.7259 42.4258L21.8764 42.5793C23.9837 44.78 27.9475 41.3511 29.2019 39.0993Z" fill="#FF9C00"/>
<path d="M13.8993 39.0993C12.7954 37.0522 12.6449 34.7492 11.5411 32.8557C11.0393 32.088 10.086 31.4739 10.086 31.4739C9.98568 31.4227 9.88533 31.3203 9.78498 31.218C9.43376 30.8597 9.23305 30.4503 9.38357 30.348C9.5341 30.1944 9.88532 30.3991 10.2365 30.7574C10.3369 30.8597 10.4372 30.9621 10.4874 31.0644C10.4874 31.0644 11.0895 32.0368 11.8421 32.5486C13.6986 33.6745 15.9564 33.828 17.9634 34.9539C20.1711 36.2334 23.5328 40.2252 21.3753 42.4258L21.2248 42.5793C19.0673 44.78 15.1035 41.3511 13.8993 39.0993Z" fill="#FF9C00"/>
<path d="M18.6649 44.32C9.28229 42.9382 2.00698 34.6474 2.00698 24.6679C2.00698 14.6883 9.23212 6.39754 18.6649 5.01575V2.91748C8.12828 4.35045 0 13.5624 0 24.6679C0 35.7733 8.12828 44.9853 18.6649 46.4182V44.32Z" fill="#4AA760"/>
<path d="M24.335 2.91748V5.01575C33.7176 6.39754 40.9929 14.6883 40.9929 24.6679C40.9929 34.6474 33.7678 42.9382 24.335 44.32V46.4182C34.8716 44.9853 42.9999 35.7733 42.9999 24.6679C42.9999 13.5624 34.8716 4.35045 24.335 2.91748Z" fill="#4AA760"/>
<path d="M71.3097 19.2756C71.196 18.1297 70.7083 17.2396 69.8466 16.6051C68.9848 15.9706 67.8153 15.6534 66.3381 15.6534C65.3343 15.6534 64.4867 15.7955 63.7955 16.0795C63.1042 16.3542 62.5739 16.7377 62.2045 17.2301C61.8447 17.7225 61.6648 18.2812 61.6648 18.9062C61.6458 19.4271 61.7547 19.8816 61.9915 20.2699C62.2377 20.6581 62.5739 20.9943 63 21.2784C63.4261 21.553 63.9186 21.7945 64.4773 22.0028C65.036 22.2017 65.6326 22.3722 66.267 22.5142L68.8807 23.1392C70.1496 23.4233 71.3144 23.8021 72.375 24.2756C73.4356 24.7491 74.3542 25.3314 75.1307 26.0227C75.9072 26.714 76.5085 27.5284 76.9347 28.4659C77.3703 29.4034 77.5928 30.4782 77.6023 31.6903C77.5928 33.4706 77.1383 35.0142 76.2386 36.321C75.3485 37.6184 74.0606 38.6269 72.375 39.3466C70.6989 40.0568 68.6771 40.4119 66.3097 40.4119C63.9612 40.4119 61.9157 40.0521 60.1733 39.3324C58.4403 38.6127 57.0862 37.5473 56.1108 36.1364C55.1449 34.7159 54.6383 32.9593 54.5909 30.8665H60.5426C60.6089 31.8419 60.8883 32.6562 61.3807 33.3097C61.8826 33.9536 62.5502 34.4413 63.3835 34.7727C64.2263 35.0947 65.178 35.2557 66.2386 35.2557C67.2803 35.2557 68.1847 35.1042 68.9517 34.8011C69.7282 34.4981 70.3295 34.0767 70.7557 33.5369C71.1818 32.9972 71.3949 32.3769 71.3949 31.6761C71.3949 31.0227 71.2008 30.4735 70.8125 30.0284C70.4337 29.5833 69.875 29.2045 69.1364 28.892C68.4072 28.5795 67.5123 28.2955 66.4517 28.0398L63.2841 27.2443C60.8314 26.6477 58.8949 25.715 57.4744 24.446C56.054 23.1771 55.3485 21.4678 55.358 19.3182C55.3485 17.5568 55.8172 16.018 56.7642 14.7017C57.7206 13.3854 59.0322 12.358 60.6989 11.6193C62.3655 10.8807 64.2595 10.5114 66.3807 10.5114C68.5398 10.5114 70.4242 10.8807 72.0341 11.6193C73.6534 12.358 74.9129 13.3854 75.8125 14.7017C76.7121 16.018 77.1761 17.5426 77.2045 19.2756H71.3097ZM91.5689 40.4261C89.3246 40.4261 87.3928 39.9716 85.7734 39.0625C84.1636 38.1439 82.9231 36.8466 82.0518 35.1705C81.1806 33.4848 80.745 31.4915 80.745 29.1903C80.745 26.946 81.1806 24.9763 82.0518 23.2812C82.9231 21.5862 84.1494 20.2652 85.7308 19.3182C87.3217 18.3712 89.1873 17.8977 91.3274 17.8977C92.7668 17.8977 94.1068 18.1297 95.3473 18.5938C96.5973 19.0483 97.6863 19.7348 98.6143 20.6534C99.5518 21.572 100.281 22.7273 100.802 24.1193C101.323 25.5019 101.583 27.1212 101.583 28.9773V30.6392H83.1598V26.8892H95.8871C95.8871 26.018 95.6977 25.2462 95.3189 24.5739C94.9401 23.9015 94.4145 23.3759 93.7422 22.9972C93.0793 22.6089 92.3075 22.4148 91.4268 22.4148C90.5083 22.4148 89.6939 22.6278 88.9837 23.054C88.2829 23.4706 87.7337 24.0341 87.3359 24.7443C86.9382 25.4451 86.7346 26.2263 86.7251 27.0881V30.6534C86.7251 31.733 86.924 32.6657 87.3217 33.4517C87.7289 34.2377 88.3018 34.8438 89.0405 35.2699C89.7791 35.696 90.6551 35.9091 91.6683 35.9091C92.3407 35.9091 92.9562 35.8144 93.5149 35.625C94.0736 35.4356 94.5518 35.1515 94.9496 34.7727C95.3473 34.3939 95.6503 33.9299 95.8587 33.3807L101.455 33.75C101.171 35.0947 100.589 36.2689 99.7081 37.2727C98.8369 38.267 97.71 39.0436 96.3274 39.6023C94.9543 40.1515 93.3681 40.4261 91.5689 40.4261ZM115.475 40.4261C113.231 40.4261 111.299 39.9716 109.68 39.0625C108.07 38.1439 106.829 36.8466 105.958 35.1705C105.087 33.4848 104.651 31.4915 104.651 29.1903C104.651 26.946 105.087 24.9763 105.958 23.2812C106.829 21.5862 108.056 20.2652 109.637 19.3182C111.228 18.3712 113.094 17.8977 115.234 17.8977C116.673 17.8977 118.013 18.1297 119.254 18.5938C120.504 19.0483 121.593 19.7348 122.521 20.6534C123.458 21.572 124.187 22.7273 124.708 24.1193C125.229 25.5019 125.489 27.1212 125.489 28.9773V30.6392H107.066V26.8892H119.793C119.793 26.018 119.604 25.2462 119.225 24.5739C118.846 23.9015 118.321 23.3759 117.648 22.9972C116.986 22.6089 116.214 22.4148 115.333 22.4148C114.415 22.4148 113.6 22.6278 112.89 23.054C112.189 23.4706 111.64 24.0341 111.242 24.7443C110.844 25.4451 110.641 26.2263 110.631 27.0881V30.6534C110.631 31.733 110.83 32.6657 111.228 33.4517C111.635 34.2377 112.208 34.8438 112.947 35.2699C113.685 35.696 114.561 35.9091 115.575 35.9091C116.247 35.9091 116.862 35.8144 117.421 35.625C117.98 35.4356 118.458 35.1515 118.856 34.7727C119.254 34.3939 119.557 33.9299 119.765 33.3807L125.362 33.75C125.077 35.0947 124.495 36.2689 123.614 37.2727C122.743 38.267 121.616 39.0436 120.234 39.6023C118.861 40.1515 117.274 40.4261 115.475 40.4261ZM137.478 40.3551C135.821 40.3551 134.32 39.929 132.975 39.0767C131.64 38.215 130.579 36.9508 129.793 35.2841C129.017 33.608 128.629 31.553 128.629 29.1193C128.629 26.6193 129.031 24.5407 129.836 22.8835C130.641 21.2169 131.711 19.9716 133.046 19.1477C134.391 18.3144 135.863 17.8977 137.464 17.8977C138.685 17.8977 139.703 18.1061 140.518 18.5227C141.342 18.9299 142.004 19.4413 142.506 20.0568C143.018 20.6629 143.406 21.2595 143.671 21.8466H143.856V10.9091H149.893V40H143.927V36.5057H143.671C143.387 37.1117 142.985 37.7131 142.464 38.3097C141.952 38.8968 141.285 39.3845 140.461 39.7727C139.647 40.161 138.652 40.3551 137.478 40.3551ZM139.396 35.5398C140.371 35.5398 141.195 35.2746 141.867 34.7443C142.549 34.2045 143.07 33.4517 143.43 32.4858C143.799 31.5199 143.984 30.3883 143.984 29.0909C143.984 27.7936 143.804 26.6667 143.444 25.7102C143.084 24.7538 142.563 24.0152 141.881 23.4943C141.2 22.9735 140.371 22.7131 139.396 22.7131C138.401 22.7131 137.563 22.983 136.881 23.5227C136.2 24.0625 135.683 24.8106 135.333 25.767C134.983 26.7235 134.808 27.8314 134.808 29.0909C134.808 30.3598 134.983 31.482 135.333 32.4574C135.693 33.4233 136.209 34.1809 136.881 34.7301C137.563 35.2699 138.401 35.5398 139.396 35.5398ZM164.726 40.4261C162.519 40.4261 160.611 39.9574 159.001 39.0199C157.401 38.0729 156.165 36.7566 155.294 35.071C154.423 33.3759 153.987 31.411 153.987 29.1761C153.987 26.9223 154.423 24.9527 155.294 23.267C156.165 21.572 157.401 20.2557 159.001 19.3182C160.611 18.3712 162.519 17.8977 164.726 17.8977C166.932 17.8977 168.836 18.3712 170.436 19.3182C172.046 20.2557 173.286 21.572 174.158 23.267C175.029 24.9527 175.464 26.9223 175.464 29.1761C175.464 31.411 175.029 33.3759 174.158 35.071C173.286 36.7566 172.046 38.0729 170.436 39.0199C168.836 39.9574 166.932 40.4261 164.726 40.4261ZM164.754 35.7386C165.758 35.7386 166.596 35.4545 167.268 34.8864C167.941 34.3087 168.447 33.5227 168.788 32.5284C169.139 31.5341 169.314 30.4025 169.314 29.1335C169.314 27.8646 169.139 26.733 168.788 25.7386C168.447 24.7443 167.941 23.9583 167.268 23.3807C166.596 22.803 165.758 22.5142 164.754 22.5142C163.741 22.5142 162.889 22.803 162.197 23.3807C161.516 23.9583 161 24.7443 160.649 25.7386C160.308 26.733 160.138 27.8646 160.138 29.1335C160.138 30.4025 160.308 31.5341 160.649 32.5284C161 33.5227 161.516 34.3087 162.197 34.8864C162.889 35.4545 163.741 35.7386 164.754 35.7386Z" fill="white"/>
</svg>
