<svg width="80" height="80" viewBox="0 0 80 80" fill="none" xmlns="../../../../../external.html?link=http://www.w3.org/2000/svg">
<path d="M40 80C29.3367 80 19.2741 75.8448 11.7147 68.2854C4.15521 60.7259 0 50.7134 0 40C0 29.3367 4.15521 19.2741 11.7147 11.7147C19.2741 4.15521 29.2866 0 40 0C50.6633 0 60.7259 4.15521 68.2854 11.7147C75.8448 19.2741 80 29.2866 80 40C80 50.6633 75.8448 60.7259 68.2854 68.2854C60.7259 75.8448 50.7134 80 40 80ZM40 3.00376C30.0876 3.00376 20.826 6.85858 13.8173 13.8673C6.8085 20.8761 2.9537 30.1377 2.9537 40.0501C2.9537 49.9625 6.8085 59.224 13.8173 66.2328C20.826 73.2416 30.0876 77.0964 40 77.0964C49.9124 77.0964 59.174 73.2416 66.1827 66.2328C73.1915 59.224 77.0463 49.9625 77.0463 40.0501C77.0463 30.1377 73.1915 20.8761 66.1827 13.8673C59.224 6.85858 49.9124 3.00376 40 3.00376Z" fill="#4AA760"/>
<path d="M39.95 7.35938L41.7022 12.7661H47.3593L42.8036 16.0703L44.5558 21.477L39.95 18.1228L35.3443 21.477L37.0965 16.0703L32.5408 12.7661H38.1978L39.95 7.35938Z" fill="#4AA760"/>
<path d="M19.1741 15.4192L22.6785 17.2215L25.482 14.418L24.8813 18.3228L28.3856 20.075L24.4808 20.7259L23.88 24.5807L22.0777 21.0763L18.1729 21.7271L20.9764 18.9236L19.1741 15.4192Z" fill="#4AA760"/>
<path d="M60.7259 15.4192L57.2215 17.2215L54.418 14.418L55.0188 18.3228L51.5144 20.075L55.4193 20.7259L56.02 24.5807L57.8223 21.0763L61.7272 21.7271L58.9237 18.9236L60.7259 15.4192Z" fill="#4AA760"/>
<path d="M10.0625 26.0327L13.5669 27.835L16.3704 25.0815L15.7697 28.9364L19.2741 30.7386L15.3692 31.3394L14.7684 35.2443L12.9662 31.7399L9.06128 32.3406L11.8648 29.5872L10.0625 26.0327Z" fill="#4AA760"/>
<path d="M69.8373 26.0327L66.3329 27.835L63.5294 25.0815L64.1301 28.9364L60.6257 30.7386L64.5306 31.3394L65.1314 35.2443L66.9336 31.7399L70.8385 32.3406L68.035 29.5872L69.8373 26.0327Z" fill="#4AA760"/>
<path d="M18.0727 48.3105C17.4719 48.8612 16.8712 49.1616 16.2704 49.3118C15.6697 49.4119 15.0189 49.3618 14.4682 49.1115C13.8675 48.8612 13.3167 48.4607 12.8161 47.91C12.3155 47.3593 11.9651 46.7586 11.8149 46.1078C11.6647 45.457 11.7147 44.8061 11.915 44.1553C12.1653 43.5045 12.5658 42.9038 13.2166 42.303C13.7673 41.8024 14.3681 41.452 15.0189 41.3018C15.6196 41.1516 16.2705 41.2016 16.8712 41.452C17.472 41.7023 18.0727 42.1028 18.6234 42.7035C19.124 43.2542 19.4744 43.855 19.5746 44.5058C19.7248 45.1566 19.6747 45.8074 19.4244 46.4582C19.124 47.1591 18.7235 47.7598 18.0727 48.3105ZM13.517 43.104C13.0164 43.5546 12.8161 44.0552 12.9162 44.6059C13.0164 45.1566 13.3668 45.7573 13.9676 46.4082C14.318 46.7586 14.6684 47.109 15.119 47.4094C15.5696 47.7098 16.0201 47.86 16.4707 47.91C16.9213 47.9601 17.3218 47.8099 17.7223 47.5095C18.6735 46.6585 18.5232 45.5571 17.3217 44.2555C16.9713 43.905 16.6209 43.5546 16.1703 43.2542C15.7197 42.9538 15.2692 42.8037 14.8186 42.7536C14.318 42.6034 13.9175 42.7536 13.517 43.104Z" fill="#4AA760"/>
<path d="M24.9312 43.304L21.577 45.0061L21.3768 44.4053L22.1277 43.6043L19.7247 38.9485L18.6734 39.2489L18.4231 38.5981C18.8236 38.2977 19.2742 37.9973 19.8248 37.6469C20.3755 37.2965 20.8261 37.0461 21.1765 36.8459C22.1277 36.3453 22.9287 36.145 23.5295 36.145C24.1302 36.145 24.6309 36.4955 24.9312 37.0962C25.0814 37.3465 25.1315 37.6469 25.1315 37.9473C25.1315 38.2477 25.0314 38.5981 24.9312 38.8985C24.781 39.1988 24.6309 39.4492 24.3806 39.6995L25.7323 40.4003C26.0827 40.6006 26.3831 40.7007 26.6334 40.8008C26.8837 40.901 27.0839 40.951 27.3342 41.0011C27.5845 41.0512 27.8349 41.0011 28.0852 40.951L28.2854 40.901L28.4356 41.5017C28.2354 41.702 27.935 41.9022 27.5845 42.1025C27.0839 42.3528 26.5833 42.4529 26.1327 42.3528C25.6321 42.2527 25.1315 42.0524 24.6309 41.6519L23.3292 40.7508L22.6784 41.1012L23.5295 42.8033L24.5808 42.6532L24.9312 43.304ZM21.0764 37.7971L22.3781 40.3002L23.3292 39.8496C23.5295 39.5993 23.6296 39.349 23.7297 39.0987C23.7798 38.7983 23.7297 38.548 23.5795 38.2477C23.4293 37.9973 23.2792 37.7971 23.0789 37.6469C22.8787 37.4967 22.6284 37.4466 22.3781 37.3966C22.1277 37.3966 21.8273 37.4466 21.577 37.5968C21.4769 37.6469 21.3768 37.697 21.3267 37.747C21.1265 37.747 21.0764 37.7971 21.0764 37.7971Z" fill="#4AA760"/>
<path d="M33.2418 40.5508C32.3907 40.7511 31.6398 40.7511 30.989 40.5508C30.3382 40.4007 29.8375 40.0502 29.437 39.5997C29.0365 39.1491 28.7361 38.5483 28.5859 37.7974C28.4358 36.9964 28.4358 36.2455 28.7362 35.5446C28.9865 34.8437 29.437 34.293 29.9877 33.8425C30.5384 33.3919 31.1892 33.0915 31.8901 32.9413C32.4908 32.8412 32.9915 32.7411 33.392 32.7911C33.7925 32.7911 34.243 32.8412 34.6435 32.9413L34.9439 35.1942L34.1429 35.2943L33.6923 34.1428C33.4921 33.9927 33.1917 33.8925 32.8913 33.8425C32.591 33.7924 32.2405 33.7924 31.84 33.8425C31.4395 33.9426 31.1391 34.0928 30.8388 34.3431C30.5885 34.5934 30.3882 34.9438 30.2881 35.3443C30.188 35.7949 30.1879 36.2955 30.3381 36.8963C30.4383 37.497 30.6886 37.9977 30.9389 38.4482C31.2393 38.8988 31.5897 39.1992 31.9902 39.3994C32.3907 39.5997 32.8413 39.6497 33.3419 39.5496C33.5421 39.4995 33.7424 39.4495 33.8926 39.3493C34.0428 39.2492 34.193 39.1491 34.2931 39.049L34.0428 37.7974H32.641L32.591 37.0465L36.1454 36.2955L36.1955 36.9964L35.5947 37.447L35.9952 39.2993C35.7449 39.5496 35.3444 39.7999 34.7937 40.0502C34.2931 40.2505 33.7424 40.4507 33.2418 40.5508Z" fill="#4AA760"/>
<path d="M37.4971 39.5496L37.5972 38.8988L38.5484 38.4983L41.3519 32.4908L42.8537 32.2905L44.8062 38.8988L45.6573 39.3494L45.5571 40.0002L41.8525 39.7999L41.9526 39.1491L43.004 38.7486L42.6535 37.497L40.2505 37.3469L39.7499 38.5483L40.8512 38.9989L40.7511 39.6497L37.4971 39.5496ZM40.6009 36.4457L42.4032 36.5458L41.7023 33.8925L40.6009 36.4457Z" fill="#4AA760"/>
<path d="M48.5109 33.7924L48.8112 33.1416L51.014 33.8925L52.7161 39.7999L54.0178 35.9952L53.0666 35.2943L53.3669 34.6935L56.3206 35.6948L55.9702 36.2955H54.9189L52.8663 42.3531L51.5647 42.1529L49.8125 36.3957L48.611 39.9501L49.5622 40.5509L49.2618 41.1516L46.3081 40.1504L46.5584 39.5496L47.6097 39.4996L49.3119 34.4933L48.5109 33.7924Z" fill="#4AA760"/>
<path d="M58.0227 37.497L58.4232 36.9463L61.6773 38.8987L61.2267 39.4494L60.1754 39.1991L57.3719 43.8049L58.1729 44.6059L57.7223 45.2066L54.5183 43.2542L54.8687 42.7035L55.9201 42.9037L58.6735 38.298L58.0227 37.497Z" fill="#4AA760"/>
<path d="M61.3768 48.4103C60.8261 47.9096 60.3756 47.359 60.1753 46.7582C59.925 46.1575 59.875 45.5567 60.0252 44.9059C60.1753 44.3051 60.4757 43.7044 60.9763 43.1036C61.4269 42.603 61.9275 42.2526 62.5783 42.0023C63.2291 41.752 63.93 41.6518 64.681 41.802C65.4319 41.9021 66.1828 42.3026 66.9338 43.0035C67.2342 43.3039 67.5345 43.6043 67.7849 44.0048C68.0352 44.3552 68.1853 44.7056 68.2354 45.006L66.5833 46.558L66.0827 45.9572L66.7335 44.7557C66.7335 44.5555 66.6835 44.3051 66.5833 44.0548C66.4832 43.8045 66.283 43.6043 66.0827 43.404C65.7823 43.1036 65.4319 42.9535 65.0314 42.9034C64.681 42.8533 64.2805 42.9034 63.88 43.1036C63.4795 43.3039 63.079 43.6043 62.7285 44.0048C62.278 44.5054 61.9776 45.006 61.8274 45.5067C61.6772 46.0073 61.6772 46.4578 61.8274 46.9084C61.9776 47.359 62.2279 47.7595 62.6284 48.1099C62.9288 48.3602 63.2291 48.5605 63.5796 48.7107C63.93 48.8608 64.2805 48.9109 64.6309 48.961L64.4307 49.6118C64.1803 49.6618 63.88 49.6118 63.5295 49.5617C63.1791 49.5116 62.8287 49.3615 62.4282 49.2113C62.0777 48.9109 61.7273 48.6606 61.3768 48.4103Z" fill="#4AA760"/>
<path d="M25.1313 49.5117H29.2865V50.3127H26.1326V53.1663H29.0362V53.9673H26.1326V57.772H25.1313V49.5117Z" fill="#4AA760"/>
<path d="M37.0463 56.671C36.796 57.0715 36.4956 57.3718 36.045 57.6221C35.5945 57.8224 35.0938 57.9225 34.443 57.9225C33.7922 57.9225 33.2916 57.8224 32.841 57.6221C32.3905 57.4219 32.0901 57.1215 31.8398 56.671C31.5895 56.2705 31.4393 55.8199 31.3391 55.3193C31.239 54.8186 31.189 54.318 31.189 53.7173C31.189 53.1165 31.239 52.666 31.2891 52.2655C31.3392 51.865 31.4393 51.4644 31.5895 51.114C31.7396 50.7135 31.9399 50.4131 32.1402 50.1628C32.6408 49.6121 33.4418 49.3618 34.443 49.3618C35.6946 49.3618 36.5957 49.7623 37.0463 50.6134C37.2966 51.0139 37.4468 51.4645 37.5469 51.9651C37.647 52.4657 37.6971 53.0164 37.6971 53.6672C37.6971 54.318 37.647 54.8687 37.5469 55.3693C37.4468 55.8199 37.2966 56.2705 37.0463 56.671ZM34.4931 57.1215C34.8936 57.1215 35.244 57.0214 35.5444 56.8712C35.8448 56.671 36.0951 56.4206 36.2453 56.1203C36.3955 55.7698 36.4956 55.4194 36.5957 55.0189C36.6458 54.6184 36.6958 54.1678 36.6958 53.6672C36.6958 53.1666 36.6458 52.716 36.5957 52.3155C36.5457 51.915 36.3955 51.5646 36.2453 51.2141C35.8949 50.5133 35.2941 50.2129 34.443 50.2129C33.7422 50.2129 33.1915 50.4131 32.841 50.8637C32.3905 51.4144 32.1902 52.3656 32.1902 53.6672C32.1902 54.9688 32.3905 55.92 32.841 56.4707C33.1915 56.8712 33.7422 57.1215 34.4931 57.1215Z" fill="#4AA760"/>
<path d="M45.7572 56.671C45.5069 57.0715 45.2065 57.3718 44.756 57.6221C44.3054 57.8224 43.8048 57.9225 43.154 57.9225C42.5032 57.9225 42.0025 57.8224 41.552 57.6221C41.1014 57.4219 40.801 57.1215 40.5507 56.671C40.3004 56.2705 40.1502 55.8199 40.0501 55.3193C39.95 54.8186 39.8999 54.318 39.8999 53.7173C39.8999 53.1165 39.95 52.666 40 52.2655C40.0501 51.865 40.1502 51.4644 40.3004 51.114C40.4506 50.7135 40.6508 50.4131 40.8511 50.1628C41.3517 49.6121 42.1527 49.3618 43.154 49.3618C44.4055 49.3618 45.3067 49.7623 45.7572 50.6134C46.0075 51.0139 46.1577 51.4645 46.2579 51.9651C46.358 52.4657 46.408 53.0164 46.408 53.6672C46.408 54.318 46.358 54.8687 46.2579 55.3693C46.1577 55.8199 46.0075 56.2705 45.7572 56.671ZM43.2541 57.1215C43.6546 57.1215 44.005 57.0214 44.3054 56.8712C44.6058 56.671 44.8561 56.4206 45.0063 56.1203C45.1565 55.7698 45.2566 55.4194 45.3567 55.0189C45.4068 54.6184 45.4568 54.1678 45.4568 53.6672C45.4568 53.1666 45.4068 52.716 45.3567 52.3155C45.3066 51.915 45.1565 51.5646 45.0063 51.2141C44.6559 50.5133 44.0551 50.2129 43.204 50.2129C42.5031 50.2129 41.9524 50.4131 41.602 50.8637C41.1514 51.4144 40.9512 52.3656 40.9512 53.6672C40.9512 54.9688 41.1514 55.92 41.602 56.4707C41.9524 56.8712 42.5032 57.1215 43.2541 57.1215Z" fill="#4AA760"/>
<path d="M49.0112 49.5117H51.5144C52.816 49.5117 53.667 49.9122 54.1677 50.7132C54.418 51.1137 54.5682 51.5142 54.6182 52.0148C54.7183 52.4654 54.7684 52.966 54.7684 53.5668C54.7684 54.1175 54.7684 54.6181 54.7183 54.9685C54.6683 55.369 54.5682 55.7195 54.418 56.0699C54.2678 56.4203 54.0675 56.7207 53.8673 56.971C53.3166 57.4717 52.5657 57.772 51.5644 57.772H49.0613V49.5117H49.0112ZM51.4643 50.3127H50.0125V56.971H51.4643C52.2152 56.971 52.7659 56.7708 53.1163 56.3202C53.5168 55.8196 53.7672 54.9185 53.7672 53.6168C53.7672 52.3152 53.5669 51.4141 53.1163 50.9135C52.7659 50.513 52.2152 50.3127 51.4643 50.3127Z" fill="#4AA760"/>
<path d="M39.9999 71.99C28.3854 71.99 17.7221 65.6321 12.2152 55.3693C12.0149 55.0188 12.1651 54.5683 12.5155 54.368C12.866 54.1678 13.3165 54.318 13.5168 54.6684C18.7734 64.4306 28.9361 70.4882 39.9999 70.4882C51.0637 70.4882 61.2264 64.4306 66.483 54.6684C66.6833 54.318 67.1338 54.1678 67.4843 54.368C67.8347 54.5683 67.9849 55.0188 67.7847 55.3693C62.2778 65.6321 51.6645 71.99 39.9999 71.99Z" fill="#4AA760"/>
</svg>
