<svg width="98" height="80" viewBox="0 0 98 80" fill="none" xmlns="../../../../../external.html?link=http://www.w3.org/2000/svg">
<path d="M49.0614 80C36.0439 80 23.7632 75.8674 14.5526 68.404C5.1579 60.879 0 50.7633 0 40.0309C0 29.2984 5.15788 19.1827 14.4912 11.596C23.7631 4.13261 35.9825 0 49 0C62.0175 0 74.2983 4.13261 83.5088 11.596C92.8421 19.1827 98 29.2367 98 40.0309C98 50.7633 92.8421 60.8789 83.5088 68.4657C74.3597 75.9291 62.079 80 49.0614 80ZM49.0614 3.70085C24.0088 3.70085 3.68421 19.9846 3.68421 40.0309C3.68421 60.0771 24.0702 76.3608 49.0614 76.3608C74.1141 76.3608 94.4386 60.0771 94.4386 40.0309C94.5 19.9846 74.1141 3.70085 49.0614 3.70085Z" fill="#4AA760"/>
<path d="M14.6755 29.7305L15.7193 33.0612H19.2193L16.3948 35.0967L17.5 38.4274L14.6755 36.392L11.8509 38.4274L12.8948 35.0967L10.1316 33.0612H13.5702L14.6755 29.7305Z" fill="#4AA760"/>
<path d="M83.3246 28.1265L84.3685 31.4572H87.8685L85.0439 33.4927L86.1492 36.8234L83.3246 34.7263L80.5001 36.8234L81.6053 33.4927L78.7808 31.4572H82.2194L83.3246 28.1265Z" fill="#4AA760"/>
<path d="M24.0089 16.9002L25.9738 15.0498L29.5966 25.6589L28.0615 27.1392L17.7457 22.9449L19.772 21.0328L26.5878 23.9935L24.0089 16.9002Z" fill="#4AA760"/>
<path d="M34.2017 22.2048L30.2719 12.8293L36.9648 10.0537L37.7631 11.9658L33.4648 13.7546L34.2017 15.5433L38.1929 13.8779L38.9912 15.7901L34.9999 17.4554L35.7982 19.3675L40.0964 17.5788L40.8947 19.4909L34.2017 22.2048Z" fill="#4AA760"/>
<path d="M51.3948 12.3982L51.8246 17.456C51.3334 17.7644 50.7194 18.0111 50.0439 18.1962C49.3685 18.3812 48.6931 18.5046 48.0176 18.5663C46.9124 18.628 45.9299 18.5046 45.1316 18.1962C44.272 17.8261 43.5966 17.271 43.1053 16.5308C42.6141 15.7906 42.3071 14.8654 42.2457 13.8169C42.1843 12.7683 42.3071 11.8431 42.6755 11.0412C43.0439 10.2394 43.5965 9.56088 44.3948 9.06743C45.1316 8.57398 46.0527 8.26556 47.0966 8.20388C47.8334 8.1422 48.5088 8.20389 49.1843 8.32725C49.8597 8.45061 50.4123 8.69736 50.8422 9.00576L50.1667 10.9795C49.6755 10.7328 49.1843 10.5478 48.7545 10.4244C48.3246 10.3011 47.8334 10.301 47.3422 10.301C46.4211 10.3627 45.8071 10.6711 45.3773 11.2263C45.0088 11.7814 44.8246 12.5833 44.886 13.6318C44.9474 14.7421 45.2544 15.4822 45.7457 15.9757C46.2369 16.4691 46.9737 16.6542 47.9562 16.5925C48.386 16.5308 48.8158 16.4691 49.3071 16.3458L49.1229 14.4953L47.3422 14.6187L47.2194 12.8299L51.3948 12.3982Z" fill="#4AA760"/>
<path d="M61.6491 20.2316L61.3421 17.9495L56.9824 16.7775L55.5702 18.5663L52.9912 17.8878L60.1754 9.25244L62.2017 9.80758L64.228 20.8484L61.6491 20.2316ZM58.3333 15.1121L60.9737 15.7906L60.4824 12.3365L58.3333 15.1121Z" fill="#4AA760"/>
<path d="M76.5702 17.5172L78.5965 19.0593L72.4562 27.1394L70.8597 25.9058L70.7369 18.5041L67.2369 23.0685L65.272 21.5265L71.4123 13.4463L72.9474 14.6182L73.1316 22.0199L76.5702 17.5172Z" fill="#4AA760"/>
<path d="M21.1229 43.1147L23.2106 47.7408C23.7018 48.8511 23.8247 49.838 23.579 50.6398C23.3334 51.5033 22.7194 52.1202 21.8597 52.4902C20.9387 52.922 20.1404 52.922 19.2808 52.5519C18.4826 52.1818 17.8071 51.4417 17.3159 50.3314L16.3948 48.2959L12.6492 50.023L11.4825 47.4941L21.1229 43.1147ZM19.0352 49.1595C19.465 50.1463 20.0176 50.4547 20.6931 50.1463C21.0615 49.9613 21.2457 49.7763 21.3071 49.4679C21.3685 49.1595 21.3071 48.7277 21.0615 48.2342L20.3246 46.5072L18.2983 47.4324L19.0352 49.1595Z" fill="#4AA760"/>
<path d="M26.2807 65.9367L23.9473 64.0863L25.0526 60.4471C25.1754 60.0154 24.9912 59.6453 24.5614 59.2752L23.7631 58.6584L21.2456 61.9275L19.0964 60.2004L25.6052 51.8735L29.4736 54.9576C30.4561 55.7594 31.0701 56.5613 31.1929 57.4248C31.3771 58.2267 31.1315 59.0902 30.5175 59.892C30.0877 60.4472 29.535 60.8172 28.921 61.0023C28.307 61.1873 27.6316 61.1256 26.9561 60.8789C27.1403 61.1256 27.2631 61.3724 27.3245 61.6808C27.3859 61.9892 27.3245 62.3593 27.2017 62.7293L26.2807 65.9367ZM27.5702 58.6584C27.8772 58.6584 28.1842 58.5351 28.4298 58.2266C28.6754 57.9182 28.7368 57.6098 28.6754 57.3014C28.5526 56.993 28.307 56.6846 27.8157 56.3145L26.4649 55.2043L25.0526 56.993L26.4035 58.1033C26.8333 58.4734 27.2631 58.6584 27.5702 58.6584Z" fill="#4AA760"/>
<path d="M33.2807 68.4656C32.6667 67.7871 32.2368 67.0469 32.0526 66.1217C31.8684 65.1965 31.9298 64.2096 32.2982 63.1611C32.6052 62.1125 33.0965 61.2489 33.7719 60.6321C34.4474 59.9536 35.1842 59.5836 36.1052 59.3985C36.9649 59.2135 37.9474 59.2752 38.9912 59.5836C40.0351 59.892 40.8333 60.3854 41.5087 61.0639C42.1228 61.7424 42.5526 62.4826 42.7368 63.4078C42.921 64.333 42.8596 65.3199 42.4912 66.3685C42.1842 67.417 41.693 68.2805 41.0175 68.959C40.3421 69.6375 39.6052 70.0693 38.6842 70.2544C37.8245 70.4394 36.8421 70.3777 35.7982 70.0693C34.7544 69.6376 33.8947 69.1441 33.2807 68.4656ZM38.4386 67.6021C39.0526 67.1703 39.4824 66.4918 39.7895 65.4433C40.0965 64.3947 40.0965 63.5928 39.8509 62.9143C39.6053 62.2358 39.0526 61.8041 38.3158 61.5573C37.5789 61.3106 36.9035 61.434 36.2894 61.8041C35.6754 62.2358 35.2456 62.9143 34.9386 63.9629C34.6316 65.0115 34.5702 65.875 34.8772 66.5535C35.1228 67.232 35.6754 67.6638 36.4123 67.9105C37.1491 68.1572 37.8245 68.0339 38.4386 67.6021Z" fill="#4AA760"/>
<path d="M45.8071 61.3107L50.1054 61.1873C51.272 61.1257 52.2545 61.3107 53.1142 61.7425C53.9738 62.1126 54.6492 62.7294 55.1405 63.5312C55.6317 64.3331 55.8773 65.2583 55.8773 66.3685C55.9387 67.4788 55.6931 68.404 55.3247 69.2675C54.8948 70.0694 54.2808 70.6862 53.4212 71.1796C52.5615 71.6114 51.5791 71.8581 50.4124 71.9198L46.1141 72.0432L45.8071 61.3107ZM50.1668 69.5759C51.2107 69.5142 51.9475 69.2675 52.4387 68.7124C52.93 68.1573 53.1756 67.4171 53.1142 66.3685C53.0528 64.3331 52.0089 63.3462 49.9826 63.4078L48.6317 63.4695L48.8159 69.5759H50.1668Z" fill="#4AA760"/>
<path d="M61.9562 69.2058C60.9738 68.7741 60.1755 67.7872 59.6843 66.4302L57.5352 60.6939L60.0527 59.7687L62.2018 65.6283C62.4474 66.3685 62.8158 66.8619 63.3071 67.1087C63.7983 67.3554 64.2895 67.4171 64.9036 67.1704C65.5176 66.9236 65.886 66.6152 66.0088 66.0601C66.193 65.5667 66.1316 64.9498 65.886 64.2714L63.7369 58.4117L66.3159 57.4248L68.465 63.1611C68.9562 64.5798 69.0176 65.7517 68.5264 66.8003C68.0351 67.8488 67.1141 68.589 65.7018 69.1442C64.1667 69.6376 62.9387 69.6993 61.9562 69.2058Z" fill="#4AA760"/>
<path d="M76.263 62.4214C75.342 62.6064 74.4823 62.5448 73.5613 62.2364C72.7016 61.928 71.9034 61.3728 71.1665 60.5093C70.4297 59.7075 69.9999 58.8439 69.8157 57.9187C69.6314 56.9935 69.6315 56.13 69.9385 55.2664C70.2455 54.4029 70.7981 53.601 71.6578 52.8609C72.149 52.4291 72.763 52.059 73.3771 51.7506C73.9911 51.5039 74.6051 51.3188 75.0963 51.3188L75.7718 53.3543C74.7279 53.4777 73.8683 53.8478 73.1314 54.4029C72.5174 54.958 72.2104 55.6365 72.2104 56.315C72.2104 56.9935 72.5788 57.7953 73.3157 58.5972C74.0525 59.399 74.7279 59.8308 75.4034 59.9542C76.0788 60.0775 76.7542 59.8308 77.4297 59.2757C78.1051 58.6589 78.5963 57.857 78.7806 56.8085L80.7455 57.7337C80.6841 58.2888 80.4999 58.8439 80.1314 59.399C79.763 60.0158 79.3332 60.5093 78.842 60.941C78.0437 61.7429 77.1841 62.2363 76.263 62.4214Z" fill="#4AA760"/>
<path d="M85.7192 51.38L77.9824 48.296L76.8157 51.2567L74.728 50.4548L78.0438 41.9429L80.1315 42.7447L78.9648 45.7054L86.7017 48.7895L85.7192 51.38Z" fill="#4AA760"/>
<path d="M37.8245 36.0221C40.5877 32.2595 44.886 29.854 49.3684 28.8054C53.8509 27.7568 58.5789 27.9419 63.1842 28.682C61.7719 34.1716 60.1754 39.8463 56.4912 44.1022C53.2982 47.8031 43.6579 53.231 38.5 51.7507C38.3158 51.689 38.193 51.6273 38.0702 51.5656C41.1403 47.0629 45.193 43.2387 49.8596 40.4014C50.5351 40.0313 50.7193 39.1678 50.3509 38.4893C49.9824 37.8108 49.1228 37.6258 48.4474 37.9959C43.5351 41.0182 39.2368 45.0275 35.921 49.7769C33.4035 46.2611 35.6754 38.9211 37.8245 36.0221Z" fill="#4AA760"/>
</svg>
