<svg width="67" height="80" viewBox="0 0 67 80" fill="none" xmlns="../../../../../external.html?link=http://www.w3.org/2000/svg">
<path d="M33.5 80C24.5412 80 16.1343 76.4976 9.80798 70.1334C3.48162 63.7693 0 55.3123 0 46.3C0 40.8329 1.31622 35.4511 3.82129 30.6246C6.24144 25.969 9.76553 21.9113 14.0114 18.8788C14.5634 18.4517 15.3701 18.6225 15.7522 19.1778C16.1343 19.733 16.007 20.5446 15.455 20.929C11.5063 23.748 8.27947 27.5066 6.02915 31.8206C3.69392 36.2627 2.50507 41.26 2.50507 46.3C2.50507 54.6289 5.73194 62.4452 11.5913 68.3395C17.4506 74.2338 25.2205 77.48 33.5 77.48C41.7795 77.48 49.5494 74.2338 55.4087 68.3395C61.2681 62.4452 64.4949 54.6289 64.4949 46.3C64.4949 41.26 63.2636 36.2627 60.9708 31.8206C58.7205 27.5494 55.4512 23.748 51.545 20.929C50.993 20.5018 50.8657 19.733 51.2478 19.1778C51.6724 18.6225 52.4366 18.4944 52.9886 18.8788C57.2345 21.9541 60.7586 26.0117 63.1787 30.6246C65.6838 35.4084 67 40.8329 67 46.3C67 55.3123 63.5184 63.7693 57.192 70.1334C50.8657 76.4976 42.4588 80 33.5 80Z" fill="#4AA760"/>
<path d="M34.519 14.0096C33.5 10.5926 31.3346 7.60272 28.5323 5.4244C25.5177 3.03251 22.0361 2.00742 18.512 0.640625C17.9176 6.06508 17.0259 12.9845 19.8282 17.9818C21.4417 20.8862 24.0316 23.2354 27.1311 24.5168C28.2351 24.9866 29.4239 25.3283 30.5703 25.4991C30.7826 25.5419 30.9949 25.5419 31.1647 25.5419C29.7211 20.0747 27.1736 14.8638 23.6495 10.4217C23.3948 10.1227 23.4372 9.65291 23.7769 9.39664C24.0741 9.14036 24.5411 9.18307 24.7959 9.52477C28.4474 14.1377 31.1223 19.5621 32.6083 25.2856C33.2452 25.0293 33.7122 24.6449 34.0519 24.2605C36.6419 21.3133 34.519 14.0523 34.519 14.0096Z" fill="#4AA760"/>
<path d="M49.0399 0C49.0399 0 46.4499 1.11052 46.2377 1.19594C43.0108 2.64816 39.0197 4.5275 37.6185 7.90177C36.642 10.2082 36.3448 12.8564 36.7269 15.8035C36.7269 15.889 36.7269 15.9744 36.7693 16.0598C36.8967 17.0849 37.0666 18.4517 38.2129 19.1778C38.2554 19.2205 38.2979 19.2205 38.3403 19.2632C38.5951 15.2483 40.166 11.3615 42.8834 8.28617C43.1382 7.98719 43.6052 7.94448 43.9449 8.20075C44.2421 8.45702 44.2846 8.92686 44.0298 9.22584C41.4823 12.0876 39.9962 15.7608 39.8264 19.5195C40.0811 19.4768 40.3783 19.4341 40.718 19.3059C42.3739 18.7507 43.9024 17.7256 45.4309 16.2307C45.6008 16.0598 45.8131 15.8462 45.9829 15.6754C49.9316 11.276 49.0399 0 49.0399 0Z" fill="#4AA760"/>
<path d="M33.4999 75.6007C25.8148 75.6007 18.5968 72.6108 13.1621 67.1437C7.72737 61.6765 4.75525 54.4154 4.75525 46.6845C4.75525 41.9862 5.90164 37.3732 8.02458 33.2302C10.1051 29.2579 13.1196 25.7555 16.7711 23.1501C17.0683 22.9365 17.4504 23.0219 17.6627 23.2782C17.875 23.5772 17.7901 23.9616 17.5354 24.1752C14.0537 26.6952 11.1665 30.0267 9.17096 33.8281C7.13294 37.7577 6.02901 42.1997 6.02901 46.6845C6.02901 54.0737 8.87375 60.9931 14.0962 66.2467C19.2762 71.4576 26.1969 74.362 33.5423 74.362C40.8877 74.362 47.766 71.5003 52.9885 66.2467C58.1684 61.0358 61.0556 54.0737 61.0556 46.6845C61.0556 42.1997 59.9517 37.7577 57.9137 33.8281C55.9181 30.0267 53.0309 26.6952 49.5493 24.1752C49.2521 23.9616 49.2096 23.5772 49.4219 23.2782C49.6342 22.9792 50.0163 22.9365 50.3136 23.1501C53.965 25.7555 56.9796 29.2579 59.0601 33.2302C61.2255 37.3305 62.3294 41.9862 62.3294 46.6845C62.3294 54.4154 59.3573 61.6765 53.9226 67.1437C48.4029 72.6108 41.1849 75.6007 33.4999 75.6007Z" fill="#4AA760"/>
<path d="M17.2382 51.2973V40.0212H15.37V38.4836C15.8795 38.4409 16.389 38.2273 16.8561 37.8856C17.3231 37.5439 17.6628 37.1168 17.8751 36.647H19.4036V51.2973H17.2382Z" fill="#4AA760"/>
<path d="M29.1267 47.9657C29.1267 48.948 28.787 49.7596 28.1077 50.443C27.4283 51.1264 26.6216 51.4681 25.6451 51.4681C24.6685 51.4681 23.8618 51.1264 23.1825 50.443C22.5031 49.7596 22.1635 48.948 22.1635 47.9657V39.9785C22.1635 38.9961 22.5031 38.1846 23.1825 37.5012C23.8618 36.8178 24.6685 36.4761 25.6451 36.4761C26.6216 36.4761 27.4283 36.8178 28.1077 37.5012C28.787 38.1846 29.1267 38.9961 29.1267 39.9785V47.9657ZM26.8764 39.9358C26.8764 39.5941 26.749 39.2951 26.4942 39.0388C26.2395 38.7825 25.9423 38.6544 25.6026 38.6544C25.2629 38.6544 24.9657 38.7825 24.711 39.0388C24.4562 39.2951 24.3289 39.5941 24.3289 39.9358V47.923C24.3289 48.2647 24.4562 48.5636 24.711 48.8199C24.9657 49.0762 25.2629 49.2043 25.6026 49.2043C25.9423 49.2043 26.2395 49.0762 26.4942 48.8199C26.749 48.5636 26.8764 48.2647 26.8764 47.923V39.9358Z" fill="#4AA760"/>
<path d="M38.8074 47.9657C38.8074 48.948 38.4677 49.7596 37.7883 50.443C37.109 51.1264 36.3023 51.4681 35.3257 51.4681C34.3492 51.4681 33.5425 51.1264 32.8631 50.443C32.1838 49.7596 31.8441 48.948 31.8441 47.9657V39.9785C31.8441 38.9961 32.1838 38.1846 32.8631 37.5012C33.5425 36.8178 34.3492 36.4761 35.3257 36.4761C36.3023 36.4761 37.109 36.8178 37.7883 37.5012C38.4677 38.1846 38.8074 38.9961 38.8074 39.9785V47.9657ZM36.5146 39.9358C36.5146 39.5941 36.3872 39.2951 36.1325 39.0388C35.8777 38.7825 35.5805 38.6544 35.2408 38.6544C34.9012 38.6544 34.6039 38.7825 34.3492 39.0388C34.0944 39.2951 33.9671 39.5941 33.9671 39.9358V47.923C33.9671 48.2647 34.0944 48.5636 34.3492 48.8199C34.6039 49.0762 34.9012 49.2043 35.2408 49.2043C35.5805 49.2043 35.8777 49.0762 36.1325 48.8199C36.3872 48.5636 36.5146 48.2647 36.5146 47.923V39.9358Z" fill="#4AA760"/>
<path d="M44.7939 42.0288C44.7939 42.5413 44.6241 42.9684 44.242 43.3101C43.9023 43.6518 43.4352 43.8654 42.9682 43.8654C42.4587 43.8654 42.0341 43.6946 41.6944 43.3101C41.3548 42.9684 41.1425 42.5413 41.1425 42.0288V37.843C41.1425 37.3304 41.3123 36.9033 41.6944 36.5616C42.0341 36.2199 42.5011 36.0063 42.9682 36.0063C43.4777 36.0063 43.9023 36.1772 44.242 36.5616C44.5816 36.9033 44.7939 37.3731 44.7939 37.843V42.0288ZM43.138 51.5536H41.8643L49.2945 36.0491H50.5683L43.138 51.5536ZM42.2464 42.0288C42.2464 42.1996 42.3313 42.3705 42.4587 42.4986C42.5861 42.6267 42.7559 42.7122 42.9257 42.7122C43.0956 42.7122 43.2654 42.6267 43.3928 42.4986C43.5202 42.3705 43.6051 42.1996 43.6051 42.0288V37.843C43.6051 37.6721 43.5202 37.5013 43.3928 37.3731C43.2654 37.245 43.0956 37.1596 42.9257 37.1596C42.7559 37.1596 42.5861 37.245 42.4587 37.3731C42.3313 37.5013 42.2464 37.6721 42.2464 37.843V42.0288ZM49.4219 43.5664C49.9314 43.5664 50.356 43.7373 50.6957 44.1217C51.0354 44.4634 51.2052 44.9332 51.2052 45.403V49.5888C51.2052 50.1014 51.0354 50.5285 50.6532 50.8702C50.3136 51.2119 49.889 51.3828 49.3795 51.3828C48.87 51.3828 48.4454 51.2119 48.1057 50.8702C47.766 50.5285 47.5537 50.1014 47.5537 49.5888V45.403C47.5537 44.8905 47.7236 44.4634 48.1057 44.1217C48.4878 43.7373 48.9124 43.5664 49.4219 43.5664ZM50.0588 45.3603C50.0588 45.1895 49.9739 45.0186 49.8465 44.8905C49.7191 44.7624 49.5493 44.6769 49.3795 44.6769C49.2096 44.6769 49.0398 44.7624 48.9124 44.8905C48.785 45.0186 48.7001 45.1895 48.7001 45.3603V49.5461C48.7001 49.717 48.785 49.8878 48.9124 50.016C49.0398 50.1441 49.2096 50.2295 49.3795 50.2295C49.5493 50.2295 49.7191 50.1441 49.8465 50.016C49.9739 49.8878 50.0588 49.717 50.0588 49.5461V45.3603Z" fill="#4AA760"/>
<path d="M18.9366 54.7568C19.3187 54.7568 19.6159 54.885 19.8707 55.0985C20.1254 55.3121 20.2528 55.5684 20.2528 55.8673V58.3874C20.2528 58.6864 20.1254 58.9426 19.8707 59.1562C19.6159 59.3698 19.3187 59.4979 18.9366 59.4979C18.5545 59.4979 18.2572 59.3698 18.0025 59.1562C17.7477 58.9426 17.6204 58.6864 17.6204 58.3874V55.8673C17.6204 55.5684 17.7477 55.3121 18.0025 55.0985C18.2997 54.885 18.5969 54.7568 18.9366 54.7568ZM19.4036 55.8673C19.4036 55.7392 19.3612 55.6538 19.2763 55.5684C19.1913 55.4829 19.064 55.4402 18.9366 55.4402C18.8092 55.4402 18.6818 55.4829 18.5969 55.5684C18.512 55.6538 18.4695 55.7392 18.4695 55.8673V58.3874C18.4695 58.5155 18.512 58.6009 18.5969 58.6864C18.6818 58.7718 18.8092 58.8145 18.9366 58.8145C19.064 58.8145 19.1913 58.7718 19.2763 58.6864C19.3612 58.6009 19.4036 58.5155 19.4036 58.3874V55.8673Z" fill="#4AA760"/>
<path d="M24.4139 54.8423C24.8809 54.8423 25.2206 54.9704 25.4329 55.184C25.6027 55.3548 25.7301 55.6538 25.7301 55.9528V56.6362C25.7301 56.9779 25.6027 57.2342 25.3055 57.4904L25.9 59.4979H25.0083L24.4988 57.7467C24.4564 57.7467 24.4564 57.7467 24.4139 57.7467H23.9469V59.4979H23.1401V54.8423H24.4139ZM24.9234 55.9528C24.9234 55.6965 24.7536 55.5684 24.4564 55.5684H23.9469V57.0633H24.4564C24.5837 57.0633 24.7111 57.0206 24.796 56.9352C24.8809 56.8498 24.9234 56.7643 24.9234 56.6362V55.9528Z" fill="#4AA760"/>
<path d="M29.891 59.5409C29.5089 59.5409 29.2117 59.4127 28.957 59.1992C28.7022 58.9856 28.5748 58.7293 28.5748 58.4303V55.9103C28.5748 55.6113 28.7022 55.3551 28.957 55.1415C29.2117 54.9279 29.5089 54.7998 29.891 54.7998C30.2732 54.7998 30.5704 54.9279 30.8251 55.1415C31.0799 55.3551 31.2073 55.6113 31.2073 55.9103V56.4229H30.3581V55.8676C30.3581 55.7395 30.3156 55.6541 30.2307 55.5686C30.1458 55.4832 30.0184 55.4405 29.891 55.4405C29.7637 55.4405 29.6363 55.4832 29.5514 55.5686C29.4665 55.6541 29.424 55.7395 29.424 55.8676V58.3876C29.424 58.5158 29.4665 58.6012 29.5514 58.6866C29.6363 58.772 29.7637 58.8148 29.891 58.8148C30.0184 58.8148 30.1458 58.772 30.2307 58.6866C30.3156 58.6012 30.3581 58.5158 30.3581 58.3876V57.4907H29.891V56.8073H31.2073V58.4303C31.2073 58.7293 31.0799 58.9856 30.8251 59.1992C30.5279 59.4127 30.2307 59.5409 29.891 59.5409Z" fill="#4AA760"/>
<path d="M34.9436 58.3876L34.7313 59.4554H33.8821L34.8162 54.7998H35.9626L36.8542 59.4554H36.005L35.7927 58.3876H34.9436ZM35.3681 55.9103L35.0709 57.747H35.6653L35.3681 55.9103Z" fill="#4AA760"/>
<path d="M40.5906 54.8423L41.6945 57.9603V54.8423H42.5012V59.4979H41.6096L40.4632 56.5081V59.4979H39.6565V54.8423H40.5906Z" fill="#4AA760"/>
<path d="M46.1953 59.4552H45.3885V54.8423H46.1953V59.4552Z" fill="#4AA760"/>
<path d="M50.3561 59.5409C49.974 59.5409 49.6768 59.4127 49.422 59.1992C49.1673 58.9856 49.0399 58.7293 49.0399 58.4303V55.9103C49.0399 55.6113 49.1673 55.3551 49.422 55.1415C49.6768 54.9279 49.974 54.7998 50.3561 54.7998C50.7383 54.7998 51.0355 54.9279 51.2902 55.1415C51.545 55.3551 51.6724 55.6113 51.6724 55.9103V56.4229H50.8232V55.8676C50.8232 55.7395 50.7807 55.6541 50.6958 55.5686C50.6109 55.4832 50.4835 55.4405 50.3561 55.4405C50.2288 55.4405 50.1014 55.4832 50.0165 55.5686C49.9316 55.6541 49.8891 55.7395 49.8891 55.8676V58.3876C49.8891 58.5158 49.9316 58.6012 50.0165 58.6866C50.1014 58.772 50.2288 58.8148 50.3561 58.8148C50.4835 58.8148 50.6109 58.772 50.6958 58.6866C50.7807 58.6012 50.8232 58.5158 50.8232 58.3876V57.747H51.6724V58.3876C51.6724 58.6866 51.545 58.9429 51.2902 59.1565C50.993 59.4127 50.6958 59.5409 50.3561 59.5409Z" fill="#4AA760"/>
</svg>
