<svg width="85" height="80" viewBox="0 0 85 80" fill="none" xmlns="../../../../../external.html?link=http://www.w3.org/2000/svg">
<path d="M44.6219 15.9252C45.4197 12.1309 47.5471 8.71077 50.3659 6.0922C53.4506 3.25987 57.1204 1.81697 60.7901 0C61.907 5.82498 63.4494 13.2532 60.8965 18.9178C59.4073 22.2311 56.748 24.9566 53.557 26.6667C52.3869 27.308 51.1637 27.7355 49.8872 28.0561C49.6745 28.1095 49.4618 28.163 49.249 28.163C50.3127 22.0708 52.6528 16.2458 56.0567 11.1156C56.2694 10.7415 56.2162 10.2605 55.8439 10.0468C55.4716 9.83299 54.993 9.88644 54.7802 10.2605C51.2169 15.6045 48.7703 21.6967 47.7066 28.0561C46.9621 27.8423 46.4302 27.4683 46.0579 27.0942C42.9732 24.0481 44.5688 16.0321 44.6219 15.9252Z" fill="#4AA760"/>
<path d="M22.9226 12.772C22.9226 12.772 26.0073 12.6651 26.2732 12.6651C30.1025 12.6117 34.8892 12.6651 37.8143 15.3906C39.7822 17.2075 41.2713 19.7192 42.2287 22.7653C42.2818 22.8722 42.2818 22.9257 42.335 23.0325C42.6541 24.1013 43.1328 25.5442 42.2819 26.7734C42.2287 26.8268 42.2287 26.8802 42.1755 26.8802C40.1545 23.0325 36.8038 19.8796 32.7618 18.116C32.3363 17.9557 31.8576 18.116 31.6981 18.4901C31.4853 18.8642 31.6981 19.3451 32.0704 19.5055C35.8997 21.1621 38.9844 24.1548 40.8459 27.7887C40.5799 27.8956 40.2608 27.949 39.8885 28.0025C38.0271 28.2162 36.0592 27.8956 33.8255 27.094C33.5596 26.9871 33.2936 26.8802 33.0277 26.7734C27.1242 24.3685 22.9226 12.772 22.9226 12.772Z" fill="#4AA760"/>
<path d="M83.5 74.7629C82.6491 74.7629 81.9045 74.0682 81.9045 73.1597C81.9045 62.5785 77.8092 52.6921 70.3634 45.2105C62.9175 37.7288 53.0784 33.6139 42.5478 33.6139C32.0172 33.6139 22.178 37.7288 14.7321 45.2105C7.28628 52.6921 3.19108 62.5785 3.19108 73.1597C3.19108 74.0147 2.49968 74.7629 1.59554 74.7629C0.691401 74.7629 0 74.0682 0 73.1597C0 61.7769 4.41431 51.0354 12.4452 42.966C20.4761 34.8965 31.113 30.4609 42.4946 30.4609C53.8229 30.4609 64.5131 34.8965 72.5439 42.966C80.5748 51.0354 84.9892 61.7235 84.9892 73.1597C85.0956 74.0682 84.4042 74.7629 83.5 74.7629Z" fill="#4AA760"/>
<path d="M22.178 55.7383V47.0811H27.9751V48.5774H24.0394V50.5547H27.7092V52.051H24.0394V55.6849H22.178V55.7383Z" fill="#4AA760"/>
<path d="M37.0165 55.7383H35.0487L33.9318 52.8526C33.8255 52.6388 33.7191 52.4785 33.5064 52.3716C33.3468 52.2647 33.0809 52.2647 32.8149 52.2647H31.5917V55.7383H29.7302V47.0811H33.5595C34.57 47.0811 35.3146 47.2948 35.8465 47.7223C36.3783 48.1498 36.6442 48.7911 36.6442 49.5927C36.6442 50.1806 36.4847 50.6615 36.1656 51.0891C35.8465 51.5166 35.421 51.7838 34.8891 51.9975C35.421 52.1044 35.7401 52.4785 36.006 53.0663L37.0165 55.7383ZM33.3468 50.8219C33.8786 50.8219 34.3041 50.715 34.5168 50.5547C34.7828 50.3943 34.8891 50.0737 34.8891 49.6996C34.8891 49.3255 34.7828 49.0049 34.5168 48.8446C34.2509 48.6843 33.8786 48.5774 33.3468 48.5774H31.6449V50.8219H33.3468Z" fill="#4AA760"/>
<path d="M38.9312 55.7383V47.0811H44.8347V48.5239H40.7394V50.5547H44.5688V52.051H40.7394V54.242H44.8347V55.6849H38.9312V55.7383Z" fill="#4AA760"/>
<path d="M47.7599 55.578C47.1749 55.4177 46.643 55.1505 46.2708 54.8298L46.8558 53.4938C47.7067 54.0817 48.6109 54.3489 49.6214 54.3489C50.1532 54.3489 50.5787 54.242 50.8978 54.0817C51.2169 53.9213 51.3233 53.6541 51.3233 53.3335C51.3233 53.0663 51.1637 52.8526 50.8978 52.6922C50.6319 52.5319 50.1532 52.3716 49.4618 52.2113C48.7172 52.0509 48.079 51.8906 47.6535 51.6234C47.2281 51.4097 46.8558 51.1425 46.6962 50.8218C46.4835 50.5012 46.3771 50.1271 46.3771 49.6461C46.3771 49.1117 46.5367 48.6842 46.8026 48.2567C47.0685 47.8291 47.494 47.5085 48.0258 47.2947C48.5577 47.081 49.1427 46.9741 49.8341 46.9741C50.4723 46.9741 51.0574 47.081 51.5892 47.2413C52.1743 47.4016 52.5997 47.6688 52.9188 47.9895L52.3338 49.3255C51.5892 48.7376 50.7382 48.4704 49.8341 48.4704C49.3554 48.4704 48.9832 48.5773 48.6641 48.7376C48.3981 48.9514 48.2386 49.2186 48.2386 49.5392C48.2386 49.753 48.2918 49.9133 48.3981 50.0202C48.5045 50.1271 48.6641 50.2874 48.93 50.3408C49.1959 50.4477 49.5682 50.5546 50.0469 50.6615C51.1637 50.9287 51.9615 51.1959 52.4402 51.6234C52.9188 51.9975 53.1848 52.5319 53.1848 53.2266C53.1848 54.0282 52.8656 54.6695 52.2274 55.1505C51.5892 55.6314 50.7383 55.8452 49.6214 55.8452C48.9832 55.8452 48.3981 55.7383 47.7599 55.578Z" fill="#4AA760"/>
<path d="M61.0029 47.0811H62.8644V55.7383H61.0029V52.1044H57.0141V55.7383H55.1526V47.0811H57.0141V50.5547H61.0029V47.0811Z" fill="#4AA760"/>
<path d="M14.679 69.8464C14.0408 69.4723 13.5621 68.9914 13.243 68.2966C12.9239 67.6019 12.7112 66.8538 12.7112 65.9453C12.7112 65.0368 12.8707 64.2886 13.243 63.5939C13.5621 62.9526 14.094 62.4182 14.679 62.0442C15.3172 61.6701 16.0618 61.5098 16.9128 61.5098C17.7637 61.5098 18.5083 61.6701 19.1466 62.0442C19.7848 62.4182 20.2634 62.8992 20.5825 63.5939C20.9016 64.2352 21.1144 65.0368 21.1144 65.9453C21.1144 66.8538 20.9548 67.6019 20.5825 68.2966C20.2634 68.9914 19.7848 69.4723 19.1466 69.8464C18.5083 70.2205 17.7637 70.3808 16.9128 70.3808C16.0086 70.3808 15.2641 70.2205 14.679 69.8464ZM18.5615 68.1363C18.987 67.6019 19.1466 66.9072 19.1466 65.9453C19.1466 64.9834 18.9338 64.2886 18.5615 63.7542C18.136 63.2733 17.6042 63.0061 16.8596 63.0061C16.115 63.0061 15.5832 63.2733 15.1577 63.7542C14.7322 64.2352 14.5726 64.9834 14.5726 65.9453C14.5726 66.9072 14.7854 67.6554 15.1577 68.1363C15.5832 68.6173 16.115 68.8845 16.8596 68.8845C17.6042 68.9379 18.1892 68.6707 18.5615 68.1363Z" fill="#4AA760"/>
<path d="M30.4217 70.274H28.4538L27.3369 67.3883C27.2306 67.1745 27.1242 67.0142 26.9115 66.9073C26.7519 66.8004 26.486 66.8004 26.2201 66.8004H24.9968V70.274H23.1354V61.6167H26.9647C27.9752 61.6167 28.7198 61.8305 29.2516 62.258C29.7835 62.6855 30.0494 63.3268 30.0494 64.1284C30.0494 64.7162 29.8898 65.1972 29.5707 65.6247C29.2516 66.0522 28.8261 66.3194 28.2943 66.5332C28.8261 66.6401 29.1452 67.0142 29.4112 67.602L30.4217 70.274ZM26.6987 65.3575C27.2306 65.3575 27.6561 65.2506 27.8688 65.0903C28.1347 64.93 28.2411 64.6094 28.2411 64.2353C28.2411 63.8612 28.1347 63.5406 27.8688 63.3803C27.6029 63.2199 27.2306 63.1131 26.6987 63.1131H24.9968V65.3575H26.6987Z" fill="#4AA760"/>
<path d="M39.6227 65.5175V69.7393C39.1972 69.953 38.7185 70.1134 38.1335 70.2203C37.5484 70.3271 37.0166 70.3806 36.4316 70.3806C35.5274 70.3806 34.7296 70.2203 34.0914 69.8462C33.4 69.4721 32.9214 68.9911 32.5491 68.2964C32.1768 67.6551 32.0172 66.8535 32.0172 65.8916C32.0172 64.9831 32.1768 64.235 32.5491 63.5402C32.9214 62.899 33.4 62.3645 34.0914 61.9905C34.7296 61.6164 35.5274 61.4561 36.3784 61.4561C37.0166 61.4561 37.6016 61.5629 38.1335 61.7233C38.6653 61.8836 39.0908 62.1508 39.4631 62.418L38.8781 63.754C38.4526 63.4868 38.0803 63.273 37.708 63.1127C37.3357 63.0058 36.9102 62.8989 36.4847 62.8989C34.836 62.8989 33.9851 63.8609 33.9851 65.7847C33.9851 67.762 34.836 68.7774 36.5911 68.7774C37.0698 68.7774 37.5484 68.7239 38.0271 68.6171V66.6932H36.2188V65.3572H39.6227V65.5175Z" fill="#4AA760"/>
<path d="M48.3981 70.274L47.6003 68.3502H43.5582L42.7605 70.274H40.8458L44.7815 61.6167H46.3238L50.2595 70.274H48.3981ZM44.1965 66.9073H46.9621L45.5792 63.6475L44.1965 66.9073Z" fill="#4AA760"/>
<path d="M57.28 61.6699H59.0351V70.3272H57.6523L53.3443 64.8229V70.3272H51.5892V61.6699H52.972L57.28 67.1743V61.6699Z" fill="#4AA760"/>
<path d="M61.3751 70.274V61.6167H63.2366V70.274H61.3751Z" fill="#4AA760"/>
<path d="M67.3318 69.8462C66.6936 69.4721 66.1617 68.9377 65.8426 68.2964C65.4703 67.6552 65.3108 66.8536 65.3108 65.9451C65.3108 65.09 65.4703 64.2885 65.8426 63.6472C66.2149 63.0059 66.6936 62.4715 67.3318 62.0974C67.97 61.7233 68.7146 61.563 69.6187 61.563C70.2038 61.563 70.7356 61.6699 71.2675 61.8302C71.7993 61.9905 72.2248 62.2577 72.5439 62.5784L71.9589 63.9144C71.5866 63.6472 71.2143 63.4334 70.842 63.2731C70.4697 63.1662 70.0974 63.0593 69.6719 63.0593C68.8742 63.0593 68.2891 63.3265 67.9168 63.8075C67.4913 64.2884 67.2786 65.0366 67.2786 65.9451C67.2786 66.907 67.4913 67.6017 67.9168 68.1361C68.3423 68.6705 68.9274 68.8843 69.6719 68.8843C70.0974 68.8843 70.4697 68.8308 70.842 68.6705C71.2143 68.5636 71.5866 68.3499 71.9589 68.0292L72.5439 69.3652C72.2248 69.6859 71.7993 69.8997 71.2675 70.1134C70.7356 70.2737 70.2038 70.3806 69.6187 70.3806C68.7678 70.3806 68.0232 70.2203 67.3318 69.8462Z" fill="#4AA760"/>
<path d="M83.2872 79.9999H1.70186C0.850909 79.9999 0.106323 79.3051 0.106323 78.3967C0.106323 77.5416 0.797725 76.7935 1.70186 76.7935H83.2872C84.1382 76.7935 84.8828 77.4882 84.8828 78.3967C84.8828 79.3051 84.1914 79.9999 83.2872 79.9999Z" fill="#4AA760"/>
</svg>
