<svg width="102" height="80" viewBox="0 0 102 80" fill="none" xmlns="../../../../../external.html?link=http://www.w3.org/2000/svg">
<path d="M49.9855 73.5454C49.2477 73.5454 48.5099 73.4833 47.7721 73.4213C47.5261 73.4213 47.3417 73.173 47.3417 72.9248C47.3417 72.6765 47.5876 72.4903 47.8336 72.4903C48.5714 72.5524 49.2477 72.6144 49.9855 72.6144C50.2314 72.6144 50.4159 72.8627 50.4159 73.1109C50.4159 73.3592 50.2314 73.5454 49.9855 73.5454ZM52.1374 73.5454C51.8914 73.5454 51.707 73.3592 51.707 73.1109C51.707 72.8627 51.8914 72.6144 52.1374 72.6144C52.8752 72.6144 53.5515 72.5524 54.2893 72.4903C54.5352 72.4903 54.7811 72.6765 54.7811 72.9248C54.7811 73.173 54.5967 73.4213 54.3507 73.4213C53.6744 73.4833 52.9366 73.4833 52.1374 73.5454ZM45.6202 73.1109H45.5587C44.8209 72.9868 44.0831 72.8627 43.4068 72.6765C43.1609 72.6145 43.0379 72.3662 43.0379 72.1179C43.0994 71.8697 43.3453 71.7456 43.5912 71.7456C44.2675 71.9318 45.0054 72.0559 45.6817 72.18C45.9276 72.2421 46.112 72.4283 46.0505 72.7386C46.0505 72.9248 45.8046 73.1109 45.6202 73.1109ZM56.5026 73.1109C56.2567 73.1109 56.0722 72.9248 56.0722 72.7386C56.0108 72.4903 56.1952 72.2421 56.4412 72.18C57.1175 72.0559 57.8552 71.9318 58.5316 71.7456C58.7775 71.6835 59.0234 71.8697 59.0849 72.1179C59.1464 72.3662 58.9619 72.6145 58.7775 72.6765C58.0397 72.8627 57.3019 72.9868 56.6256 73.1109C56.5641 73.1109 56.5641 73.1109 56.5026 73.1109ZM41.3779 72.0559C41.3164 72.0559 41.3164 72.0559 41.2549 72.0559C40.5786 71.8076 39.8408 71.5594 39.1645 71.3111C38.9185 71.2491 38.7956 70.9387 38.9186 70.6905C38.98 70.4422 39.2875 70.3181 39.5334 70.4422C40.2097 70.6905 40.886 70.9387 41.5623 71.187C41.8082 71.2491 41.9312 71.4973 41.8697 71.7456C41.7468 71.9318 41.5623 72.0559 41.3779 72.0559ZM60.8064 72.0559C60.622 72.0559 60.4375 71.9318 60.376 71.7456C60.3146 71.4973 60.4375 71.2491 60.6835 71.187C61.3598 71.0008 62.0361 70.7525 62.7124 70.4422C62.9583 70.3802 63.2043 70.4422 63.3272 70.6905C63.3887 70.9387 63.3272 71.187 63.0813 71.3111C62.405 71.5594 61.6672 71.8076 60.9909 72.0559C60.8679 72.0559 60.8064 72.0559 60.8064 72.0559ZM37.2585 70.5043C37.197 70.5043 37.1356 70.5043 37.0741 70.4422C36.3978 70.1319 35.7214 69.7595 35.1066 69.4492C34.8607 69.3251 34.7992 69.0768 34.9222 68.8286C35.0451 68.5803 35.2911 68.5183 35.537 68.6424C36.1518 69.0148 36.8281 69.3251 37.443 69.6354C37.6889 69.7595 37.7504 70.0078 37.6889 70.256C37.5659 70.3802 37.443 70.5043 37.2585 70.5043ZM64.8643 70.5043C64.6799 70.5043 64.5569 70.3802 64.4339 70.256C64.311 70.0078 64.4339 69.7595 64.6798 69.6354C65.3561 69.3251 65.971 69.0148 66.5858 68.6424C66.8318 68.5183 67.0777 68.5803 67.2007 68.8286C67.3236 69.0768 67.2621 69.3251 67.0162 69.4492C66.3399 69.8216 65.7251 70.1319 65.0488 70.4422C64.9873 70.4422 64.9258 70.5043 64.8643 70.5043ZM68.7377 68.3321C68.6148 68.3321 68.4303 68.27 68.3688 68.1459C68.2458 67.9597 68.3073 67.6493 68.4918 67.5252C69.1066 67.1528 69.7215 66.7184 70.2748 66.284C70.4592 66.1598 70.7667 66.1598 70.8896 66.4081C71.0126 66.5943 71.0126 66.9046 70.7667 67.0287C70.1518 67.4632 69.537 67.8976 68.9222 68.27C68.8607 68.3321 68.7992 68.3321 68.7377 68.3321ZM72.2423 65.7254C72.1193 65.7254 71.9963 65.6633 71.8733 65.5392C71.6889 65.353 71.7504 65.0427 71.9348 64.9186C72.4882 64.4221 73.0415 63.9876 73.5334 63.429C73.7178 63.2429 74.0252 63.2429 74.1482 63.429C74.3327 63.6152 74.3327 63.9255 74.1482 64.0497C73.5949 64.5462 73.0415 65.1048 72.4882 65.5392C72.4267 65.6633 72.3652 65.7254 72.2423 65.7254ZM18.3218 38.2312C18.0144 38.2312 17.8299 37.983 17.8914 37.7347C17.9529 36.9899 18.0144 36.2452 18.1374 35.5004C18.1988 35.2522 18.3833 35.066 18.6292 35.1281C18.8752 35.1901 19.0596 35.3763 18.9981 35.6246C18.8751 36.3693 18.8137 37.052 18.8137 37.7968C18.7522 38.045 18.5677 38.2312 18.3218 38.2312ZM83.801 38.1691C83.5551 38.1691 83.3706 37.983 83.3706 37.7347C83.3092 36.9899 83.2477 36.3072 83.1247 35.5625C83.0632 35.3142 83.2477 35.066 83.4936 35.066C83.7395 35.0039 83.9855 35.1901 83.9855 35.4384C84.1084 36.1831 84.1699 36.9279 84.2314 37.6726C84.2314 37.9209 84.047 38.1071 83.801 38.1691ZM18.8751 33.8868H18.8137C18.5677 33.8247 18.3833 33.5765 18.4448 33.3282C18.5677 32.5834 18.7522 31.8387 18.9366 31.156C18.9981 30.9077 19.244 30.7836 19.49 30.8457C19.7359 30.9077 19.8589 31.156 19.7974 31.4042C19.6129 32.0869 19.4285 32.8317 19.3055 33.5144C19.3055 33.7006 19.1211 33.8868 18.8751 33.8868ZM83.1862 33.7626C83.0017 33.7626 82.7558 33.6385 82.7558 33.3902C82.6328 32.7075 82.4484 31.9628 82.2639 31.2801C82.2025 31.0318 82.3254 30.7836 82.5714 30.7215C82.8173 30.6595 83.0632 30.7836 83.1247 31.0318C83.3091 31.7766 83.4936 32.4593 83.6166 33.2041C83.6781 33.4523 83.4936 33.7006 83.2477 33.7626C83.2477 33.7626 83.2477 33.7626 83.1862 33.7626ZM20.0433 29.6044C19.9818 29.6044 19.9203 29.6044 19.9203 29.6044C19.6744 29.5423 19.5514 29.232 19.6129 29.0458C19.8589 28.3631 20.1048 27.6184 20.4122 26.9357C20.5352 26.6874 20.7811 26.5633 21.027 26.6874C21.273 26.8115 21.3959 27.0598 21.273 27.308C20.9656 27.9907 20.7196 28.6734 20.4737 29.3561C20.4122 29.4802 20.2278 29.6044 20.0433 29.6044ZM82.018 29.4802C81.8336 29.4802 81.6491 29.3561 81.5876 29.1699C81.3417 28.4872 81.0958 27.8045 80.7883 27.1218C80.6654 26.8736 80.7884 26.6253 81.0343 26.5012C81.2802 26.3771 81.5262 26.5012 81.6491 26.7495C81.9565 27.4322 82.2025 28.1148 82.4484 28.8596C82.5099 29.1079 82.3869 29.3561 82.141 29.4182C82.141 29.4803 82.0795 29.4802 82.018 29.4802ZM21.7648 25.5082C21.7033 25.5082 21.6419 25.5082 21.5804 25.4461C21.3345 25.322 21.273 25.0737 21.3959 24.8255C21.7034 24.1428 22.0723 23.5221 22.4412 22.8394C22.5641 22.5912 22.8715 22.5291 23.056 22.6532C23.3019 22.7774 23.3634 23.0877 23.2404 23.2739C22.8715 23.8945 22.5026 24.5152 22.1952 25.1979C22.0723 25.4461 21.8878 25.5082 21.7648 25.5082ZM80.2965 25.4461C80.112 25.4461 79.9891 25.3841 79.8661 25.1979C79.5587 24.5772 79.1898 23.8945 78.8209 23.2739C78.6979 23.0256 78.7594 22.7774 79.0054 22.6532C79.2513 22.5291 79.4972 22.5912 79.6202 22.8394C79.9891 23.4601 80.358 24.1428 80.6654 24.8255C80.7883 25.0737 80.6654 25.322 80.4809 25.4461C80.4194 25.4461 80.358 25.4461 80.2965 25.4461ZM23.9782 21.7223C23.9168 21.7223 23.7938 21.7223 23.7323 21.6602C23.5478 21.5361 23.4863 21.2258 23.6093 21.0396C24.0397 20.419 24.4701 19.7983 24.9005 19.2398C25.0849 19.0536 25.3309 18.9915 25.5153 19.1777C25.6998 19.3639 25.7612 19.6121 25.5768 19.7983C25.1464 20.3569 24.716 20.9775 24.2856 21.5361C24.2856 21.6602 24.1012 21.7223 23.9782 21.7223ZM78.0831 21.6602C77.9602 21.6602 77.7757 21.5982 77.7142 21.4741C77.2838 20.8534 76.8535 20.2948 76.4231 19.7363C76.2386 19.5501 76.3001 19.2397 76.4845 19.1156C76.669 18.9294 76.9764 18.9915 77.0994 19.1777C77.5298 19.7363 78.0216 20.3569 78.452 20.9775C78.575 21.1637 78.5135 21.474 78.329 21.5982C78.2675 21.5982 78.1446 21.6602 78.0831 21.6602ZM26.6835 18.2467C26.5605 18.2467 26.4375 18.1847 26.376 18.1226C26.1916 17.9364 26.1916 17.6882 26.3146 17.502C26.8064 16.9434 27.2983 16.3848 27.8516 15.8883C28.0361 15.7021 28.3435 15.7021 28.4665 15.8883C28.6509 16.0745 28.6509 16.3848 28.4665 16.509C27.9746 17.0055 27.4212 17.5641 26.9909 18.0606C26.9294 18.1847 26.8064 18.2467 26.6835 18.2467ZM75.3164 18.1847C75.1934 18.1847 75.0705 18.1226 75.009 18.0606C74.5171 17.502 74.0252 17.0055 73.5334 16.509C73.3489 16.3228 73.3489 16.0125 73.5334 15.8883C73.7178 15.7021 74.0252 15.7021 74.1482 15.8883C74.7015 16.3848 75.1934 16.9434 75.6853 17.502C75.8697 17.6882 75.8697 17.9985 75.6238 18.1226C75.5623 18.1226 75.4394 18.1847 75.3164 18.1847ZM29.8191 15.1436C29.6961 15.1436 29.5731 15.0815 29.4502 14.9574C29.2657 14.7712 29.3272 14.4609 29.5117 14.3367C30.065 13.8402 30.6799 13.4058 31.2332 12.9713C31.4176 12.8472 31.7251 12.8472 31.848 13.0955C31.971 13.2817 31.971 13.592 31.7251 13.7161C31.1717 14.1506 30.5569 14.585 30.0035 15.0815C30.065 15.1435 29.9421 15.1436 29.8191 15.1436ZM72.1807 15.0815C72.0578 15.0815 71.9963 15.0194 71.8733 14.9574C71.32 14.4609 70.7667 14.0264 70.1518 13.592C69.9674 13.4679 69.9059 13.1575 70.0288 12.9713C70.1518 12.7852 70.4592 12.7231 70.6437 12.8472C71.2585 13.2817 71.8118 13.7782 72.3652 14.2126C72.5496 14.3988 72.6111 14.6471 72.4267 14.8333C72.4267 15.0194 72.3037 15.0815 72.1807 15.0815ZM33.3851 12.5369C33.2621 12.5369 33.0777 12.4748 33.0162 12.3507C32.8932 12.1645 32.9547 11.8542 33.1392 11.7301C33.754 11.3577 34.4303 10.9233 35.0451 10.6129C35.2911 10.4888 35.537 10.5509 35.66 10.7991C35.7829 11.0474 35.7214 11.2956 35.4755 11.4198C34.8607 11.7921 34.2458 12.1645 33.631 12.5369C33.508 12.5369 33.4466 12.5369 33.3851 12.5369ZM68.6762 12.4748C68.6147 12.4748 68.4918 12.4748 68.4303 12.4128C67.8155 12.0404 67.2007 11.668 66.5858 11.2956C66.3399 11.1715 66.2784 10.9232 66.4014 10.675C66.5243 10.4267 66.7703 10.3647 67.0162 10.4888C67.6925 10.8612 68.3073 11.2336 68.9222 11.6059C69.1066 11.7301 69.1681 12.0404 69.0451 12.2266C68.9837 12.4128 68.7992 12.4748 68.6762 12.4748ZM37.197 10.4267C37.0126 10.4267 36.8896 10.3026 36.7667 10.1785C36.6437 9.93023 36.7666 9.68197 37.0126 9.55784C37.6889 9.24753 38.3652 8.93719 39.0415 8.68894C39.2875 8.62688 39.5334 8.68895 39.6564 8.93721C39.7178 9.18546 39.6563 9.43372 39.4104 9.55784C38.7341 9.8061 38.0578 10.1164 37.443 10.4267C37.32 10.3646 37.2585 10.4267 37.197 10.4267ZM64.8028 10.3647C64.7413 10.3647 64.6799 10.3647 64.6184 10.3026C63.9421 9.9923 63.2657 9.68196 62.6509 9.43371C62.405 9.37165 62.282 9.06133 62.405 8.81307C62.4665 8.56482 62.7739 8.44068 63.0198 8.5648C63.6961 8.81306 64.3724 9.12339 65.0488 9.43371C65.2947 9.55784 65.3561 9.80609 65.2947 10.0543C65.1717 10.2405 64.9873 10.3647 64.8028 10.3647ZM41.2549 8.81307C41.0704 8.81307 40.886 8.68895 40.8245 8.50276C40.763 8.2545 40.886 8.00623 41.1319 7.94417C41.8082 7.69591 42.546 7.50972 43.2838 7.32353C43.5298 7.26147 43.7757 7.44766 43.8372 7.63385C43.8987 7.8821 43.7142 8.13037 43.5298 8.19244C42.8535 8.37863 42.1156 8.56483 41.4393 8.75103C41.3779 8.81309 41.3164 8.81307 41.2549 8.81307ZM60.6835 8.75103C60.622 8.75103 60.622 8.75103 60.5605 8.75103C59.8842 8.56483 59.1464 8.31656 58.4701 8.19244C58.2242 8.13037 58.1012 7.8821 58.1012 7.63385C58.1627 7.3856 58.4086 7.26148 58.6545 7.26148C59.3923 7.44767 60.0686 7.63388 60.8064 7.82007C61.0524 7.88213 61.1753 8.13037 61.1138 8.37862C61.1138 8.62688 60.9294 8.75103 60.6835 8.75103ZM45.5587 7.75798C45.3128 7.75798 45.1283 7.57181 45.1283 7.38562C45.0668 7.13736 45.2513 6.88909 45.4972 6.82703C46.235 6.7029 46.9728 6.57878 47.7106 6.51671C47.9565 6.51671 48.2024 6.70291 48.2024 6.95117C48.2024 7.19942 48.018 7.44767 47.7721 7.44767C47.0343 7.50973 46.358 7.63386 45.6202 7.75798C45.5587 7.75798 45.5587 7.75798 45.5587 7.75798ZM56.4412 7.75798H56.3797C55.7033 7.63386 54.9655 7.57179 54.2278 7.44767C53.9818 7.44767 53.7974 7.19942 53.7974 6.95117C53.7974 6.70291 54.0433 6.51671 54.2893 6.51671C55.0271 6.57878 55.7648 6.7029 56.5026 6.82703C56.7486 6.88909 56.933 7.0753 56.8715 7.38562C56.8715 7.57181 56.6871 7.75798 56.4412 7.75798ZM49.8625 7.32353C49.6166 7.32353 49.4321 7.13737 49.4321 6.88912C49.4321 6.64086 49.6166 6.39258 49.8625 6.39258C50.6003 6.39258 51.3381 6.39258 52.0759 6.39258C52.3218 6.39258 52.5062 6.64086 52.5062 6.88912C52.5062 7.13737 52.3218 7.32353 52.0759 7.32353C51.3381 7.32353 50.6003 7.32353 49.8625 7.32353C49.924 7.32353 49.924 7.32353 49.8625 7.32353Z" fill="#4AA760"/>
<path d="M15.1247 40.5896C15.1247 40.4034 15.1247 40.2172 15.1247 39.969C15.1247 19.9845 31.2332 3.66177 51.0922 3.66177C70.8896 3.66177 87.0596 19.9224 87.0596 39.969C87.0596 40.8999 86.9981 41.7688 86.9366 42.6377C88.0433 42.948 89.2115 43.3204 90.5026 43.5687C90.6256 42.3895 90.6871 41.1482 90.6871 39.969C90.6871 29.294 86.5677 19.2397 79.0668 11.73C71.5659 4.15828 61.6672 0 51.0922 0C40.5171 0 30.5569 4.15828 23.1175 11.73C15.7395 19.1777 11.6202 29.1078 11.4972 39.6587C12.7883 39.9069 13.9565 40.2172 15.1247 40.5896Z" fill="#4AA760"/>
<path d="M78.5136 63.4292C71.935 71.3113 62.0362 76.2764 51.0923 76.2764C42.1158 76.2764 33.8771 72.9249 27.6058 67.4013C24.9621 67.0289 22.8717 66.4703 20.9657 65.9117C21.642 66.7186 22.3798 67.4633 23.1176 68.2702C30.6185 75.8419 40.5172 80.0002 51.0923 80.0002C61.6673 80.0002 71.6276 75.8419 79.067 68.2702C80.2351 67.0909 81.3418 65.8497 82.3256 64.5463C81.0959 64.1119 79.8662 63.7395 78.5136 63.4292Z" fill="#4AA760"/>
<path d="M100.156 69.6973C91.6709 69.6973 87.3671 68.2078 83.1863 66.7803C79.1284 65.3529 75.3165 64.0495 67.3852 64.0495C59.5154 64.0495 55.6419 65.3529 51.5841 66.7803C47.4032 68.2078 43.0995 69.6973 34.6148 69.6973C26.1302 69.6973 21.8264 68.2078 17.6455 66.7803C13.5877 65.3529 9.77577 64.0495 1.84449 64.0495C0.86076 64.0495 0 63.2427 0 62.1876V38.7896C0 37.7966 0.799277 36.9277 1.84449 36.9277C10.3291 36.9277 14.6329 38.4173 18.8137 39.8447C22.8716 41.2722 26.6835 42.5755 34.6148 42.5755C42.4846 42.5755 46.3581 41.2722 50.4159 39.8447C54.5968 38.4173 58.9005 36.9277 67.3852 36.9277C75.8698 36.9277 80.1736 38.4173 84.3544 39.8447C88.4123 41.2722 92.2242 42.5755 100.156 42.5755C101.139 42.5755 102 43.3824 102 44.4375V67.8354C102 68.8905 101.139 69.6973 100.156 69.6973ZM3.75044 60.3878C11.0669 60.574 15.0018 61.9394 18.8752 63.3048C22.9331 64.7322 26.745 66.0356 34.6763 66.0356C42.5461 66.0356 46.4195 64.7322 50.4774 63.3048C54.6582 61.8773 58.962 60.3878 67.4466 60.3878C75.9313 60.3878 80.2351 61.8773 84.4159 63.3048C88.1664 64.6081 91.6709 65.8494 98.3725 66.0356V46.2994C91.0561 46.1132 87.1212 44.7478 83.2477 43.3824C79.1899 41.9549 75.3779 40.6516 67.4466 40.6516C59.5768 40.6516 55.7034 41.9549 51.6456 43.3824C47.4647 44.8098 43.1609 46.2994 34.6763 46.2994C26.1917 46.2994 21.8879 44.8098 17.707 43.3824C13.9566 42.079 10.4521 40.8377 3.75044 40.6516V60.3878Z" fill="#4AA760"/>
<path d="M33.9999 32.1491L36.2748 30.9078L37.4429 33.1421L30.1879 37.1142L29.0198 34.8799L31.2946 33.6386L28.4049 28.3012L26.9908 30.6596L25.6997 28.3012L27.9131 24.6394L29.5117 23.7705L33.9999 32.1491Z" fill="#4AA760"/>
<path d="M38.6727 31.3422C37.6275 30.5354 36.8897 29.1079 36.3978 27.184C35.906 25.26 35.906 23.7084 36.3978 22.4672C36.8897 21.2259 37.8734 20.4811 39.2875 20.1087C40.7016 19.7364 41.9313 19.9846 42.9765 20.7914C44.0217 21.5983 44.7595 22.9637 45.2514 24.8876C45.7432 26.8116 45.7432 28.4252 45.2514 29.6665C44.7595 30.9078 43.7758 31.7146 42.3617 32.025C40.9476 32.3973 39.7179 32.1491 38.6727 31.3422ZM42.6691 28.5494C42.7306 27.9287 42.6076 26.9357 42.3002 25.6324C41.9928 24.329 41.6239 23.4602 41.255 22.9637C40.8861 22.4671 40.4557 22.281 39.9024 22.4051C39.4105 22.5292 39.1031 22.9016 38.9801 23.5222C38.9186 24.1429 39.0416 25.0738 39.349 26.3772C39.6564 27.6805 40.0253 28.6115 40.3942 29.108C40.7631 29.6045 41.1935 29.7906 41.7468 29.6665C42.3002 29.5424 42.5461 29.17 42.6691 28.5494Z" fill="#4AA760"/>
<path d="M48.5715 29.1701C47.7722 28.115 47.4033 26.5635 47.4033 24.5774C47.4033 22.5914 47.7722 21.1018 48.5715 20.0467C49.3708 18.9917 50.4775 18.4331 51.9531 18.4331C53.4287 18.4331 54.5353 18.9296 55.3346 19.9847C56.1339 21.0398 56.5028 22.5293 56.5028 24.5153C56.5028 26.5014 56.1339 28.053 55.3346 29.1081C54.5353 30.1631 53.4287 30.7217 51.9531 30.7217C50.4775 30.7838 49.3708 30.2252 48.5715 29.1701ZM53.1212 27.4944C53.3671 26.8737 53.4901 25.9428 53.4901 24.5774C53.4901 23.2741 53.3671 22.281 53.1212 21.7225C52.8753 21.1639 52.5064 20.8536 51.9531 20.8536C51.3997 20.8536 51.0308 21.1639 50.7849 21.7225C50.5389 22.281 50.416 23.2741 50.416 24.5774C50.416 25.9428 50.5389 26.8737 50.7849 27.4944C51.0308 28.115 51.3997 28.3633 51.9531 28.3633C52.5064 28.3633 52.8753 28.0529 53.1212 27.4944Z" fill="#4AA760"/>
<path d="M59.7613 24.8874C59.3924 24.0806 59.4539 23.1496 59.8228 22.0325C60.1917 20.9153 60.745 20.1705 61.4828 19.7361C62.2206 19.3016 63.0813 19.2396 64.0036 19.5499C64.9258 19.8602 65.6021 20.4188 65.9095 21.1636C66.2784 21.9704 66.217 22.9014 65.9095 24.0185C65.5406 25.1356 64.9873 25.9425 64.2495 26.3769C63.5117 26.8114 62.651 26.8734 61.7287 26.5631C60.745 26.2528 60.0687 25.6942 59.7613 24.8874ZM62.3435 31.9006L59.9457 31.0938L70.2748 21.8463L72.6727 22.6531L62.3435 31.9006ZM62.8969 24.5771C63.0814 24.3909 63.2658 23.9564 63.5117 23.2737C63.6962 22.6531 63.8191 22.2186 63.7576 21.9083C63.6962 21.598 63.5732 21.4118 63.3888 21.3498C63.1428 21.2877 62.9584 21.3497 62.7739 21.598C62.5895 21.8463 62.405 22.2186 62.1591 22.8393C61.9747 23.4599 61.8517 23.9564 61.9132 24.2047C61.9132 24.515 62.0976 24.7012 62.2821 24.7633C62.528 24.8253 62.7125 24.7633 62.8969 24.5771ZM66.7089 32.4591C66.4014 31.6523 66.4014 30.7214 66.7703 29.6042C67.1392 28.4871 67.6926 27.7423 68.4304 27.3079C69.1682 26.8734 69.9674 26.8114 70.9511 27.1217C71.9349 27.432 72.5497 27.9906 72.8571 28.7353C73.1645 29.4801 73.1645 30.4731 72.7956 31.5903C72.4267 32.7074 71.8734 33.5142 71.1356 33.9487C70.3978 34.3831 69.5985 34.4452 68.6148 34.1349C67.6926 33.8245 67.0777 33.266 66.7089 32.4591ZM69.9059 32.1488C70.0904 31.9006 70.2748 31.5282 70.5208 30.8455C70.7052 30.2249 70.8282 29.7904 70.7667 29.4801C70.7052 29.1698 70.5823 28.9836 70.3978 28.9215C70.1519 28.8595 69.9674 28.9215 69.783 29.1698C69.5985 29.418 69.4141 29.7904 69.1682 30.411C68.9837 31.0317 68.8607 31.5282 68.9222 31.7764C68.9222 32.0868 69.1067 32.273 69.2911 32.335C69.4755 32.3971 69.66 32.335 69.9059 32.1488Z" fill="#4AA760"/>
<path d="M16.6618 52.0712L15.801 55.795C15.3706 55.8571 14.8788 55.9192 14.3869 55.9192C13.895 55.9192 13.4032 55.8571 12.8498 55.7329C12.0505 55.5467 11.3742 55.2364 10.8824 54.802C10.3905 54.3675 10.0216 53.809 9.83719 53.1883C9.65274 52.5677 9.65274 51.8229 9.83719 51.0161C10.0216 50.2713 10.3291 49.6507 10.7594 49.0922C11.1898 48.5956 11.7431 48.2232 12.4194 48.0991C13.0957 47.9129 13.7721 47.9129 14.5713 48.0991C15.1247 48.2232 15.5551 48.4094 16.0469 48.6577C16.4773 48.906 16.8462 49.1542 17.0922 49.4645L16.1699 50.7058C15.8625 50.3955 15.6166 50.1472 15.3091 50.0231C15.0017 49.8369 14.6943 49.7128 14.3254 49.6507C13.6491 49.5266 13.1572 49.5887 12.7269 49.899C12.2965 50.2093 12.0506 50.7058 11.8661 51.5126C11.6817 52.3194 11.7432 52.9401 11.9891 53.3745C12.235 53.809 12.7269 54.1193 13.4032 54.3055C13.7106 54.3675 14.0795 54.4296 14.3869 54.4296L14.6943 53.0642L13.4032 52.7539L13.7106 51.4506L16.6618 52.0712Z" fill="#4AA760"/>
<path d="M17.7686 57.0983L20.1049 49.8989L22.0109 50.5196L20.1664 56.1673L23.179 57.1604L22.6872 58.712L17.7686 57.0983Z" fill="#4AA760"/>
<path d="M26.1302 58.7743C25.6383 58.1537 25.4538 57.2848 25.5768 56.2297L26.0687 51.8853L27.9747 52.1335L27.4828 56.6021C27.4213 57.1606 27.4828 57.5951 27.7287 57.9054C27.9132 58.2157 28.282 58.4019 28.7124 58.464C29.1428 58.526 29.5117 58.4019 29.7576 58.1537C30.0036 57.9054 30.188 57.4709 30.2495 56.9744L30.7414 52.5059L32.7088 52.7541L32.2169 57.0986C32.094 58.1537 31.7251 58.9605 31.1103 59.457C30.4954 59.9535 29.6347 60.1397 28.528 60.0156C27.4213 59.7673 26.622 59.3949 26.1302 58.7743Z" fill="#4AA760"/>
<path d="M36.6438 60.0773L36.3364 54.1192L34.123 54.2433L34.0615 52.6297L40.5787 52.3193L40.6402 53.933L38.4268 54.0571L38.7342 60.0152L36.6438 60.0773Z" fill="#4AA760"/>
<path d="M43.6528 59.4565L41.8083 52.071L47.0344 50.7056L47.4033 52.1951L44.0832 53.064L44.4521 54.4294L47.5877 53.6226L47.9566 55.1121L44.821 55.9189L45.1899 57.4084L48.51 56.5396L48.8789 58.0291L43.6528 59.4565Z" fill="#4AA760"/>
<path d="M53.5516 48.4717L55.3346 47.9131L57.4865 55.1745L56.0724 55.609L51.5841 52.4437L52.8138 56.602L51.0308 57.1606L48.8789 49.8991L50.293 49.4647L54.7812 52.5679L53.5516 48.4717Z" fill="#4AA760"/>
<path d="M63.5732 54.4918L63.3888 46.92L68.6148 46.7959L68.6763 48.3475L65.3563 48.4095V49.7749L68.4304 49.7129L68.4919 51.2645L65.4177 51.3265L65.4792 54.4297L63.5732 54.4918Z" fill="#4AA760"/>
<path d="M77.038 55.1744L74.9475 54.9262L74.2712 52.3195C74.2097 52.0092 73.9638 51.823 73.5334 51.823L72.7956 51.761L72.4882 54.6779L70.5208 54.4297L71.3815 46.8579L74.8861 47.2303C75.8083 47.3544 76.4231 47.6027 76.8535 48.0371C77.2839 48.4716 77.4069 49.0922 77.3454 49.7749C77.2839 50.2714 77.0994 50.7058 76.792 51.0782C76.4846 51.3885 76.0542 51.6368 75.5624 51.761C75.7468 51.823 75.9313 51.9471 76.1157 52.1333C76.2387 52.3195 76.3616 52.5057 76.4231 52.816L77.038 55.1744ZM75.132 50.2714C75.3164 50.1473 75.4394 49.9611 75.5009 49.7129C75.5624 49.4025 75.4394 49.2163 75.3164 49.0301C75.132 48.906 74.8246 48.7819 74.3942 48.7198L73.1645 48.5957L72.9801 50.2094L74.2097 50.3335C74.6401 50.3956 74.9475 50.3955 75.132 50.2714Z" fill="#4AA760"/>
<path d="M78.7594 55.6091L81.0343 48.3477L86.1373 49.9613L85.707 51.4508L82.4484 50.3957L82.018 51.7612L85.0921 52.7542L84.6617 54.2437L81.5876 53.2507L81.1572 54.7402L84.4158 55.7953L83.9854 57.2848L78.7594 55.6091Z" fill="#4AA760"/>
<path d="M86.0145 58.0916L87.9205 50.7681L93.1466 52.1335L92.7776 53.623L89.4576 52.7541L89.0887 54.1195L92.2243 54.9263L91.8554 56.4159L88.7198 55.6091L88.3509 57.0986L91.671 57.9675L91.3021 59.457L86.0145 58.0916Z" fill="#4AA760"/>
</svg>
