<svg width="110" height="80" viewBox="0 0 110 80" fill="none" xmlns="../../../../../external.html?link=http://www.w3.org/2000/svg">
<path d="M54.9999 76.4475C41.5214 76.4475 28.8095 72.7633 19.1637 65.987C9.32629 59.0791 3.96045 49.8686 3.96045 40.0001C3.96045 30.1317 9.39017 20.9212 19.1637 14.0133C28.7456 7.30275 41.4575 3.55273 54.9999 3.55273C68.4784 3.55273 81.1904 7.23696 90.8362 14.0133C100.674 20.9212 106.039 30.1317 106.039 40.0001C106.039 49.8686 100.61 59.0791 90.8362 65.987C81.2543 72.6975 68.5423 76.4475 54.9999 76.4475ZM54.9999 7.5001C28.9372 7.5001 7.7932 22.1054 7.7932 40.0001C7.7932 57.8949 29.0011 72.5001 54.9999 72.5001C81.0626 72.5001 102.207 57.8949 102.207 40.0001C102.207 22.1054 81.0626 7.5001 54.9999 7.5001Z" fill="#4AA760"/>
<path d="M104.443 33.9477C104.315 33.2898 104.187 32.6319 103.995 31.974C104.059 32.303 102.462 33.8161 102.207 34.1451C100.227 36.5135 98.3741 38.9477 96.2661 41.1845C95.6273 41.9082 94.9246 42.6319 94.222 43.2898C93.7748 43.6845 92.7527 44.0793 92.625 44.7372C93.136 41.5793 93.647 38.4214 94.222 35.1977C94.222 35.0003 94.2858 34.8687 94.222 34.6714C94.1581 34.3424 93.7109 34.1451 93.3915 34.1451C92.7527 34.1451 92.1139 34.5398 91.7307 35.0661C91.3474 35.5924 91.1558 36.2503 91.028 36.9082C90.5808 38.8819 90.5808 40.9872 89.5588 42.6977C89.2394 43.224 88.7922 43.6845 88.2173 43.5529C87.5785 43.3556 87.5146 42.5003 87.5785 41.7767C87.7702 39.6714 88.1534 37.6319 88.7283 35.5924C88.8561 35.1319 88.9839 34.6056 88.6645 34.2766C87.6424 32.9609 86.1093 35.0661 85.7899 35.9214C85.215 37.4345 84.8956 39.0793 84.704 40.6582C84.704 40.7898 84.6401 40.9872 84.6401 41.1188C84.4484 41.3161 84.3207 41.5135 84.129 41.6451C83.9374 41.8424 83.7458 41.974 83.5541 42.1714C83.3625 42.303 83.1708 42.5003 82.9792 42.6319C82.7876 42.7635 82.5959 42.8293 82.3404 42.9609C82.1488 43.0267 81.9571 43.0924 81.7655 43.0924C81.6378 43.0924 81.51 43.0266 81.3822 42.8293C81.3184 42.6319 81.2545 42.3687 81.2545 42.0398C81.2545 41.4477 81.3184 40.9214 81.4461 40.3293C81.5739 39.803 81.8294 39.1451 82.2765 38.4214C82.6598 37.6977 82.9792 37.0398 83.107 36.5135C83.2347 35.9872 83.2986 35.4609 83.2986 34.9345C83.2986 34.6714 83.2347 34.474 83.1709 34.2766C83.107 34.0793 83.0431 33.9477 82.9153 33.8819C82.7876 33.8161 82.7237 33.7503 82.5959 33.6845C82.4682 33.6187 82.4043 33.6187 82.2765 33.6187C81.8933 33.6187 81.51 33.7503 81.1267 34.0793C80.7434 34.3424 80.1685 34.8029 79.5297 35.4608C78.8909 36.1187 78.3799 36.7109 77.9966 37.1714C77.6134 37.6977 77.2301 38.1582 76.9746 38.553L76.7191 38.3556C76.9746 37.8293 77.294 37.3029 77.6134 36.645C77.9328 35.9872 78.316 35.2635 78.6354 34.5398C78.9548 33.8161 79.3381 33.0267 79.6575 32.2372C79.9769 31.4477 80.2963 30.6582 80.5518 29.9346C80.8073 29.1451 80.999 28.4214 81.1906 27.6977C81.3822 26.974 81.4461 26.3161 81.4461 25.724C81.4461 25.3293 81.4461 25.0003 81.3822 24.6714C81.3184 24.3424 81.1906 24.0793 81.0628 23.8819C80.9351 23.6845 80.6796 23.4872 80.424 23.3556C80.1685 23.224 79.8491 23.1582 79.402 23.1582C78.6354 23.1582 77.9328 23.3556 77.294 23.8161C76.6552 24.2766 76.1441 24.8688 75.697 25.6582C75.2498 26.4477 74.8666 27.303 74.5472 28.3556C74.2278 29.3424 73.9723 30.4609 73.8445 31.5793C73.7806 32.1714 73.6529 32.7635 73.589 33.3556C73.5251 33.3556 73.5251 33.3556 73.4612 33.3556C73.3335 33.3556 73.1418 33.3556 72.9502 33.3556C72.7586 33.3556 72.5669 33.3556 72.3114 33.3556C72.0559 33.3556 71.8642 33.3556 71.6087 33.3556C71.3532 33.3556 71.1616 33.3556 70.906 33.3556C70.7144 33.3556 70.5228 33.3556 70.3311 33.2898C70.1395 33.2898 70.0756 33.2898 70.0117 33.2898C70.2673 32.8293 70.5228 32.4345 70.7783 31.974C71.0338 31.5135 71.2254 31.1187 71.4171 30.6582C71.6087 30.1977 71.7365 29.8029 71.8642 29.4082C71.992 29.0135 72.0559 28.6187 72.0559 28.224C72.0559 27.7635 71.992 27.3029 71.9281 26.9082C71.8004 26.5135 71.6726 26.1187 71.481 25.7898C71.2893 25.4608 71.0338 25.1977 70.7783 25.0661C70.5228 24.8687 70.2034 24.8029 69.884 24.8029C69.3729 24.8029 68.8619 25.0661 68.4148 25.5266C67.9676 25.9872 67.5205 26.5793 67.1372 27.3687C66.9455 27.7635 66.7539 28.1582 66.6261 28.5529C66.6261 28.4214 66.69 28.3556 66.69 28.224C66.8817 27.4345 66.9455 26.7109 66.9455 25.9872C66.9455 25.6582 66.9455 25.395 66.8817 25.1319C66.8178 24.8687 66.7539 24.6056 66.6261 24.3424C66.4984 24.1451 66.3067 23.9477 66.1151 23.8161C65.8596 23.6845 65.6041 23.6187 65.2208 23.6187C64.7098 23.6187 64.2626 23.7503 63.8155 24.0793C63.3683 24.3424 62.9211 24.7372 62.474 25.2635C62.0268 25.7898 61.6436 26.3819 61.2603 27.0398C60.877 27.6977 60.4937 28.4214 60.1743 29.2108C59.855 30.0003 59.5356 30.9872 59.1523 32.303C58.769 33.6187 58.6412 34.2109 58.6412 34.2109C58.6412 34.2109 58.5135 34.8687 58.3218 36.1187C58.1302 37.4345 58.0024 38.4214 58.0024 39.2109C58.0024 39.9345 58.0663 40.5924 58.1302 41.2503C57.9386 41.4477 57.7469 41.7108 57.6192 41.9082C57.4275 42.1056 57.2998 42.2372 57.1081 42.4346C56.9165 42.6319 56.7249 42.7635 56.5971 42.895C56.4055 43.0266 56.2138 43.1582 56.0861 43.224C55.8944 43.2898 55.7667 43.3556 55.575 43.3556C55.3834 43.3556 55.1918 43.224 55.1279 43.0266C55.064 42.8293 55.0001 42.5661 55.0001 42.1714C55.0001 41.7766 55.064 41.2503 55.1918 40.5924C55.3195 40.0003 55.4473 39.4082 55.5112 38.9477C55.6389 38.4872 55.7028 38.0266 55.7667 37.5661C55.8305 37.1056 55.8944 36.7108 55.8944 36.3161C55.8944 36.0529 55.8944 35.8556 55.8306 35.724C55.7667 35.5924 55.7028 35.4609 55.6389 35.3951C55.575 35.3293 55.4473 35.2635 55.3834 35.2635C55.2556 35.2635 55.1918 35.1977 55.064 35.1977C55.0001 35.1977 54.8724 35.1977 54.8085 35.1977C54.7446 35.1977 54.6168 35.1977 54.553 35.1977C54.4252 35.1977 54.3613 35.1977 54.2336 35.1977C54.1697 35.1977 54.0419 35.1319 53.9781 35.1319C53.9142 35.0661 53.7864 35.0003 53.7225 34.9345C53.6587 34.8687 53.5948 34.7372 53.5309 34.6714C53.467 34.6056 53.4031 34.474 53.2754 34.4082C53.1476 34.3424 53.0199 34.2766 52.8921 34.2766C52.3811 34.2766 51.87 34.4082 51.359 34.6056C50.848 34.8687 50.3369 35.1319 49.8898 35.5267C49.4426 35.9214 48.9955 36.3819 48.6122 36.9082C48.2289 37.4345 47.8456 38.0266 47.5263 38.7503C47.2069 39.474 46.9514 40.1319 46.7597 40.724C46.6958 41.053 46.6319 41.3161 46.5681 41.5793C46.2487 41.7766 45.9293 42.0398 45.546 42.2372C45.035 42.5003 44.5878 42.7635 44.0768 42.895C43.5657 43.0924 43.1186 43.1582 42.6076 43.1582C42.4798 43.1582 42.352 43.1582 42.2243 43.0924C42.0965 43.0924 41.9688 43.0267 41.841 42.9609C41.7132 42.8951 41.5855 42.7635 41.5216 42.6319C41.3939 42.5003 41.33 42.303 41.2022 42.1056C41.841 41.9082 42.4798 41.6451 43.0547 41.3161C43.6296 40.9872 44.1407 40.5924 44.5239 40.1977C44.9072 39.803 45.2905 39.2767 45.6099 38.6845C45.9293 38.0924 46.057 37.5661 46.057 37.1056C46.057 36.6451 45.9932 36.2503 45.8015 35.9214C45.6738 35.5924 45.4182 35.2635 45.1627 35.0003C44.9072 34.7372 44.5878 34.5398 44.2045 34.4082C43.8213 34.2767 43.438 34.2109 42.9908 34.2109C42.4798 34.2109 41.9688 34.2766 41.5855 34.474C41.2022 34.6714 40.7551 34.9345 40.4357 35.2635C40.1163 35.5924 39.7969 35.9872 39.5414 36.3819C39.2858 36.7767 39.0942 37.2372 38.9026 37.6977C38.7109 38.1582 38.5832 38.6845 38.3915 39.2766C38.2638 39.6714 38.1999 40.0661 38.1999 40.3951C37.5611 41.053 37.0501 41.8424 36.3474 42.5003C35.9002 42.8951 35.517 43.224 35.1976 43.4872C34.8782 43.7503 34.5588 43.9477 34.3033 44.0135C34.0478 44.1451 33.7922 44.2108 33.6006 44.2108C33.0896 44.2108 32.7702 44.0793 32.5146 43.7503C32.323 43.4214 32.1952 43.0266 32.1952 42.5003C32.1952 41.8424 32.2591 41.1187 32.4508 40.2635C32.7702 38.5529 32.9618 37.5003 33.0895 37.1056C33.3451 37.0398 33.6006 37.0398 33.8561 36.974C34.1116 36.9082 34.3671 36.9082 34.6227 36.8424C34.8782 36.8424 35.0059 36.7766 35.1337 36.7766C35.2614 36.7766 35.3253 36.7766 35.3892 36.7766C35.4531 36.7766 35.4531 36.7766 35.4531 36.7766H35.517C35.5808 36.7766 35.6447 36.7766 35.7086 36.7766C35.7725 36.7766 35.9641 36.7767 36.1558 36.7109C36.2835 36.7109 36.3474 36.7108 36.4752 36.645C36.6029 36.645 36.7307 36.5793 36.7946 36.5135C36.9223 36.4477 36.9862 36.3819 37.0501 36.2503C37.1139 36.1187 37.1778 35.9872 37.1778 35.8556C37.1778 35.724 37.1778 35.5924 37.1139 35.4608C37.1139 35.3293 37.0501 35.2635 36.9223 35.1319C36.8584 35.0661 36.7307 35.0003 36.6029 34.9345C36.4751 34.8687 36.2835 34.8688 36.028 34.8688C35.9641 34.8688 35.9002 34.8688 35.8364 34.8688C35.7725 34.8688 35.7086 34.8688 35.5809 34.8688C35.3892 34.8688 35.1337 34.9345 34.7504 34.9345C34.3671 34.9345 34.0478 35.0003 33.6645 35.0661C33.8561 34.474 34.0477 33.8819 34.2394 33.224C34.431 32.6319 34.6227 32.0398 34.8143 31.4477C35.0059 30.8556 35.1976 30.2635 35.3892 29.7372C35.5808 29.2108 35.7725 28.6845 35.9641 28.1582C36.0919 27.8951 36.1558 27.6319 36.1558 27.3687C36.1558 27.1056 36.2196 26.9082 36.2196 26.7109C36.2196 26.5135 36.1558 26.3161 36.0919 26.1845C36.028 26.053 35.9641 25.9214 35.8364 25.7898C35.7086 25.724 35.5808 25.5924 35.4531 25.5924C35.3253 25.5266 35.1337 25.5266 34.9421 25.5266C34.5588 25.5266 34.1755 25.6582 33.8561 25.9214C33.5367 26.1845 33.3451 26.5135 33.1534 26.974C32.5785 28.3556 32.1314 29.6714 31.6203 31.1188C31.1732 32.5003 30.726 33.8819 30.3427 35.1977C29.3846 35.2635 28.3625 35.3293 27.4043 35.3951C26.4461 35.4609 25.5518 35.5266 24.7853 35.5924C24.9769 34.8687 25.2324 34.2108 25.424 33.4872C25.6157 32.8293 25.8073 32.1714 25.9351 31.5793C26.0628 30.9872 26.1906 30.3951 26.2545 29.9346C26.3184 29.4082 26.3822 29.0135 26.3822 28.6188C26.3822 27.8951 26.2545 27.2372 26.0628 26.7109C25.8712 26.1845 25.5518 25.7898 25.1685 25.4608C24.7853 25.1319 24.402 24.8687 23.8909 24.7372C23.3799 24.6056 22.8689 24.5398 22.3578 24.5398C21.9746 24.5398 21.5913 24.6056 21.208 24.6714C20.7609 24.7372 20.3776 24.8687 19.9304 25.0661C19.4833 25.2635 19.1 25.4609 18.6529 25.724C18.2696 25.9872 17.8863 26.2503 17.5669 26.5793C17.2475 26.9082 16.992 27.2372 16.8004 27.5661C16.6087 27.9608 16.5448 28.3556 16.5448 28.7503C16.5448 29.0793 16.5448 29.3424 16.6087 29.5398C16.6087 29.7372 16.6726 29.8687 16.7365 29.8687C16.8642 29.8687 16.992 29.8688 17.1197 29.803C17.2475 29.7372 17.4392 29.6056 17.6308 29.474C18.1418 29.0793 18.589 28.6845 19.0361 28.4214C19.4833 28.1582 19.8666 27.8951 20.2498 27.6977C20.6331 27.5003 20.9525 27.3688 21.2719 27.303C21.5913 27.2372 21.8468 27.1714 22.0385 27.1714C22.294 27.1714 22.5495 27.2372 22.7411 27.303C22.9328 27.4346 23.0605 27.5661 23.1883 27.6977C23.316 27.8951 23.3799 28.0924 23.4438 28.3556C23.5077 28.6187 23.5077 28.8819 23.5077 29.2108C23.5077 29.6056 23.4438 30.0003 23.3799 30.395C23.316 30.7898 23.1883 31.2503 23.0605 31.6451C22.9328 32.1056 22.6772 32.7635 22.3578 33.6187C22.2301 34.0135 21.7829 35.9214 21.2719 35.9214C21.208 35.9214 21.0803 35.9214 21.0164 35.9214C18.7167 35.9214 16.4171 35.9872 14.1813 35.9872C11.9455 35.9872 9.77364 35.8556 7.53787 35.8556C7.02683 35.8556 6.96297 35.2635 6.51581 35.1319C6.00478 35.0661 5.55762 35.6582 5.49374 36.1187C5.42986 36.5135 5.49374 36.974 5.74926 37.3688C5.94089 37.6977 6.32417 38.0267 6.70744 38.0267C10.9235 38.224 15.1395 38.0924 19.3555 38.0267C19.6749 38.0267 19.9304 38.0267 20.2498 38.0267C21.0803 38.0267 19.611 41.5793 19.4833 41.7767C19.0361 42.9609 18.6528 44.1451 18.3973 45.3951C18.3973 45.5267 18.3335 45.6582 18.3335 45.724C18.3335 45.9214 18.3973 46.053 18.4612 46.2503C18.5251 46.3819 18.6529 46.5135 18.7806 46.6451C18.9084 46.7766 19.1 46.8424 19.2278 46.9082C19.4194 46.974 19.611 46.974 19.7388 46.974C19.9943 46.974 20.3137 46.8424 20.697 46.5135C20.8886 46.3161 21.2719 45.724 21.8468 44.6714C21.9746 44.4082 22.1023 44.0135 22.294 43.5529C22.4856 43.0924 22.6134 42.5661 22.805 41.974C22.9966 41.3819 23.1883 40.7898 23.4438 40.0661C23.6354 39.4082 23.891 38.6845 24.0826 38.0267C25.0408 37.9609 25.9351 37.8293 26.8933 37.7635C27.8515 37.6319 28.8097 37.5661 29.8317 37.4345C29.704 38.0266 29.5123 38.6845 29.3846 39.3424C29.2568 40.0003 29.129 40.5267 29.0652 40.9872C29.0013 41.4477 28.9374 41.8424 28.8735 42.1714C28.8097 42.5003 28.8097 42.8293 28.8097 43.0266C28.8097 43.6187 28.8735 44.2108 29.0652 44.6714C29.2568 45.1319 29.4484 45.5924 29.7678 45.9214C30.0872 46.2503 30.4066 46.5135 30.8538 46.7109C31.2371 46.9082 31.6842 46.974 32.1952 46.974C32.6424 46.974 33.0896 46.9082 33.6006 46.7766C34.1116 46.6451 34.6227 46.3819 35.1337 46.1187C35.7086 45.7898 36.2196 45.4608 36.7946 45.0003C37.3695 44.5398 37.9444 44.0793 38.5193 43.4872L38.5832 43.4214C38.7109 43.8161 38.9026 44.1451 39.1581 44.4082C39.5413 44.8688 39.9885 45.2635 40.4995 45.5266C41.0106 45.7898 41.6494 45.9214 42.352 45.9214C42.7992 45.9214 43.2463 45.8556 43.6935 45.7898C44.1407 45.6582 44.5878 45.5266 44.9711 45.3293C45.3544 45.1319 45.8015 44.9346 46.1848 44.7372C46.3764 44.6056 46.5681 44.474 46.7597 44.3424C46.8875 44.6056 47.0791 44.8688 47.2707 45.0661C47.5263 45.3293 47.8456 45.5924 48.165 45.724C48.4844 45.8556 48.8677 45.9872 49.251 45.9872C49.5704 45.9872 49.9537 45.9214 50.2731 45.7898C50.5925 45.6582 50.9757 45.5266 51.2951 45.3293C51.6145 45.1319 51.9339 44.9346 52.1894 44.7372C52.445 44.5398 52.7005 44.2767 52.8921 44.0793C53.1476 44.7372 53.4032 45.1977 53.7864 45.5266C54.1058 45.8556 54.553 46.053 55.064 46.053C55.5112 46.053 55.8944 45.9214 56.3416 45.724C56.7888 45.5267 57.172 45.2635 57.4914 44.9345C57.8747 44.6056 58.1941 44.2767 58.4496 43.9477C58.5135 43.8819 58.5774 43.8161 58.6412 43.7503C58.6412 43.8161 58.7051 43.8819 58.7051 43.9477C58.9606 44.5398 59.28 45.0661 59.5994 45.3951C59.9827 45.7898 60.3021 45.9214 60.7493 45.9214C61.0048 45.9214 61.3242 45.8556 61.5797 45.7898C61.8991 45.724 62.2185 45.5924 62.5379 45.5266C62.8573 45.395 63.1767 45.2635 63.4961 45.1319C63.8155 45.0003 64.1348 44.803 64.3904 44.6714C64.7736 44.474 65.2208 44.2109 65.6041 43.9477C65.8596 44.5398 66.2429 45.0661 66.6261 45.3951C67.0733 45.724 67.5843 45.9214 68.1592 45.9214C68.4148 45.9214 68.7342 45.8556 69.1174 45.724C69.4368 45.5924 69.884 45.4608 70.3311 45.1977C70.7783 45.0003 71.2893 44.6714 71.8642 44.3424C72.1836 44.1451 72.503 44.0135 72.8224 43.7503C72.8224 43.8819 72.8224 44.0793 72.8224 44.2108C72.8224 44.474 72.8863 44.7372 72.9502 45.0003C73.0141 45.2635 73.1418 45.395 73.2696 45.5266C73.3973 45.6582 73.589 45.724 73.8445 45.724C74.0361 45.724 74.1639 45.6582 74.2916 45.5924C74.4194 45.5267 74.5472 45.3951 74.611 45.2635C74.7388 45.1319 74.8027 44.8688 74.9304 44.6056C75.0582 44.3424 75.1859 44.0135 75.3137 43.6845C75.6331 42.9608 76.0164 42.303 76.4635 41.6451C76.8468 40.9872 77.294 40.3951 77.6772 39.8687C78.0605 39.3424 78.4438 38.8819 78.6993 38.553C79.0187 38.224 79.2104 37.9609 79.3381 37.8951L79.5936 37.9608C79.5936 37.9608 79.5297 38.0924 79.4659 38.224C79.402 38.3556 79.2742 38.553 79.2103 38.8161C79.0826 39.0793 79.0187 39.3424 78.8909 39.6056C78.7632 39.9345 78.6354 40.1977 78.5716 40.5266C78.4438 40.8556 78.3799 41.1846 78.316 41.4477C78.2522 41.7767 78.1883 42.0398 78.1883 42.303C78.1883 42.6319 78.2522 43.0267 78.316 43.4214C78.4438 43.8161 78.5715 44.2108 78.7632 44.5398C78.9548 44.8687 79.2103 45.1319 79.5297 45.3951C79.8491 45.5924 80.2324 45.724 80.6157 45.724C80.8712 45.724 81.1906 45.6582 81.4461 45.5924C81.7655 45.5267 82.021 45.3951 82.3404 45.2635C82.6598 45.1319 82.9153 45.0003 83.2347 44.803C83.5541 44.6056 83.8096 44.474 84.0652 44.2767C84.2568 44.1451 84.4484 44.0135 84.6401 43.8819C84.9595 44.6714 85.5344 45.3951 86.3648 45.6582C87.5785 46.053 88.7922 45.3293 89.8143 44.474C89.8143 44.9345 89.6865 45.3951 89.431 45.7898C89.0477 46.4477 88.409 47.0398 87.8979 47.5661C87.0036 48.4872 86.1732 49.5398 85.4705 50.6582C85.0233 51.3819 84.6401 52.1056 84.5123 52.9609C84.3846 53.7503 84.4484 54.6714 84.8956 55.3951C85.6621 56.6451 87.3869 56.974 88.6645 56.3819C89.942 55.7898 90.8364 54.474 91.2835 53.0924C91.7307 51.7108 91.7945 50.1977 91.9223 48.7503C91.9223 48.2898 91.9862 47.8293 92.1778 47.3688C92.4333 46.8424 92.8805 46.5135 93.3277 46.1845C97.352 43.0924 100.482 38.8161 103.74 35.0003C103.932 34.8029 104.059 34.6056 104.123 34.3424C104.507 34.2766 104.443 34.0793 104.443 33.9477ZM40.9467 39.6056C40.9467 39.3424 41.0106 39.0793 41.1383 38.6845C41.2661 38.2898 41.3938 38.0266 41.4577 37.7635C41.5216 37.5003 41.6494 37.303 41.841 37.1056C41.9688 36.9082 42.2243 36.7766 42.4159 36.645C42.6714 36.5135 42.927 36.4477 43.2464 36.4477C43.438 36.4477 43.5657 36.5793 43.6935 36.7766C43.8213 36.974 43.8851 37.3029 43.8851 37.6319C43.8851 37.895 43.7574 38.1582 43.5019 38.553C43.2464 38.9477 42.9908 39.2109 42.6714 39.474C42.352 39.7372 42.0965 39.8688 41.7771 40.0003C41.4577 40.1319 41.1383 40.1977 40.8828 40.1977C40.8828 40.0661 40.8828 39.8029 40.9467 39.6056ZM52.2533 40.1977C52.2533 40.4609 52.1256 40.7898 52.0617 41.1188C51.9339 41.5135 51.8062 41.8424 51.6784 42.2372C51.4868 42.5661 51.2951 42.8951 51.1035 43.1582C50.848 43.4214 50.5925 43.5529 50.3369 43.5529C50.1453 43.5529 50.0176 43.4872 49.8898 43.4214C49.762 43.3556 49.6982 43.224 49.6343 43.0266C49.5704 42.8951 49.5065 42.6977 49.5065 42.5003C49.5065 42.303 49.4426 42.1056 49.4426 41.9082L49.5065 41.8424L49.4426 41.7767C49.4426 41.4477 49.5065 41.1188 49.5704 40.7898C49.6343 40.3951 49.8259 39.9345 50.0175 39.4082C50.2092 38.8819 50.4647 38.4872 50.6563 38.0924C50.848 37.7635 51.1035 37.4346 51.359 37.1714C51.6145 36.9082 51.8701 36.7109 52.1894 36.5135C52.5088 36.3819 52.7644 36.2503 53.0838 36.2503L52.2533 40.1977ZM61.1964 33.6845C61.388 32.6319 61.5158 32.1056 61.5158 32.1056C61.5158 32.1056 61.7074 31.5135 62.0268 30.395C62.3462 29.2766 62.6656 28.4214 62.9211 27.8951C63.1767 27.3687 63.4322 26.974 63.6238 26.7109C63.8793 26.3819 64.071 26.2503 64.3265 26.2503C64.3904 26.2503 64.3904 26.3161 64.4542 26.5135C64.4542 26.6451 64.4542 26.8424 64.4542 27.1056C64.3904 27.8293 64.1987 28.6187 63.9432 29.4082C63.6877 30.2635 63.3683 31.053 63.0489 31.9082C62.9212 32.303 62.7295 32.6977 62.5379 33.0266C62.3462 33.0266 62.2185 33.0924 62.0907 33.1582C61.963 33.224 61.8352 33.2898 61.8352 33.4214C61.8352 33.4872 61.8352 33.6187 61.8352 33.6845C61.8352 33.8161 61.8991 33.8819 61.8991 34.0135C61.8991 34.0793 61.963 34.0793 61.963 34.1451C61.963 34.2108 61.8991 34.2766 61.8991 34.3424C61.5158 35.1319 61.1325 35.8556 60.8131 36.4477C60.877 35.6582 61.0048 34.7372 61.1964 33.6845ZM64.0071 41.9082C63.8155 42.0398 63.5599 42.1714 63.3683 42.303C63.1128 42.4345 62.9212 42.5661 62.7295 42.6977C62.5379 42.8293 62.2824 42.8951 62.0907 42.9609C61.8991 43.0267 61.7074 43.0266 61.5797 43.0266C61.5158 43.0266 61.4519 42.9608 61.388 42.895C61.3242 42.8293 61.2603 42.6977 61.1964 42.5003C61.1325 42.3687 61.0687 42.1714 61.0687 41.974C61.0048 41.7767 61.0048 41.5793 61.0048 41.3819V41.1845C61.0048 41.053 61.0687 40.8556 61.0687 40.724C61.1325 40.5266 61.1325 40.395 61.1964 40.2635C61.2603 40.1319 61.2603 40.0003 61.3242 39.8687C61.388 39.7372 61.3881 39.6714 61.4519 39.5398C61.8352 38.8161 62.2185 38.0924 62.6017 37.3688C63.0489 36.6451 63.4322 35.8556 63.8155 35.0661C63.8793 34.9345 64.0071 34.7372 64.071 34.6056C64.1987 34.6056 64.3265 34.6714 64.4542 34.6714C64.582 34.6714 64.7737 34.7372 64.9653 34.7372C64.9014 35.2635 64.8375 35.7898 64.8375 36.3161C64.7736 36.8424 64.7736 37.3688 64.7736 37.8293C64.7736 39.0135 64.8375 40.1319 64.9653 41.053C64.6459 41.4477 64.3265 41.7108 64.0071 41.9082ZM65.2847 32.9609C65.2208 32.9609 65.093 32.9609 64.9014 32.9609C64.9014 32.8951 64.9653 32.8293 64.9653 32.7635C65.2208 32.2372 65.4763 31.6451 65.7318 31.1188C65.6041 31.7766 65.4124 32.3687 65.2847 32.9609ZM67.9037 31.1188C68.0954 30.4609 68.2231 29.8688 68.4148 29.2767C68.6064 28.7503 68.798 28.2898 68.9897 27.8951C69.1813 27.5661 69.3729 27.3687 69.5646 27.3687C69.6923 27.3687 69.8201 27.3687 69.884 27.4345C69.9479 27.5003 70.0117 27.5661 70.0756 27.6977C70.1395 27.7635 70.1395 27.8951 70.1395 28.0266C70.1395 28.1582 70.1395 28.224 70.1395 28.2898C70.1395 28.553 70.0756 28.8819 69.9479 29.2108C69.8201 29.6056 69.6285 30.0003 69.4368 30.4609C69.2452 30.9214 68.9897 31.3819 68.798 31.8424C68.5425 32.3029 68.287 32.7635 68.0954 33.1582C67.9676 33.1582 67.8398 33.1582 67.7121 33.1582C67.5843 33.1582 67.4566 33.1582 67.3927 33.1582C67.6482 32.4345 67.776 31.7766 67.9037 31.1188ZM73.0141 38.3556C72.9502 39.3424 72.9502 40.2635 72.8863 41.1188C72.6947 41.3161 72.4392 41.4477 72.2475 41.6451C71.9281 41.8424 71.6087 42.1056 71.2893 42.2372C70.9699 42.4345 70.6505 42.5661 70.395 42.6977C70.1395 42.8293 69.8201 42.9608 69.6285 43.0266C69.3729 43.0924 69.1813 43.1582 69.0536 43.1582C68.798 43.1582 68.5425 43.0924 68.3509 43.0266C68.1592 42.9608 67.9676 42.8293 67.8399 42.6319C67.7121 42.4345 67.5843 42.2372 67.5205 41.9082C67.4566 41.645 67.3927 41.2503 67.3927 40.8556C67.3927 40.6582 67.3927 40.5267 67.3927 40.3293C67.3927 40.1319 67.3927 39.9345 67.3927 39.7372C67.3927 39.5398 67.3927 39.3424 67.3927 39.0793C67.3927 38.8819 67.3927 38.6845 67.3927 38.4214C67.3927 37.9608 67.4566 37.5003 67.4566 36.974C67.6482 36.7108 67.8398 36.4477 68.0954 36.1846C68.3509 35.8556 68.5425 35.5924 68.798 35.2635H73.2057C73.2696 35.2635 73.3334 35.2635 73.3334 35.2635C73.2057 36.3161 73.0779 37.303 73.0141 38.3556ZM76.0803 35.8556C75.8247 36.4477 75.6331 36.974 75.3776 37.4345C75.4415 36.5135 75.5692 35.6582 75.7609 34.6714C75.8247 34.2766 75.8886 33.8819 75.9525 33.4214C76.0164 32.9609 76.0803 32.5003 76.1441 32.0398C76.208 31.5793 76.2719 31.1187 76.3997 30.6582C76.5274 30.1977 76.6552 29.7372 76.7829 29.3424C77.294 28.0924 77.7411 27.1056 78.1244 26.4477C78.5077 25.7898 78.8271 25.4608 79.0187 25.4608C79.2104 25.4608 79.2742 25.7898 79.2742 26.3819C79.2742 26.7766 79.1465 27.3687 78.9548 28.224C78.7632 29.0793 78.4438 30.0661 77.9966 31.2503C77.8689 31.5793 77.6772 32.0398 77.4856 32.5661C77.294 33.0924 77.0384 33.6187 76.8468 34.1451C76.5274 34.6714 76.3358 35.2635 76.0803 35.8556ZM89.7504 49.6056C89.6865 50.0003 89.6865 50.3293 89.6226 50.5924C89.5588 50.8556 89.5588 51.1188 89.4949 51.3819C89.3671 51.7766 89.3033 52.1714 89.1755 52.3688C89.0477 52.5661 88.9839 52.8951 88.92 53.1582C88.7922 53.4214 88.7284 53.6187 88.6006 53.7503C88.5367 53.8819 88.409 54.0135 88.2812 54.1451C88.1534 54.2767 88.0257 54.3424 87.8979 54.4082C87.7702 54.474 87.5785 54.474 87.3869 54.474C86.8758 54.474 86.7481 54.0793 87.0036 53.3556C87.323 52.4345 87.7063 51.5793 88.2173 50.724C88.7283 49.8688 89.2394 49.2108 89.8143 48.8161C89.8143 48.9477 89.8143 49.2108 89.7504 49.6056Z" fill="#4AA760"/>
<path d="M32.77 52.6313H35.0697C35.6446 52.6313 36.1556 52.7629 36.475 53.0918C36.7944 53.355 36.9861 53.8155 36.9861 54.3419C36.9861 54.8682 36.7944 55.2629 36.475 55.5919C36.1556 55.9208 35.7085 56.0524 35.0697 56.0524H33.4088V58.6839H32.77V52.6313ZM35.0058 55.3945C35.4529 55.3945 35.7723 55.3287 35.964 55.1313C36.1556 54.934 36.2834 54.6708 36.2834 54.3419C36.2834 54.0129 36.1556 53.684 35.964 53.5524C35.7723 53.355 35.4529 53.2892 35.0058 53.2892H33.4088V55.4603H35.0058V55.3945Z" fill="#4AA760"/>
<path d="M43.3741 58.5524H42.6714L41.9687 56.5787C41.9048 56.3156 41.7771 56.184 41.5854 56.1182C41.4577 56.0524 41.2022 55.9866 40.9466 55.9866H39.4774V58.5524H38.8386V52.6313H41.1383C41.7771 52.6313 42.2242 52.7629 42.5436 53.0261C42.863 53.2892 43.0547 53.7498 43.0547 54.2761C43.0547 54.6708 42.9269 54.9998 42.7353 55.2629C42.5436 55.5261 42.2242 55.7234 41.9048 55.855C42.0965 55.855 42.2242 55.9866 42.352 56.0524C42.4797 56.1839 42.5436 56.3156 42.6714 56.5787L43.3741 58.5524ZM41.0744 55.3945C41.9687 55.3945 42.4159 54.9998 42.4159 54.2761C42.4159 53.8813 42.2881 53.6182 42.0965 53.4866C41.9048 53.2892 41.5215 53.2234 41.0744 53.2234H39.4774V55.4603H41.0744V55.3945Z" fill="#4AA760"/>
<path d="M46.2486 58.2895C45.8653 58.0263 45.5459 57.6974 45.3543 57.2369C45.1627 56.7763 45.0349 56.25 45.0349 55.5921C45.0349 55 45.1627 54.4079 45.3543 53.9474C45.5459 53.4869 45.8653 53.1579 46.2486 52.8947C46.6319 52.6316 47.0791 52.5 47.654 52.5C48.165 52.5 48.676 52.6316 49.0593 52.8947C49.4426 53.1579 49.762 53.4869 49.9536 53.9474C50.1453 54.4079 50.273 54.9342 50.273 55.5263C50.273 56.1184 50.1453 56.7105 49.9536 57.171C49.762 57.6316 49.4426 57.9605 49.0593 58.2237C48.676 58.4869 48.2289 58.6184 47.654 58.6184C47.0791 58.6184 46.6319 58.5526 46.2486 58.2895ZM49.0593 57.4342C49.3787 56.9737 49.5703 56.3816 49.5703 55.5921C49.5703 54.8026 49.3787 54.2105 49.0593 53.75C48.7399 53.3552 48.2289 53.0921 47.654 53.0921C47.0791 53.0921 46.568 53.2894 46.2486 53.75C45.9292 54.1447 45.7376 54.8026 45.7376 55.5263C45.7376 56.3158 45.9292 56.9079 46.2486 57.3684C46.568 57.8289 47.0791 58.0263 47.654 58.0263C48.2289 58.0921 48.676 57.8289 49.0593 57.4342Z" fill="#4AA760"/>
<path d="M52.2532 52.6313H54.1695C55.0639 52.6313 55.8304 52.8945 56.3415 53.4208C56.8525 53.9471 57.108 54.6708 57.108 55.5919C57.108 56.5129 56.8525 57.3024 56.3415 57.7629C55.8304 58.2892 55.1277 58.5524 54.1695 58.5524H52.2532V52.6313ZM54.1695 58.0261C54.9361 58.0261 55.4471 57.8287 55.8304 57.434C56.2137 57.0392 56.4053 56.4471 56.4053 55.6576C56.4053 54.0787 55.6388 53.2892 54.1695 53.2892H52.9558V58.0261H54.1695Z" fill="#4AA760"/>
<path d="M59.663 58.0261C59.2798 57.6313 59.0881 57.0392 59.0881 56.2498V52.6313H59.7269V56.3155C59.7269 56.9076 59.8547 57.3024 60.1102 57.6313C60.3657 57.8945 60.8129 58.0919 61.3239 58.0919C61.8349 58.0919 62.2821 57.9603 62.5376 57.6313C62.7931 57.3682 62.9209 56.9076 62.9209 56.3155V52.6313H63.5597V56.2498C63.5597 57.0392 63.368 57.6313 62.9848 58.0261C62.6015 58.4208 62.0266 58.6182 61.26 58.6182C60.6212 58.6182 60.0463 58.4208 59.663 58.0261Z" fill="#4AA760"/>
<path d="M66.8816 58.2895C66.4983 58.0263 66.1789 57.6974 65.9234 57.2369C65.7318 56.7763 65.604 56.25 65.604 55.5921C65.604 55 65.7318 54.4079 65.9234 53.9474C66.115 53.4869 66.4344 53.1579 66.8816 52.8947C67.2649 52.6316 67.7759 52.5 68.2869 52.5C68.6702 52.5 69.0535 52.5658 69.3729 52.6974C69.6923 52.8289 70.0117 53.0263 70.2033 53.2895L69.9478 53.8158C69.6923 53.5526 69.3729 53.4211 69.1174 53.2895C68.8618 53.1579 68.5424 53.1579 68.223 53.1579C67.5842 53.1579 67.0732 53.3553 66.7538 53.8158C66.4344 54.2105 66.2428 54.8684 66.2428 55.5921C66.2428 56.3816 66.4344 56.9737 66.7538 57.4342C67.0732 57.8289 67.5842 58.0921 68.223 58.0921C68.5424 58.0921 68.8618 58.0263 69.1174 57.9605C69.3729 57.8289 69.6284 57.6974 69.9478 57.4342L70.2033 57.9605C69.9478 58.2237 69.6923 58.4211 69.3729 58.5526C69.0535 58.6842 68.6702 58.75 68.2869 58.75C67.7759 58.6184 67.2649 58.5526 66.8816 58.2895Z" fill="#4AA760"/>
<path d="M73.5249 58.5524V53.2234H71.5447V52.6313H76.2079V53.2234H74.2276V58.5524H73.5249Z" fill="#4AA760"/>
<path d="M55 80C40.3717 80 26.5737 75.8553 16.1614 68.3553C5.74912 60.7895 0 50.7237 0 40C0 29.2763 5.74912 19.2105 16.1614 11.6447C26.5099 4.14471 40.3078 0 55 0C69.6283 0 83.4262 4.14471 93.8385 11.6447C104.251 19.2105 110 29.2763 110 40C110 50.7237 104.251 60.7895 93.8385 68.3553C83.4901 75.8553 69.6922 80 55 80ZM55 0.921029C25.1684 0.921029 0.958188 18.421 0.958188 40C0.958188 61.5132 25.2323 79.0789 55 79.0789C84.8316 79.0789 109.042 61.5789 109.042 40C109.042 18.4868 84.8316 0.921029 55 0.921029Z" fill="#4AA760"/>
</svg>
