<svg width="81" height="81" viewBox="0 0 81 81" fill="none" xmlns="../../../../../external.html?link=http://www.w3.org/2000/svg">
<path d="M79.7897 39.099L76.6146 35.24L78.715 30.6484C79.0081 30.0134 78.8127 29.2807 78.2265 28.8899L74.1234 25.959L74.9537 20.9766C75.0514 20.2927 74.6607 19.6088 74.0257 19.3646L69.3363 17.6061L68.8478 12.6237C68.799 11.9398 68.2128 11.4025 67.5289 11.3048L62.5465 10.8163L60.788 6.12692C60.5437 5.4919 59.8599 5.10114 59.176 5.19884L54.1936 6.02925L51.2627 1.92605C50.8719 1.33988 50.0904 1.14449 49.5042 1.43757L44.9125 3.53801L41.0536 0.362924C40.5163 -0.0767037 39.7347 -0.0767037 39.1974 0.362924L35.3384 3.53801L30.7468 1.43757C30.1117 1.14449 29.379 1.33988 28.9883 1.92605L26.0574 6.02925L21.075 5.19884C20.3911 5.10114 19.7072 5.4919 19.463 6.12692L17.7045 10.8163L12.7221 11.3048C12.0382 11.3536 11.5009 11.9398 11.4032 12.6237L10.9147 17.6061L6.22534 19.3646C5.59032 19.6088 5.19953 20.2927 5.29723 20.9766L6.12764 25.959L2.02444 28.8899C1.43827 29.2807 1.24288 30.0622 1.53596 30.6484L3.6364 35.24L0.461312 39.099C0.0216849 39.6363 0.0216849 40.4179 0.461312 40.9552L3.6364 44.8141L1.53596 49.4058C1.24288 50.0408 1.43827 50.7735 2.02444 51.1643L6.12764 54.0952L5.29723 59.0776C5.19953 59.7615 5.59032 60.4453 6.22534 60.6896L10.9147 62.4481L11.4032 67.4305C11.452 68.1144 12.0382 68.6517 12.7221 68.7494L17.7045 69.2379L19.463 73.9273C19.7072 74.5623 20.3911 74.953 21.075 74.8554L26.0574 74.0249L28.9883 78.1281C29.379 78.7143 30.1606 78.9097 30.7468 78.6166L35.3384 76.5162L39.1974 79.6913C39.4416 79.9355 39.7836 80.0332 40.1255 80.0332C40.4674 80.0332 40.7605 79.9355 41.0536 79.6913L44.9125 76.5162L49.5042 78.6166C50.1392 78.9097 50.8719 78.7143 51.2627 78.1281L54.1936 74.0249L59.176 74.8554C59.8599 74.953 60.5437 74.5623 60.788 73.9273L62.5465 69.2379L67.5289 68.7494C68.2128 68.7006 68.7501 68.1144 68.8478 67.4305L69.3363 62.4481L74.0257 60.6896C74.6607 60.4453 75.0514 59.7615 74.9537 59.0776L74.1234 54.0952L78.2265 51.1643C78.8127 50.7735 79.0081 49.992 78.715 49.4058L76.6146 44.8141L79.7897 40.9552C80.2293 40.4179 80.2293 39.6363 79.7897 39.099ZM40.1255 73.048C21.9054 73.048 7.10459 58.2961 7.10459 40.0271C7.10459 21.807 21.8565 7.0062 40.1255 7.0062C58.3456 7.0062 73.1464 21.7581 73.1464 40.0271C73.0976 58.2472 58.3456 73.048 40.1255 73.048Z" fill="#4AA760"/>
<path d="M40.1255 23.4678L41.3467 27.2779H45.3522L42.1283 29.6226L43.3495 33.4327L40.1255 31.088L36.8527 33.4327L38.1228 29.6226L34.85 27.2779H38.8555L40.1255 23.4678Z" fill="#4AA760"/>
<path d="M40.1255 71.7293C31.6749 71.7293 23.7127 68.4565 17.7045 62.4482C11.6962 56.44 8.42346 48.5267 8.42346 40.0272C8.42346 31.5766 11.6962 23.6145 17.7045 17.6062C23.7127 11.598 31.626 8.3252 40.1255 8.3252C48.5761 8.3252 56.5382 11.598 62.5465 17.6062C68.5547 23.6145 71.8275 31.5278 71.8275 40.0272C71.8275 48.4778 68.5547 56.44 62.5465 62.4482C56.5382 68.4076 48.5761 71.7293 40.1255 71.7293ZM40.1255 9.05791C31.8702 9.05791 24.1035 12.2819 18.2418 18.1436C12.3801 24.0053 9.15617 31.772 9.15617 40.0272C9.15617 48.2825 12.3801 56.0492 18.2418 61.9109C24.1035 67.7726 31.8702 70.9965 40.1255 70.9965C48.3807 70.9965 56.1474 67.7726 62.0091 61.9109C67.8708 56.0492 71.0948 48.2825 71.0948 40.0272C71.0948 31.772 67.8708 24.0053 62.0091 18.1436C56.1474 12.2819 48.3807 9.05791 40.1255 9.05791Z" fill="#4AA760"/>
<path d="M20.6354 30.1109C20.2446 30.3551 19.8049 30.4528 19.3653 30.4528C18.8768 30.4528 18.4372 30.3063 17.9487 30.0132C17.4603 29.7201 17.1183 29.427 16.8252 29.0362C16.581 28.6454 16.4344 28.2058 16.4344 27.7662C16.4344 27.3266 16.581 26.8381 16.8252 26.3984C17.0206 26.1054 17.216 25.8123 17.4603 25.5681C17.7045 25.3238 17.9976 25.1773 18.2418 25.1284L18.6815 25.7634C18.3884 25.8611 18.1441 26.0077 17.9487 26.2031C17.7533 26.3496 17.6068 26.5939 17.4603 26.7892C17.216 27.2289 17.1672 27.6685 17.3137 28.1081C17.4602 28.4989 17.8022 28.8897 18.3883 29.1828C18.9257 29.4758 19.4141 29.6224 19.8538 29.5247C20.2934 29.427 20.6354 29.1828 20.8796 28.7431C21.0261 28.4989 21.1238 28.2547 21.1238 28.0104C21.1727 27.7662 21.1727 27.4731 21.1238 27.18L21.9054 27.2289C21.9542 27.5219 22.0031 27.815 21.9054 28.157C21.8565 28.4989 21.71 28.8408 21.5634 29.1339C21.3192 29.5247 21.0261 29.9155 20.6354 30.1109Z" fill="#4AA760"/>
<path d="M24.0059 25.6168L20.2935 21.709L22.8824 19.2178L23.4197 19.7551L21.5146 21.5624L22.5404 22.6371L24.3478 20.9274L24.8851 21.4647L23.0778 23.1744L24.1524 24.2979L26.0575 22.4905L26.5948 23.0279L24.0059 25.6168Z" fill="#4AA760"/>
<path d="M32.5053 19.7065L31.5772 20.1461L30.1607 18.8761C30.0141 18.7784 29.9164 18.6807 29.7698 18.6807C29.6233 18.6807 29.4768 18.7296 29.2814 18.8273L28.4021 19.2669L29.4279 21.2696L28.5487 21.7093L26.1552 16.9222L28.2068 15.8964C28.7441 15.6033 29.2325 15.5545 29.6233 15.6522C30.0141 15.7499 30.356 16.043 30.5514 16.4826C30.698 16.8245 30.7468 17.1176 30.698 17.4107C30.6491 17.7038 30.5026 17.9969 30.2095 18.2411C30.5026 18.1434 30.8445 18.2411 31.1376 18.5342L32.5053 19.7065ZM29.1837 18.0457C29.5256 17.8992 29.721 17.7038 29.8187 17.5084C29.9164 17.313 29.9164 17.0688 29.7698 16.8245C29.6722 16.5803 29.4768 16.4337 29.2814 16.3849C29.086 16.336 28.7929 16.3849 28.451 16.5803L27.3763 17.1176L28.1091 18.583L29.1837 18.0457Z" fill="#4AA760"/>
<path d="M35.9246 18.8763L35.1431 14.3823L33.4334 14.6754L33.2869 13.8939L37.732 13.1123L37.8785 13.8939L36.1689 14.1869L36.9504 18.6809L35.9246 18.8763Z" fill="#4AA760"/>
<path d="M40.9071 18.4855L41.249 13.1123L42.226 13.1611L41.8841 18.5344L40.9071 18.4855Z" fill="#4AA760"/>
<path d="M44.6194 18.8761L46.1336 13.6982L49.5041 14.6752L49.3087 15.4079L46.8664 14.6752L46.4756 16.0918L48.7714 16.7757L48.5272 17.5084L46.2313 16.8245L45.5963 19.0715L44.6194 18.8761Z" fill="#4AA760"/>
<path d="M50.1392 20.9277L52.7281 16.2383L53.5585 16.7268L50.9696 21.4161L50.1392 20.9277Z" fill="#4AA760"/>
<path d="M53.3632 22.8815L56.9779 18.876L59.6645 21.2695L59.1272 21.8557L57.1733 20.0972L56.1963 21.2207L58.0525 22.8815L57.5152 23.4676L55.659 21.8068L54.5843 22.9791L56.5382 24.7377L56.0009 25.3239L53.3632 22.8815Z" fill="#4AA760"/>
<path d="M62.2045 24.4448L63.1814 26.1545C63.6211 26.936 63.7676 27.6199 63.6211 28.3038C63.4745 28.9388 63.0349 29.525 62.3022 29.9157C61.5695 30.3554 60.8856 30.4531 60.2017 30.3065C59.5667 30.1111 58.9805 29.6715 58.5409 28.89L57.564 27.1803L62.2045 24.4448ZM59.2248 28.4015C59.8598 29.4761 60.6902 29.6715 61.8137 29.0365C62.8883 28.4015 63.1326 27.5711 62.4975 26.4964L62.0091 25.666L58.7363 27.5711L59.2248 28.4015Z" fill="#4AA760"/>
<path d="M25.4713 34.898C25.0805 34.4584 24.592 34.0676 24.0058 33.8234C23.4197 33.5792 22.7847 33.4326 22.0031 33.4326C21.4658 33.4326 20.9285 33.4815 20.44 33.628C19.9515 33.7746 19.5119 33.9699 19.1211 34.2142C18.6815 34.4584 18.3395 34.7515 17.9976 35.0934C17.6557 35.4354 17.3626 35.8262 17.0695 36.2169C16.7764 36.6077 16.5322 37.0473 16.3368 37.487C16.1414 37.9266 15.946 38.415 15.7995 38.8547C15.6529 39.3432 15.5552 39.7828 15.5064 40.2713C15.4575 40.7597 15.4087 41.1994 15.4087 41.639C15.4087 42.4694 15.5064 43.251 15.7506 43.9348C15.9949 44.6187 16.2879 45.2537 16.6787 45.7422C17.0695 46.2307 17.6068 46.6214 18.193 46.9145C18.7792 47.2076 19.463 47.3542 20.1957 47.3542C20.8796 47.3542 21.5635 47.2076 22.1496 46.9634C22.7358 46.7191 23.2731 46.3284 23.7616 45.8887C24.2501 45.4491 24.6897 44.9118 25.0317 44.3256C25.4224 43.7394 25.7155 43.1044 25.9597 42.4694C26.204 41.8344 26.3994 41.1505 26.5459 40.4667C26.6925 39.7828 26.7413 39.1478 26.7413 38.5128C26.7413 37.7312 26.6436 37.0473 26.3994 36.4123C26.1551 35.875 25.862 35.3377 25.4713 34.898ZM24.7386 39.3432C24.6897 39.7339 24.6409 40.1247 24.5432 40.5155C24.4455 40.9063 24.3478 41.3459 24.2012 41.7367C24.0547 42.1763 23.9082 42.5671 23.7128 42.9579C23.5174 43.3487 23.322 43.6906 23.0778 44.0325C22.8335 44.3745 22.5893 44.6675 22.2962 44.9118C22.0031 45.156 21.71 45.3514 21.3681 45.498C21.0262 45.6445 20.6842 45.6933 20.2446 45.6933C19.7561 45.6933 19.3165 45.5956 18.9746 45.4003C18.5838 45.2049 18.2907 44.9606 17.9976 44.6187C17.7534 44.2768 17.5091 43.886 17.4114 43.4464C17.2649 43.0067 17.2161 42.4694 17.2161 41.9809C17.2161 41.4925 17.2649 40.9551 17.4114 40.4667C17.558 39.9293 17.7045 39.392 17.9488 38.9035C18.193 38.3662 18.4372 37.8777 18.7303 37.4381C19.0234 36.9496 19.3653 36.5589 19.7561 36.2169C20.1469 35.875 20.5377 35.5819 20.9285 35.3865C21.3681 35.1911 21.8077 35.0934 22.2473 35.0934C22.687 35.0934 23.0289 35.1911 23.3708 35.3377C23.6639 35.4842 23.957 35.7284 24.1524 36.0215C24.3478 36.3146 24.4943 36.6566 24.6408 37.0473C24.7385 37.4381 24.7874 37.8777 24.7874 38.3174C24.7874 38.6105 24.7874 38.9524 24.7386 39.3432Z" fill="#4AA760"/>
<path d="M57.8083 38.3173C58.0525 38.3173 58.2967 38.2684 58.4433 38.2196C58.6387 38.1707 58.7852 38.0731 58.8829 37.9265C58.9806 37.8288 59.0783 37.6823 59.1272 37.5357C59.176 37.3892 59.2249 37.2427 59.2249 37.0473C59.2249 36.8519 59.176 36.7053 59.1272 36.6076C59.0783 36.4611 58.9806 36.3634 58.8341 36.3145C58.7364 36.2169 58.5898 36.168 58.4433 36.1191C58.2967 36.0703 58.1502 36.0703 57.9548 36.0703C57.6617 36.0703 57.4663 36.1192 57.271 36.2168C57.0756 36.3145 56.929 36.4122 56.8313 36.5099C56.7336 36.6076 56.6359 36.7542 56.5871 36.9007C56.5382 37.0472 56.4894 37.145 56.4894 37.2915C56.4894 37.6334 56.5871 37.8777 56.7825 38.073C57.0756 38.2196 57.3686 38.3173 57.8083 38.3173Z" fill="#4AA760"/>
<path d="M65.0866 42.6158C64.8912 42.86 64.6958 43.0554 64.4027 43.3485C64.1585 43.5927 63.8654 43.837 63.5723 44.0324C63.2792 44.2277 62.9862 44.4231 62.6931 44.5697C62.4 44.7162 62.1558 44.7651 61.9115 44.7651C61.6673 44.7651 61.4719 44.7162 61.3254 44.6185C61.1788 44.5208 61.0323 44.3743 60.9346 44.2277C60.8369 44.0812 60.788 43.8858 60.7392 43.7392C60.6903 43.5439 60.6903 43.3973 60.6903 43.2019C60.6903 43.1042 60.6903 42.9577 60.6903 42.7623C60.6903 42.6158 60.7392 42.4204 60.788 42.225C60.8369 42.0296 60.8857 41.8342 60.9834 41.5411C61.0811 41.2969 61.1788 41.0526 61.2765 40.9061C61.3742 40.7596 61.5207 40.6619 61.6184 40.5642C61.765 40.4665 61.9115 40.4176 62.1558 40.4176C62.2535 40.4176 62.3023 40.4665 62.3023 40.5153C62.3511 40.613 62.3511 40.6619 62.3511 40.8084C62.3511 40.9549 62.3511 41.0038 62.3511 41.0526C62.2534 41.3457 62.2534 41.4923 62.2046 41.59C62.1558 41.7365 62.2046 41.8831 62.3023 42.0785C62.3511 42.1761 62.5465 42.2738 62.7908 42.2738C62.9373 42.2738 63.0838 42.225 63.2304 42.1762C63.3769 42.0785 63.4746 41.9808 63.6212 41.7365C63.7677 41.5411 63.8654 41.3457 63.9143 41.1992C63.9631 41.0527 63.9631 40.9061 63.9631 40.7107C63.9631 40.4665 63.9143 40.2711 63.8166 40.0757C63.7189 39.8803 63.5723 39.6849 63.377 39.5384C63.1816 39.3918 62.9861 39.2941 62.7419 39.1964C62.4977 39.0987 62.2046 39.0499 61.9115 39.0499C61.5696 39.0499 61.2765 39.0988 60.9834 39.2453C60.6903 39.343 60.4461 39.4895 60.2507 39.6849C60.0065 39.8803 59.8111 40.1246 59.6645 40.3688C59.518 40.613 59.3715 40.9061 59.2249 41.1992C59.1272 41.4923 58.9807 41.8342 58.883 42.1762C58.7853 42.5669 58.7364 42.86 58.7364 43.1531C58.7364 43.3973 58.7853 43.6416 58.8341 43.8858C58.7364 43.9835 58.6387 44.0324 58.541 44.1301C58.2968 44.2766 58.1014 44.4231 57.906 44.5697C57.7106 44.6674 57.5152 44.7651 57.3199 44.7651C57.1733 44.7651 57.0756 44.7162 57.0268 44.5697C56.9779 44.4231 56.9291 44.2766 56.9291 44.0812C56.9291 43.8858 56.9779 43.6416 57.0268 43.3485C57.0756 43.1042 57.1733 42.8112 57.2221 42.5669C57.271 42.3227 57.3687 41.9808 57.4664 41.59C57.6129 41.1992 57.7106 40.9061 57.7595 40.6619C57.8083 40.4176 57.906 40.2222 57.9549 40.0269C58.0037 39.8315 58.0526 39.6849 58.0526 39.5872C58.0526 39.4895 58.0037 39.3918 57.9549 39.2941C57.906 39.2453 57.7595 39.1964 57.5641 39.1964C57.4664 39.1964 57.3199 39.1965 57.1733 39.2453C57.0268 39.2942 56.8802 39.2941 56.7825 39.343C56.636 39.3918 56.5383 39.4895 56.4406 39.5384C56.3429 39.6361 56.2452 39.7338 56.2452 39.8803C56.1964 40.0269 56.0987 40.4176 55.9033 40.955C55.7079 41.6388 55.5613 42.0784 55.5125 42.2738C55.4636 42.3715 55.366 42.8112 55.2194 43.6416C55.2194 43.6416 55.2194 43.6416 55.2194 43.6904C55.1706 43.7393 55.0729 43.7881 55.024 43.7881C54.7309 43.9835 54.5355 44.0812 54.5355 44.0812C54.5355 44.0812 54.389 44.13 54.1936 44.3254C54.1448 44.3743 54.0471 44.4231 53.9005 44.472C53.8028 44.5208 53.7051 44.5208 53.6563 44.5208C53.5097 44.5208 53.3632 44.4231 53.3143 44.2277C53.2167 44.0323 53.2166 43.7881 53.2166 43.495C53.2166 43.2996 53.2167 43.1531 53.2655 42.9089C53.2655 42.7135 53.3144 42.5181 53.3632 42.2738C53.4121 42.0784 53.412 41.8342 53.4609 41.5411C53.5097 41.2969 53.5586 41.0526 53.5586 40.9061C53.6074 40.7596 53.6074 40.613 53.6563 40.4665C53.6563 40.3688 53.7051 40.2711 53.7051 40.2223C53.7051 39.8803 53.6563 39.5872 53.5098 39.3918C53.3632 39.1964 53.1678 39.0987 52.9236 39.0987C52.6793 39.0987 52.4351 39.1476 52.2397 39.2453C52.0443 39.343 51.8489 39.4895 51.7024 39.7826C51.6535 39.8315 51.6047 39.9292 51.5559 40.0269C51.507 40.1245 51.4093 40.2711 51.3116 40.4176C51.2139 40.5642 51.1162 40.7107 51.0185 40.9061C50.9208 41.0526 50.8231 41.248 50.7254 41.4923C50.6277 41.6877 50.5789 41.8831 50.4812 41.9808C50.4324 42.0784 50.3835 42.1761 50.3347 42.225H50.1881C50.1881 42.1761 50.1881 42.1273 50.1881 42.0296C50.1881 41.9319 50.237 41.7854 50.237 41.59C50.237 41.3946 50.2858 41.248 50.2858 41.0526C50.3346 40.9061 50.3347 40.7596 50.3347 40.613C50.3347 40.4665 50.3835 40.3199 50.3835 40.2223C50.3835 40.1246 50.3835 40.0268 50.3835 39.9292C50.3835 39.6849 50.3347 39.4895 50.237 39.2941C50.1393 39.1476 49.9439 39.0499 49.6997 39.0499C49.4554 39.0499 49.2112 39.0988 49.0646 39.2453C48.9181 39.3918 48.8204 39.5872 48.7715 39.7826C48.7227 40.0757 48.625 40.3688 48.5761 40.7596C48.4784 41.1503 48.4296 41.59 48.3808 42.0785C48.3319 42.3227 48.3319 42.5669 48.2831 42.8112C48.0877 43.0554 47.8923 43.2996 47.6481 43.495C47.5504 43.5927 47.4527 43.6904 47.3061 43.7881C47.2084 43.8858 47.0619 43.9835 46.9642 44.0324C46.8665 44.13 46.7199 44.1789 46.6222 44.2277C46.5245 44.2766 46.378 44.2766 46.2803 44.2766C46.1338 44.2766 46.0361 44.2277 45.9872 44.0812C45.9384 43.9835 45.9384 43.7881 45.9384 43.5927C45.9384 43.3485 45.9872 43.0554 46.0361 42.6646C46.1338 42.3227 46.1826 41.9808 46.2315 41.6877C46.2803 41.3946 46.3292 41.1015 46.378 40.8573C46.4268 40.5642 46.4757 40.3199 46.4757 40.1246C46.4757 39.978 46.4757 39.8803 46.4269 39.7826C46.378 39.6849 46.378 39.6361 46.3292 39.5872C46.2803 39.5384 46.2315 39.4895 46.1826 39.4895C46.1338 39.4895 46.0361 39.4895 45.9872 39.4895C45.9384 39.4895 45.8895 39.4895 45.8407 39.4895C45.7918 39.4895 45.743 39.4895 45.6942 39.4895C45.6453 39.4895 45.5476 39.4895 45.4988 39.4895C45.4499 39.4895 45.3522 39.4895 45.3034 39.4407C45.2545 39.4407 45.2057 39.3918 45.1568 39.343C45.108 39.2941 45.0591 39.2453 45.0103 39.1964C44.9614 39.1476 44.9126 39.0987 44.8637 39.0499C44.8149 39.0011 44.7172 39.0011 44.6195 39.0011C44.2776 39.0011 43.9356 39.0499 43.5937 39.1964C43.2518 39.343 42.9587 39.5384 42.6656 39.7338C42.3725 39.978 42.0794 40.2222 41.8352 40.5642C41.591 40.8572 41.3467 41.2481 41.1513 41.6877C40.956 42.1273 40.7606 42.5181 40.6629 42.86C40.614 43.0065 40.5652 43.1531 40.5652 43.2996C40.0278 44.0812 39.4905 44.6185 39.0509 44.9604C38.9043 45.0581 38.7578 45.1558 38.6113 45.2535C38.709 44.5208 38.7578 43.9346 38.7578 43.495C38.8067 43.0554 38.8555 42.6158 38.9532 42.2738C39.0509 41.883 39.1486 41.59 39.1486 41.3457C39.1974 40.5153 39.1974 40.0268 39.1486 39.9292C39.0997 39.8315 39.0997 39.7826 39.0509 39.7338C38.9532 39.5872 38.8067 39.5384 38.6113 39.5384H38.2693C38.2205 39.5384 38.1716 39.5384 38.0739 39.5384C38.0251 39.5384 37.9762 39.5384 37.9274 39.4895C37.8785 39.4895 37.8785 39.4407 37.8297 39.4407C37.7808 39.4407 37.7809 39.3918 37.732 39.3918C37.6832 39.343 37.6832 39.343 37.6832 39.343C37.6832 39.343 37.6343 39.2942 37.6343 39.2453C37.5855 39.1965 37.5855 39.1964 37.5855 39.1476C37.4878 39.0011 37.2924 38.9522 37.0481 38.9522C36.462 38.9522 35.8758 39.1965 35.2896 39.7338C34.8989 40.0757 34.5569 40.5153 34.2638 40.955C34.0684 41.2969 33.9219 41.6388 33.7265 42.0785C33.6288 42.1273 33.58 42.1762 33.4823 42.1762C33.238 42.2738 32.9938 42.3227 32.7984 42.3227C32.7007 42.3227 32.6519 42.3227 32.5542 42.2738C32.5053 42.225 32.4076 42.1761 32.3588 42.1273C32.3099 42.0784 32.2611 41.9808 32.2122 41.8342C32.1634 41.7365 32.1634 41.59 32.1634 41.3946C32.1634 41.2969 32.1634 41.1503 32.2122 41.0038C32.2611 40.8573 32.2611 40.6619 32.3099 40.4176C32.3588 40.1734 32.4076 40.0269 32.4076 39.8803C32.4565 39.7338 32.4565 39.6361 32.4565 39.5384C32.4565 39.4407 32.4565 39.343 32.4076 39.2453C32.3588 39.1476 32.3099 39.0987 32.2611 39.0499C32.2122 39.0011 32.1145 38.9522 32.0169 38.9034C31.9192 38.8545 31.8214 38.8545 31.7238 38.8545C31.4307 38.8545 31.2353 38.9034 30.991 39.0499C30.7956 39.1964 30.6003 39.343 30.4537 39.5384C30.3072 39.7338 30.1606 39.978 29.9653 40.2711C29.8187 40.5642 29.6722 40.8084 29.5745 41.0038H29.4768C29.4768 40.7596 29.4768 40.4665 29.4768 40.1734C29.5256 39.8803 29.5256 39.5872 29.5256 39.4407C29.5256 39.2941 29.5256 39.1964 29.5256 39.0987C29.5256 39.001 29.4768 38.9522 29.4768 38.9034C29.4279 38.8545 29.3791 38.8545 29.3302 38.8057C29.2814 38.8057 29.1348 38.8057 29.0371 38.8057C28.9394 38.8057 28.8418 38.8057 28.7441 38.8057C28.6464 38.8057 28.5975 38.8545 28.5487 38.8545C28.4998 38.9033 28.451 38.9522 28.4021 39.0011C28.3533 39.0499 28.3044 39.1476 28.3044 39.2453C28.2556 39.3918 28.1579 39.5872 28.1091 39.8314C28.0602 40.0757 27.9625 40.3688 27.8648 40.7107C27.7671 41.0527 27.7183 41.3946 27.6694 41.7365C27.6206 42.0296 27.5717 42.3715 27.5229 42.6646C27.474 42.9577 27.4252 43.2508 27.4252 43.5439C27.3763 43.837 27.3763 44.0324 27.3763 44.2766C27.3763 44.472 27.3763 44.6674 27.4252 44.8139C27.4252 45.0093 27.474 45.1558 27.5717 45.3024C27.6206 45.4489 27.7183 45.5466 27.8648 45.6443C28.0114 45.742 28.1579 45.7908 28.3533 45.7908C28.451 45.7908 28.4998 45.7909 28.5975 45.742C28.6952 45.6932 28.7441 45.6443 28.7929 45.5955C28.8417 45.4978 28.9395 45.4001 28.9883 45.3024C29.0372 45.2047 29.1349 45.0093 29.1837 44.8628L30.5026 41.3457H30.6003C30.6491 41.6388 30.698 41.9319 30.7468 42.225C30.7956 42.5181 30.8934 42.7623 31.0399 43.0065C31.1864 43.2508 31.333 43.4462 31.5772 43.5439C31.8215 43.6904 32.1145 43.7392 32.4565 43.7392C32.6519 43.7392 32.8473 43.6904 33.0426 43.6416C33.0915 43.6416 33.1403 43.5927 33.1403 43.5927C33.1403 43.9346 33.1892 44.2766 33.3846 44.6185C33.5311 44.9605 33.7754 45.2047 34.1173 45.4489C34.4592 45.6443 34.8012 45.7908 35.1919 45.7908C35.7293 45.7908 36.2666 45.5466 36.8039 45.0581L36.6574 45.8886C36.3643 46.1328 36.0712 46.377 35.8758 46.6213C35.6316 46.8655 35.3873 47.1586 35.0454 47.5005C34.8989 47.6959 34.7035 47.8913 34.5569 48.0867C34.4104 48.3309 34.2638 48.4775 34.215 48.624C34.1661 48.7217 34.0196 48.966 33.8242 49.259C33.4823 49.7964 33.3357 50.3337 33.3846 50.8221C33.4334 51.0664 33.4823 51.3106 33.58 51.506C33.6777 51.7014 33.8242 51.848 34.0196 51.9457C34.215 52.0433 34.4104 52.141 34.6058 52.1899C34.8012 52.2387 35.0454 52.2876 35.2896 52.2876C35.5827 52.2876 35.8758 52.2387 36.1689 52.141C36.4131 52.0433 36.6573 51.9456 36.8527 51.7991C37.0481 51.6525 37.1947 51.4572 37.3412 51.2618C37.4878 51.0664 37.6343 50.8222 37.6832 50.6268C37.7808 50.4314 37.8785 50.1871 37.9274 49.8941C37.9762 49.6498 38.0251 49.4056 38.0739 49.2102C38.1228 49.0148 38.1228 48.8194 38.1716 48.5752C38.1716 48.4775 38.2205 48.3309 38.2205 48.1844C38.2693 47.5982 38.3182 47.1586 38.367 46.9632C38.4159 46.7678 38.5136 46.5724 38.6601 46.5236C38.8555 46.377 39.1974 46.1816 39.6859 45.8886C39.7348 45.8886 39.7347 45.8397 39.7836 45.8397C40.0278 45.6443 40.3209 45.4001 40.6629 45.0581L40.7117 45.0093C40.8094 45.1558 40.8582 45.2535 40.9559 45.3512C41.1513 45.5466 41.3467 45.6443 41.5421 45.742C41.7864 45.8397 41.9817 45.8886 42.226 45.8886C42.4702 45.8886 42.6656 45.8397 42.9098 45.7908C43.1541 45.742 43.3495 45.6443 43.5449 45.5466C43.7402 45.4489 43.9356 45.3024 44.131 45.2047C44.3264 45.0581 44.473 44.9604 44.5707 44.8139C44.7172 45.2047 44.9126 45.4489 45.1568 45.6931C45.3522 45.8885 45.6453 45.9863 45.9872 45.9863C46.2803 45.9863 46.5246 45.9374 46.8176 45.7908C47.1107 45.6443 47.3549 45.4978 47.5992 45.3024C47.7946 45.1558 47.9411 45.0093 48.1365 44.8628C48.1365 44.9116 48.1365 44.9605 48.1365 45.0093C48.1365 45.2047 48.1854 45.3512 48.2831 45.4978C48.3319 45.6443 48.4296 45.742 48.5761 45.8397C48.7227 45.9374 48.8692 45.9863 49.0646 45.9863C49.2112 45.9863 49.3577 45.9374 49.5043 45.8886C49.6019 45.8397 49.7485 45.6932 49.8462 45.4978L51.8001 41.8342H51.8978C51.8489 42.225 51.8001 42.5669 51.7512 42.86C51.7024 43.2019 51.7024 43.495 51.7024 43.7881C51.7024 44.5208 51.8001 45.0581 51.9955 45.4001C52.1909 45.7909 52.3863 45.9374 52.6793 45.9374C52.9724 45.9374 53.2166 45.8886 53.4609 45.8397C53.5586 45.8397 53.8028 45.742 54.1936 45.5466C54.3401 45.4978 54.6821 45.3512 55.1705 45.0581V45.107C55.2194 45.3024 55.3171 45.4489 55.4148 45.5466C55.5125 45.6443 55.659 45.742 55.8544 45.8397C56.0498 45.8886 56.2452 45.9374 56.4894 45.9374C56.7825 45.9374 57.0756 45.8885 57.4176 45.7908C57.7106 45.6932 58.0526 45.5466 58.3456 45.4001C58.6387 45.2535 58.9318 45.107 59.176 44.9116C59.2249 44.8628 59.3226 44.8139 59.3715 44.7651C59.4203 44.8628 59.4691 44.9116 59.5668 45.0093C59.8111 45.2535 60.1042 45.4978 60.4461 45.6443C60.788 45.7909 61.1788 45.8886 61.6673 45.8886C61.9115 45.8886 62.2046 45.8397 62.4488 45.7908C62.6931 45.6932 62.9373 45.5955 63.1815 45.4978C63.4258 45.3512 63.6212 45.2535 63.8654 45.0581C64.0608 44.9116 64.2562 44.7162 64.4516 44.5697C64.8912 44.1789 65.282 43.7392 65.6239 43.2508L65.0866 42.6158ZM36.7551 48.3309C36.7062 48.5752 36.7062 48.7706 36.6574 48.9171C36.6574 49.0636 36.6085 49.2102 36.5597 49.3567C36.462 49.6009 36.4131 49.7963 36.3643 49.9429C36.3154 50.0894 36.2666 50.236 36.1689 50.4314C36.12 50.5779 36.0223 50.7245 35.9735 50.7733C35.9246 50.871 35.827 50.9198 35.7781 51.0175C35.6804 51.0664 35.6316 51.1641 35.5339 51.1641C35.4362 51.2129 35.3385 51.2129 35.2408 51.2129C34.8988 51.2129 34.85 50.9687 34.9965 50.5291C35.1919 49.9917 35.4362 49.4544 35.7781 48.9659C36.1201 48.4286 36.462 48.0867 36.8039 47.8425C36.8039 47.9401 36.8039 48.0867 36.7551 48.3309ZM36.9504 42.7623C36.9504 43.1531 36.8528 43.5927 36.6574 43.9835C36.4131 44.472 36.1689 44.7651 35.827 44.7651C35.6316 44.7651 35.485 44.6674 35.3385 44.472C35.1431 44.1789 35.0942 43.7393 35.1919 43.1042C35.2408 42.8112 35.485 42.3227 35.9735 41.5411C36.4131 40.8084 36.9016 40.4665 37.4878 40.4665L36.9504 42.7623ZM44.3264 42.7623C44.3264 42.9088 44.2776 43.1042 44.1799 43.3485C44.131 43.5927 44.0333 43.7881 43.9356 43.9835C43.8379 44.1789 43.6914 44.3743 43.5449 44.5208C43.3983 44.6674 43.2518 44.7651 43.0564 44.7651C42.9587 44.7651 42.861 44.7162 42.7633 44.6674C42.6656 44.6185 42.6167 44.5208 42.5679 44.472C42.5191 44.3743 42.4702 44.2766 42.4702 44.1789C42.4702 44.0812 42.4214 43.9346 42.4214 43.8369C42.4214 43.6416 42.4702 43.3973 42.5191 43.2019C42.5679 42.9577 42.6656 42.7135 42.8121 42.4204C42.9587 42.1273 43.1052 41.8342 43.2518 41.6388C43.3983 41.4434 43.5449 41.248 43.7403 41.1015C43.8868 40.955 44.0822 40.8084 44.2776 40.7107C44.473 40.613 44.6683 40.5642 44.8637 40.5642L44.3264 42.7623Z" fill="#4AA760"/>
<path d="M21.9542 51.7505L23.3708 53.6067C23.7127 54.0463 23.9081 54.4859 23.8592 54.9256C23.8592 55.3652 23.615 55.7071 23.2731 56.0002C22.8823 56.2933 22.4915 56.391 22.0519 56.3422C21.6122 56.2445 21.2215 56.0002 20.8796 55.5606L20.0491 54.4859L18.2906 55.8537L17.7045 55.0721L21.9542 51.7505ZM21.4657 54.9744C21.6611 55.2186 21.9054 55.414 22.1007 55.4629C22.2961 55.5117 22.5404 55.4629 22.7358 55.3163C22.9311 55.1698 23.0288 54.9744 23.0777 54.7302C23.0777 54.4859 22.98 54.2417 22.7846 53.9975L22.003 53.0205L20.733 53.9975L21.4657 54.9744Z" fill="#4AA760"/>
<path d="M26.6925 63.4739L25.862 62.8877L26.3017 61.0315C26.3505 60.885 26.3505 60.6896 26.2528 60.5919C26.204 60.4453 26.0574 60.3477 25.9109 60.25L25.1293 59.7126L23.8593 61.5688L23.0778 61.0315L26.1551 56.6353L28.0602 57.9541C28.5487 58.2961 28.8418 58.6868 28.9883 59.0776C29.086 59.4684 28.9883 59.8592 28.7441 60.2988C28.5487 60.5919 28.3044 60.7873 28.0113 60.885C27.7183 60.9827 27.3763 60.9827 27.0344 60.885C27.2786 61.1292 27.3275 61.4223 27.2298 61.8131L26.6925 63.4739ZM26.5459 59.7126C26.839 59.908 27.1321 60.0057 27.3275 60.0057C27.5717 60.0057 27.7183 59.8592 27.9136 59.6638C28.0602 59.4196 28.109 59.2242 28.0602 59.0288C28.0113 58.8334 27.816 58.5891 27.5229 58.3938L26.5459 57.7099L25.6178 59.0288L26.5459 59.7126Z" fill="#4AA760"/>
<path d="M31.1864 65.1349C30.8934 64.793 30.698 64.4022 30.6003 63.9625C30.5026 63.5229 30.5514 62.9856 30.698 62.4483C30.8445 61.911 31.0887 61.4713 31.4307 61.1294C31.7238 60.7875 32.1145 60.5921 32.5542 60.4455C32.9938 60.3478 33.4334 60.3478 33.9708 60.4944C34.4592 60.6409 34.8989 60.8852 35.1919 61.2271C35.485 61.569 35.6804 61.9598 35.7781 62.3994C35.8758 62.839 35.8269 63.3764 35.6315 63.8648C35.485 64.4022 35.2408 64.8418 34.8988 65.1837C34.6058 65.5257 34.215 65.7211 33.7754 65.8676C33.3357 65.9653 32.8961 65.9653 32.3588 65.8187C31.8703 65.7211 31.4795 65.4768 31.1864 65.1349ZM33.8731 64.9395C34.215 64.6953 34.5081 64.2556 34.7035 63.6695C34.8989 63.0833 34.8989 62.546 34.7035 62.1552C34.5569 61.7644 34.215 61.4713 33.7265 61.3248C33.238 61.1782 32.8472 61.2271 32.4565 61.4713C32.1145 61.7156 31.8215 62.1552 31.6261 62.7414C31.4307 63.3764 31.4307 63.8648 31.6261 64.2556C31.7726 64.6464 32.1146 64.9395 32.603 65.086C33.0915 65.2814 33.4823 65.2326 33.8731 64.9395Z" fill="#4AA760"/>
<path d="M38.6113 61.6175L40.5652 61.5687C41.4445 61.5198 42.1284 61.7641 42.6168 62.2037C43.1053 62.6433 43.3984 63.3272 43.3984 64.1576C43.4472 65.0369 43.203 65.6719 42.7634 66.1603C42.2749 66.6488 41.6399 66.893 40.7606 66.9419L38.8067 66.9908L38.6113 61.6175ZM40.7118 66.1115C41.933 66.0627 42.568 65.4276 42.5191 64.1576C42.4703 62.8876 41.8353 62.3014 40.6141 62.3502L39.686 62.3991L39.8325 66.2092L40.7118 66.1115Z" fill="#4AA760"/>
<path d="M47.7946 65.33C47.3061 65.0857 46.9153 64.6461 46.6711 63.9622L45.5476 60.9826L46.4269 60.6406L47.5503 63.6692C47.6969 64.1088 47.9411 64.4019 48.2342 64.5484C48.5273 64.695 48.8692 64.695 49.26 64.5484C49.6508 64.4019 49.895 64.1576 50.0416 63.8645C50.1392 63.5715 50.1393 63.1807 49.9927 62.7899L48.8692 59.7614L49.7485 59.4194L50.872 62.3991C51.1162 63.083 51.1651 63.6692 50.9208 64.1576C50.6766 64.6461 50.2369 65.0369 49.5531 65.2811C48.8692 65.5254 48.2831 65.5742 47.7946 65.33Z" fill="#4AA760"/>
<path d="M55.8544 61.5202C55.4148 61.5691 54.9752 61.5202 54.5356 61.3248C54.0959 61.1295 53.7052 60.8364 53.3632 60.3968C53.0213 59.9571 52.8259 59.5175 52.7282 59.0779C52.6305 58.6382 52.6794 58.1986 52.8259 57.759C53.0213 57.3194 53.3144 56.9774 53.7051 56.6355C53.9982 56.3913 54.2913 56.2447 54.6333 56.147C54.9752 56.0493 55.2683 56.0005 55.5614 56.0005L55.7567 56.7332C55.4637 56.7332 55.1706 56.7821 54.9263 56.8309C54.6821 56.9286 54.4379 57.0263 54.2425 57.2217C53.8517 57.5636 53.6075 57.9055 53.6075 58.3452C53.6075 58.7848 53.8028 59.2733 54.1936 59.7618C54.5844 60.2502 54.9752 60.5433 55.4148 60.641C55.8544 60.7387 56.2452 60.641 56.6849 60.2991C56.8802 60.1525 57.0756 59.9571 57.2222 59.7129C57.3687 59.5175 57.4664 59.2244 57.5153 58.9313L58.1991 59.2733C58.1503 59.5664 58.0526 59.8594 57.8572 60.1525C57.6618 60.4456 57.4664 60.6898 57.1733 60.9341C56.7337 61.276 56.2941 61.4714 55.8544 61.5202Z" fill="#4AA760"/>
<path d="M61.7649 56.0002L58.0526 53.3624L57.0268 54.779L56.3917 54.2905L58.9807 50.627L59.6157 51.1154L58.5899 52.532L62.3023 55.1698L61.7649 56.0002Z" fill="#4AA760"/>
</svg>
